<?xml version="1.0" standalone="no"?>
<!DOCTYPE svg PUBLIC "-//W3C//DTD SVG 1.1//EN" "http://www.w3.org/Graphics/SVG/1.1/DTD/svg11.dtd" >
<svg xmlns="http://www.w3.org/2000/svg" xmlns:xlink="http://www.w3.org/1999/xlink" version="1.1">
<metadata>
Created by FontForge 20190801 at Tue Jan 12 04:18:47 2021
 By Unknown
Copyright 2021, Kris Sowersby, Klim Type Foundry.
</metadata>
<defs>
<font id="TiemposText-MediumItalic" horiz-adv-x="600" >
  <font-face 
    font-family="Copyright Klim Type Foundry"
    font-weight="500"
    font-style="italic"
    font-stretch="normal"
    units-per-em="1000"
    panose-1="2 2 6 3 6 3 3 13 4 3"
    ascent="800"
    descent="-200"
    x-height="546"
    cap-height="702"
    bbox="-215 -236 1241 1038"
    underline-thickness="30"
    underline-position="-155"
    slope="-12"
    unicode-range="U+000D-FB04"
  />
<missing-glyph horiz-adv-x="960" 
 />
    <glyph glyph-name="ff" unicode="ff" horiz-adv-x="661" 
d="M381 75l71 407h-192l-64 -302q-45 -214 -105.5 -300.5t-148.5 -86.5q-45 0 -73 18t-28 49t19 46.5t41 19.5h19q5 -41 18 -65.5t37 -24.5q11 0 21 7.5t20 31.5t21.5 69t24.5 120l74 418h-80l8 40l84 19q25 107 89 161.5t151 54.5q44 0 83.5 -17.5t64.5 -40.5
q29 33 67.5 50.5t85.5 17.5q52 0 85 -20.5t33 -57.5q0 -23 -13 -40.5t-37 -24.5h-32q1 41 -12.5 71t-43.5 30q-31 0 -54.5 -42t-33.5 -149h123l-8 -52h-120l-61 -290q-45 -218 -105 -302.5t-149 -84.5q-40 0 -62.5 17.5t-22.5 47.5q0 28 17.5 44t39.5 20h17q5 -40 14 -63
t30 -23q11 0 21 7.5t20 31.5t21.5 69t24.5 119zM386 716q-40 0 -77 -37.5t-44 -144.5h197q5 27 12.5 51t17.5 45q-13 34 -41 60t-65 26z" />
    <glyph glyph-name="fi" unicode="fi" horiz-adv-x="653" 
d="M56 482l8 40l84 19q25 107 93 166.5t165 59.5q59 0 98.5 -20.5t39.5 -57.5q0 -23 -15 -39.5t-39 -23.5h-36q-4 42 -19 70.5t-49 28.5q-39 0 -75 -42t-46 -149h246l53 15h30l-105 -423q-4 -14 -6 -25.5t-2 -17.5q0 -7 3.5 -11t10.5 -4q14 0 35.5 17.5t53.5 57.5l23 -23
q-47 -69 -86.5 -99.5t-82.5 -30.5q-34 0 -54 21t-20 55q0 18 3.5 38t9.5 48l82 330h-199l-64 -302q-46 -218 -105.5 -302.5t-148.5 -84.5q-45 0 -73 18t-28 49t19 46.5t41 19.5h19q5 -41 18 -65.5t37 -24.5q11 0 21 7.5t20 31.5t21.5 69t24.5 120l74 418h-80z" />
    <glyph glyph-name="fl" unicode="fl" horiz-adv-x="643" 
d="M56 482l8 40l84 19q25 108 89.5 167t152.5 59q43 0 74.5 -14t50.5 -31l95 39h27l-149 -635q-4 -15 -5.5 -26t-1.5 -17q0 -7 3.5 -11t10.5 -4q14 0 36 17.5t53 57.5l23 -23q-46 -69 -86 -99.5t-83 -30.5q-34 0 -54 21t-20 55q0 18 3 38t10 48l111 487q-10 36 -37.5 62
t-64.5 26q-40 0 -77 -43t-44 -150h113l-8 -52h-110l-64 -302q-46 -218 -105.5 -302.5t-148.5 -84.5q-45 0 -73 18t-28 49t19 46.5t41 19.5h19q5 -41 18 -65.5t37 -24.5q11 0 21 7.5t20 31.5t21.5 69t24.5 120l74 418h-80z" />
    <glyph glyph-name="ffi" unicode="ffi" horiz-adv-x="970" 
d="M381 75l71 407h-192l-64 -302q-45 -214 -105.5 -300.5t-148.5 -86.5q-45 0 -73 18t-28 49t19 46.5t41 19.5h19q5 -41 18 -65.5t37 -24.5q11 0 21 7.5t20 31.5t21.5 69t24.5 120l74 418h-80l8 40l84 19q25 107 89 161.5t151 54.5q47 0 88.5 -19.5t65.5 -44.5q34 36 80 55
t100 19q60 0 99 -20.5t39 -57.5q0 -23 -15 -39.5t-38 -23.5h-36q-4 42 -19.5 70.5t-49.5 28.5q-38 0 -74.5 -42t-46.5 -149h247l52 15h30l-104 -423q-4 -14 -6.5 -25.5t-2.5 -17.5q0 -7 3.5 -11t10.5 -4q14 0 36 17.5t53 57.5l23 -23q-46 -69 -85.5 -99.5t-82.5 -30.5
q-34 0 -54.5 21t-20.5 55q0 18 3.5 38t10.5 48l81 330h-199l-61 -290q-45 -218 -105 -302.5t-149 -84.5q-40 0 -62.5 17.5t-22.5 47.5q0 28 17.5 44t39.5 20h17q5 -40 14 -63t30 -23q11 0 21 7.5t20.5 31.5t21.5 69t24 119zM386 716q-40 0 -77 -37.5t-44 -144.5h197
q5 25 13.5 48t18.5 43q-11 34 -40 62.5t-68 28.5z" />
    <glyph glyph-name="ffl" unicode="ffl" horiz-adv-x="959" 
d="M686 482h-110l-61 -290q-45 -218 -105 -302.5t-149 -84.5q-40 0 -62.5 17.5t-22.5 47.5q0 28 17.5 44t39.5 20h17q5 -40 14 -63t30 -23q11 0 21 7.5t20 31.5t21.5 69t24.5 119l71 407h-192l-64 -302q-45 -214 -105.5 -300.5t-148.5 -86.5q-45 0 -73 18t-28 49t19 46.5
t41 19.5h19q5 -41 18 -65.5t37 -24.5q11 0 21 7.5t20 31.5t21.5 69t24.5 120l74 418h-80l8 40l84 19q25 107 89 161.5t151 54.5q46 0 87 -19t65 -43q33 35 75 53.5t91 18.5q43 0 74.5 -14t51.5 -31l95 39h26l-148 -635q-4 -15 -5.5 -26t-1.5 -17q0 -7 3.5 -11t10.5 -4
q14 0 35.5 17.5t52.5 57.5l24 -23q-47 -69 -86.5 -99.5t-82.5 -30.5q-34 0 -54.5 21t-20.5 55q0 18 3.5 38t9.5 48l112 487q-11 36 -38 62t-64 26q-41 0 -78 -43t-44 -150h113zM265 534h197q6 25 14 48.5t18 43.5q-12 34 -41 62t-67 28q-40 0 -77 -37.5t-44 -144.5z" />
    <glyph glyph-name="f_b" unicode="fb" horiz-adv-x="928" 
d="M56 482l8 40l84 19q25 108 89.5 167t152.5 59q43 0 74.5 -14t50.5 -31l95 39h27l-77 -325l-54 -152h7q59 110 126.5 186t139.5 76q59 0 88 -42.5t29 -109.5q0 -77 -30 -150.5t-79 -129.5t-113 -90t-132 -34q-64 0 -112.5 32.5t-61.5 94.5l120 522q-10 36 -37.5 62
t-64.5 26q-40 0 -77 -43t-44 -150h113l-8 -52h-110l-64 -302q-46 -218 -105.5 -302.5t-148.5 -84.5q-45 0 -73 18t-28 49t19 46.5t41 19.5h19q5 -41 18 -65.5t37 -24.5q11 0 21 7.5t20 31.5t21.5 69t24.5 120l74 418h-80zM723 463q-24 0 -59 -28t-70.5 -75.5t-67 -112.5
t-47.5 -139q1 -31 20 -51.5t48 -20.5q46 0 87.5 33t73 83.5t51 112.5t19.5 119q0 39 -14 59t-41 20z" />
    <glyph glyph-name="f_h" unicode="fh" horiz-adv-x="950" 
d="M56 482l8 40l84 19q25 108 89.5 167t152.5 59q43 0 74.5 -14t50.5 -31l95 39h27l-81 -341l-39 -127h7q26 45 59.5 90.5t70 81.5t75 58.5t74.5 22.5q40 0 57 -21t17 -55q0 -10 -2 -22t-4 -22l-80 -300q-4 -14 -6.5 -25.5t-2.5 -17.5q0 -7 3.5 -11t10.5 -4q14 0 35.5 17.5
t53.5 57.5l23 -23q-47 -69 -86.5 -99.5t-82.5 -30.5q-34 0 -54.5 21t-20.5 55q0 18 3.5 38t10.5 48l72 260q2 10 3.5 18.5t1.5 14.5q0 10 -4 15.5t-14 5.5q-20 0 -54.5 -26t-70.5 -70.5t-69 -104.5t-50 -127l-35 -138h-118l148 639q-10 36 -37.5 62t-64.5 26q-40 0 -77 -43
t-44 -150h113l-8 -52h-110l-64 -302q-46 -218 -105.5 -302.5t-148.5 -84.5q-45 0 -73 18t-28 49t19 46.5t41 19.5h19q5 -41 18 -65.5t37 -24.5q11 0 21 7.5t20 31.5t21.5 69t24.5 120l74 418h-80z" />
    <glyph glyph-name="f_k" unicode="fk" horiz-adv-x="908" 
d="M56 482l8 40l84 19q25 108 89.5 167t152.5 59q43 0 74.5 -14t50.5 -31l95 39h27l-179 -761h-118l148 639q-10 36 -37.5 62t-64.5 26q-40 0 -77 -43t-44 -150h113l-8 -52h-110l-64 -302q-46 -218 -105.5 -302.5t-148.5 -84.5q-45 0 -73 18t-28 49t19 46.5t41 19.5h19
q5 -41 18 -65.5t37 -24.5q11 0 21 7.5t20 31.5t21.5 69t24.5 120l74 418h-80zM642 332l82 -193q12 -29 23.5 -47.5t27.5 -18.5t37 18t46 50l21 -24q-39 -63 -76 -95t-79 -32q-40 0 -64 29.5t-42 75.5l-75 187l178 199q30 34 53.5 49.5t52.5 15.5q34 0 51 -20t17 -44
q0 -28 -16 -46.5t-46 -29.5h-16q0 20 -8.5 33.5t-28.5 13.5q-15 0 -32.5 -9.5t-42.5 -39.5z" />
    <glyph glyph-name="f_f_b" unicode="ffb" horiz-adv-x="1244" 
d="M686 482h-110l-61 -290q-45 -218 -105 -302.5t-149 -84.5q-40 0 -62.5 17.5t-22.5 47.5q0 28 17.5 44t39.5 20h17q5 -40 14 -63t30 -23q11 0 21 7.5t20 31.5t21.5 69t24.5 119l71 407h-192l-64 -302q-45 -214 -105.5 -300.5t-148.5 -86.5q-45 0 -73 18t-28 49t19 46.5
t41 19.5h19q5 -41 18 -65.5t37 -24.5q11 0 21 7.5t20 31.5t21.5 69t24.5 120l74 418h-80l8 40l84 19q25 107 89 161.5t151 54.5q46 0 87 -19t65 -43q33 35 75 53.5t91 18.5q43 0 74.5 -14t51.5 -31l95 39h26l-77 -325l-53 -152h7q59 110 126.5 186t139.5 76q59 0 88 -42.5
t29 -109.5q0 -77 -30 -150.5t-79.5 -129.5t-113.5 -90t-132 -34q-64 0 -112 32.5t-62 94.5l121 522q-11 36 -38 62t-64 26q-41 0 -78 -43t-44 -150h113zM1040 463q-24 0 -59 -28t-71 -75.5t-67.5 -112.5t-47.5 -139q1 -31 20 -51.5t48 -20.5q46 0 87.5 33t73 83.5t51 112.5
t19.5 119q0 39 -14 59t-40 20zM265 534h197q6 25 14 48.5t18 43.5q-12 34 -41 62t-67 28q-40 0 -77 -37.5t-44 -144.5z" />
    <glyph glyph-name="f_f_h" unicode="ffh" horiz-adv-x="1266" 
d="M686 482h-110l-61 -290q-45 -218 -105 -302.5t-149 -84.5q-40 0 -62.5 17.5t-22.5 47.5q0 28 17.5 44t39.5 20h17q5 -40 14 -63t30 -23q11 0 21 7.5t20 31.5t21.5 69t24.5 119l71 407h-192l-64 -302q-45 -214 -105.5 -300.5t-148.5 -86.5q-45 0 -73 18t-28 49t19 46.5
t41 19.5h19q5 -41 18 -65.5t37 -24.5q11 0 21 7.5t20 31.5t21.5 69t24.5 120l74 418h-80l8 40l84 19q25 107 89 161.5t151 54.5q46 0 87 -19t65 -43q33 35 75 53.5t91 18.5q43 0 74.5 -14t51.5 -31l95 39h26l-80 -341l-40 -127h7q26 45 59.5 90.5t70.5 81.5t75.5 58.5
t74.5 22.5q39 0 56 -21t17 -55q0 -10 -2 -22t-4 -22l-80 -300q-4 -14 -6.5 -25.5t-2.5 -17.5q0 -7 3.5 -11t10.5 -4q14 0 36 17.5t53 57.5l24 -23q-47 -69 -86.5 -99.5t-82.5 -30.5q-34 0 -54.5 21t-20.5 55q0 18 3.5 38t10.5 48l71 260q2 10 3.5 18.5t1.5 14.5
q0 10 -3.5 15.5t-13.5 5.5q-21 0 -55 -26t-70 -70.5t-69 -104.5t-50 -127l-35 -138h-119l149 639q-11 36 -38 62t-64 26q-41 0 -78 -43t-44 -150h113zM265 534h197q6 25 14 48.5t18 43.5q-12 34 -41 62t-67 28q-40 0 -77 -37.5t-44 -144.5z" />
    <glyph glyph-name="f_f_k" unicode="ffk" horiz-adv-x="1224" 
d="M686 482h-110l-61 -290q-45 -218 -105 -302.5t-149 -84.5q-40 0 -62.5 17.5t-22.5 47.5q0 28 17.5 44t39.5 20h17q5 -40 14 -63t30 -23q11 0 21 7.5t20 31.5t21.5 69t24.5 119l71 407h-192l-64 -302q-45 -214 -105.5 -300.5t-148.5 -86.5q-45 0 -73 18t-28 49t19 46.5
t41 19.5h19q5 -41 18 -65.5t37 -24.5q11 0 21 7.5t20 31.5t21.5 69t24.5 120l74 418h-80l8 40l84 19q25 107 89 161.5t151 54.5q46 0 87 -19t65 -43q33 35 75 53.5t91 18.5q43 0 74.5 -14t51.5 -31l95 39h26l-179 -761h-118l149 639q-11 36 -38 62t-64 26q-41 0 -78 -43
t-44 -150h113zM958 332l82 -193q12 -29 23.5 -47.5t27.5 -18.5t37 18t46 50l21 -24q-39 -63 -76 -95t-78 -32q-40 0 -64 29.5t-43 75.5l-75 187l178 199q30 34 53.5 49.5t52.5 15.5q35 0 51.5 -20t16.5 -44q0 -28 -16 -46.5t-45 -29.5h-17q0 20 -8.5 33.5t-27.5 13.5
q-15 0 -32.5 -9.5t-42.5 -39.5zM265 534h197q6 25 14 48.5t18 43.5q-12 34 -41 62t-67 28q-40 0 -77 -37.5t-44 -144.5z" />
    <glyph glyph-name="f_j" unicode="fj" horiz-adv-x="616" 
d="M62 64l74 418h-80l8 40l84 19q25 107 93 166.5t165 59.5q59 0 98.5 -20.5t39.5 -57.5q0 -23 -15 -39.5t-39 -23.5h-36q-4 42 -19 70.5t-49 28.5q-39 0 -75 -42t-46 -149h246l53 15h30l-103 -440q-34 -147 -93 -225.5t-146 -78.5q-42 0 -67 18t-25 48q0 31 18 46.5
t41 19.5h16q5 -41 16 -64.5t33 -23.5q25 0 39 38.5t30 110.5l106 484h-199l-64 -302q-46 -218 -105.5 -302.5t-148.5 -84.5q-45 0 -73 18t-28 49t19 46.5t41 19.5h19q5 -41 18 -65.5t37 -24.5q11 0 21 7.5t20 31.5t21.5 69t24.5 120z" />
    <glyph glyph-name="f_f_j" unicode="ffj" horiz-adv-x="932" 
d="M381 75l71 407h-192l-64 -302q-45 -214 -105.5 -300.5t-148.5 -86.5q-45 0 -73 18t-28 49t19 46.5t41 19.5h19q5 -41 18 -65.5t37 -24.5q11 0 21 7.5t20 31.5t21.5 69t24.5 120l74 418h-80l8 40l84 19q25 107 89 161.5t151 54.5q47 0 88.5 -19.5t65.5 -44.5q34 36 80 55
t100 19q60 0 99 -20.5t39 -57.5q0 -23 -15 -39.5t-38 -23.5h-36q-4 42 -19.5 70.5t-49.5 28.5q-38 0 -74.5 -42t-46.5 -149h247l52 15h30l-102 -440q-35 -147 -93.5 -225.5t-145.5 -78.5q-42 0 -67.5 18t-25.5 48q0 31 18.5 46.5t40.5 19.5h17q5 -41 16 -64.5t33 -23.5
q24 0 38 38.5t30 110.5l106 484h-199l-61 -290q-45 -218 -105 -302.5t-149 -84.5q-40 0 -62.5 17.5t-22.5 47.5q0 28 17.5 44t39.5 20h17q5 -40 14 -63t30 -23q11 0 21 7.5t20.5 31.5t21.5 69t24 119zM386 716q-40 0 -77 -37.5t-44 -144.5h197q5 25 13.5 48t18.5 43
q-11 34 -40 62.5t-68 28.5z" />
    <glyph glyph-name="f_idieresis" unicode="f&#xef;" horiz-adv-x="653" 
d="M56 482l8 40l83 19q25 107 89 168t162 61q58 0 97 -21t39 -60q0 -25 -14.5 -43.5t-38.5 -25.5h-43q-3 42 -13 74.5t-44 32.5q-37 0 -71.5 -43t-44.5 -150h246l53 15h30l-105 -423q-4 -14 -6 -25.5t-2 -17.5q0 -7 3.5 -11t10.5 -4q14 0 35.5 17.5t53.5 57.5l23 -23
q-47 -69 -86.5 -99.5t-82.5 -30.5q-34 0 -54 21t-20 55q0 18 3.5 38t9.5 48l82 330h-199l-64 -302q-46 -218 -105.5 -302.5t-148.5 -84.5q-45 0 -73 18t-28 49t19 46.5t41 19.5h19q5 -41 18 -65.5t37 -24.5q11 0 21 7.5t20 31.5t21.5 69t24.5 120l74 418h-80zM655 611
q-30 0 -48.5 19t-18.5 47q0 29 20.5 50.5t51.5 21.5q30 0 48 -19t18 -46q0 -29 -20 -51t-51 -22z" />
    <glyph glyph-name="f_f_idieresis" unicode="ff&#xef;" horiz-adv-x="970" 
d="M62 64l74 418h-80l8 40l84 19q25 107 89 161.5t151 54.5q46 0 86 -18.5t65 -42.5q33 36 77 55t98 19q59 0 98 -21t39 -60q0 -25 -15 -43.5t-38 -25.5h-44q-3 42 -13 74.5t-44 32.5q-37 0 -71.5 -43t-44.5 -150h247l52 15h30l-104 -423q-4 -14 -6.5 -25.5t-2.5 -17.5
q0 -7 3.5 -11t10.5 -4q14 0 36 17.5t53 57.5l23 -23q-46 -69 -85.5 -99.5t-82.5 -30.5q-34 0 -54.5 21t-20.5 55q0 18 3.5 38t10.5 48l81 330h-199l-61 -290q-45 -218 -105 -302.5t-149 -84.5q-40 0 -62.5 17.5t-22.5 47.5q0 28 17.5 44t39.5 20h17q5 -40 14 -63t30 -23
q11 0 21 7.5t20.5 31.5t21.5 69t24 119l71 407h-192l-64 -302q-45 -214 -105.5 -300.5t-148.5 -86.5q-45 0 -73 18t-28 49t19 46.5t41 19.5h19q5 -41 18 -65.5t37 -24.5q11 0 21 7.5t20 31.5t21.5 69t24.5 120zM265 534h197q5 25 13 49t18 44q-12 34 -40.5 61.5t-66.5 27.5
q-40 0 -77 -37.5t-44 -144.5zM971 611q-30 0 -48 19t-18 47q0 29 20 50.5t51 21.5q30 0 48.5 -19t18.5 -46q0 -29 -20.5 -51t-51.5 -22z" />
    <glyph glyph-name=".notdef" horiz-adv-x="960" 
 />
    <glyph glyph-name=".null" horiz-adv-x="0" 
 />
    <glyph glyph-name="nonmarkingreturn" unicode="&#xd;" horiz-adv-x="200" 
 />
    <glyph glyph-name="NULL" horiz-adv-x="0" 
 />
    <glyph glyph-name="NULL" horiz-adv-x="0" 
 />
    <glyph glyph-name="space" unicode=" " horiz-adv-x="200" 
 />
    <glyph glyph-name="exclam" unicode="!" horiz-adv-x="305" 
d="M36 72q0 34 23.5 58t57.5 24t57.5 -24t23.5 -58t-23.5 -58t-57.5 -24t-57.5 24t-23.5 58zM337 702l-166 -488h-59l69 488h156z" />
    <glyph glyph-name="quotedbl" unicode="&#x22;" horiz-adv-x="411" 
d="M156 472h-26l12 145q3 40 6 70.5t16 50.5q8 11 20.5 18.5t32.5 7.5q28 0 41 -16t13 -37q0 -28 -14 -52t-27 -49zM340 472h-26l12 145q3 40 6 70.5t16 50.5q8 11 20.5 18.5t32.5 7.5q28 0 41 -16t13 -37q0 -28 -14 -52t-27 -49z" />
    <glyph glyph-name="numbersign" unicode="#" horiz-adv-x="605" 
d="M522 210h-129l-79 -220l-58 20l72 200h-131l-79 -220l-58 20l72 200h-96v58h117l60 167h-106v58h127l80 220l58 -21l-72 -199h130l80 220l58 -21l-72 -199h96v-58h-117l-61 -167h108v-58zM279 435l-61 -167h131l60 167h-130z" />
    <glyph glyph-name="dollar" unicode="$" horiz-adv-x="564" 
d="M192 -113l21 106q-69 7 -117.5 34t-72.5 52l26 163h51q5 -80 37 -131t87 -64l51 258l-10 6q-75 39 -111.5 86t-36.5 112q0 95 65.5 149t164.5 54h9l20 102h48l-21 -106q51 -7 90.5 -26t67.5 -43l-29 -146h-47q-7 59 -28.5 101t-65.5 57l-47 -239q77 -41 122 -88t45 -119
q0 -53 -22 -93.5t-57 -67t-80.5 -40.5t-91.5 -14l-20 -103h-48zM397 163q0 38 -18.5 64.5t-60.5 53.5l-47 -238q52 1 89 30.5t37 89.5zM224 546q0 -36 18.5 -61t58.5 -50l44 224h-3q-59 0 -88.5 -31.5t-29.5 -81.5z" />
    <glyph glyph-name="percent" unicode="%" horiz-adv-x="885" 
d="M273 669q-24 0 -43.5 -16.5t-33.5 -43.5t-22 -62t-8 -70q0 -37 13 -63.5t50 -26.5q24 0 43.5 16.5t34 43.5t22.5 61.5t8 70.5q0 37 -13.5 63.5t-50.5 26.5zM114 -19l611 741h65l-611 -741h-65zM227 343q-65 0 -109.5 41.5t-44.5 111.5q0 51 18 91.5t47 68t65.5 42
t72.5 14.5q64 0 108.5 -41t44.5 -112q0 -51 -18 -91.5t-47 -68t-65 -42t-72 -14.5zM631 34q24 0 43.5 16.5t34 43.5t22.5 62t8 70q0 38 -13.5 64.5t-50.5 26.5q-24 0 -43.5 -16.5t-33.5 -43.5t-22 -62t-8 -70q0 -38 13 -64.5t50 -26.5zM678 360q64 0 108.5 -41.5
t44.5 -111.5q0 -51 -18 -91.5t-47 -68t-65 -42t-72 -14.5q-65 0 -109.5 41t-44.5 112q0 51 18 91.5t47 68t65.5 42t72.5 14.5z" />
    <glyph glyph-name="ampersand" unicode="&#x26;" horiz-adv-x="703" 
d="M17 171q0 84 61 138.5t146 81.5q-14 24 -26.5 57t-12.5 73q0 81 58.5 136t153.5 55q81 0 124 -37t43 -96q0 -68 -57 -113t-148 -75l132 -205q19 31 30 64t11 66q0 19 -9 27t-31 8l9 47h207l-9 -47q-57 0 -77.5 -14.5t-36.5 -57.5q-13 -36 -30.5 -69.5t-38.5 -62.5l30 -46
q18 -28 41.5 -41t60.5 -13l-9 -47h-141q-19 12 -35 27.5t-30 34.5q-44 -34 -97.5 -53t-116.5 -19q-81 0 -141.5 45.5t-60.5 135.5zM275 52q34 0 68.5 12.5t64.5 34.5l-2 4l-160 253q-47 -22 -78 -64.5t-31 -100.5q0 -60 37.5 -99.5t100.5 -39.5zM286 558q0 -38 16.5 -72
t33.5 -59l2 -4q61 22 94 56.5t33 96.5q0 44 -22 66.5t-60 22.5q-37 0 -67 -28t-30 -79z" />
    <glyph glyph-name="quotesingle" unicode="'" horiz-adv-x="226" 
d="M156 472h-26l12 145q3 40 6 70.5t16 50.5q8 11 20.5 18.5t32.5 7.5q28 0 41 -16t13 -37q0 -28 -14 -52t-27 -49z" />
    <glyph glyph-name="parenleft" unicode="(" horiz-adv-x="353" 
d="M61 192q0 165 86.5 319t222.5 259h66q-76 -67 -129.5 -145t-86.5 -158t-47.5 -159t-14.5 -148q0 -82 20 -158.5t69 -142.5h-64q-60 64 -91 152.5t-31 180.5z" />
    <glyph glyph-name="parenright" unicode=")" horiz-adv-x="353" 
d="M322 437q0 -164 -86.5 -318.5t-222.5 -259.5h-66q77 67 130.5 145t86 158t47 159t14.5 148q0 82 -20 158.5t-68 142.5h63q60 -64 91 -152.5t31 -180.5z" />
    <glyph glyph-name="asterisk" unicode="*" horiz-adv-x="455" 
d="M404 405l-95 136l-33 -162l-70 24l70 149l-157 -52l-15 73l164 14l-122 110l54 50l96 -137l33 162l70 -23l-71 -150l158 52l15 -73l-165 -13l124 -110z" />
    <glyph glyph-name="plus" unicode="+" horiz-adv-x="575" 
d="M313 591h71l-40 -186h188l-16 -72h-187l-39 -186h-70l39 186h-188l17 72h186z" />
    <glyph glyph-name="comma" unicode="," horiz-adv-x="320" 
d="M133 10h-32q-23 6 -37 21.5t-14 43.5q0 30 20.5 51t53.5 21q38 0 61 -25t23 -68q0 -66 -56.5 -124.5t-146.5 -63.5v45q55 9 88 35t40 64z" />
    <glyph glyph-name="hyphen" unicode="-" horiz-adv-x="360" 
d="M291 261h-246l22 88h246z" />
    <glyph glyph-name="period" unicode="." horiz-adv-x="320" 
d="M46 73q0 36 24.5 60t58.5 24q35 0 59.5 -24t24.5 -60q0 -35 -24.5 -59t-59.5 -24q-34 0 -58.5 24t-24.5 59z" />
    <glyph glyph-name="slash" unicode="/" horiz-adv-x="411" 
d="M490 770l-471 -911h-75l471 911h75z" />
    <glyph glyph-name="zero" unicode="0" horiz-adv-x="642" 
d="M279 46q50 0 90 43.5t67 107.5t41.5 138.5t14.5 136.5q0 79 -22 131.5t-77 52.5q-50 0 -89.5 -43.5t-67 -107.5t-42 -139t-14.5 -137q0 -78 22 -130.5t77 -52.5zM271 -10q-106 0 -163.5 77.5t-57.5 189.5q0 82 24.5 164t70 146t111 104t146.5 40q105 0 162.5 -77
t57.5 -189q0 -83 -24.5 -165t-69.5 -146t-110.5 -104t-146.5 -40z" />
    <glyph glyph-name="one" unicode="1" horiz-adv-x="431" 
d="M354 711h34l-122 -570q-2 -13 -4 -24t-2 -19q0 -30 22.5 -38t88.5 -12l-8 -48h-372l9 48q74 4 100.5 15t36.5 57l93 437h-133l8 41l39 6q73 12 116.5 34t93.5 73z" />
    <glyph glyph-name="two" unicode="2" horiz-adv-x="554" 
d="M138 101h146q33 0 55 3t40.5 13.5t36.5 31t43 54.5h38l-66 -203h-459l7 32q131 107 213 180t127.5 125t61.5 92t16 81q0 49 -28 78t-79 29q-60 0 -101.5 -28t-74.5 -63l-23 29q39 65 101 111t151 46q87 0 136 -47t49 -125q0 -60 -30.5 -112.5t-83 -103.5t-124 -105.5
t-152.5 -117.5z" />
    <glyph glyph-name="three" unicode="3" horiz-adv-x="544" 
d="M192 331l-6 38q41 12 79.5 28.5t68 38t47 48t17.5 58.5q0 37 -24 58t-67 21q-46 0 -86 -22.5t-76 -60.5l-24 31q41 60 101 101.5t141 41.5q76 0 118 -38.5t42 -95.5q0 -41 -18 -72t-45.5 -53.5t-60.5 -37t-63 -22.5q70 -9 115 -53.5t45 -108.5q0 -61 -24.5 -106.5
t-63.5 -75t-88 -44.5t-98 -15q-111 0 -163.5 46t-52.5 100q0 36 18 59t42 33h70q-7 -19 -11 -36.5t-4 -41.5q0 -43 25 -77.5t80 -34.5q64 0 106 45.5t42 123.5q0 57 -33 94t-89 37q-15 0 -28 -1.5t-32 -5.5z" />
    <glyph glyph-name="four" unicode="4" horiz-adv-x="620" 
d="M93 240h253l66 315zM320 119l13 61h-333l9 46l479 476h77l-97 -462h120l-13 -60h-120l-11 -50q-2 -10 -3.5 -20t-1.5 -15q0 -28 21 -37.5t63 -10.5l-8 -47h-316l9 47q51 2 77 15t35 57z" />
    <glyph glyph-name="five" unicode="5" horiz-adv-x="550" 
d="M552 702l-35 -116h-279l-44 -130q61 -1 116.5 -14t97 -39t66 -69t24.5 -104q0 -108 -76 -174t-186 -66t-163 45.5t-53 99.5q0 32 16.5 55.5t40.5 33.5h67q-7 -19 -9.5 -35t-2.5 -33q0 -47 27.5 -81t87.5 -34q65 0 102.5 40.5t37.5 109.5q0 48 -22 79t-60 49t-89 25.5
t-108 7.5l118 350h326z" />
    <glyph glyph-name="six" unicode="6" horiz-adv-x="602" 
d="M556 711l10 -38q-128 -39 -225.5 -111t-137.5 -186q33 32 75.5 53.5t92.5 21.5q90 0 140 -54.5t50 -137.5q0 -58 -22 -107.5t-58.5 -85t-86 -56t-104.5 -20.5q-110 0 -173.5 68t-63.5 178q0 87 36.5 166t102.5 141.5t159 106.5t205 61zM315 389q-37 0 -68 -15t-56 -36
q-7 -27 -10 -55.5t-3 -59.5q0 -78 29 -129.5t89 -51.5q69 0 106.5 60.5t37.5 139.5q0 63 -31.5 105t-93.5 42z" />
    <glyph glyph-name="seven" unicode="7" horiz-adv-x="513" 
d="M469 585h-252q-37 0 -59 -15t-50 -57h-43l81 189h439l-6 -33l-421 -669h-117z" />
    <glyph glyph-name="eight" unicode="8" horiz-adv-x="583" 
d="M566 548q0 -69 -54.5 -110t-119.5 -55l24 -15q49 -31 79 -71t30 -97q0 -94 -71 -152t-181 -58t-175 51t-65 130q0 73 55.5 118t132.5 60l-14 12q-31 24 -55 60t-24 87q0 86 64 145t168 59q89 0 147.5 -42.5t58.5 -121.5zM336 279l-87 54q-56 -27 -82 -68t-26 -90
q0 -60 36 -96.5t99 -36.5q54 0 96.5 31.5t42.5 87.5q0 41 -20.5 68t-58.5 50zM299 442l67 -42q46 25 73 61t27 87q0 49 -28 80.5t-81 31.5q-50 0 -85 -29.5t-35 -81.5q0 -37 15.5 -62.5t46.5 -44.5z" />
    <glyph glyph-name="nine" unicode="9" horiz-adv-x="602" 
d="M79 -9l-10 38q128 39 225.5 111t137.5 186q-33 -32 -75.5 -53.5t-92.5 -21.5q-90 0 -140 54.5t-50 137.5q0 58 22 107.5t58.5 85t86 56t104.5 20.5q110 0 173.5 -68t63.5 -178q0 -87 -36.5 -166t-102.5 -141.5t-159 -106.5t-205 -61zM320 313q36 0 67 14.5t56 36.5
q7 26 10.5 55t3.5 60q0 78 -29 129.5t-89 51.5q-69 0 -106.5 -60.5t-37.5 -139.5q0 -63 31.5 -105t93.5 -42z" />
    <glyph glyph-name="colon" unicode=":" horiz-adv-x="320" 
d="M46 73q0 36 24.5 60t58.5 24q35 0 59.5 -24t24.5 -60q0 -35 -24.5 -59t-59.5 -24q-34 0 -58.5 24t-24.5 59zM108 381q0 36 24.5 60t58.5 24q35 0 59.5 -24t24.5 -60q0 -35 -24.5 -59t-59.5 -24q-34 0 -58.5 24t-24.5 59z" />
    <glyph glyph-name="semicolon" unicode=";" horiz-adv-x="320" 
d="M108 381q0 36 24.5 60t58.5 24q35 0 59.5 -24t24.5 -60q0 -35 -24.5 -59t-59.5 -24q-34 0 -58.5 24t-24.5 59zM133 10h-32q-23 6 -37 21.5t-14 43.5q0 30 20.5 51t53.5 21q38 0 61 -25t23 -68q0 -66 -56.5 -124.5t-146.5 -63.5v45q55 9 88 35t40 64z" />
    <glyph glyph-name="less" unicode="&#x3c;" horiz-adv-x="428" 
d="M63 362l3 10l359 195l-17 -89l-220 -115l170 -114l-17 -82z" />
    <glyph glyph-name="equal" unicode="=" horiz-adv-x="586" 
d="M64 261l14 69h445l-15 -69h-444zM94 408l15 70h444l-14 -70h-445z" />
    <glyph glyph-name="greater" unicode="&#x3e;" horiz-adv-x="428" 
d="M401 372l-2 -10l-360 -195l19 90l218 114l-171 115l19 81z" />
    <glyph glyph-name="question" unicode="?" horiz-adv-x="451" 
d="M98 72q0 34 23.5 58t57.5 24t57.5 -24t23.5 -58t-23.5 -58t-57.5 -24t-57.5 24t-23.5 58zM279 448q48 28 73.5 55t25.5 75q0 37 -22 60t-61 23q-43 0 -66.5 -28.5t-23.5 -72.5q0 -11 2 -21t3 -18h-85q-10 9 -17.5 24t-7.5 34q0 59 57.5 95.5t141.5 36.5q87 0 137.5 -42.5
t50.5 -112.5q0 -71 -42 -111t-102 -72q-51 -28 -85.5 -58t-34.5 -76q0 -8 1 -14l2 -12h-32q-16 18 -25.5 39t-9.5 45q0 48 34 84.5t86 66.5z" />
    <glyph glyph-name="at" unicode="@" horiz-adv-x="909" 
d="M619 76q-75 0 -92.5 56t1.5 122h-6q-31 -73 -77.5 -125.5t-97.5 -52.5q-43 0 -69.5 33.5t-26.5 92.5q0 55 20.5 108.5t54.5 95.5t79 67.5t93 25.5q28 0 51 -9.5t38 -24.5l57 35h42l-29 -90l-50 -200q-7 -28 -3.5 -58.5t34.5 -30.5q43 0 73.5 29t49 70.5t27 88t8.5 80.5
q0 112 -71.5 186t-205.5 74q-83 0 -154.5 -36t-123.5 -95.5t-82 -138t-30 -162.5q0 -140 91 -220.5t232 -80.5q76 0 139.5 17t130.5 54l13 -30q-53 -43 -130.5 -68.5t-167.5 -25.5q-83 0 -153.5 24.5t-120.5 69.5t-78.5 110.5t-28.5 146.5q0 91 35 178t97 153t147.5 106.5
t186.5 40.5q161 0 251 -86.5t90 -215.5q0 -51 -14.5 -106.5t-44.5 -101.5t-76.5 -76t-108.5 -30zM390 145q40 0 90 78.5t81 198.5q-9 19 -22 27.5t-31 8.5q-34 0 -63 -25t-49.5 -62t-32 -81t-11.5 -82q0 -30 9.5 -46.5t28.5 -16.5z" />
    <glyph glyph-name="A" unicode="A" horiz-adv-x="730" 
d="M490 131l-19 92h-282l-57 -92q-9 -14 -14 -26.5t-5 -22.5q0 -19 19.5 -26.5t60.5 -8.5l-9 -47h-226l10 47q22 4 38.5 10.5t29.5 26.5l346 555l-18 70h132l133 -625q4 -19 18 -26.5t35 -10.5l-8 -47h-288l10 47q42 2 69 11t28 42q0 7 -1 15zM402 568l-179 -290h237z" />
    <glyph glyph-name="B" unicode="B" horiz-adv-x="692" 
d="M-13 0l11 47q50 2 75.5 15t34.5 57l97 453q1 10 2.5 20t1.5 15q0 28 -19 37.5t-64 10.5l9 47h318q104 0 161 -39t57 -114q0 -46 -19 -80t-49.5 -57.5t-69 -36t-78.5 -14.5q81 -6 130.5 -43.5t49.5 -105.5q0 -101 -84.5 -156.5t-213.5 -55.5h-350zM357 333h-79l-44 -207
q-1 -9 -2.5 -17t-1.5 -15q0 -24 20 -33.5t63 -9.5h15q79 0 129 40.5t50 121.5q0 56 -34 88t-116 32zM412 649h-67l-56 -264h58q84 0 140 37t56 122q0 51 -32 78t-99 27z" />
    <glyph glyph-name="C" unicode="C" horiz-adv-x="677" 
d="M350 -10q-138 0 -214.5 76t-76.5 203q0 90 32 171t88 141t132.5 95.5t164.5 35.5q67 0 123.5 -18t92.5 -48l-31 -152h-52q-6 81 -39.5 122t-97.5 41q-65 0 -117.5 -35t-88.5 -90.5t-55 -125.5t-19 -139q0 -104 43 -161.5t121 -57.5q75 0 121.5 44t95.5 140h58l-46 -177
q-49 -28 -107.5 -46.5t-127.5 -18.5z" />
    <glyph glyph-name="D" unicode="D" horiz-adv-x="760" 
d="M405 649h-60l-108 -510q-3 -13 -4 -23.5t-1 -16.5q0 -28 16.5 -36.5t57.5 -8.5h8q64 0 118.5 28t94 77t61.5 116.5t22 144.5q0 96 -45 162.5t-160 66.5zM-13 0l11 47q50 2 75.5 15t34.5 57l97 453q1 10 2.5 20t1.5 15q0 28 -19 37.5t-64 10.5l9 47h285q167 0 245 -81.5
t78 -206.5q0 -90 -33.5 -166t-92.5 -131t-140 -86t-175 -31h-315z" />
    <glyph glyph-name="E" unicode="E" horiz-adv-x="671" 
d="M-13 0l11 47q50 2 75.5 15t34.5 57l97 453q1 10 2.5 20t1.5 15q0 28 -19 37.5t-64 10.5l9 47h564l-37 -174h-41q-13 63 -31 92t-79 29h-166l-56 -262h135q33 0 53.5 20.5t37.5 65.5h43l-48 -227h-43q0 46 -10.5 66.5t-44.5 20.5h-134l-41 -197q-3 -12 -4 -22t-1 -15
q0 -28 20 -37t63 -9h60q63 0 103.5 28.5t103.5 106.5h44l-70 -188h-569z" />
    <glyph glyph-name="F" unicode="F" horiz-adv-x="617" 
d="M-13 0l11 47q50 2 75.5 15t34.5 57l97 453q1 10 2.5 20t1.5 15q0 28 -19 37.5t-64 10.5l9 47h545l-38 -179h-41q-13 64 -31 95t-79 31h-145l-59 -275h114q34 0 54 20.5t37 65.5h43l-47 -227h-43q0 46 -10.5 66.5t-44.5 20.5h-115l-38 -183q-2 -10 -4 -21t-2 -18
q0 -33 29.5 -41.5t83.5 -10.5l-9 -46h-348z" />
    <glyph glyph-name="G" unicode="G" horiz-adv-x="740" 
d="M59 270q0 89 33 169.5t90.5 141t135.5 96t167 35.5q65 0 122 -18t93 -48l-32 -152h-51q-6 81 -40.5 122t-98.5 41q-66 0 -119 -35t-90 -91t-57 -126.5t-20 -140.5q0 -104 46.5 -160t124.5 -56q39 0 66 7.5t55 23.5l33 130q2 11 3.5 20.5t1.5 14.5q0 28 -19.5 37t-64.5 10
l10 48h299l-10 -48q-50 -1 -71 -14.5t-31 -56.5l-38 -158q-54 -34 -114 -53t-126 -19q-138 0 -218 74t-80 206z" />
    <glyph glyph-name="H" unicode="H" horiz-adv-x="851" 
d="M791 583l-97 -453q-1 -10 -2.5 -20t-1.5 -15q0 -28 19 -37.5t64 -10.5l-9 -47h-317l10 47q50 2 75.5 15t35.5 57l45 214h-335l-43 -203q-1 -10 -2.5 -20t-1.5 -15q0 -28 19 -37.5t64 -10.5l-9 -47h-318l11 47q50 2 75.5 15t34.5 57l97 453q1 10 2.5 20t1.5 15
q0 28 -19 37.5t-64 10.5l9 47h318l-11 -47q-50 -2 -75.5 -15t-34.5 -57l-42 -196h335l39 185q1 10 2.5 20t1.5 15q0 28 -18.5 37.5t-64.5 10.5l10 47h317l-11 -47q-49 -2 -75 -15t-35 -57z" />
    <glyph glyph-name="I" unicode="I" horiz-adv-x="391" 
d="M332 583l-97 -453q-1 -10 -2.5 -20t-1.5 -15q0 -28 19 -37.5t64 -10.5l-9 -47h-318l11 47q50 2 75.5 15t34.5 57l97 453q1 10 2.5 20t1.5 15q0 28 -19 37.5t-64 10.5l9 47h318l-11 -47q-50 -2 -75.5 -15t-34.5 -57z" />
    <glyph glyph-name="J" unicode="J" horiz-adv-x="535" 
d="M289 179l82 393q2 10 3.5 20t1.5 15q0 28 -19 37.5t-65 10.5l10 47h317l-10 -47q-50 -2 -75.5 -15t-35.5 -57l-81 -383q-24 -111 -89 -160.5t-166 -49.5q-95 0 -136.5 36.5t-41.5 87.5q0 29 14.5 51t33.5 32h90q-9 -21 -13 -40.5t-4 -37.5q0 -36 17 -57t49 -21
q43 0 72.5 30.5t45.5 107.5z" />
    <glyph glyph-name="K" unicode="K" horiz-adv-x="735" 
d="M416 392l159 -268q26 -43 50 -60t67 -17l-9 -47h-165q-22 19 -42 48t-45 71l-136 238l278 229q15 13 23.5 23t8.5 18q0 13 -19.5 19.5t-50.5 8.5l11 47h257l-10 -47q-36 -1 -61 -12t-56 -38zM332 583l-97 -453q-1 -10 -2.5 -20t-1.5 -15q0 -28 19 -37.5t64 -10.5l-9 -47
h-318l11 47q50 2 75.5 15t34.5 57l97 453q1 10 2.5 20t1.5 15q0 28 -19 37.5t-64 10.5l9 47h318l-11 -47q-50 -2 -75.5 -15t-34.5 -57z" />
    <glyph glyph-name="L" unicode="L" horiz-adv-x="631" 
d="M332 583l-96 -450q-2 -10 -3.5 -19.5t-1.5 -14.5q0 -26 19.5 -35.5t62.5 -9.5h43q61 0 101 34t105 120h49l-78 -208h-546l11 47q50 2 75.5 15t34.5 57l97 453q1 10 2.5 20t1.5 15q0 28 -19 37.5t-64 10.5l9 47h318l-11 -47q-50 -2 -75.5 -15t-34.5 -57z" />
    <glyph glyph-name="M" unicode="M" horiz-adv-x="964" 
d="M714 136l29 395l-314 -531h-42l-93 538l-143 -399q-4 -13 -6.5 -24.5t-2.5 -20.5q0 -26 20 -35.5t64 -11.5l-9 -47h-250l10 47q43 2 63.5 14t33.5 47l178 483q2 37 -12.5 49.5t-61.5 14.5l10 47h204q0 -15 1 -29.5t3 -30.5l75 -467l274 469q9 16 15.5 28.5t12.5 29.5h207
l-10 -47q-50 -2 -71 -17.5t-29 -55.5l-35 -474q-2 -36 13.5 -47.5t58.5 -13.5l-9 -47h-306l9 47q48 2 78.5 18t34.5 71z" />
    <glyph glyph-name="N" unicode="N" horiz-adv-x="791" 
d="M594 198l79 374q2 10 3.5 20t1.5 15q0 28 -19 37.5t-65 10.5l10 47h260l-10 -47q-50 -2 -76 -15t-35 -57l-122 -583h-54l-302 541l-86 -411q-2 -10 -3.5 -20t-1.5 -15q0 -28 19 -37.5t65 -10.5l-10 -47h-261l11 47q50 2 75.5 15t34.5 57l103 481q-21 34 -36.5 44
t-49.5 11l10 47h187z" />
    <glyph glyph-name="O" unicode="O" horiz-adv-x="733" 
d="M332 48q58 0 104.5 34.5t79 90t50 124.5t17.5 138q0 94 -33 156.5t-107 62.5q-57 0 -103.5 -34.5t-79 -89.5t-50 -124.5t-17.5 -137.5q0 -94 32.5 -157t106.5 -63zM330 -10q-130 0 -200.5 80.5t-70.5 204.5q0 87 29.5 166.5t81 139t122.5 95.5t153 36q131 0 201 -80
t70 -204q0 -87 -29 -166.5t-80.5 -139.5t-122.5 -96t-154 -36z" />
    <glyph glyph-name="P" unicode="P" horiz-adv-x="641" 
d="M267 282l-30 -145q-2 -10 -4 -21t-2 -18q0 -33 29.5 -41.5t83.5 -10.5l-9 -46h-348l11 47q50 2 75.5 15t34.5 57l97 453q1 10 2.5 20t1.5 15q0 28 -19 37.5t-64 10.5l9 47h306q122 0 177.5 -52.5t55.5 -130.5q0 -115 -91.5 -176t-232.5 -61h-83zM345 649l-68 -316h64
q90 0 147.5 44t57.5 139q0 61 -35 97t-106 36h-60z" />
    <glyph glyph-name="Q" unicode="Q" horiz-adv-x="733" 
d="M326 -84l-38 77q-110 13 -168.5 91t-58.5 191q0 87 29.5 166.5t81 139t122.5 95.5t153 36q131 0 201 -80t70 -204q0 -78 -23.5 -150t-65.5 -129.5t-100.5 -97.5t-128.5 -54l39 -49q31 -40 59 -61t70 -25l-5 -24q-19 -10 -41.5 -15t-48.5 -5q-53 0 -86.5 22t-60.5 76z
M334 48q58 0 104.5 34.5t79 90t50 124.5t17.5 138q0 94 -33 156.5t-107 62.5q-57 0 -103.5 -34.5t-79 -89.5t-50 -124.5t-17.5 -137.5q0 -94 32.5 -157t106.5 -63z" />
    <glyph glyph-name="R" unicode="R" horiz-adv-x="706" 
d="M391 649h-48l-61 -292h42q93 0 153 39t60 129q0 57 -34.5 90.5t-111.5 33.5zM271 306l-37 -176q-2 -10 -3.5 -20t-1.5 -15q0 -28 19 -37.5t65 -10.5l-10 -47h-316l11 47q50 2 75.5 15t34.5 57l97 453q1 10 2.5 20t1.5 15q0 28 -19 37.5t-64 10.5l9 47h304
q113 0 170 -45.5t57 -130.5q0 -89 -66.5 -141t-159.5 -64l104 -186q27 -47 48 -67t70 -21l-10 -47h-159q-24 22 -41 50.5t-36 65.5l-96 190h-49z" />
    <glyph glyph-name="S" unicode="S" horiz-adv-x="568" 
d="M258 -10q-86 0 -146.5 30t-88.5 59l26 163h51q6 -93 48 -146t116 -53q54 0 93.5 29.5t39.5 90.5q0 49 -30.5 80t-101.5 68q-75 39 -111.5 86t-36.5 112q0 95 65.5 149t164.5 54q72 0 125 -21t89 -52l-29 -146h-47q-8 74 -40 120t-103 46q-59 0 -88.5 -31.5t-29.5 -81.5
q0 -43 26.5 -71t85.5 -59q81 -42 128 -89t47 -122q0 -54 -22 -94.5t-57.5 -67t-81 -40t-92.5 -13.5z" />
    <glyph glyph-name="T" unicode="T" horiz-adv-x="692" 
d="M138 702h614l-31 -217h-44q-21 97 -41 131.5t-86 34.5h-55l-109 -517q-3 -13 -4 -23t-1 -15q0 -28 23.5 -38t69.5 -11l-10 -47h-335l10 47q50 2 80 15t39 57l113 532h-54q-33 0 -56 -7.5t-43.5 -26.5t-42.5 -51t-54 -81h-45z" />
    <glyph glyph-name="U" unicode="U" horiz-adv-x="766" 
d="M590 254l67 318q2 10 3.5 20t1.5 15q0 28 -19 37.5t-64 10.5l9 47h260l-10 -47q-50 -2 -76 -15t-35 -57l-74 -351q-26 -126 -107.5 -184t-185.5 -58q-119 0 -183.5 55.5t-64.5 158.5q0 16 2 34.5t6 39.5l61 294q2 10 3.5 20t1.5 15q0 28 -19 37.5t-65 10.5l10 47h317
l-10 -47q-50 -2 -75.5 -15t-35.5 -57l-65 -308q-4 -17 -6 -32.5t-2 -30.5q0 -68 37 -108.5t106 -40.5q81 0 135.5 42t76.5 149z" />
    <glyph glyph-name="V" unicode="V" horiz-adv-x="713" 
d="M376 160l248 411q9 14 13.5 25.5t4.5 21.5q0 20 -20.5 27.5t-59.5 9.5l11 47h232l-11 -47q-22 -4 -39 -10.5t-30 -26.5l-387 -626h-39l-150 626q-4 20 -17.5 26.5t-34.5 10.5l10 47h286l-11 -47q-40 -2 -68.5 -12.5t-29.5 -45.5q0 -6 1 -13t3 -15z" />
    <glyph glyph-name="W" unicode="W" horiz-adv-x="988" 
d="M686 175l216 391q9 16 15 30t6 26q0 18 -19.5 25t-59.5 8l11 47h224l-10 -47q-21 -4 -39 -10t-31 -27l-357 -626h-43l-59 418l-238 -418h-42l-111 626q-3 19 -17.5 26t-34.5 11l10 47h282l-10 -47q-40 -2 -67 -11t-28 -49q0 -5 1 -13.5t2 -18.5l62 -391l180 316l-19 130
q-2 21 -16 27t-34 10l11 47h273l-11 -47q-43 -2 -70 -12.5t-27 -50.5q0 -6 0.5 -12.5t1.5 -14.5z" />
    <glyph glyph-name="X" unicode="X" horiz-adv-x="716" 
d="M678 609l-231 -233l147 -283q12 -23 29 -34t45 -12l-9 -47h-294l9 47q32 0 57 5.5t26 30.5q0 9 -4 19.5t-11 26.5l-93 178l-169 -176q-19 -19 -28 -32.5t-9 -24.5q0 -14 16 -20t58 -7l-9 -47h-248l10 47q29 0 50.5 10.5t46.5 35.5l257 262l-135 254q-12 22 -28 33.5
t-44 12.5l10 47h298l-11 -47q-38 0 -61.5 -6.5t-24.5 -28.5q0 -8 4 -19.5t12 -27.5l78 -148l143 146q19 18 27 31t9 25q0 15 -18 21t-55 7l11 47h246l-11 -47q-29 0 -50 -10.5t-46 -35.5z" />
    <glyph glyph-name="Y" unicode="Y" horiz-adv-x="674" 
d="M381 332l192 235q14 17 22 30.5t8 23.5q0 17 -17 24t-60 10l10 47h230l-11 -47q-22 -4 -37.5 -11t-31.5 -26l-283 -343l-31 -145q-3 -10 -4 -19.5t-1 -14.5q0 -28 23.5 -38t69.5 -11l-10 -47h-329l10 47q50 2 80 15t40 57l33 156l-135 343q-7 19 -19 26t-33 11l10 47h282
l-11 -47q-39 0 -66 -8t-28 -38q0 -9 3 -19.5t7 -22.5z" />
    <glyph glyph-name="Z" unicode="Z" horiz-adv-x="620" 
d="M148 54h190q33 0 57 8t45.5 26t45.5 47.5t56 72.5h47l-77 -208h-534l6 32l522 615h-175q-61 0 -91 -31t-80 -106h-42l41 192h518l-8 -33z" />
    <glyph glyph-name="bracketleft" unicode="[" horiz-adv-x="326" 
d="M260 672l-152 -713q-1 -6 -2 -10.5t-1 -8.5q0 -27 26 -33.5t77 -9.5l-8 -38h-199l194 911h198l-8 -38q-60 -4 -88.5 -12.5t-36.5 -47.5z" />
    <glyph glyph-name="backslash" unicode="\" horiz-adv-x="411" 
d="M246 -141l-85 911h71l85 -911h-71z" />
    <glyph glyph-name="bracketright" unicode="]" horiz-adv-x="326" 
d="M91 -43l153 713q1 6 1.5 10.5t0.5 8.5q0 27 -26 33t-77 10l9 38h198l-194 -911h-198l8 38q60 4 88.5 12.5t36.5 47.5z" />
    <glyph glyph-name="asciicircum" unicode="^" horiz-adv-x="470" 
d="M301 770h86l91 -290h-77l-67 221l-159 -221h-87z" />
    <glyph glyph-name="underscore" unicode="_" horiz-adv-x="440" 
d="M352 -135h-399l13 69h400z" />
    <glyph glyph-name="grave" unicode="`" horiz-adv-x="500" 
d="M155 763h141l55 -167h-56z" />
    <glyph glyph-name="a" unicode="a" horiz-adv-x="626" 
d="M200 73q54 0 121.5 105.5t108.5 274.5q-12 23 -28.5 34.5t-41.5 11.5q-46 0 -84.5 -32t-66.5 -81t-44 -110t-16 -118q0 -38 13 -61.5t38 -23.5zM460 502l73 49h46l-37 -120l-74 -305q-4 -14 -6.5 -25.5t-2.5 -17.5q0 -7 3.5 -11t10.5 -4q14 0 35.5 17.5t52.5 57.5l24 -23
q-46 -69 -86 -99.5t-83 -30.5q-34 0 -51.5 22t-17.5 58q0 23 11.5 67t24.5 84h-7q-21 -45 -46.5 -87t-54 -74t-60 -51t-65.5 -19q-54 0 -86 42t-32 116q0 77 26.5 149.5t70 127.5t101 88t119.5 33q37 0 63.5 -11.5t47.5 -32.5z" />
    <glyph glyph-name="b" unicode="b" horiz-adv-x="603" 
d="M43 117l126 543l-70 35l6 24l181 42h26l-77 -325l-53 -152h7q59 110 126.5 186t139.5 76q59 0 88 -42.5t29 -109.5q0 -77 -30 -150.5t-79.5 -129.5t-113.5 -90t-132 -34q-64 0 -112 32.5t-62 94.5zM399 463q-24 0 -59 -28t-71 -75.5t-67.5 -112.5t-47.5 -139
q1 -31 20 -51.5t48 -20.5q46 0 87.5 33t73 83.5t51 112.5t19.5 119q0 39 -13.5 59t-40.5 20z" />
    <glyph glyph-name="c" unicode="c" horiz-adv-x="477" 
d="M317 496q-33 0 -63 -27.5t-52.5 -70t-36 -95.5t-13.5 -104q0 -55 20.5 -95.5t70.5 -40.5q44 0 79 21.5t74 66.5l24 -22q-35 -58 -90.5 -98.5t-126.5 -40.5q-87 0 -128 54.5t-41 136.5q0 66 23.5 131.5t65.5 117t99.5 84t124.5 32.5q57 0 90 -24.5t33 -68.5q0 -28 -17 -47
t-41 -27h-29q0 49 -15 83t-51 34z" />
    <glyph glyph-name="d" unicode="d" horiz-adv-x="633" 
d="M204 72q28 0 61.5 29.5t65.5 81t60.5 123t46.5 153.5q-13 23 -32 32t-39 9q-47 0 -86.5 -32t-68.5 -81.5t-45.5 -110.5t-16.5 -118q0 -38 13.5 -62t40.5 -24zM485 660l-71 35l7 24l178 42h26l-148 -635q-4 -14 -6 -25.5t-2 -17.5q0 -7 3.5 -11t10.5 -4q14 0 35.5 17.5
t52.5 57.5l24 -23q-46 -69 -86 -99.5t-83 -30.5q-34 0 -51.5 21.5t-17.5 54.5q0 26 10 70.5t22 85.5h-7q-21 -45 -46.5 -87t-55 -74t-62 -51.5t-66.5 -19.5q-55 0 -87.5 42t-32.5 116q0 77 27 149.5t71.5 127.5t103.5 88t122 33q31 0 55.5 -10t39.5 -26z" />
    <glyph glyph-name="e" unicode="e" horiz-adv-x="489" 
d="M473 432q0 -43 -27.5 -76t-72.5 -57.5t-104 -42.5t-121 -32v-24q0 -63 28 -101t77 -38q44 0 82.5 24t74.5 67l26 -22q-53 -75 -109.5 -107.5t-118.5 -32.5q-90 0 -132 61t-42 141q0 65 24.5 129t67 113.5t99.5 80.5t121 31t95.5 -33.5t31.5 -80.5zM320 492
q-57 0 -106 -69.5t-62 -165.5q110 33 165 72.5t55 99.5q0 26 -13 44.5t-39 18.5z" />
    <glyph glyph-name="f" unicode="f" horiz-adv-x="345" 
d="M56 482l8 40l83 19q23 107 77.5 166.5t147.5 59.5q52 0 85.5 -20.5t33.5 -57.5q0 -23 -13.5 -40.5t-36.5 -24.5h-32q0 41 -13.5 71t-42.5 30q-32 0 -55 -41.5t-33 -147.5h123l-8 -54h-121l-63 -302q-45 -218 -105 -302.5t-149 -84.5q-45 0 -73 18t-28 49t19 46.5t41 19.5
h19q5 -41 18 -65.5t37 -24.5q11 0 21 7.5t20 31.5t21.5 69t24.5 120l74 418h-80z" />
    <glyph glyph-name="g" unicode="g" horiz-adv-x="534" 
d="M313 546q25 0 46.5 -5t39.5 -15l181 15l-18 -74h-40l-76 21q15 -19 23 -42t8 -48q0 -99 -73 -156.5t-174 -57.5q-13 0 -26 1.5t-24 3.5q-16 -8 -26 -17t-10 -20q0 -13 10 -19t28 -11l153 -39q51 -13 90 -41t39 -84q0 -63 -68 -115t-209 -52q-50 0 -95 9.5t-79 27
t-54 41.5t-20 53q0 55 50 80.5t110 38.5q-14 11 -23 26t-9 34q0 33 22.5 56t61.5 42q-40 18 -62 53.5t-22 81.5q0 97 72.5 154.5t173.5 57.5zM290 -20l-169 45q-43 -15 -64 -36t-21 -55q0 -46 48 -72.5t114 -26.5q71 0 117.5 23.5t46.5 63.5q0 25 -19 37t-53 21zM243 224
q46 0 84 54t38 134q0 39 -15 66.5t-50 27.5q-46 0 -84 -54.5t-38 -134.5q0 -39 15.5 -66t49.5 -27z" />
    <glyph glyph-name="h" unicode="h" horiz-adv-x="639" 
d="M245 420l-39 -127h7q26 45 59.5 90.5t70 81.5t75 58.5t74.5 22.5q39 0 56 -21t17 -55q0 -10 -2 -22t-4 -22l-79 -300q-4 -14 -6.5 -25.5t-2.5 -17.5q0 -7 3.5 -11t10.5 -4q14 0 35.5 17.5t53.5 57.5l23 -23q-47 -69 -86.5 -99.5t-82.5 -30.5q-34 0 -54.5 21t-20.5 55
q0 18 3.5 38t10.5 48l72 260q2 10 3.5 18.5t1.5 14.5q0 10 -4 15.5t-14 5.5q-21 0 -55 -26t-70 -70.5t-69 -104.5t-50 -127l-35 -138h-118l153 660l-70 35l6 24l181 42h26z" />
    <glyph glyph-name="i" unicode="i" horiz-adv-x="345" 
d="M285 546l-104 -420q-4 -14 -6.5 -25.5t-2.5 -17.5q0 -7 3.5 -11t10.5 -4q14 0 36 17.5t53 57.5l24 -23q-47 -69 -86.5 -99.5t-82.5 -30.5q-34 0 -54.5 21t-20.5 55q0 18 3.5 38t10.5 48l74 298l-69 35l7 25l176 36h28zM245 606q-32 0 -52.5 21t-20.5 49q0 33 23 56.5
t57 23.5q32 0 52.5 -21t20.5 -49q0 -33 -23 -56.5t-57 -23.5z" />
    <glyph glyph-name="j" unicode="j" horiz-adv-x="311" 
d="M249 606q-32 0 -52.5 21t-20.5 49q0 33 23 56.5t57 23.5q32 0 52.5 -21t20.5 -49q0 -33 -23 -56.5t-57 -23.5zM45 -17l101 467l-68 35l7 25l176 36h28l-105 -448q-33 -139 -90 -222t-150 -83q-45 0 -73 18t-28 49t19.5 46.5t41.5 19.5h18q5 -41 17.5 -65t35.5 -24
q25 0 40 38t30 108z" />
    <glyph glyph-name="k" unicode="k" horiz-adv-x="597" 
d="M331 332l82 -193q12 -29 23.5 -47.5t27.5 -18.5t37 18t46 50l21 -24q-39 -63 -76 -95t-79 -32q-40 0 -64 29.5t-42 75.5l-75 187l178 199q30 34 53.5 49.5t52.5 15.5q34 0 51 -20t17 -44q0 -28 -16 -46.5t-46 -29.5h-16q0 20 -8.5 33.5t-28.5 13.5q-15 0 -32.5 -9.5
t-42.5 -39.5zM326 761l-179 -761h-118l153 660l-70 35l7 24l180 42h27z" />
    <glyph glyph-name="l" unicode="l" horiz-adv-x="326" 
d="M177 660l-70 35l7 24l180 42h27l-150 -635q-4 -15 -5.5 -26t-1.5 -17q0 -7 3.5 -11t10.5 -4q14 0 35.5 17.5t53.5 57.5l23 -23q-46 -69 -86 -99.5t-83 -30.5q-34 0 -54 21t-20 55q0 18 3 38t10 48z" />
    <glyph glyph-name="m" unicode="m" horiz-adv-x="932" 
d="M508 292h7q26 45 58.5 90.5t67 81.5t71.5 59t73 23q39 0 56 -21t17 -55q0 -10 -2 -22.5t-4 -21.5l-79 -300q-4 -14 -6.5 -25.5t-2.5 -17.5q0 -7 3.5 -11t10.5 -4q14 0 35.5 17.5t53.5 57.5l23 -23q-47 -69 -86.5 -99.5t-82.5 -30.5q-34 0 -54.5 21t-20.5 55q0 18 3.5 38
t10.5 48l71 258q2 10 3.5 18.5t1.5 14.5q0 10 -4 15t-14 5q-21 0 -54 -26.5t-67.5 -71t-65 -103t-46.5 -121.5l-35 -141h-118l103 410q2 10 3.5 18.5t1.5 14.5q0 10 -4 15t-14 5q-20 0 -53.5 -26.5t-68 -71t-65.5 -103t-47 -121.5l-35 -141h-118l112 450l-68 35l7 25l171 37
h28l-29 -122l-45 -133h7q27 45 59.5 90.5t67.5 81.5t72 59t73 23q37 0 51.5 -20.5t14.5 -49.5q0 -25 -12 -70t-36 -114z" />
    <glyph glyph-name="n" unicode="n" horiz-adv-x="645" 
d="M285 547l-32 -128l-41 -126h7q26 45 59.5 90.5t70 81.5t75 58.5t74.5 22.5q40 0 57 -21t17 -55q0 -10 -2 -22t-4 -22l-80 -300q-4 -14 -6.5 -25.5t-2.5 -17.5q0 -7 3.5 -11t10.5 -4q14 0 35.5 17.5t53.5 57.5l23 -23q-46 -69 -85.5 -99.5t-82.5 -30.5q-34 0 -55 21
t-21 55q0 18 3.5 38t10.5 48l72 260q2 10 3.5 18.5t1.5 14.5q0 10 -4 15.5t-14 5.5q-20 0 -54.5 -26t-70.5 -70.5t-69 -104.5t-50 -127l-35 -138h-118l112 450l-68 35l7 25l171 37h28z" />
    <glyph glyph-name="o" unicode="o" horiz-adv-x="548" 
d="M225 37q39 0 70.5 33t53.5 82.5t34 108t12 108.5q0 60 -18.5 95t-53.5 35q-39 0 -70.5 -33t-53.5 -82.5t-34 -108.5t-12 -109q0 -60 18.5 -94.5t53.5 -34.5zM221 -10q-83 0 -135 55.5t-52 154.5q0 64 21.5 126.5t60 111t92.5 78.5t119 30q83 0 135 -55.5t52 -154.5
q0 -64 -21.5 -126.5t-60 -111t-92.5 -78.5t-119 -30z" />
    <glyph glyph-name="p" unicode="p" horiz-adv-x="622" 
d="M200 273h7q57 113 126 193t141 80q55 0 86 -42.5t31 -109.5q0 -77 -29 -150.5t-76.5 -129.5t-108 -90t-123.5 -34q-32 0 -57 14t-37 32l-27 -120q-2 -9 -3.5 -17t-1.5 -14q1 -22 18.5 -28t45.5 -10l-11 -44h-268l11 44q35 4 57.5 13.5t30.5 43.5l133 548l-69 33l7 25
l171 37h28l-31 -131zM418 461q-24 0 -57.5 -27.5t-68 -75t-66 -112t-51.5 -138.5q3 -31 20.5 -51t48.5 -20q45 0 86 32.5t72 82.5t49.5 111.5t18.5 118.5q0 39 -13.5 59t-38.5 20z" />
    <glyph glyph-name="q" unicode="q" horiz-adv-x="599" 
d="M356 546q34 0 62 -11.5t48 -32.5l73 49h45l-36 -120l-126 -516q-2 -9 -3.5 -16.5t-1.5 -13.5q0 -22 18 -28t46 -10l-11 -44h-268l11 44q35 4 57.5 13.5t30.5 43.5l46 176l42 141h-7q-21 -45 -46.5 -87t-54.5 -74t-61.5 -51t-66.5 -19q-56 0 -88.5 42t-32.5 116
q0 77 27 149.5t71.5 127.5t103.5 88t122 33zM203 73q28 0 61.5 29.5t65.5 80.5t60 121.5t46 151.5q-11 23 -29 33.5t-40 10.5q-47 0 -86.5 -32t-68.5 -81.5t-45.5 -110.5t-16.5 -118q0 -38 14 -61.5t39 -23.5z" />
    <glyph glyph-name="r" unicode="r" horiz-adv-x="480" 
d="M191 212h7q82 164 138 249t110 85q33 0 47.5 -20.5t14.5 -46.5q0 -36 -21 -59.5t-49 -36.5h-17q0 14 -5.5 25.5t-22.5 11.5q-22 0 -53 -31t-63.5 -86.5t-64 -133t-54.5 -169.5h-118l111 450l-68 35l7 25l171 37h28l-41 -161z" />
    <glyph glyph-name="s" unicode="s" horiz-adv-x="435" 
d="M200 39q35 0 53.5 18t18.5 49q0 28 -29.5 58t-64.5 63t-64.5 71t-29.5 82q0 71 54 118.5t136 47.5q59 0 96 -26t37 -68q0 -19 -14.5 -33.5t-32.5 -21.5h-17q-16 44 -42.5 70.5t-63.5 26.5q-33 0 -49.5 -16t-16.5 -44q0 -25 30.5 -55t66.5 -64t66.5 -72t30.5 -81
q0 -79 -58.5 -125.5t-135.5 -46.5q-73 0 -118.5 31.5t-45.5 77.5q0 24 13.5 42t35.5 27h15q17 -57 49 -93t80 -36z" />
    <glyph glyph-name="t" unicode="t" horiz-adv-x="398" 
d="M259 482l-77 -335q-4 -19 -6.5 -32.5t-2.5 -23.5q0 -11 5 -18t17 -7q26 0 57.5 24t76.5 72l25 -25q-53 -69 -109 -108t-107 -39q-44 0 -63.5 25t-19.5 62q0 18 3 36t8 40l76 329h-73l10 35q54 16 98 50.5t84 85.5h40l-28 -117h122l-13 -54h-123z" />
    <glyph glyph-name="u" unicode="u" horiz-adv-x="646" 
d="M408 247h-7q-60 -117 -128.5 -187t-134.5 -70q-37 0 -58.5 24t-21.5 64q0 13 2.5 30t6.5 34l76 308l-68 35l7 25l175 36h28l-100 -402q-3 -11 -5 -24.5t-2 -24.5q0 -13 4.5 -19.5t15.5 -6.5q26 0 61 31t69.5 81t64.5 113t46 126l28 108l120 8l-102 -410
q-4 -14 -6.5 -25.5t-2.5 -17.5q0 -7 3.5 -11t10.5 -4q14 0 36 17.5t54 57.5l23 -23q-47 -69 -86 -99.5t-82 -30.5q-34 0 -52 22t-18 58q0 22 10.5 63.5t32.5 113.5z" />
    <glyph glyph-name="v" unicode="v" horiz-adv-x="533" 
d="M95 455l-69 30l7 25l151 36h19l35 -434l113 130q32 37 54.5 79t22.5 83q0 37 -25 55t-65 18l1 16q13 19 37.5 36t58.5 17q46 0 66 -28.5t20 -64.5q0 -53 -34.5 -110t-94.5 -125l-204 -227h-47z" />
    <glyph glyph-name="w" unicode="w" horiz-adv-x="780" 
d="M374 455l-69 30l7 25l144 36h20l34 -430l108 137q26 33 40.5 71t14.5 79q0 37 -24 55.5t-64 18.5v16q14 19 38.5 36t58.5 17q46 0 66 -29t20 -67q0 -51 -31 -106.5t-77 -112.5l-194 -240h-47l-27 276l-204 -276h-46l-47 464l-69 30l7 25l149 36h20l35 -424l149 203z" />
    <glyph glyph-name="x" unicode="x" horiz-adv-x="566" 
d="M148 132l74 110l-66 214l-83 29l8 25l151 36h19l58 -201l67 107q28 46 55.5 70t61.5 24t53.5 -18.5t19.5 -48.5q0 -28 -16.5 -46.5t-36.5 -27.5h-17q0 30 -10 43.5t-26 13.5q-18 0 -30.5 -12t-34.5 -46l-71 -109l45 -154q10 -33 17 -48t22 -15q20 0 44 18.5t52 47.5
l22 -25q-56 -71 -95 -100t-76 -29q-35 0 -53 28.5t-31 68.5l-34 107l-71 -110q-27 -42 -54.5 -68t-68.5 -26q-30 0 -48.5 18.5t-18.5 47.5q0 31 15 50.5t37 28.5h17q0 -31 10 -46.5t27 -15.5q18 0 31 12.5t35 46.5z" />
    <glyph glyph-name="y" unicode="y" horiz-adv-x="531" 
d="M343 87q-61 -91 -110.5 -148.5t-90 -89.5t-75 -43.5t-65.5 -11.5q-37 0 -69 19t-32 62q0 24 14.5 42.5t36.5 25.5h21q0 -41 17 -64t52 -23q29 0 63 19t84 76l-96 504l-69 30l7 25l148 36h19l80 -480l32 47q73 108 94 176.5t21 109.5q0 40 -24.5 59t-64.5 19l1 16
q13 19 37.5 36t58.5 17q46 0 66.5 -29t20.5 -64q0 -64 -45.5 -152t-131.5 -214z" />
    <glyph glyph-name="z" unicode="z" horiz-adv-x="506" 
d="M381 434h-195q-25 0 -37 -7.5t-23 -26.5l-29 -48l-28 9l76 208h25q1 -16 7 -27t20 -11h325l-1 -26l-380 -357l112 -36q20 -6 38 -10t37 -4q37 0 61.5 18t52.5 71l27 -9q-35 -99 -70.5 -144.5t-100.5 -45.5q-31 0 -60 10.5t-58 24.5l-111 53l-48 -78q-22 1 -32.5 10.5
t-10.5 22.5q0 11 5.5 23t18.5 25z" />
    <glyph glyph-name="braceleft" unicode="{" horiz-adv-x="357" 
d="M61 304l4 22q37 7 66 29.5t39 70.5l46 216q13 59 65.5 93.5t142.5 34.5l-7 -31q-37 -4 -69.5 -26t-42.5 -72l-46 -214q-11 -51 -36 -74t-78 -38q37 -12 54 -28t17 -47q0 -16 -8.5 -55t-18 -83t-18 -83.5t-8.5 -56.5q0 -35 22.5 -51.5t51.5 -20.5l-7 -31q-75 0 -116 27
t-41 74q0 18 8.5 56.5t18 80.5t18 80.5t8.5 55.5q0 31 -18.5 48t-46.5 23z" />
    <glyph glyph-name="bar" unicode="|" horiz-adv-x="271" 
d="M286 770l-195 -911h-70l195 911h70z" />
    <glyph glyph-name="braceright" unicode="}" horiz-adv-x="357" 
d="M321 325l-4 -22q-37 -7 -66 -29.5t-39 -70.5l-45 -216q-13 -59 -66 -93.5t-143 -34.5l7 31q37 4 69.5 26t42.5 72l46 214q11 51 36 74t78 38q-37 12 -54 28t-17 47q0 16 8.5 55t18.5 83t18.5 83.5t8.5 56.5q0 35 -22.5 51.5t-52.5 20.5l7 31q75 0 116.5 -27t41.5 -74
q0 -18 -8.5 -56t-18 -80.5t-18 -80.5t-8.5 -56q0 -31 18 -48t46 -23z" />
    <glyph glyph-name="asciitilde" unicode="~" horiz-adv-x="532" 
d="M449 417l45 -10q-23 -74 -58 -107.5t-84 -33.5q-23 0 -45 9.5t-43 20.5t-41.5 20.5t-39.5 9.5q-25 0 -41 -12.5t-34 -43.5l-46 10q23 75 58.5 108t84.5 33q22 0 44 -9.5t43.5 -20.5t42 -20.5t39.5 -9.5q25 0 41 12.5t34 43.5z" />
    <glyph glyph-name="uni00A0" unicode="&#xa0;" horiz-adv-x="200" 
 />
    <glyph glyph-name="exclamdown" unicode="&#xa1;" horiz-adv-x="305" 
d="M288 464q0 -34 -23.5 -58t-57.5 -24t-57.5 24t-23.5 58t23.5 58t57.5 24t57.5 -24t23.5 -58zM-13 -166l166 488h59l-69 -488h-156z" />
    <glyph glyph-name="cent" unicode="&#xa2;" horiz-adv-x="539" 
d="M189 -114l23 106q-84 8 -125 65t-41 139q0 63 21.5 125.5t59.5 114t92.5 87t120.5 45.5l23 106h49l-23 -103q63 -1 99.5 -27t36.5 -72q0 -29 -19 -47.5t-44 -27.5h-29q0 46 -12 80t-43 44l-102 -458q50 0 89 27.5t80 72.5l32 -28q-35 -57 -90.5 -97.5t-126.5 -46.5
l-23 -105h-48zM165 212q0 -47 15.5 -85.5t49.5 -54.5l99 449q-36 -9 -66 -40t-52 -74t-34 -94t-12 -101z" />
    <glyph glyph-name="sterling" unicode="&#xa3;" horiz-adv-x="700" 
d="M122 339l11 47h114l29 90q34 110 95 172.5t166 62.5q71 0 115 -29.5t44 -78.5q0 -28 -14.5 -48t-37.5 -27h-77q6 14 10 29.5t4 35.5q0 22 -11.5 46.5t-46.5 24.5q-39 0 -62 -43t-46 -109l-44 -126h167l-12 -47h-171l-62 -180q50 -19 102.5 -40t106.5 -21q37 0 56.5 15
t19.5 47q0 13 -7.5 26t-21.5 24l24 27q26 -12 50 -37.5t24 -71.5q0 -68 -43 -103t-110 -35q-76 0 -136.5 36.5t-100.5 63.5q-22 -44 -63.5 -72t-95.5 -28q-56 0 -82 29.5t-26 66.5q0 54 34 85.5t88 31.5q19 0 37.5 -4t34.5 -10l48 150h-110zM94 44q25 0 44 22.5t31 68.5
q-14 7 -29.5 11t-30.5 4q-28 0 -44 -16t-16 -41q0 -22 12 -35.5t33 -13.5z" />
    <glyph glyph-name="currency" unicode="&#xa4;" horiz-adv-x="577" 
d="M292 209q59 0 101.5 43.5t42.5 108.5q0 57 -34.5 93t-88.5 36q-60 0 -102 -43.5t-42 -108.5q0 -56 34.5 -92.5t88.5 -36.5zM288 153q-37 0 -67.5 11t-53.5 30l-79 -70l-34 39l78 72q-13 20 -20 45.5t-7 53.5q0 40 13.5 76t37.5 64l-61 69l42 38l61 -69q25 16 54.5 25.5
t63.5 9.5q35 0 65.5 -11t52.5 -30l82 72l35 -39l-81 -72q14 -22 21.5 -47.5t7.5 -53.5q0 -40 -13.5 -76t-37.5 -64l63 -68l-43 -38l-61 68q-25 -17 -55 -26t-64 -9z" />
    <glyph glyph-name="yen" unicode="&#xa5;" horiz-adv-x="670" 
d="M94 320l10 47h128l-96 251q-8 20 -19.5 26.5t-33.5 10.5l11 47h287l-10 -47q-39 0 -66.5 -8t-28.5 -38q0 -9 3 -19.5t7 -22.5l83 -235l187 235q14 17 22 30.5t8 23.5q0 17 -20.5 24.5t-57.5 9.5l11 47h229l-10 -47q-22 -4 -37.5 -11t-31.5 -26l-205 -251h134l-10 -47
h-162l-36 -45l-5 -24h188l-10 -47h-188l-16 -74q-1 -10 -2.5 -19.5t-1.5 -14.5q0 -28 23.5 -38t69.5 -11l-10 -47h-333l10 47q50 2 80 15t40 57l18 85h-184l10 47h184l5 24l-18 45h-156z" />
    <glyph glyph-name="brokenbar" unicode="&#xa6;" horiz-adv-x="271" 
d="M286 770l-80 -376h-71l81 376h70zM171 235l-80 -376h-70l80 376h70z" />
    <glyph glyph-name="section" unicode="&#xa7;" horiz-adv-x="518" 
d="M121 -202q-69 0 -102 27.5t-33 70.5q0 31 19.5 46t38.5 22h63q-5 -10 -7 -21t-2 -20q0 -26 13.5 -51t51.5 -25q39 0 60 24.5t21 67.5q0 47 -22 92.5t-48 95.5t-48 109t-22 132q0 62 20 123.5t59 110.5t97 79.5t132 30.5q69 0 102 -27.5t33 -70.5q0 -31 -20 -46t-39 -22
h-63q5 10 7 21t2 20q0 26 -13.5 51t-50.5 25q-40 0 -61 -24.5t-21 -67.5q0 -47 22 -92.5t48 -95.5t48 -109t22 -132q0 -62 -20 -123.5t-59 -110.5t-96.5 -79.5t-131.5 -30.5zM245 606q-38 -40 -62 -103t-24 -135q0 -61 22 -116.5t47.5 -106t47.5 -100t22 -98.5
q0 -10 -2.5 -21.5t-7.5 -21.5q38 40 62 103t24 135q0 61 -22 116.5t-47.5 106t-47.5 100t-22 98.5q0 10 2.5 21.5t7.5 21.5z" />
    <glyph glyph-name="dieresis" unicode="&#xa8;" horiz-adv-x="500" 
d="M149 611q-30 0 -48 19.5t-18 46.5q0 29 20.5 51t51.5 22q30 0 48 -19t18 -47q0 -29 -20.5 -51t-51.5 -22zM345 611q-30 0 -48 19.5t-18 46.5q0 29 20 51t51 22q30 0 48.5 -19t18.5 -47q0 -29 -20.5 -51t-51.5 -22z" />
    <glyph glyph-name="copyright" unicode="&#xa9;" horiz-adv-x="796" 
d="M396 30q72 0 134 27t106.5 73.5t70.5 110.5t26 136q0 125 -81 210t-211 85q-72 0 -134 -27t-106.5 -73.5t-70.5 -110.5t-26 -136q0 -125 81 -210t211 -85zM396 -10q-74 0 -136 25.5t-106 70.5t-69 106.5t-25 132.5q0 81 29.5 151.5t80.5 123t121 82.5t150 30
q74 0 136 -25.5t106 -70.5t69 -106.5t25 -132.5q0 -81 -29.5 -151.5t-80.5 -123t-121 -82.5t-150 -30zM397 142q-81 0 -128.5 46t-47.5 120q0 106 73.5 181.5t176.5 75.5q39 0 71.5 -11.5t54.5 -30.5l-20 -93h-39q-4 47 -19.5 69.5t-52.5 22.5q-34 0 -62 -19t-47.5 -49.5
t-30 -70t-10.5 -79.5q0 -56 21.5 -87.5t64.5 -31.5t67 24.5t52 80.5h42l-29 -110q-28 -17 -62.5 -27.5t-74.5 -10.5z" />
    <glyph glyph-name="ordfeminine" unicode="&#xaa;" horiz-adv-x="481" 
d="M210 382q38 0 85.5 76t76.5 195q-9 17 -20.5 25.5t-29.5 8.5q-29 0 -55 -22.5t-46 -57.5t-31.5 -78.5t-11.5 -84.5q0 -28 7 -45t25 -17zM395 691l65 37h34l-27 -88l-54 -221q-3 -10 -5 -19t-2 -13q0 -5 3 -8t8 -3q10 0 26 13t38 42l20 -20q-34 -51 -68 -73.5t-68 -22.5
q-24 0 -39 16.5t-15 42.5q0 16 8.5 49t18.5 63h-5q-31 -67 -74 -119t-92 -52q-41 0 -65 31.5t-24 85.5q0 56 19.5 109t52 93.5t75 65t88.5 24.5q28 0 47 -8.5t35 -24.5z" />
    <glyph glyph-name="guillemotleft" unicode="&#xab;" horiz-adv-x="510" 
d="M44 270l2 10l211 193h64l-165 -198l76 -198h-53zM237 270l2 10l211 193h64l-165 -198l76 -198h-53z" />
    <glyph glyph-name="registered" unicode="&#xae;" horiz-adv-x="555" 
d="M337 584h-15l-19 -92h19q24 0 42 12.5t18 40.5q0 16 -11.5 27.5t-33.5 11.5zM247 608h110q46 0 62 -20t16 -40q0 -36 -25 -52.5t-48 -20.5l31 -56q7 -14 18 -20t21 -7l-4 -20h-57q-6 5 -14.5 16t-14.5 24l-28 57h-17l-10 -48q-1 -4 -1.5 -8t-0.5 -7q0 -8 5 -11t18 -3
l-4 -20h-108l5 20q17 0 24.5 5.5t10.5 19.5l30 142q1 4 2 8.5t1 6.5q0 8 -6.5 10.5t-19.5 3.5zM312 288q90 0 149 61.5t59 150.5q0 77 -49.5 129t-130.5 52q-90 0 -149 -61.5t-59 -150.5q0 -77 49.5 -129t130.5 -52zM312 257q-94 0 -154 61t-60 151q0 101 70 172t172 71
q94 0 154 -61t60 -151q0 -101 -70 -172t-172 -71z" />
    <glyph glyph-name="macron" unicode="&#xaf;" horiz-adv-x="500" 
d="M104 624l16 71h276l-16 -71h-276z" />
    <glyph glyph-name="degree" unicode="&#xb0;" horiz-adv-x="352" 
d="M204 457q48 0 77 36.5t29 88.5q0 32 -19 55t-55 23q-48 0 -76.5 -36t-28.5 -89q0 -32 18.5 -55t54.5 -23zM201 405q-58 0 -94.5 36.5t-36.5 90.5q0 75 48.5 127.5t120.5 52.5q58 0 94.5 -36.5t36.5 -90.5q0 -74 -48.5 -127t-120.5 -53z" />
    <glyph glyph-name="plusminus" unicode="&#xb1;" horiz-adv-x="575" 
d="M318 608h71l-30 -141h185l-14 -70h-186l-29 -140h-70l29 140h-186l16 70h184zM33 136l16 70h440l-16 -70h-440z" />
    <glyph glyph-name="twosuperior" unicode="&#xb2;" horiz-adv-x="431" 
d="M180 372h97q39 0 57.5 10.5t50.5 52.5h31l-51 -148h-316l7 33q87 69 138.5 115t78 77t34.5 54t8 48q0 29 -17 46.5t-48 17.5q-34 0 -63 -20t-50 -43l-19 26q24 41 70.5 74t109.5 33q54 0 88 -29.5t34 -81.5q0 -79 -68 -133t-172 -132z" />
    <glyph glyph-name="threesuperior" unicode="&#xb3;" horiz-adv-x="423" 
d="M289 539q48 -7 77.5 -35t29.5 -73q0 -40 -17 -69t-44 -47.5t-62 -27.5t-71 -9q-71 0 -108 28t-37 63q0 24 11.5 39.5t29.5 22.5h59q-4 -13 -6.5 -25.5t-2.5 -24.5q0 -28 15.5 -47t45.5 -19q38 0 62.5 27.5t24.5 76.5q0 40 -20.5 60t-53.5 20q-9 0 -16.5 -0.5t-17.5 -1.5
l-5 25q54 18 91 42t37 63q0 21 -14 34.5t-39 13.5q-32 0 -58 -15.5t-48 -37.5l-21 21q26 43 70 72t100 29q52 0 82 -23t30 -65q0 -50 -39.5 -78.5t-84.5 -38.5z" />
    <glyph glyph-name="acute" unicode="&#xb4;" horiz-adv-x="500" 
d="M223 763h154l-193 -167h-61z" />
    <glyph glyph-name="paragraph" unicode="&#xb6;" horiz-adv-x="635" 
d="M223 -197l87 412q-110 0 -165.5 58t-55.5 141q0 122 88 205t237 83h286l-11 -48q-51 -1 -79 -14t-38 -59l-165 -778h-58l181 855h-67l-181 -855h-59zM319 258l86 401q-46 -1 -81.5 -25t-59.5 -59.5t-36 -79t-12 -83.5q0 -60 23 -106.5t80 -47.5z" />
    <glyph glyph-name="periodcentered" unicode="&#xb7;" horiz-adv-x="274" 
d="M62 302q0 36 24 60t59 24t59 -24t24 -60q0 -35 -24 -59t-59 -24t-59 24t-24 59z" />
    <glyph glyph-name="cedilla" unicode="&#xb8;" horiz-adv-x="500" 
d="M145 -225l-5 38q54 0 88.5 11.5t34.5 34.5q0 20 -22.5 29.5t-62.5 10.5l58 109h37l-29 -55q46 -1 71.5 -17.5t25.5 -50.5q0 -56 -59 -83t-137 -27z" />
    <glyph glyph-name="onesuperior" unicode="&#xb9;" horiz-adv-x="374" 
d="M313 748h36l-78 -366q-1 -8 -2 -14.5t-1 -11.5q0 -18 18.5 -23t60.5 -7l-7 -39h-279l8 39q51 3 71 10t26 36l53 253h-91l7 39l32 4q53 8 83.5 25t62.5 55z" />
    <glyph glyph-name="ordmasculine" unicode="&#xba;" horiz-adv-x="411" 
d="M217 355q29 0 51.5 23t38 58t23.5 77.5t8 81.5q0 40 -11.5 63.5t-36.5 23.5q-29 0 -52 -23t-38.5 -58.5t-23.5 -78t-8 -80.5q0 -40 11.5 -63.5t37.5 -23.5zM213 315q-63 0 -103.5 41t-40.5 113q0 47 16.5 92.5t46 81t70.5 57.5t91 22q63 0 103.5 -41t40.5 -113
q0 -47 -16.5 -93t-46 -81t-70.5 -57t-91 -22z" />
    <glyph glyph-name="guillemotright" unicode="&#xbb;" horiz-adv-x="510" 
d="M274 280l-2 -10l-210 -193h-65l165 198l-76 198h54zM466 280l-2 -10l-210 -193h-65l165 198l-76 198h54z" />
    <glyph glyph-name="onequarter" unicode="&#xbc;" horiz-adv-x="954" 
d="M527 96h157l41 193zM750 -71h-102l26 119h-219l9 38l304 303h80l-62 -293h80l-10 -48h-80zM191 0l611 741h65l-611 -741h-65zM313 748h36l-78 -366q-1 -8 -2 -14.5t-1 -11.5q0 -18 18.5 -23t60.5 -7l-7 -39h-279l8 39q51 3 71 10t26 36l53 253h-91l7 39l32 4
q53 8 83.5 25t62.5 55z" />
    <glyph glyph-name="onehalf" unicode="&#xbd;" horiz-adv-x="963" 
d="M191 0l611 741h65l-611 -741h-65zM313 748h36l-78 -366q-1 -8 -2 -14.5t-1 -11.5q0 -18 18.5 -23t60.5 -7l-7 -39h-279l8 39q51 3 71 10t26 36l53 253h-91l7 39l32 4q53 8 83.5 25t62.5 55zM649 13h97q39 0 57.5 10.5t50.5 53.5h31l-51 -149h-316l7 33q87 70 139 115.5
t78.5 77t34.5 54t8 47.5q0 30 -17.5 47t-48.5 17q-33 0 -62.5 -20t-50.5 -43l-19 26q25 41 71 74t109 33q54 0 88 -29.5t34 -81.5q0 -79 -68 -133t-172 -132z" />
    <glyph glyph-name="threequarters" unicode="&#xbe;" horiz-adv-x="957" 
d="M289 539q48 -7 77.5 -35t29.5 -73q0 -40 -17 -69t-44 -47.5t-62 -27.5t-71 -9q-71 0 -108 28t-37 63q0 24 11.5 39.5t29.5 22.5h59q-4 -13 -6.5 -25.5t-2.5 -24.5q0 -28 15.5 -47t45.5 -19q38 0 62.5 27.5t24.5 76.5q0 40 -20.5 60t-53.5 20q-9 0 -16.5 -0.5t-17.5 -1.5
l-5 25q54 18 91 42t37 63q0 21 -14 34.5t-39 13.5q-32 0 -58 -15.5t-48 -37.5l-21 21q26 43 70 72t100 29q52 0 82 -23t30 -65q0 -50 -39.5 -78.5t-84.5 -38.5zM531 96h156l42 193zM754 -71h-103l26 119h-219l9 38l305 303h79l-62 -293h80l-10 -48h-80zM195 0l610 741h66
l-612 -741h-64z" />
    <glyph glyph-name="questiondown" unicode="&#xbf;" horiz-adv-x="451" 
d="M388 463q0 -34 -23.5 -58t-57.5 -24t-57.5 24t-23.5 58t23.5 58t57.5 24t57.5 -24t23.5 -58zM207 87q-48 -28 -73.5 -55t-25.5 -75q0 -37 22 -60t61 -23q43 0 66.5 28.5t23.5 72.5q0 11 -2 21t-3 18h85q10 -9 17.5 -24t7.5 -34q0 -59 -57.5 -95.5t-141.5 -36.5
q-87 0 -137.5 42.5t-50.5 112.5q0 71 42 111t102 72q51 28 85.5 58t34.5 76q0 8 -1 14l-2 12h32q16 -18 25.5 -39t9.5 -45q0 -48 -34 -84.5t-86 -66.5z" />
    <glyph glyph-name="Agrave" unicode="&#xc0;" horiz-adv-x="730" 
d="M490 131l-19 92h-282l-57 -92q-9 -14 -14 -26.5t-5 -22.5q0 -19 19.5 -26.5t60.5 -8.5l-9 -47h-226l10 47q22 4 38.5 10.5t29.5 26.5l346 555l-18 70h132l133 -625q4 -19 18 -26.5t35 -10.5l-8 -47h-288l10 47q42 2 69 11t28 42q0 7 -1 15zM402 568l-179 -290h237z
M296 910h140l50 -152h-56z" />
    <glyph glyph-name="Aacute" unicode="&#xc1;" horiz-adv-x="730" 
d="M490 131l-19 92h-282l-57 -92q-9 -14 -14 -26.5t-5 -22.5q0 -19 19.5 -26.5t60.5 -8.5l-9 -47h-226l10 47q22 4 38.5 10.5t29.5 26.5l346 555l-18 70h132l133 -625q4 -19 18 -26.5t35 -10.5l-8 -47h-288l10 47q42 2 69 11t28 42q0 7 -1 15zM402 568l-179 -290h237z
M506 910h152l-186 -152h-58z" />
    <glyph glyph-name="Acircumflex" unicode="&#xc2;" horiz-adv-x="730" 
d="M490 131l-19 92h-282l-57 -92q-9 -14 -14 -26.5t-5 -22.5q0 -19 19.5 -26.5t60.5 -8.5l-9 -47h-226l10 47q22 4 38.5 10.5t29.5 26.5l346 555l-18 70h132l133 -625q4 -19 18 -26.5t35 -10.5l-8 -47h-288l10 47q42 2 69 11t28 42q0 7 -1 15zM402 568l-179 -290h237z
M528 919l102 -162h-59l-101 87l-158 -87h-64l187 162h93z" />
    <glyph glyph-name="Atilde" unicode="&#xc3;" horiz-adv-x="730" 
d="M490 131l-19 92h-282l-57 -92q-9 -14 -14 -26.5t-5 -22.5q0 -19 19.5 -26.5t60.5 -8.5l-9 -47h-226l10 47q22 4 38.5 10.5t29.5 26.5l346 555l-18 70h132l133 -625q4 -19 18 -26.5t35 -10.5l-8 -47h-288l10 47q42 2 69 11t28 42q0 7 -1 15zM402 568l-179 -290h237z
M610 893l42 -11q-40 -79 -67.5 -104t-65.5 -25q-21 0 -38.5 11t-33.5 24t-30.5 24t-29.5 11q-23 0 -37 -16t-31 -44l-44 10q41 80 68.5 104.5t64.5 24.5q22 0 40 -11t33.5 -23.5t30 -23.5t29.5 -11q22 0 36.5 16t32.5 44z" />
    <glyph glyph-name="Adieresis" unicode="&#xc4;" horiz-adv-x="730" 
d="M490 131l-19 92h-282l-57 -92q-9 -14 -14 -26.5t-5 -22.5q0 -19 19.5 -26.5t60.5 -8.5l-9 -47h-226l10 47q22 4 38.5 10.5t29.5 26.5l346 555l-18 70h132l133 -625q4 -19 18 -26.5t35 -10.5l-8 -47h-288l10 47q42 2 69 11t28 42q0 7 -1 15zM402 568l-179 -290h237z
M364 762q-30 0 -48 19t-18 46q0 30 20.5 51.5t51.5 21.5q30 0 48 -19t18 -46q0 -30 -20.5 -51.5t-51.5 -21.5zM560 762q-30 0 -48 19t-18 46q0 30 20 51.5t51 21.5q30 0 48.5 -19t18.5 -46q0 -30 -20.5 -51.5t-51.5 -21.5z" />
    <glyph glyph-name="Aring" unicode="&#xc5;" horiz-adv-x="730" 
d="M490 131l-19 92h-282l-57 -92q-9 -14 -14 -26.5t-5 -22.5q0 -19 19.5 -26.5t60.5 -8.5l-9 -47h-226l10 47q22 4 38.5 10.5t29.5 26.5l346 555l-18 70h132l133 -625q4 -19 18 -26.5t35 -10.5l-8 -47h-288l10 47q42 2 69 11t28 42q0 7 -1 15zM402 568l-179 -290h237z
M460 793q26 0 40.5 17.5t14.5 41.5q0 19 -11.5 31t-32.5 12q-26 0 -40 -18t-14 -42q0 -19 11.5 -30.5t31.5 -11.5zM455 750q-40 0 -64 23.5t-24 60.5q0 44 31.5 74t77.5 30q40 0 64 -24t24 -61q0 -44 -31.5 -73.5t-77.5 -29.5z" />
    <glyph glyph-name="AE" unicode="&#xc6;" horiz-adv-x="1041" 
d="M36 84l483 542q-7 18 -26 23.5t-54 5.5l10 47h621l-38 -174h-40q-13 63 -31 92t-79 29h-167l-55 -262h134q34 0 54.5 20.5t37.5 65.5h43l-48 -227h-43q0 46 -10.5 66.5t-44.5 20.5h-134l-42 -197q-2 -12 -3.5 -22t-1.5 -15q0 -28 20 -37t63 -9h61q63 0 103.5 28.5
t103.5 106.5h44l-70 -188h-569l10 47q50 2 76 15t35 57l28 131h-249l-103 -116q-14 -15 -19 -28.5t-5 -23.5q0 -19 20 -26.5t61 -8.5l-9 -47h-245l10 47q22 4 37 11.5t31 25.5zM584 614l-280 -313h214z" />
    <glyph glyph-name="Ccedilla" unicode="&#xc7;" horiz-adv-x="677" 
d="M194 -225l-5 38q54 0 88.5 11.5t34.5 34.5q0 20 -22.5 29.5t-62.5 10.5l51 97q-104 19 -161.5 91t-57.5 182q0 90 32 171t88 141t132.5 95.5t164.5 35.5q67 0 123.5 -18t92.5 -48l-31 -152h-52q-6 81 -39.5 122t-97.5 41q-65 0 -117.5 -35t-88.5 -90.5t-55 -125.5
t-19 -139q0 -104 43 -161.5t121 -57.5q75 0 121.5 44t95.5 140h58l-46 -177q-49 -28 -107.5 -46.5t-127.5 -18.5q-10 0 -19 0.5t-18 1.5l-20 -39q46 -1 71.5 -17.5t25.5 -50.5q0 -56 -59 -83t-137 -27z" />
    <glyph glyph-name="Egrave" unicode="&#xc8;" horiz-adv-x="671" 
d="M-13 0l11 47q50 2 75.5 15t34.5 57l97 453q1 10 2.5 20t1.5 15q0 28 -19 37.5t-64 10.5l9 47h564l-37 -174h-41q-13 63 -31 92t-79 29h-166l-56 -262h135q33 0 53.5 20.5t37.5 65.5h43l-48 -227h-43q0 46 -10.5 66.5t-44.5 20.5h-134l-41 -197q-3 -12 -4 -22t-1 -15
q0 -28 20 -37t63 -9h60q63 0 103.5 28.5t103.5 106.5h44l-70 -188h-569zM304 910h140l50 -152h-56z" />
    <glyph glyph-name="Eacute" unicode="&#xc9;" horiz-adv-x="671" 
d="M-13 0l11 47q50 2 75.5 15t34.5 57l97 453q1 10 2.5 20t1.5 15q0 28 -19 37.5t-64 10.5l9 47h564l-37 -174h-41q-13 63 -31 92t-79 29h-166l-56 -262h135q33 0 53.5 20.5t37.5 65.5h43l-48 -227h-43q0 46 -10.5 66.5t-44.5 20.5h-134l-41 -197q-3 -12 -4 -22t-1 -15
q0 -28 20 -37t63 -9h60q63 0 103.5 28.5t103.5 106.5h44l-70 -188h-569zM513 910h152l-186 -152h-58z" />
    <glyph glyph-name="Ecircumflex" unicode="&#xca;" horiz-adv-x="671" 
d="M-13 0l11 47q50 2 75.5 15t34.5 57l97 453q1 10 2.5 20t1.5 15q0 28 -19 37.5t-64 10.5l9 47h564l-37 -174h-41q-13 63 -31 92t-79 29h-166l-56 -262h135q33 0 53.5 20.5t37.5 65.5h43l-48 -227h-43q0 46 -10.5 66.5t-44.5 20.5h-134l-41 -197q-3 -12 -4 -22t-1 -15
q0 -28 20 -37t63 -9h60q63 0 103.5 28.5t103.5 106.5h44l-70 -188h-569zM535 919l102 -162h-59l-101 87l-158 -87h-64l187 162h93z" />
    <glyph glyph-name="Edieresis" unicode="&#xcb;" horiz-adv-x="671" 
d="M-13 0l11 47q50 2 75.5 15t34.5 57l97 453q1 10 2.5 20t1.5 15q0 28 -19 37.5t-64 10.5l9 47h564l-37 -174h-41q-13 63 -31 92t-79 29h-166l-56 -262h135q33 0 53.5 20.5t37.5 65.5h43l-48 -227h-43q0 46 -10.5 66.5t-44.5 20.5h-134l-41 -197q-3 -12 -4 -22t-1 -15
q0 -28 20 -37t63 -9h60q63 0 103.5 28.5t103.5 106.5h44l-70 -188h-569zM371 762q-30 0 -48 19t-18 46q0 30 20.5 51.5t51.5 21.5q30 0 48 -19t18 -46q0 -30 -20.5 -51.5t-51.5 -21.5zM567 762q-30 0 -48 19t-18 46q0 30 20 51.5t51 21.5q30 0 48.5 -19t18.5 -46
q0 -30 -20.5 -51.5t-51.5 -21.5z" />
    <glyph glyph-name="Igrave" unicode="&#xcc;" horiz-adv-x="391" 
d="M332 583l-97 -453q-1 -10 -2.5 -20t-1.5 -15q0 -28 19 -37.5t64 -10.5l-9 -47h-318l11 47q50 2 75.5 15t34.5 57l97 453q1 10 2.5 20t1.5 15q0 28 -19 37.5t-64 10.5l9 47h318l-11 -47q-50 -2 -75.5 -15t-34.5 -57zM154 910h140l50 -152h-56z" />
    <glyph glyph-name="Iacute" unicode="&#xcd;" horiz-adv-x="391" 
d="M332 583l-97 -453q-1 -10 -2.5 -20t-1.5 -15q0 -28 19 -37.5t64 -10.5l-9 -47h-318l11 47q50 2 75.5 15t34.5 57l97 453q1 10 2.5 20t1.5 15q0 28 -19 37.5t-64 10.5l9 47h318l-11 -47q-50 -2 -75.5 -15t-34.5 -57zM363 910h152l-186 -152h-58z" />
    <glyph glyph-name="Icircumflex" unicode="&#xce;" horiz-adv-x="391" 
d="M332 583l-97 -453q-1 -10 -2.5 -20t-1.5 -15q0 -28 19 -37.5t64 -10.5l-9 -47h-318l11 47q50 2 75.5 15t34.5 57l97 453q1 10 2.5 20t1.5 15q0 28 -19 37.5t-64 10.5l9 47h318l-11 -47q-50 -2 -75.5 -15t-34.5 -57zM385 919l102 -162h-59l-101 87l-158 -87h-64l187 162
h93z" />
    <glyph glyph-name="Idieresis" unicode="&#xcf;" horiz-adv-x="391" 
d="M332 583l-97 -453q-1 -10 -2.5 -20t-1.5 -15q0 -28 19 -37.5t64 -10.5l-9 -47h-318l11 47q50 2 75.5 15t34.5 57l97 453q1 10 2.5 20t1.5 15q0 28 -19 37.5t-64 10.5l9 47h318l-11 -47q-50 -2 -75.5 -15t-34.5 -57zM221 762q-30 0 -48 19t-18 46q0 30 20.5 51.5
t51.5 21.5q30 0 48 -19t18 -46q0 -30 -20.5 -51.5t-51.5 -21.5zM417 762q-30 0 -48 19t-18 46q0 30 20 51.5t51 21.5q30 0 48.5 -19t18.5 -46q0 -30 -20.5 -51.5t-51.5 -21.5z" />
    <glyph glyph-name="Eth" unicode="&#xd0;" horiz-adv-x="770" 
d="M68 335l11 51h96l40 186q1 10 2.5 20t1.5 15q0 28 -19 37.5t-64 10.5l9 47h285q167 0 245 -81.5t78 -206.5q0 -90 -33.5 -166t-92.5 -131t-140 -86t-175 -31h-315l11 47q50 2 75.5 15t34.5 57l46 216h-96zM415 649h-60l-56 -263h160l-11 -51h-160l-41 -196
q-3 -13 -4 -23.5t-1 -16.5q0 -28 16.5 -36.5t57.5 -8.5h8q64 0 118.5 28t94 77t61.5 116.5t22 144.5q0 96 -45 162.5t-160 66.5z" />
    <glyph glyph-name="Ntilde" unicode="&#xd1;" horiz-adv-x="791" 
d="M594 198l79 374q2 10 3.5 20t1.5 15q0 28 -19 37.5t-65 10.5l10 47h260l-10 -47q-50 -2 -76 -15t-35 -57l-122 -583h-54l-302 541l-86 -411q-2 -10 -3.5 -20t-1.5 -15q0 -28 19 -37.5t65 -10.5l-10 -47h-261l11 47q50 2 75.5 15t34.5 57l103 481q-21 34 -36.5 44
t-49.5 11l10 47h187zM658 893l42 -11q-40 -79 -67.5 -104t-65.5 -25q-21 0 -38.5 11t-33.5 24t-30.5 24t-29.5 11q-23 0 -37 -16t-31 -44l-44 10q41 80 68.5 104.5t64.5 24.5q22 0 40 -11t33.5 -23.5t30 -23.5t29.5 -11q22 0 36.5 16t32.5 44z" />
    <glyph glyph-name="Ograve" unicode="&#xd2;" horiz-adv-x="733" 
d="M332 48q58 0 104.5 34.5t79 90t50 124.5t17.5 138q0 94 -33 156.5t-107 62.5q-57 0 -103.5 -34.5t-79 -89.5t-50 -124.5t-17.5 -137.5q0 -94 32.5 -157t106.5 -63zM330 -10q-130 0 -200.5 80.5t-70.5 204.5q0 87 29.5 166.5t81 139t122.5 95.5t153 36q131 0 201 -80
t70 -204q0 -87 -29 -166.5t-80.5 -139.5t-122.5 -96t-154 -36zM321 910h140l50 -152h-56z" />
    <glyph glyph-name="Oacute" unicode="&#xd3;" horiz-adv-x="733" 
d="M332 48q58 0 104.5 34.5t79 90t50 124.5t17.5 138q0 94 -33 156.5t-107 62.5q-57 0 -103.5 -34.5t-79 -89.5t-50 -124.5t-17.5 -137.5q0 -94 32.5 -157t106.5 -63zM330 -10q-130 0 -200.5 80.5t-70.5 204.5q0 87 29.5 166.5t81 139t122.5 95.5t153 36q131 0 201 -80
t70 -204q0 -87 -29 -166.5t-80.5 -139.5t-122.5 -96t-154 -36zM530 910h152l-186 -152h-58z" />
    <glyph glyph-name="Ocircumflex" unicode="&#xd4;" horiz-adv-x="733" 
d="M332 48q58 0 104.5 34.5t79 90t50 124.5t17.5 138q0 94 -33 156.5t-107 62.5q-57 0 -103.5 -34.5t-79 -89.5t-50 -124.5t-17.5 -137.5q0 -94 32.5 -157t106.5 -63zM330 -10q-130 0 -200.5 80.5t-70.5 204.5q0 87 29.5 166.5t81 139t122.5 95.5t153 36q131 0 201 -80
t70 -204q0 -87 -29 -166.5t-80.5 -139.5t-122.5 -96t-154 -36zM552 919l102 -162h-59l-101 87l-158 -87h-64l187 162h93z" />
    <glyph glyph-name="Otilde" unicode="&#xd5;" horiz-adv-x="733" 
d="M332 48q58 0 104.5 34.5t79 90t50 124.5t17.5 138q0 94 -33 156.5t-107 62.5q-57 0 -103.5 -34.5t-79 -89.5t-50 -124.5t-17.5 -137.5q0 -94 32.5 -157t106.5 -63zM330 -10q-130 0 -200.5 80.5t-70.5 204.5q0 87 29.5 166.5t81 139t122.5 95.5t153 36q131 0 201 -80
t70 -204q0 -87 -29 -166.5t-80.5 -139.5t-122.5 -96t-154 -36zM634 893l42 -11q-40 -79 -67.5 -104t-65.5 -25q-21 0 -38.5 11t-33.5 24t-30.5 24t-29.5 11q-23 0 -37 -16t-31 -44l-44 10q41 80 68.5 104.5t64.5 24.5q22 0 40 -11t33.5 -23.5t30 -23.5t29.5 -11
q22 0 36.5 16t32.5 44z" />
    <glyph glyph-name="Odieresis" unicode="&#xd6;" horiz-adv-x="733" 
d="M332 48q58 0 104.5 34.5t79 90t50 124.5t17.5 138q0 94 -33 156.5t-107 62.5q-57 0 -103.5 -34.5t-79 -89.5t-50 -124.5t-17.5 -137.5q0 -94 32.5 -157t106.5 -63zM330 -10q-130 0 -200.5 80.5t-70.5 204.5q0 87 29.5 166.5t81 139t122.5 95.5t153 36q131 0 201 -80
t70 -204q0 -87 -29 -166.5t-80.5 -139.5t-122.5 -96t-154 -36zM388 762q-30 0 -48 19t-18 46q0 30 20.5 51.5t51.5 21.5q30 0 48 -19t18 -46q0 -30 -20.5 -51.5t-51.5 -21.5zM584 762q-30 0 -48 19t-18 46q0 30 20 51.5t51 21.5q30 0 48.5 -19t18.5 -46q0 -30 -20.5 -51.5
t-51.5 -21.5z" />
    <glyph glyph-name="multiply" unicode="&#xd7;" horiz-adv-x="499" 
d="M218 369l-107 135l57 48l105 -138l166 138l39 -51l-165 -136l107 -136l-56 -46l-107 136l-164 -136l-39 49z" />
    <glyph glyph-name="Oslash" unicode="&#xd8;" horiz-adv-x="733" 
d="M656 739l-46 -75q51 -37 78.5 -98.5t27.5 -137.5q0 -87 -29 -166.5t-80.5 -139.5t-122.5 -96t-154 -36q-34 0 -64.5 6.5t-56.5 16.5l-53 -85l-43 25l52 85q-51 37 -78.5 98.5t-27.5 138.5q0 87 29.5 166.5t81 139t122.5 95.5t153 36q34 0 64.5 -6.5t56.5 -17.5l47 76z
M332 48q58 0 105 34.5t79.5 89.5t50.5 124t18 137q0 43 -7 81t-20 66l-310 -502q16 -15 37 -22.5t47 -7.5zM190 270q0 -44 6.5 -82t20.5 -66l309 502q-16 14 -37 22t-46 8q-57 0 -104 -34.5t-80 -89.5t-51 -123.5t-18 -136.5z" />
    <glyph glyph-name="Ugrave" unicode="&#xd9;" horiz-adv-x="766" 
d="M590 254l67 318q2 10 3.5 20t1.5 15q0 28 -19 37.5t-64 10.5l9 47h260l-10 -47q-50 -2 -76 -15t-35 -57l-74 -351q-26 -126 -107.5 -184t-185.5 -58q-119 0 -183.5 55.5t-64.5 158.5q0 16 2 34.5t6 39.5l61 294q2 10 3.5 20t1.5 15q0 28 -19 37.5t-65 10.5l10 47h317
l-10 -47q-50 -2 -75.5 -15t-35.5 -57l-65 -308q-4 -17 -6 -32.5t-2 -30.5q0 -68 37 -108.5t106 -40.5q81 0 135.5 42t76.5 149zM367 910h140l50 -152h-56z" />
    <glyph glyph-name="Uacute" unicode="&#xda;" horiz-adv-x="766" 
d="M590 254l67 318q2 10 3.5 20t1.5 15q0 28 -19 37.5t-64 10.5l9 47h260l-10 -47q-50 -2 -76 -15t-35 -57l-74 -351q-26 -126 -107.5 -184t-185.5 -58q-119 0 -183.5 55.5t-64.5 158.5q0 16 2 34.5t6 39.5l61 294q2 10 3.5 20t1.5 15q0 28 -19 37.5t-65 10.5l10 47h317
l-10 -47q-50 -2 -75.5 -15t-35.5 -57l-65 -308q-4 -17 -6 -32.5t-2 -30.5q0 -68 37 -108.5t106 -40.5q81 0 135.5 42t76.5 149zM577 910h152l-186 -152h-58z" />
    <glyph glyph-name="Ucircumflex" unicode="&#xdb;" horiz-adv-x="766" 
d="M590 254l67 318q2 10 3.5 20t1.5 15q0 28 -19 37.5t-64 10.5l9 47h260l-10 -47q-50 -2 -76 -15t-35 -57l-74 -351q-26 -126 -107.5 -184t-185.5 -58q-119 0 -183.5 55.5t-64.5 158.5q0 16 2 34.5t6 39.5l61 294q2 10 3.5 20t1.5 15q0 28 -19 37.5t-65 10.5l10 47h317
l-10 -47q-50 -2 -75.5 -15t-35.5 -57l-65 -308q-4 -17 -6 -32.5t-2 -30.5q0 -68 37 -108.5t106 -40.5q81 0 135.5 42t76.5 149zM599 919l102 -162h-59l-101 87l-158 -87h-64l187 162h93z" />
    <glyph glyph-name="Udieresis" unicode="&#xdc;" horiz-adv-x="766" 
d="M590 254l67 318q2 10 3.5 20t1.5 15q0 28 -19 37.5t-64 10.5l9 47h260l-10 -47q-50 -2 -76 -15t-35 -57l-74 -351q-26 -126 -107.5 -184t-185.5 -58q-119 0 -183.5 55.5t-64.5 158.5q0 16 2 34.5t6 39.5l61 294q2 10 3.5 20t1.5 15q0 28 -19 37.5t-65 10.5l10 47h317
l-10 -47q-50 -2 -75.5 -15t-35.5 -57l-65 -308q-4 -17 -6 -32.5t-2 -30.5q0 -68 37 -108.5t106 -40.5q81 0 135.5 42t76.5 149zM435 762q-30 0 -48 19t-18 46q0 30 20.5 51.5t51.5 21.5q30 0 48 -19t18 -46q0 -30 -20.5 -51.5t-51.5 -21.5zM631 762q-30 0 -48 19t-18 46
q0 30 20 51.5t51 21.5q30 0 48.5 -19t18.5 -46q0 -30 -20.5 -51.5t-51.5 -21.5z" />
    <glyph glyph-name="Yacute" unicode="&#xdd;" horiz-adv-x="674" 
d="M381 332l192 235q14 17 22 30.5t8 23.5q0 17 -17 24t-60 10l10 47h230l-11 -47q-22 -4 -37.5 -11t-31.5 -26l-283 -343l-31 -145q-3 -10 -4 -19.5t-1 -14.5q0 -28 23.5 -38t69.5 -11l-10 -47h-329l10 47q50 2 80 15t40 57l33 156l-135 343q-7 19 -19 26t-33 11l10 47h282
l-11 -47q-39 0 -66 -8t-28 -38q0 -9 3 -19.5t7 -22.5zM532 910h152l-186 -152h-58z" />
    <glyph glyph-name="Thorn" unicode="&#xde;" horiz-adv-x="641" 
d="M314 499l-63 -292h64q90 0 146.5 36.5t56.5 129.5q0 61 -36.5 93.5t-110.5 32.5h-57zM331 583l-6 -30h85q122 0 179 -49.5t57 -127.5q0 -114 -90.5 -167t-231.5 -53h-83l-4 -19q-2 -10 -4 -21t-2 -18q0 -33 29.5 -41.5t83.5 -10.5l-9 -46h-348l11 47q50 2 75.5 15
t34.5 57l97 453q1 10 2.5 20t1.5 15q0 28 -19 37.5t-64 10.5l9 47h318l-11 -47q-50 -2 -75.5 -15t-35.5 -57z" />
    <glyph glyph-name="germandbls" unicode="&#xdf;" horiz-adv-x="631" 
d="M56 482l12 54h80q28 103 96.5 167t175.5 64q73 0 119 -31.5t46 -88.5q0 -55 -33 -91t-76 -64q-21 -16 -33.5 -28.5t-12.5 -33.5q0 -24 25 -53t55.5 -62t55.5 -71t25 -79q0 -79 -56.5 -127t-137.5 -48q-71 0 -111.5 31.5t-40.5 77.5q0 24 13.5 42t35.5 27h14
q13 -60 42 -96t74 -36q32 0 50.5 18.5t18.5 53.5q0 34 -25 69t-54.5 69.5t-54.5 70t-25 70.5q0 34 21 60t67 64q29 23 47.5 56.5t18.5 71.5q0 40 -21 62.5t-58 22.5q-60 0 -89 -43t-42 -109l-82 -392q-45 -216 -105 -301.5t-149 -85.5q-45 0 -73 18t-28 49t19 46.5t41 19.5
h19q5 -41 18 -65.5t37 -24.5q11 0 21 7.5t20 31.5t21.5 69t24.5 120l75 418h-81z" />
    <glyph glyph-name="agrave" unicode="&#xe0;" horiz-adv-x="626" 
d="M200 73q54 0 121.5 105.5t108.5 274.5q-12 23 -28.5 34.5t-41.5 11.5q-46 0 -84.5 -32t-66.5 -81t-44 -110t-16 -118q0 -38 13 -61.5t38 -23.5zM460 502l73 49h46l-37 -120l-74 -305q-4 -14 -6.5 -25.5t-2.5 -17.5q0 -7 3.5 -11t10.5 -4q14 0 35.5 17.5t52.5 57.5l24 -23
q-46 -69 -86 -99.5t-83 -30.5q-34 0 -51.5 22t-17.5 58q0 23 11.5 67t24.5 84h-7q-21 -45 -46.5 -87t-54 -74t-60 -51t-65.5 -19q-54 0 -86 42t-32 116q0 77 26.5 149.5t70 127.5t101 88t119.5 33q37 0 63.5 -11.5t47.5 -32.5zM229 763h141l55 -167h-56z" />
    <glyph glyph-name="aacute" unicode="&#xe1;" horiz-adv-x="626" 
d="M200 73q54 0 121.5 105.5t108.5 274.5q-12 23 -28.5 34.5t-41.5 11.5q-46 0 -84.5 -32t-66.5 -81t-44 -110t-16 -118q0 -38 13 -61.5t38 -23.5zM460 502l73 49h46l-37 -120l-74 -305q-4 -14 -6.5 -25.5t-2.5 -17.5q0 -7 3.5 -11t10.5 -4q14 0 35.5 17.5t52.5 57.5l24 -23
q-46 -69 -86 -99.5t-83 -30.5q-34 0 -51.5 22t-17.5 58q0 23 11.5 67t24.5 84h-7q-21 -45 -46.5 -87t-54 -74t-60 -51t-65.5 -19q-54 0 -86 42t-32 116q0 77 26.5 149.5t70 127.5t101 88t119.5 33q37 0 63.5 -11.5t47.5 -32.5zM450 763h154l-193 -167h-61z" />
    <glyph glyph-name="acircumflex" unicode="&#xe2;" horiz-adv-x="626" 
d="M200 73q54 0 121.5 105.5t108.5 274.5q-12 23 -28.5 34.5t-41.5 11.5q-46 0 -84.5 -32t-66.5 -81t-44 -110t-16 -118q0 -38 13 -61.5t38 -23.5zM460 502l73 49h46l-37 -120l-74 -305q-4 -14 -6.5 -25.5t-2.5 -17.5q0 -7 3.5 -11t10.5 -4q14 0 35.5 17.5t52.5 57.5l24 -23
q-46 -69 -86 -99.5t-83 -30.5q-34 0 -51.5 22t-17.5 58q0 23 11.5 67t24.5 84h-7q-21 -45 -46.5 -87t-54 -74t-60 -51t-65.5 -19q-54 0 -86 42t-32 116q0 77 26.5 149.5t70 127.5t101 88t119.5 33q37 0 63.5 -11.5t47.5 -32.5zM464 763l95 -169h-58l-95 94l-151 -94h-63
l180 169h92z" />
    <glyph glyph-name="atilde" unicode="&#xe3;" horiz-adv-x="626" 
d="M200 73q54 0 121.5 105.5t108.5 274.5q-12 23 -28.5 34.5t-41.5 11.5q-46 0 -84.5 -32t-66.5 -81t-44 -110t-16 -118q0 -38 13 -61.5t38 -23.5zM460 502l73 49h46l-37 -120l-74 -305q-4 -14 -6.5 -25.5t-2.5 -17.5q0 -7 3.5 -11t10.5 -4q14 0 35.5 17.5t52.5 57.5l24 -23
q-46 -69 -86 -99.5t-83 -30.5q-34 0 -51.5 22t-17.5 58q0 23 11.5 67t24.5 84h-7q-21 -45 -46.5 -87t-54 -74t-60 -51t-65.5 -19q-54 0 -86 42t-32 116q0 77 26.5 149.5t70 127.5t101 88t119.5 33q37 0 63.5 -11.5t47.5 -32.5zM550 750l42 -10q-40 -80 -67.5 -104.5
t-65.5 -24.5q-21 0 -38.5 11t-33.5 23.5t-30.5 23.5t-29.5 11q-23 0 -37 -16t-31 -44l-44 10q41 80 68.5 104.5t64.5 24.5q22 0 40 -11t33.5 -23.5t30 -23.5t29.5 -11q22 0 36.5 16t32.5 44z" />
    <glyph glyph-name="adieresis" unicode="&#xe4;" horiz-adv-x="626" 
d="M200 73q54 0 121.5 105.5t108.5 274.5q-12 23 -28.5 34.5t-41.5 11.5q-46 0 -84.5 -32t-66.5 -81t-44 -110t-16 -118q0 -38 13 -61.5t38 -23.5zM460 502l73 49h46l-37 -120l-74 -305q-4 -14 -6.5 -25.5t-2.5 -17.5q0 -7 3.5 -11t10.5 -4q14 0 35.5 17.5t52.5 57.5l24 -23
q-46 -69 -86 -99.5t-83 -30.5q-34 0 -51.5 22t-17.5 58q0 23 11.5 67t24.5 84h-7q-21 -45 -46.5 -87t-54 -74t-60 -51t-65.5 -19q-54 0 -86 42t-32 116q0 77 26.5 149.5t70 127.5t101 88t119.5 33q37 0 63.5 -11.5t47.5 -32.5zM302 611q-30 0 -48 19.5t-18 46.5
q0 29 20.5 51t51.5 22q30 0 48 -19t18 -47q0 -29 -20.5 -51t-51.5 -22zM498 611q-30 0 -48 19.5t-18 46.5q0 29 20 51t51 22q30 0 48.5 -19t18.5 -47q0 -29 -20.5 -51t-51.5 -22z" />
    <glyph glyph-name="aring" unicode="&#xe5;" horiz-adv-x="626" 
d="M200 73q54 0 121.5 105.5t108.5 274.5q-12 23 -28.5 34.5t-41.5 11.5q-46 0 -84.5 -32t-66.5 -81t-44 -110t-16 -118q0 -38 13 -61.5t38 -23.5zM460 502l73 49h46l-37 -120l-74 -305q-4 -14 -6.5 -25.5t-2.5 -17.5q0 -7 3.5 -11t10.5 -4q14 0 35.5 17.5t52.5 57.5l24 -23
q-46 -69 -86 -99.5t-83 -30.5q-34 0 -51.5 22t-17.5 58q0 23 11.5 67t24.5 84h-7q-21 -45 -46.5 -87t-54 -74t-60 -51t-65.5 -19q-54 0 -86 42t-32 116q0 77 26.5 149.5t70 127.5t101 88t119.5 33q37 0 63.5 -11.5t47.5 -32.5zM398 634q26 0 40 17.5t14 41.5q0 19 -11.5 31
t-31.5 12q-26 0 -40.5 -17.5t-14.5 -41.5q0 -19 11.5 -31t32.5 -12zM393 591q-40 0 -64 23.5t-24 60.5q0 44 31.5 74t77.5 30q40 0 64 -24t24 -61q0 -44 -31.5 -73.5t-77.5 -29.5z" />
    <glyph glyph-name="ae" unicode="&#xe6;" horiz-adv-x="799" 
d="M347 546q42 0 74.5 -17.5t57.5 -50.5q37 31 82.5 49.5t94.5 18.5q64 0 95.5 -33.5t31.5 -80.5q0 -43 -27.5 -76t-72.5 -57.5t-104 -42.5t-121 -32v-24q0 -63 28 -101t77 -38q44 0 82 24t75 67l26 -22q-53 -75 -109.5 -107.5t-119.5 -32.5q-81 0 -123 50.5t-49 120.5
q-40 -71 -89.5 -121t-105.5 -50q-54 0 -86 42t-32 116q0 77 26.5 149.5t69.5 127.5t100.5 88t118.5 33zM200 73q31 0 69.5 38t75.5 107q4 62 30.5 121t67.5 105q-13 23 -33 40t-50 17q-46 0 -84.5 -32t-66.5 -82t-44 -111t-16 -118q0 -38 13 -61.5t38 -23.5zM630 492
q-57 0 -106 -69.5t-62 -165.5q110 33 165 72.5t55 99.5q0 26 -13 44.5t-39 18.5z" />
    <glyph glyph-name="ccedilla" unicode="&#xe7;" horiz-adv-x="477" 
d="M59 -225l-5 38q54 0 88.5 11.5t34.5 34.5q0 20 -22.5 29.5t-62.5 10.5l52 99q-56 17 -83 66.5t-27 116.5q0 66 23.5 131.5t65.5 117t99.5 84t124.5 32.5q57 0 90 -24.5t33 -68.5q0 -28 -17 -47t-41 -27h-29q0 49 -15 83t-51 34q-33 0 -63 -27.5t-52.5 -70t-36 -95.5
t-13.5 -104q0 -55 20.5 -95.5t70.5 -40.5q44 0 79 21.5t74 66.5l24 -22q-35 -58 -90.5 -98.5t-126.5 -40.5q-7 0 -13 0.5t-12 1.5l-20 -39q46 -1 71.5 -17.5t25.5 -50.5q0 -56 -59 -83t-137 -27z" />
    <glyph glyph-name="egrave" unicode="&#xe8;" horiz-adv-x="489" 
d="M473 432q0 -43 -27.5 -76t-72.5 -57.5t-104 -42.5t-121 -32v-24q0 -63 28 -101t77 -38q44 0 82.5 24t74.5 67l26 -22q-53 -75 -109.5 -107.5t-118.5 -32.5q-90 0 -132 61t-42 141q0 65 24.5 129t67 113.5t99.5 80.5t121 31t95.5 -33.5t31.5 -80.5zM320 492
q-57 0 -106 -69.5t-62 -165.5q110 33 165 72.5t55 99.5q0 26 -13 44.5t-39 18.5zM181 763h141l55 -167h-56z" />
    <glyph glyph-name="eacute" unicode="&#xe9;" horiz-adv-x="489" 
d="M473 432q0 -43 -27.5 -76t-72.5 -57.5t-104 -42.5t-121 -32v-24q0 -63 28 -101t77 -38q44 0 82.5 24t74.5 67l26 -22q-53 -75 -109.5 -107.5t-118.5 -32.5q-90 0 -132 61t-42 141q0 65 24.5 129t67 113.5t99.5 80.5t121 31t95.5 -33.5t31.5 -80.5zM320 492
q-57 0 -106 -69.5t-62 -165.5q110 33 165 72.5t55 99.5q0 26 -13 44.5t-39 18.5zM402 763h154l-193 -167h-61z" />
    <glyph glyph-name="ecircumflex" unicode="&#xea;" horiz-adv-x="489" 
d="M473 432q0 -43 -27.5 -76t-72.5 -57.5t-104 -42.5t-121 -32v-24q0 -63 28 -101t77 -38q44 0 82.5 24t74.5 67l26 -22q-53 -75 -109.5 -107.5t-118.5 -32.5q-90 0 -132 61t-42 141q0 65 24.5 129t67 113.5t99.5 80.5t121 31t95.5 -33.5t31.5 -80.5zM320 492
q-57 0 -106 -69.5t-62 -165.5q110 33 165 72.5t55 99.5q0 26 -13 44.5t-39 18.5zM416 763l95 -169h-58l-95 94l-151 -94h-63l180 169h92z" />
    <glyph glyph-name="edieresis" unicode="&#xeb;" horiz-adv-x="489" 
d="M473 432q0 -43 -27.5 -76t-72.5 -57.5t-104 -42.5t-121 -32v-24q0 -63 28 -101t77 -38q44 0 82.5 24t74.5 67l26 -22q-53 -75 -109.5 -107.5t-118.5 -32.5q-90 0 -132 61t-42 141q0 65 24.5 129t67 113.5t99.5 80.5t121 31t95.5 -33.5t31.5 -80.5zM320 492
q-57 0 -106 -69.5t-62 -165.5q110 33 165 72.5t55 99.5q0 26 -13 44.5t-39 18.5zM254 611q-30 0 -48 19.5t-18 46.5q0 29 20.5 51t51.5 22q30 0 48 -19t18 -47q0 -29 -20.5 -51t-51.5 -22zM450 611q-30 0 -48 19.5t-18 46.5q0 29 20 51t51 22q30 0 48.5 -19t18.5 -47
q0 -29 -20.5 -51t-51.5 -22z" />
    <glyph glyph-name="igrave" unicode="&#xec;" horiz-adv-x="345" 
d="M285 546l-104 -420q-4 -14 -6.5 -25.5t-2.5 -17.5q0 -7 3.5 -11t10.5 -4q14 0 36 17.5t53 57.5l24 -23q-47 -69 -86.5 -99.5t-82.5 -30.5q-34 0 -54.5 21t-20.5 55q0 18 3.5 38t10.5 48l74 298l-69 35l7 25l176 36h28zM80 763h141l55 -167h-56z" />
    <glyph glyph-name="iacute" unicode="&#xed;" horiz-adv-x="345" 
d="M285 546l-104 -420q-4 -14 -6.5 -25.5t-2.5 -17.5q0 -7 3.5 -11t10.5 -4q14 0 36 17.5t53 57.5l24 -23q-47 -69 -86.5 -99.5t-82.5 -30.5q-34 0 -54.5 21t-20.5 55q0 18 3.5 38t10.5 48l74 298l-69 35l7 25l176 36h28zM298 763h154l-193 -167h-61z" />
    <glyph glyph-name="icircumflex" unicode="&#xee;" horiz-adv-x="345" 
d="M285 546l-104 -420q-4 -14 -6.5 -25.5t-2.5 -17.5q0 -7 3.5 -11t10.5 -4q14 0 36 17.5t53 57.5l24 -23q-47 -69 -86.5 -99.5t-82.5 -30.5q-34 0 -54.5 21t-20.5 55q0 18 3.5 38t10.5 48l74 298l-69 35l7 25l176 36h28zM315 763l95 -169h-58l-95 94l-151 -94h-63l180 169
h92z" />
    <glyph glyph-name="idieresis" unicode="&#xef;" horiz-adv-x="345" 
d="M285 546l-104 -420q-4 -14 -6.5 -25.5t-2.5 -17.5q0 -7 3.5 -11t10.5 -4q14 0 36 17.5t53 57.5l24 -23q-47 -69 -86.5 -99.5t-82.5 -30.5q-34 0 -54.5 21t-20.5 55q0 18 3.5 38t10.5 48l74 298l-69 35l7 25l176 36h28zM153 611q-30 0 -48 19.5t-18 46.5q0 29 20.5 51
t51.5 22q30 0 48 -19t18 -47q0 -29 -20.5 -51t-51.5 -22zM349 611q-30 0 -48 19.5t-18 46.5q0 29 20 51t51 22q30 0 48.5 -19t18.5 -47q0 -29 -20.5 -51t-51.5 -22z" />
    <glyph glyph-name="eth" unicode="&#xf0;" horiz-adv-x="547" 
d="M161 576l-16 38l139 53q-22 20 -50.5 39.5t-63.5 36.5l24 33q46 -16 85 -37t72 -46l109 42l15 -38l-89 -34q63 -61 95.5 -140.5t32.5 -168.5q0 -71 -21.5 -137t-60 -116t-92.5 -80.5t-119 -30.5q-83 0 -135 55.5t-52 154.5q0 64 21.5 126t59 109.5t90.5 77t115 29.5
q14 0 27.5 -2.5t25.5 -6.5q-9 28 -23.5 53.5t-33.5 48.5zM395 369q0 29 -2.5 57t-6.5 53q-12 9 -27.5 12.5t-31.5 3.5q-40 0 -72.5 -32.5t-55 -81.5t-34.5 -107t-12 -108q0 -60 18.5 -94.5t53.5 -34.5q39 0 70.5 33t53.5 82.5t34 108t12 108.5z" />
    <glyph glyph-name="ntilde" unicode="&#xf1;" horiz-adv-x="645" 
d="M285 547l-32 -128l-41 -126h7q26 45 59.5 90.5t70 81.5t75 58.5t74.5 22.5q40 0 57 -21t17 -55q0 -10 -2 -22t-4 -22l-80 -300q-4 -14 -6.5 -25.5t-2.5 -17.5q0 -7 3.5 -11t10.5 -4q14 0 35.5 17.5t53.5 57.5l23 -23q-46 -69 -85.5 -99.5t-82.5 -30.5q-34 0 -55 21
t-21 55q0 18 3.5 38t10.5 48l72 260q2 10 3.5 18.5t1.5 14.5q0 10 -4 15.5t-14 5.5q-20 0 -54.5 -26t-70.5 -70.5t-69 -104.5t-50 -127l-35 -138h-118l112 450l-68 35l7 25l171 37h28zM557 750l42 -10q-40 -80 -67.5 -104.5t-65.5 -24.5q-21 0 -38.5 11t-33.5 23.5
t-30.5 23.5t-29.5 11q-23 0 -37 -16t-31 -44l-44 10q41 80 68.5 104.5t64.5 24.5q22 0 40 -11t33.5 -23.5t30 -23.5t29.5 -11q22 0 36.5 16t32.5 44z" />
    <glyph glyph-name="ograve" unicode="&#xf2;" horiz-adv-x="548" 
d="M225 37q39 0 70.5 33t53.5 82.5t34 108t12 108.5q0 60 -18.5 95t-53.5 35q-39 0 -70.5 -33t-53.5 -82.5t-34 -108.5t-12 -109q0 -60 18.5 -94.5t53.5 -34.5zM221 -10q-83 0 -135 55.5t-52 154.5q0 64 21.5 126.5t60 111t92.5 78.5t119 30q83 0 135 -55.5t52 -154.5
q0 -64 -21.5 -126.5t-60 -111t-92.5 -78.5t-119 -30zM192 763h141l55 -167h-56z" />
    <glyph glyph-name="oacute" unicode="&#xf3;" horiz-adv-x="548" 
d="M225 37q39 0 70.5 33t53.5 82.5t34 108t12 108.5q0 60 -18.5 95t-53.5 35q-39 0 -70.5 -33t-53.5 -82.5t-34 -108.5t-12 -109q0 -60 18.5 -94.5t53.5 -34.5zM221 -10q-83 0 -135 55.5t-52 154.5q0 64 21.5 126.5t60 111t92.5 78.5t119 30q83 0 135 -55.5t52 -154.5
q0 -64 -21.5 -126.5t-60 -111t-92.5 -78.5t-119 -30zM407 763h154l-193 -167h-61z" />
    <glyph glyph-name="ocircumflex" unicode="&#xf4;" horiz-adv-x="548" 
d="M225 37q39 0 70.5 33t53.5 82.5t34 108t12 108.5q0 60 -18.5 95t-53.5 35q-39 0 -70.5 -33t-53.5 -82.5t-34 -108.5t-12 -109q0 -60 18.5 -94.5t53.5 -34.5zM221 -10q-83 0 -135 55.5t-52 154.5q0 64 21.5 126.5t60 111t92.5 78.5t119 30q83 0 135 -55.5t52 -154.5
q0 -64 -21.5 -126.5t-60 -111t-92.5 -78.5t-119 -30zM421 763l95 -169h-58l-95 94l-151 -94h-63l180 169h92z" />
    <glyph glyph-name="otilde" unicode="&#xf5;" horiz-adv-x="548" 
d="M225 37q39 0 70.5 33t53.5 82.5t34 108t12 108.5q0 60 -18.5 95t-53.5 35q-39 0 -70.5 -33t-53.5 -82.5t-34 -108.5t-12 -109q0 -60 18.5 -94.5t53.5 -34.5zM221 -10q-83 0 -135 55.5t-52 154.5q0 64 21.5 126.5t60 111t92.5 78.5t119 30q83 0 135 -55.5t52 -154.5
q0 -64 -21.5 -126.5t-60 -111t-92.5 -78.5t-119 -30zM511 750l42 -10q-40 -80 -67.5 -104.5t-65.5 -24.5q-21 0 -38.5 11t-33.5 23.5t-30.5 23.5t-29.5 11q-23 0 -37 -16t-31 -44l-44 10q41 80 68.5 104.5t64.5 24.5q22 0 40 -11t33.5 -23.5t30 -23.5t29.5 -11q22 0 36.5 16
t32.5 44z" />
    <glyph glyph-name="odieresis" unicode="&#xf6;" horiz-adv-x="548" 
d="M225 37q39 0 70.5 33t53.5 82.5t34 108t12 108.5q0 60 -18.5 95t-53.5 35q-39 0 -70.5 -33t-53.5 -82.5t-34 -108.5t-12 -109q0 -60 18.5 -94.5t53.5 -34.5zM221 -10q-83 0 -135 55.5t-52 154.5q0 64 21.5 126.5t60 111t92.5 78.5t119 30q83 0 135 -55.5t52 -154.5
q0 -64 -21.5 -126.5t-60 -111t-92.5 -78.5t-119 -30zM259 611q-30 0 -48 19.5t-18 46.5q0 29 20.5 51t51.5 22q30 0 48 -19t18 -47q0 -29 -20.5 -51t-51.5 -22zM455 611q-30 0 -48 19.5t-18 46.5q0 29 20 51t51 22q30 0 48.5 -19t18.5 -47q0 -29 -20.5 -51t-51.5 -22z" />
    <glyph glyph-name="divide" unicode="&#xf7;" horiz-adv-x="575" 
d="M72 333l16 72h444l-16 -72h-444zM207 195q0 26 17.5 44t41.5 18q26 0 44 -18t18 -44q0 -25 -18 -43t-44 -18q-24 0 -41.5 18t-17.5 43zM276 543q0 25 18 42.5t42 17.5q26 0 44.5 -17.5t18.5 -42.5t-18.5 -43.5t-44.5 -18.5q-24 0 -42 18.5t-18 43.5z" />
    <glyph glyph-name="oslash" unicode="&#xf8;" horiz-adv-x="563" 
d="M495 581l-44 -72q35 -26 56 -70t21 -103q0 -64 -22.5 -126.5t-62 -111t-95 -78.5t-120.5 -30q-22 0 -42.5 4t-38.5 11l-53 -87l-38 23l53 87q-34 26 -54 70t-20 102q0 64 22.5 126.5t62 111t94.5 78.5t120 30q21 0 41 -4t38 -11l44 72zM233 37q39 0 72.5 33t57.5 82
t38 106.5t14 105.5q0 20 -2.5 38t-6.5 33l-227 -377q10 -10 23.5 -15.5t30.5 -5.5zM148 171q0 -19 1.5 -36t5.5 -31l227 375q-10 10 -23.5 15t-29.5 5q-39 0 -72 -33t-57.5 -82t-38 -106.5t-13.5 -106.5z" />
    <glyph glyph-name="ugrave" unicode="&#xf9;" horiz-adv-x="646" 
d="M408 247h-7q-60 -117 -128.5 -187t-134.5 -70q-37 0 -58.5 24t-21.5 64q0 13 2.5 30t6.5 34l76 308l-68 35l7 25l175 36h28l-100 -402q-3 -11 -5 -24.5t-2 -24.5q0 -13 4.5 -19.5t15.5 -6.5q26 0 61 31t69.5 81t64.5 113t46 126l28 108l120 8l-102 -410
q-4 -14 -6.5 -25.5t-2.5 -17.5q0 -7 3.5 -11t10.5 -4q14 0 36 17.5t54 57.5l23 -23q-47 -69 -86 -99.5t-82 -30.5q-34 0 -52 22t-18 58q0 22 10.5 63.5t32.5 113.5zM233 763h141l55 -167h-56z" />
    <glyph glyph-name="uacute" unicode="&#xfa;" horiz-adv-x="646" 
d="M408 247h-7q-60 -117 -128.5 -187t-134.5 -70q-37 0 -58.5 24t-21.5 64q0 13 2.5 30t6.5 34l76 308l-68 35l7 25l175 36h28l-100 -402q-3 -11 -5 -24.5t-2 -24.5q0 -13 4.5 -19.5t15.5 -6.5q26 0 61 31t69.5 81t64.5 113t46 126l28 108l120 8l-102 -410
q-4 -14 -6.5 -25.5t-2.5 -17.5q0 -7 3.5 -11t10.5 -4q14 0 36 17.5t54 57.5l23 -23q-47 -69 -86 -99.5t-82 -30.5q-34 0 -52 22t-18 58q0 22 10.5 63.5t32.5 113.5zM454 763h154l-193 -167h-61z" />
    <glyph glyph-name="ucircumflex" unicode="&#xfb;" horiz-adv-x="646" 
d="M408 247h-7q-60 -117 -128.5 -187t-134.5 -70q-37 0 -58.5 24t-21.5 64q0 13 2.5 30t6.5 34l76 308l-68 35l7 25l175 36h28l-100 -402q-3 -11 -5 -24.5t-2 -24.5q0 -13 4.5 -19.5t15.5 -6.5q26 0 61 31t69.5 81t64.5 113t46 126l28 108l120 8l-102 -410
q-4 -14 -6.5 -25.5t-2.5 -17.5q0 -7 3.5 -11t10.5 -4q14 0 36 17.5t54 57.5l23 -23q-47 -69 -86 -99.5t-82 -30.5q-34 0 -52 22t-18 58q0 22 10.5 63.5t32.5 113.5zM467 763l95 -169h-58l-95 94l-151 -94h-63l180 169h92z" />
    <glyph glyph-name="udieresis" unicode="&#xfc;" horiz-adv-x="646" 
d="M408 247h-7q-60 -117 -128.5 -187t-134.5 -70q-37 0 -58.5 24t-21.5 64q0 13 2.5 30t6.5 34l76 308l-68 35l7 25l175 36h28l-100 -402q-3 -11 -5 -24.5t-2 -24.5q0 -13 4.5 -19.5t15.5 -6.5q26 0 61 31t69.5 81t64.5 113t46 126l28 108l120 8l-102 -410
q-4 -14 -6.5 -25.5t-2.5 -17.5q0 -7 3.5 -11t10.5 -4q14 0 36 17.5t54 57.5l23 -23q-47 -69 -86 -99.5t-82 -30.5q-34 0 -52 22t-18 58q0 22 10.5 63.5t32.5 113.5zM306 611q-30 0 -48 19.5t-18 46.5q0 29 20.5 51t51.5 22q30 0 48 -19t18 -47q0 -29 -20.5 -51t-51.5 -22z
M502 611q-30 0 -48 19.5t-18 46.5q0 29 20 51t51 22q30 0 48.5 -19t18.5 -47q0 -29 -20.5 -51t-51.5 -22z" />
    <glyph glyph-name="yacute" unicode="&#xfd;" horiz-adv-x="531" 
d="M343 87q-61 -91 -110.5 -148.5t-90 -89.5t-75 -43.5t-65.5 -11.5q-37 0 -69 19t-32 62q0 24 14.5 42.5t36.5 25.5h21q0 -41 17 -64t52 -23q29 0 63 19t84 76l-96 504l-69 30l7 25l148 36h19l80 -480l32 47q73 108 94 176.5t21 109.5q0 40 -24.5 59t-64.5 19l1 16
q13 19 37.5 36t58.5 17q46 0 66.5 -29t20.5 -64q0 -64 -45.5 -152t-131.5 -214zM390 763h154l-193 -167h-61z" />
    <glyph glyph-name="thorn" unicode="&#xfe;" horiz-adv-x="603" 
d="M155 111q2 -31 20.5 -52.5t49.5 -21.5q45 0 86 32.5t72 83t49.5 112t18.5 118.5q0 38 -12.5 59t-39.5 21q-24 0 -59 -27.5t-70.5 -74.5t-67 -111.5t-47.5 -138.5zM-9 -96l178 756l-70 35l6 24l181 42h26l-77 -325l-53 -152h7q59 110 126.5 186t139.5 76q59 0 88 -42.5
t29 -109.5q0 -77 -29 -150.5t-76.5 -129.5t-108 -90t-123.5 -34q-32 0 -59 14.5t-38 32.5l-26 -122q-2 -9 -3.5 -16.5t-1.5 -13.5q1 -22 18.5 -28t45.5 -10l-11 -44h-268l11 44q35 4 57.5 13.5t30.5 43.5z" />
    <glyph glyph-name="ydieresis" unicode="&#xff;" horiz-adv-x="531" 
d="M343 87q-61 -91 -110.5 -148.5t-90 -89.5t-75 -43.5t-65.5 -11.5q-37 0 -69 19t-32 62q0 24 14.5 42.5t36.5 25.5h21q0 -41 17 -64t52 -23q29 0 63 19t84 76l-96 504l-69 30l7 25l148 36h19l80 -480l32 47q73 108 94 176.5t21 109.5q0 40 -24.5 59t-64.5 19l1 16
q13 19 37.5 36t58.5 17q46 0 66.5 -29t20.5 -64q0 -64 -45.5 -152t-131.5 -214zM242 611q-30 0 -48 19.5t-18 46.5q0 29 20.5 51t51.5 22q30 0 48 -19t18 -47q0 -29 -20.5 -51t-51.5 -22zM438 611q-30 0 -48 19.5t-18 46.5q0 29 20 51t51 22q30 0 48.5 -19t18.5 -47
q0 -29 -20.5 -51t-51.5 -22z" />
    <glyph glyph-name="Amacron" unicode="&#x100;" horiz-adv-x="730" 
d="M490 131l-19 92h-282l-57 -92q-9 -14 -14 -26.5t-5 -22.5q0 -19 19.5 -26.5t60.5 -8.5l-9 -47h-226l10 47q22 4 38.5 10.5t29.5 26.5l346 555l-18 70h132l133 -625q4 -19 18 -26.5t35 -10.5l-8 -47h-288l10 47q42 2 69 11t28 42q0 7 -1 15zM402 568l-179 -290h237z
M305 776l17 75h293l-17 -75h-293z" />
    <glyph glyph-name="amacron" unicode="&#x101;" horiz-adv-x="626" 
d="M200 73q54 0 121.5 105.5t108.5 274.5q-12 23 -28.5 34.5t-41.5 11.5q-46 0 -84.5 -32t-66.5 -81t-44 -110t-16 -118q0 -38 13 -61.5t38 -23.5zM460 502l73 49h46l-37 -120l-74 -305q-4 -14 -6.5 -25.5t-2.5 -17.5q0 -7 3.5 -11t10.5 -4q14 0 35.5 17.5t52.5 57.5l24 -23
q-46 -69 -86 -99.5t-83 -30.5q-34 0 -51.5 22t-17.5 58q0 23 11.5 67t24.5 84h-7q-21 -45 -46.5 -87t-54 -74t-60 -51t-65.5 -19q-54 0 -86 42t-32 116q0 77 26.5 149.5t70 127.5t101 88t119.5 33q37 0 63.5 -11.5t47.5 -32.5zM252 624l16 71h276l-16 -71h-276z" />
    <glyph glyph-name="Abreve" unicode="&#x102;" horiz-adv-x="730" 
d="M490 131l-19 92h-282l-57 -92q-9 -14 -14 -26.5t-5 -22.5q0 -19 19.5 -26.5t60.5 -8.5l-9 -47h-226l10 47q22 4 38.5 10.5t29.5 26.5l346 555l-18 70h132l133 -625q4 -19 18 -26.5t35 -10.5l-8 -47h-288l10 47q42 2 69 11t28 42q0 7 -1 15zM402 568l-179 -290h237z
M451 754q-58 0 -91.5 31.5t-33.5 87.5q0 11 2 24t6 26h45q-1 -4 -1 -8v-8q0 -43 27 -61t61 -18q37 0 71.5 22t52.5 73h49q-17 -80 -68 -124.5t-120 -44.5z" />
    <glyph glyph-name="abreve" unicode="&#x103;" horiz-adv-x="626" 
d="M200 73q54 0 121.5 105.5t108.5 274.5q-12 23 -28.5 34.5t-41.5 11.5q-46 0 -84.5 -32t-66.5 -81t-44 -110t-16 -118q0 -38 13 -61.5t38 -23.5zM460 502l73 49h46l-37 -120l-74 -305q-4 -14 -6.5 -25.5t-2.5 -17.5q0 -7 3.5 -11t10.5 -4q14 0 35.5 17.5t52.5 57.5l24 -23
q-46 -69 -86 -99.5t-83 -30.5q-34 0 -51.5 22t-17.5 58q0 23 11.5 67t24.5 84h-7q-21 -45 -46.5 -87t-54 -74t-60 -51t-65.5 -19q-54 0 -86 42t-32 116q0 77 26.5 149.5t70 127.5t101 88t119.5 33q37 0 63.5 -11.5t47.5 -32.5zM386 596q-58 0 -88 31.5t-30 86.5q0 12 2 24.5
t6 26.5h45q-1 -4 -1 -8v-8q0 -43 23.5 -61t57.5 -18q37 0 68 22t49 73h49q-17 -80 -64.5 -124.5t-116.5 -44.5z" />
    <glyph glyph-name="Aogonek" unicode="&#x104;" horiz-adv-x="730" 
d="M490 131l-19 92h-282l-57 -92q-9 -14 -14 -26.5t-5 -22.5q0 -19 19.5 -26.5t60.5 -8.5l-9 -47h-226l10 47q22 4 38.5 10.5t29.5 26.5l346 555l-18 70h132l133 -625q4 -19 18 -26.5t35 -10.5l-8 -47h-234q-49 -21 -80 -48.5t-31 -64.5q0 -16 10.5 -26.5t32.5 -10.5
q21 0 43 12t47 28l14 -21q-28 -30 -66.5 -55.5t-80.5 -25.5q-35 0 -58 19.5t-23 52.5q0 56 39.5 91t102.5 65q48 23 75 37t28 47q0 7 -1 15zM402 568l-179 -290h237z" />
    <glyph glyph-name="aogonek" unicode="&#x105;" horiz-adv-x="626" 
d="M460 502l73 49h46l-37 -120l-74 -303q-4 -14 -6.5 -25.5t-2.5 -17.5q0 -7 3.5 -11t10.5 -4q14 0 35.5 16.5t52.5 56.5l24 -23q-38 -54 -81 -87.5t-78.5 -57.5t-59 -43.5t-23.5 -44.5q0 -16 10.5 -26.5t32.5 -10.5q21 0 43 12t47 28l14 -21q-28 -30 -66.5 -55.5
t-80.5 -25.5q-35 0 -58 18t-23 52q0 46 38.5 80t92.5 60q-22 7 -34 25.5t-12 46.5q0 23 11.5 67t24.5 84h-7q-21 -45 -46.5 -87t-54 -74t-60 -51t-65.5 -19q-54 0 -86 42t-32 116q0 77 26.5 149.5t70 127.5t101 88t119.5 33q37 0 63.5 -11.5t47.5 -32.5zM200 73
q54 0 121.5 105.5t108.5 274.5q-12 23 -28.5 34.5t-41.5 11.5q-46 0 -84.5 -32t-66.5 -81t-44 -110t-16 -118q0 -38 13 -61.5t38 -23.5z" />
    <glyph glyph-name="Cacute" unicode="&#x106;" horiz-adv-x="677" 
d="M350 -10q-138 0 -214.5 76t-76.5 203q0 90 32 171t88 141t132.5 95.5t164.5 35.5q67 0 123.5 -18t92.5 -48l-31 -152h-52q-6 81 -39.5 122t-97.5 41q-65 0 -117.5 -35t-88.5 -90.5t-55 -125.5t-19 -139q0 -104 43 -161.5t121 -57.5q75 0 121.5 44t95.5 140h58l-46 -177
q-49 -28 -107.5 -46.5t-127.5 -18.5zM564 910h152l-186 -152h-58z" />
    <glyph glyph-name="cacute" unicode="&#x107;" horiz-adv-x="477" 
d="M317 496q-33 0 -63 -27.5t-52.5 -70t-36 -95.5t-13.5 -104q0 -55 20.5 -95.5t70.5 -40.5q44 0 79 21.5t74 66.5l24 -22q-35 -58 -90.5 -98.5t-126.5 -40.5q-87 0 -128 54.5t-41 136.5q0 66 23.5 131.5t65.5 117t99.5 84t124.5 32.5q57 0 90 -24.5t33 -68.5q0 -28 -17 -47
t-41 -27h-29q0 49 -15 83t-51 34zM410 763h154l-193 -167h-61z" />
    <glyph glyph-name="Ccircumflex" unicode="&#x108;" horiz-adv-x="677" 
d="M350 -10q-138 0 -214.5 76t-76.5 203q0 90 32 171t88 141t132.5 95.5t164.5 35.5q67 0 123.5 -18t92.5 -48l-31 -152h-52q-6 81 -39.5 122t-97.5 41q-65 0 -117.5 -35t-88.5 -90.5t-55 -125.5t-19 -139q0 -104 43 -161.5t121 -57.5q75 0 121.5 44t95.5 140h58l-46 -177
q-49 -28 -107.5 -46.5t-127.5 -18.5zM586 919l102 -162h-59l-101 87l-158 -87h-64l187 162h93z" />
    <glyph glyph-name="ccircumflex" unicode="&#x109;" horiz-adv-x="477" 
d="M317 496q-33 0 -63 -27.5t-52.5 -70t-36 -95.5t-13.5 -104q0 -55 20.5 -95.5t70.5 -40.5q44 0 79 21.5t74 66.5l24 -22q-35 -58 -90.5 -98.5t-126.5 -40.5q-87 0 -128 54.5t-41 136.5q0 66 23.5 131.5t65.5 117t99.5 84t124.5 32.5q57 0 90 -24.5t33 -68.5q0 -28 -17 -47
t-41 -27h-29q0 49 -15 83t-51 34zM430 763l95 -169h-58l-95 94l-151 -94h-63l180 169h92z" />
    <glyph glyph-name="Cdotaccent" unicode="&#x10a;" horiz-adv-x="677" 
d="M350 -10q-138 0 -214.5 76t-76.5 203q0 90 32 171t88 141t132.5 95.5t164.5 35.5q67 0 123.5 -18t92.5 -48l-31 -152h-52q-6 81 -39.5 122t-97.5 41q-65 0 -117.5 -35t-88.5 -90.5t-55 -125.5t-19 -139q0 -104 43 -161.5t121 -57.5q75 0 121.5 44t95.5 140h58l-46 -177
q-49 -28 -107.5 -46.5t-127.5 -18.5zM519 760q-32 0 -52.5 21t-20.5 50q0 32 23 55.5t57 23.5q32 0 52.5 -21t20.5 -49q0 -33 -23 -56.5t-57 -23.5z" />
    <glyph glyph-name="cdotaccent" unicode="&#x10b;" horiz-adv-x="477" 
d="M317 496q-33 0 -63 -27.5t-52.5 -70t-36 -95.5t-13.5 -104q0 -55 20.5 -95.5t70.5 -40.5q44 0 79 21.5t74 66.5l24 -22q-35 -58 -90.5 -98.5t-126.5 -40.5q-87 0 -128 54.5t-41 136.5q0 66 23.5 131.5t65.5 117t99.5 84t124.5 32.5q57 0 90 -24.5t33 -68.5q0 -28 -17 -47
t-41 -27h-29q0 49 -15 83t-51 34zM360 607q-33 0 -53 21t-20 50q0 32 22.5 55.5t57.5 23.5q32 0 52.5 -20.5t20.5 -49.5q0 -32 -23 -56t-57 -24z" />
    <glyph glyph-name="Ccaron" unicode="&#x10c;" horiz-adv-x="677" 
d="M350 -10q-138 0 -214.5 76t-76.5 203q0 90 32 171t88 141t132.5 95.5t164.5 35.5q67 0 123.5 -18t92.5 -48l-31 -152h-52q-6 81 -39.5 122t-97.5 41q-65 0 -117.5 -35t-88.5 -90.5t-55 -125.5t-19 -139q0 -104 43 -161.5t121 -57.5q75 0 121.5 44t95.5 140h58l-46 -177
q-49 -28 -107.5 -46.5t-127.5 -18.5zM461 758l-102 162h59l101 -86l158 86h64l-187 -162h-93z" />
    <glyph glyph-name="ccaron" unicode="&#x10d;" horiz-adv-x="477" 
d="M317 496q-33 0 -63 -27.5t-52.5 -70t-36 -95.5t-13.5 -104q0 -55 20.5 -95.5t70.5 -40.5q44 0 79 21.5t74 66.5l24 -22q-35 -58 -90.5 -98.5t-126.5 -40.5q-87 0 -128 54.5t-41 136.5q0 66 23.5 131.5t65.5 117t99.5 84t124.5 32.5q57 0 90 -24.5t33 -68.5q0 -28 -17 -47
t-41 -27h-29q0 49 -15 83t-51 34zM301 598l-95 169h58l94 -94l152 94h63l-180 -169h-92z" />
    <glyph glyph-name="Dcaron" unicode="&#x10e;" horiz-adv-x="760" 
d="M405 649h-60l-108 -510q-3 -13 -4 -23.5t-1 -16.5q0 -28 16.5 -36.5t57.5 -8.5h8q64 0 118.5 28t94 77t61.5 116.5t22 144.5q0 96 -45 162.5t-160 66.5zM-13 0l11 47q50 2 75.5 15t34.5 57l97 453q1 10 2.5 20t1.5 15q0 28 -19 37.5t-64 10.5l9 47h285q167 0 245 -81.5
t78 -206.5q0 -90 -33.5 -166t-92.5 -131t-140 -86t-175 -31h-315zM407 758l-102 162h59l101 -86l158 86h64l-187 -162h-93z" />
    <glyph glyph-name="dcaron" unicode="&#x10f;" horiz-adv-x="635" 
d="M204 72q28 0 61.5 29.5t65.5 81t60.5 123t46.5 153.5q-13 23 -32 32t-39 9q-47 0 -86.5 -32t-68.5 -81.5t-45.5 -110.5t-16.5 -118q0 -38 13.5 -62t40.5 -24zM485 660l-71 35l7 24l178 42h26l-148 -635q-4 -14 -6 -25.5t-2 -17.5q0 -7 3.5 -11t10.5 -4q14 0 35.5 17.5
t52.5 57.5l24 -23q-46 -69 -86 -99.5t-83 -30.5q-34 0 -51.5 21.5t-17.5 54.5q0 26 10 70.5t22 85.5h-7q-21 -45 -46.5 -87t-55 -74t-62 -51.5t-66.5 -19.5q-55 0 -87.5 42t-32.5 116q0 77 27 149.5t71.5 127.5t103.5 88t122 33q31 0 55.5 -10t39.5 -26zM831 763l-129 -205
h-47l57 205h119z" />
    <glyph glyph-name="Dcroat" unicode="&#x110;" horiz-adv-x="770" 
d="M68 335l11 51h96l40 186q1 10 2.5 20t1.5 15q0 28 -19 37.5t-64 10.5l9 47h285q167 0 245 -81.5t78 -206.5q0 -90 -33.5 -166t-92.5 -131t-140 -86t-175 -31h-315l11 47q50 2 75.5 15t34.5 57l46 216h-96zM415 649h-60l-56 -263h160l-11 -51h-160l-41 -196
q-3 -13 -4 -23.5t-1 -16.5q0 -28 16.5 -36.5t57.5 -8.5h8q64 0 118.5 28t94 77t61.5 116.5t22 144.5q0 96 -45 162.5t-160 66.5z" />
    <glyph glyph-name="dcroat" unicode="&#x111;" horiz-adv-x="640" 
d="M656 582h-73l-106 -456q-4 -14 -6 -25.5t-2 -17.5q0 -7 3.5 -11t10.5 -4q14 0 35.5 17.5t52.5 57.5l24 -23q-46 -69 -86 -99.5t-83 -30.5q-34 0 -51.5 21.5t-17.5 54.5q0 26 10 70.5t22 85.5h-7q-21 -45 -46.5 -87t-55 -74t-62 -51.5t-66.5 -19.5q-55 0 -87.5 42
t-32.5 116q0 77 26 147t70 122t102 83t121 31q32 0 56.5 -10t39.5 -25l19 86h-144l11 43h143l14 62h-77l9 35l177 39h26l-32 -136h74zM204 72q28 0 61 28t64.5 77.5t59.5 118t45 149.5q-13 22 -32 31.5t-39 9.5q-47 0 -86 -30t-67 -77t-44 -105.5t-16 -115.5q0 -38 13.5 -62
t40.5 -24z" />
    <glyph glyph-name="Emacron" unicode="&#x112;" horiz-adv-x="671" 
d="M-13 0l11 47q50 2 75.5 15t34.5 57l97 453q1 10 2.5 20t1.5 15q0 28 -19 37.5t-64 10.5l9 47h564l-37 -174h-41q-13 63 -31 92t-79 29h-166l-56 -262h135q33 0 53.5 20.5t37.5 65.5h43l-48 -227h-43q0 46 -10.5 66.5t-44.5 20.5h-134l-41 -197q-3 -12 -4 -22t-1 -15
q0 -28 20 -37t63 -9h60q63 0 103.5 28.5t103.5 106.5h44l-70 -188h-569zM312 776l17 75h293l-17 -75h-293z" />
    <glyph glyph-name="emacron" unicode="&#x113;" horiz-adv-x="489" 
d="M473 432q0 -43 -27.5 -76t-72.5 -57.5t-104 -42.5t-121 -32v-24q0 -63 28 -101t77 -38q44 0 82.5 24t74.5 67l26 -22q-53 -75 -109.5 -107.5t-118.5 -32.5q-90 0 -132 61t-42 141q0 65 24.5 129t67 113.5t99.5 80.5t121 31t95.5 -33.5t31.5 -80.5zM320 492
q-57 0 -106 -69.5t-62 -165.5q110 33 165 72.5t55 99.5q0 26 -13 44.5t-39 18.5zM204 624l16 71h276l-16 -71h-276z" />
    <glyph glyph-name="Ebreve" unicode="&#x114;" horiz-adv-x="671" 
d="M-13 0l11 47q50 2 75.5 15t34.5 57l97 453q1 10 2.5 20t1.5 15q0 28 -19 37.5t-64 10.5l9 47h564l-37 -174h-41q-13 63 -31 92t-79 29h-166l-56 -262h135q33 0 53.5 20.5t37.5 65.5h43l-48 -227h-43q0 46 -10.5 66.5t-44.5 20.5h-134l-41 -197q-3 -12 -4 -22t-1 -15
q0 -28 20 -37t63 -9h60q63 0 103.5 28.5t103.5 106.5h44l-70 -188h-569zM458 754q-58 0 -91.5 31.5t-33.5 87.5q0 11 2 24t6 26h45q-1 -4 -1 -8v-8q0 -43 27 -61t61 -18q37 0 71.5 22t52.5 73h49q-17 -80 -68 -124.5t-120 -44.5z" />
    <glyph glyph-name="ebreve" unicode="&#x115;" horiz-adv-x="489" 
d="M473 432q0 -43 -27.5 -76t-72.5 -57.5t-104 -42.5t-121 -32v-24q0 -63 28 -101t77 -38q44 0 82.5 24t74.5 67l26 -22q-53 -75 -109.5 -107.5t-118.5 -32.5q-90 0 -132 61t-42 141q0 65 24.5 129t67 113.5t99.5 80.5t121 31t95.5 -33.5t31.5 -80.5zM320 492
q-57 0 -106 -69.5t-62 -165.5q110 33 165 72.5t55 99.5q0 26 -13 44.5t-39 18.5zM338 596q-58 0 -88 31.5t-30 86.5q0 12 2 24.5t6 26.5h45q-1 -4 -1 -8v-8q0 -43 23.5 -61t57.5 -18q37 0 68 22t49 73h49q-17 -80 -64.5 -124.5t-116.5 -44.5z" />
    <glyph glyph-name="Edotaccent" unicode="&#x116;" horiz-adv-x="671" 
d="M-13 0l11 47q50 2 75.5 15t34.5 57l97 453q1 10 2.5 20t1.5 15q0 28 -19 37.5t-64 10.5l9 47h564l-37 -174h-41q-13 63 -31 92t-79 29h-166l-56 -262h135q33 0 53.5 20.5t37.5 65.5h43l-48 -227h-43q0 46 -10.5 66.5t-44.5 20.5h-134l-41 -197q-3 -12 -4 -22t-1 -15
q0 -28 20 -37t63 -9h60q63 0 103.5 28.5t103.5 106.5h44l-70 -188h-569zM469 760q-32 0 -52.5 21t-20.5 50q0 32 23 55.5t57 23.5q32 0 52.5 -21t20.5 -49q0 -33 -23 -56.5t-57 -23.5z" />
    <glyph glyph-name="edotaccent" unicode="&#x117;" horiz-adv-x="489" 
d="M473 432q0 -43 -27.5 -76t-72.5 -57.5t-104 -42.5t-121 -32v-24q0 -63 28 -101t77 -38q44 0 82.5 24t74.5 67l26 -22q-53 -75 -109.5 -107.5t-118.5 -32.5q-90 0 -132 61t-42 141q0 65 24.5 129t67 113.5t99.5 80.5t121 31t95.5 -33.5t31.5 -80.5zM320 492
q-57 0 -106 -69.5t-62 -165.5q110 33 165 72.5t55 99.5q0 26 -13 44.5t-39 18.5zM352 607q-33 0 -53 21t-20 50q0 32 22.5 55.5t57.5 23.5q32 0 52.5 -20.5t20.5 -49.5q0 -32 -23 -56t-57 -24z" />
    <glyph glyph-name="Eogonek" unicode="&#x118;" horiz-adv-x="671" 
d="M-13 0l11 47q50 2 75.5 15t34.5 57l97 453q1 10 2.5 20t1.5 15q0 28 -19 37.5t-64 10.5l9 47h564l-37 -174h-41q-13 63 -31 92t-79 29h-166l-56 -262h135q33 0 53.5 20.5t37.5 65.5h43l-48 -227h-43q0 46 -10.5 66.5t-44.5 20.5h-134l-41 -197q-3 -12 -4 -22t-1 -15
q0 -28 20 -37t63 -9h60q63 0 103.5 28.5t103.5 106.5h44l-70 -188h-93q-43 -24 -76 -52t-33 -61q0 -16 10.5 -26.5t32.5 -10.5q21 0 43 12t47 28l14 -21q-28 -30 -66.5 -55.5t-80.5 -25.5q-35 0 -58.5 18t-23.5 51q0 49 37.5 83t88.5 60h-411z" />
    <glyph glyph-name="eogonek" unicode="&#x119;" horiz-adv-x="489" 
d="M93 -143q0 44 30.5 76t76.5 57q-86 3 -126 63.5t-40 138.5q0 65 24.5 129t67 113.5t99.5 80.5t121 31t95.5 -33.5t31.5 -80.5q0 -43 -27.5 -76t-72.5 -57.5t-104 -42.5t-121 -32v-24q0 -63 28 -101t77 -38q44 0 82.5 24t74.5 67l26 -22q-33 -46 -66.5 -76t-68.5 -45
q-49 -26 -87.5 -56t-38.5 -66q0 -16 10.5 -26.5t32.5 -10.5q21 0 43 12t47 28l14 -21q-28 -30 -66.5 -55.5t-80.5 -25.5q-35 0 -58.5 18t-23.5 51zM320 492q-57 0 -106 -69.5t-62 -165.5q110 33 165 72.5t55 99.5q0 26 -13 44.5t-39 18.5z" />
    <glyph glyph-name="Ecaron" unicode="&#x11a;" horiz-adv-x="671" 
d="M-13 0l11 47q50 2 75.5 15t34.5 57l97 453q1 10 2.5 20t1.5 15q0 28 -19 37.5t-64 10.5l9 47h564l-37 -174h-41q-13 63 -31 92t-79 29h-166l-56 -262h135q33 0 53.5 20.5t37.5 65.5h43l-48 -227h-43q0 46 -10.5 66.5t-44.5 20.5h-134l-41 -197q-3 -12 -4 -22t-1 -15
q0 -28 20 -37t63 -9h60q63 0 103.5 28.5t103.5 106.5h44l-70 -188h-569zM411 758l-102 162h59l101 -86l158 86h64l-187 -162h-93z" />
    <glyph glyph-name="ecaron" unicode="&#x11b;" horiz-adv-x="489" 
d="M473 432q0 -43 -27.5 -76t-72.5 -57.5t-104 -42.5t-121 -32v-24q0 -63 28 -101t77 -38q44 0 82.5 24t74.5 67l26 -22q-53 -75 -109.5 -107.5t-118.5 -32.5q-90 0 -132 61t-42 141q0 65 24.5 129t67 113.5t99.5 80.5t121 31t95.5 -33.5t31.5 -80.5zM320 492
q-57 0 -106 -69.5t-62 -165.5q110 33 165 72.5t55 99.5q0 26 -13 44.5t-39 18.5zM293 598l-95 169h58l94 -94l152 94h63l-180 -169h-92z" />
    <glyph glyph-name="Gcircumflex" unicode="&#x11c;" horiz-adv-x="740" 
d="M59 270q0 89 33 169.5t90.5 141t135.5 96t167 35.5q65 0 122 -18t93 -48l-32 -152h-51q-6 81 -40.5 122t-98.5 41q-66 0 -119 -35t-90 -91t-57 -126.5t-20 -140.5q0 -104 46.5 -160t124.5 -56q39 0 66 7.5t55 23.5l33 130q2 11 3.5 20.5t1.5 14.5q0 28 -19.5 37t-64.5 10
l10 48h299l-10 -48q-50 -1 -71 -14.5t-31 -56.5l-38 -158q-54 -34 -114 -53t-126 -19q-138 0 -218 74t-80 206zM580 919l102 -162h-59l-101 87l-158 -87h-64l187 162h93z" />
    <glyph glyph-name="gcircumflex" unicode="&#x11d;" horiz-adv-x="534" 
d="M313 546q25 0 46.5 -5t39.5 -15l181 15l-18 -74h-40l-76 21q15 -19 23 -42t8 -48q0 -99 -73 -156.5t-174 -57.5q-13 0 -26 1.5t-24 3.5q-16 -8 -26 -17t-10 -20q0 -13 10 -19t28 -11l153 -39q51 -13 90 -41t39 -84q0 -63 -68 -115t-209 -52q-50 0 -95 9.5t-79 27
t-54 41.5t-20 53q0 55 50 80.5t110 38.5q-14 11 -23 26t-9 34q0 33 22.5 56t61.5 42q-40 18 -62 53.5t-22 81.5q0 97 72.5 154.5t173.5 57.5zM290 -20l-169 45q-43 -15 -64 -36t-21 -55q0 -46 48 -72.5t114 -26.5q71 0 117.5 23.5t46.5 63.5q0 25 -19 37t-53 21zM243 224
q46 0 84 54t38 134q0 39 -15 66.5t-50 27.5q-46 0 -84 -54.5t-38 -134.5q0 -39 15.5 -66t49.5 -27zM429 763l95 -169h-58l-95 94l-151 -94h-63l180 169h92z" />
    <glyph glyph-name="Gbreve" unicode="&#x11e;" horiz-adv-x="740" 
d="M59 270q0 89 33 169.5t90.5 141t135.5 96t167 35.5q65 0 122 -18t93 -48l-32 -152h-51q-6 81 -40.5 122t-98.5 41q-66 0 -119 -35t-90 -91t-57 -126.5t-20 -140.5q0 -104 46.5 -160t124.5 -56q39 0 66 7.5t55 23.5l33 130q2 11 3.5 20.5t1.5 14.5q0 28 -19.5 37t-64.5 10
l10 48h299l-10 -48q-50 -1 -71 -14.5t-31 -56.5l-38 -158q-54 -34 -114 -53t-126 -19q-138 0 -218 74t-80 206zM502 754q-58 0 -91.5 31.5t-33.5 87.5q0 11 2 24t6 26h45q-1 -4 -1 -8v-8q0 -43 27 -61t61 -18q37 0 71.5 22t52.5 73h49q-17 -80 -68 -124.5t-120 -44.5z" />
    <glyph glyph-name="gbreve" unicode="&#x11f;" horiz-adv-x="534" 
d="M313 546q25 0 46.5 -5t39.5 -15l181 15l-18 -74h-40l-76 21q15 -19 23 -42t8 -48q0 -99 -73 -156.5t-174 -57.5q-13 0 -26 1.5t-24 3.5q-16 -8 -26 -17t-10 -20q0 -13 10 -19t28 -11l153 -39q51 -13 90 -41t39 -84q0 -63 -68 -115t-209 -52q-50 0 -95 9.5t-79 27
t-54 41.5t-20 53q0 55 50 80.5t110 38.5q-14 11 -23 26t-9 34q0 33 22.5 56t61.5 42q-40 18 -62 53.5t-22 81.5q0 97 72.5 154.5t173.5 57.5zM290 -20l-169 45q-43 -15 -64 -36t-21 -55q0 -46 48 -72.5t114 -26.5q71 0 117.5 23.5t46.5 63.5q0 25 -19 37t-53 21zM243 224
q46 0 84 54t38 134q0 39 -15 66.5t-50 27.5q-46 0 -84 -54.5t-38 -134.5q0 -39 15.5 -66t49.5 -27zM352 596q-58 0 -88 31.5t-30 86.5q0 12 2 24.5t6 26.5h45q-1 -4 -1 -8v-8q0 -43 23.5 -61t57.5 -18q37 0 68 22t49 73h49q-17 -80 -64.5 -124.5t-116.5 -44.5z" />
    <glyph glyph-name="Gdotaccent" unicode="&#x120;" horiz-adv-x="740" 
d="M59 270q0 89 33 169.5t90.5 141t135.5 96t167 35.5q65 0 122 -18t93 -48l-32 -152h-51q-6 81 -40.5 122t-98.5 41q-66 0 -119 -35t-90 -91t-57 -126.5t-20 -140.5q0 -104 46.5 -160t124.5 -56q39 0 66 7.5t55 23.5l33 130q2 11 3.5 20.5t1.5 14.5q0 28 -19.5 37t-64.5 10
l10 48h299l-10 -48q-50 -1 -71 -14.5t-31 -56.5l-38 -158q-54 -34 -114 -53t-126 -19q-138 0 -218 74t-80 206zM514 760q-32 0 -52.5 21t-20.5 50q0 32 23 55.5t57 23.5q32 0 52.5 -21t20.5 -49q0 -33 -23 -56.5t-57 -23.5z" />
    <glyph glyph-name="gdotaccent" unicode="&#x121;" horiz-adv-x="534" 
d="M313 546q25 0 46.5 -5t39.5 -15l181 15l-18 -74h-40l-76 21q15 -19 23 -42t8 -48q0 -99 -73 -156.5t-174 -57.5q-13 0 -26 1.5t-24 3.5q-16 -8 -26 -17t-10 -20q0 -13 10 -19t28 -11l153 -39q51 -13 90 -41t39 -84q0 -63 -68 -115t-209 -52q-50 0 -95 9.5t-79 27
t-54 41.5t-20 53q0 55 50 80.5t110 38.5q-14 11 -23 26t-9 34q0 33 22.5 56t61.5 42q-40 18 -62 53.5t-22 81.5q0 97 72.5 154.5t173.5 57.5zM290 -20l-169 45q-43 -15 -64 -36t-21 -55q0 -46 48 -72.5t114 -26.5q71 0 117.5 23.5t46.5 63.5q0 25 -19 37t-53 21zM243 224
q46 0 84 54t38 134q0 39 -15 66.5t-50 27.5q-46 0 -84 -54.5t-38 -134.5q0 -39 15.5 -66t49.5 -27zM365 607q-33 0 -53 21t-20 50q0 32 22.5 55.5t57.5 23.5q32 0 52.5 -20.5t20.5 -49.5q0 -32 -23 -56t-57 -24z" />
    <glyph glyph-name="Gcommaaccent" unicode="&#x122;" horiz-adv-x="740" 
d="M59 270q0 89 33 169.5t90.5 141t135.5 96t167 35.5q65 0 122 -18t93 -48l-32 -152h-51q-6 81 -40.5 122t-98.5 41q-66 0 -119 -35t-90 -91t-57 -126.5t-20 -140.5q0 -104 46.5 -160t124.5 -56q39 0 66 7.5t55 23.5l33 130q2 11 3.5 20.5t1.5 14.5q0 28 -19.5 37t-64.5 10
l10 48h299l-10 -48q-50 -1 -71 -14.5t-31 -56.5l-38 -158q-54 -34 -114 -53t-126 -19q-138 0 -218 74t-80 206zM326 -155h-50q-19 4 -27.5 15.5t-8.5 27.5q0 30 22.5 48t57.5 18q34 0 51.5 -19t17.5 -50q0 -49 -39.5 -85t-120.5 -36l5 37q42 0 65 12t27 32z" />
    <glyph glyph-name="gcommaaccent" unicode="&#x123;" horiz-adv-x="534" 
d="M313 546q25 0 46.5 -5t39.5 -15l181 15l-18 -74h-40l-76 21q15 -19 23 -42t8 -48q0 -99 -73 -156.5t-174 -57.5q-13 0 -26 1.5t-24 3.5q-16 -8 -26 -17t-10 -20q0 -13 10 -19t28 -11l153 -39q51 -13 90 -41t39 -84q0 -63 -68 -115t-209 -52q-50 0 -95 9.5t-79 27
t-54 41.5t-20 53q0 55 50 80.5t110 38.5q-14 11 -23 26t-9 34q0 33 22.5 56t61.5 42q-40 18 -62 53.5t-22 81.5q0 97 72.5 154.5t173.5 57.5zM290 -20l-169 45q-43 -15 -64 -36t-21 -55q0 -46 48 -72.5t114 -26.5q71 0 117.5 23.5t46.5 63.5q0 25 -19 37t-53 21zM243 224
q46 0 84 54t38 134q0 39 -15 66.5t-50 27.5q-46 0 -84 -54.5t-38 -134.5q0 -39 15.5 -66t49.5 -27zM354 712h51q18 -4 26.5 -15.5t8.5 -27.5q0 -30 -22 -48t-57 -18q-34 0 -52 19t-18 50q0 49 39.5 85t120.5 36l-4 -36q-42 0 -65.5 -12.5t-27.5 -32.5z" />
    <glyph glyph-name="Hcircumflex" unicode="&#x124;" horiz-adv-x="851" 
d="M791 583l-97 -453q-1 -10 -2.5 -20t-1.5 -15q0 -28 19 -37.5t64 -10.5l-9 -47h-317l10 47q50 2 75.5 15t35.5 57l45 214h-335l-43 -203q-1 -10 -2.5 -20t-1.5 -15q0 -28 19 -37.5t64 -10.5l-9 -47h-318l11 47q50 2 75.5 15t34.5 57l97 453q1 10 2.5 20t1.5 15
q0 28 -19 37.5t-64 10.5l9 47h318l-11 -47q-50 -2 -75.5 -15t-34.5 -57l-42 -196h335l39 185q1 10 2.5 20t1.5 15q0 28 -18.5 37.5t-64.5 10.5l10 47h317l-11 -47q-49 -2 -75 -15t-35 -57zM615 919l102 -162h-59l-101 87l-158 -87h-64l187 162h93z" />
    <glyph glyph-name="hcircumflex" unicode="&#x125;" horiz-adv-x="639" 
d="M245 420l-39 -127h7q26 45 59.5 90.5t70 81.5t75 58.5t74.5 22.5q39 0 56 -21t17 -55q0 -10 -2 -22t-4 -22l-79 -300q-4 -14 -6.5 -25.5t-2.5 -17.5q0 -7 3.5 -11t10.5 -4q14 0 35.5 17.5t53.5 57.5l23 -23q-47 -69 -86.5 -99.5t-82.5 -30.5q-34 0 -54.5 21t-20.5 55
q0 18 3.5 38t10.5 48l72 260q2 10 3.5 18.5t1.5 14.5q0 10 -4 15.5t-14 5.5q-21 0 -55 -26t-70 -70.5t-69 -104.5t-50 -127l-35 -138h-118l153 660l-70 35l6 24l181 42h26zM507 951l102 -162h-59l-101 87l-158 -87h-64l187 162h93z" />
    <glyph glyph-name="Hbar" unicode="&#x126;" horiz-adv-x="874" 
d="M101 476l12 52h95l10 44q1 10 2.5 20t1.5 15q0 28 -19 37.5t-64 10.5l9 47h318l-11 -47q-50 -2 -75.5 -15t-34.5 -57l-12 -55h335l9 44q1 10 2.5 20t1.5 15q0 28 -18.5 37.5t-64.5 10.5l10 47h317l-11 -47q-49 -2 -75 -15t-35 -57l-12 -55h99l-11 -52h-99l-74 -346
q-1 -10 -2.5 -20t-1.5 -15q0 -28 19 -37.5t64 -10.5l-9 -47h-317l10 47q50 2 75.5 15t35.5 57l41 195h-335l-39 -184q-1 -10 -2.5 -20t-1.5 -15q0 -28 19 -37.5t64 -10.5l-9 -47h-318l11 47q50 2 75.5 15t34.5 57l76 357h-96zM322 476l-23 -108h335l23 108h-335z" />
    <glyph glyph-name="hbar" unicode="&#x127;" horiz-adv-x="645" 
d="M252 420l-40 -127h7q26 45 59.5 90.5t70 81.5t75 58.5t74.5 22.5q40 0 57 -21t17 -55q0 -10 -2 -22t-4 -22l-80 -300q-4 -14 -6.5 -25.5t-2.5 -17.5q0 -7 3.5 -11t10.5 -4q14 0 35.5 17.5t53.5 57.5l23 -23q-46 -69 -85.5 -99.5t-82.5 -30.5q-34 0 -55 21t-21 55
q0 18 3.5 38t10.5 48l72 260q2 10 3.5 18.5t1.5 14.5q0 10 -4 15.5t-14 5.5q-20 0 -54.5 -26t-70.5 -70.5t-69 -104.5t-50 -127l-35 -138h-118l134 582h-75l11 43h74l15 62h-77l9 35l179 39h27l-32 -136h139l-11 -43h-138z" />
    <glyph glyph-name="Itilde" unicode="&#x128;" horiz-adv-x="391" 
d="M332 583l-97 -453q-1 -10 -2.5 -20t-1.5 -15q0 -28 19 -37.5t64 -10.5l-9 -47h-318l11 47q50 2 75.5 15t34.5 57l97 453q1 10 2.5 20t1.5 15q0 28 -19 37.5t-64 10.5l9 47h318l-11 -47q-50 -2 -75.5 -15t-34.5 -57zM467 893l42 -11q-40 -79 -67.5 -104t-65.5 -25
q-21 0 -38.5 11t-33.5 24t-30.5 24t-29.5 11q-23 0 -37 -16t-31 -44l-44 10q41 80 68.5 104.5t64.5 24.5q22 0 40 -11t33.5 -23.5t30 -23.5t29.5 -11q22 0 36.5 16t32.5 44z" />
    <glyph glyph-name="itilde" unicode="&#x129;" horiz-adv-x="345" 
d="M379 750l42 -10q-40 -80 -66.5 -104.5t-59.5 -24.5q-19 0 -34 11t-27.5 23.5t-24.5 23.5t-25 11q-22 0 -36 -16t-32 -44l-43 10q41 80 67 104.5t60 24.5q19 0 33.5 -11t27 -23.5t24.5 -23.5t25 -11q22 0 36.5 16t32.5 44zM285 546l-104 -420q-4 -14 -6.5 -25.5
t-2.5 -17.5q0 -7 3.5 -11t10.5 -4q14 0 36 17.5t53 57.5l24 -23q-47 -69 -86.5 -99.5t-82.5 -30.5q-34 0 -54.5 21t-20.5 55q0 18 3.5 38t10.5 48l74 298l-69 35l7 25l176 36h28z" />
    <glyph glyph-name="Imacron" unicode="&#x12a;" horiz-adv-x="391" 
d="M332 583l-97 -453q-1 -10 -2.5 -20t-1.5 -15q0 -28 19 -37.5t64 -10.5l-9 -47h-318l11 47q50 2 75.5 15t34.5 57l97 453q1 10 2.5 20t1.5 15q0 28 -19 37.5t-64 10.5l9 47h318l-11 -47q-50 -2 -75.5 -15t-34.5 -57zM162 776l17 75h293l-17 -75h-293z" />
    <glyph glyph-name="imacron" unicode="&#x12b;" horiz-adv-x="345" 
d="M117 624l16 71h239l-16 -71h-239zM285 546l-104 -420q-4 -14 -6.5 -25.5t-2.5 -17.5q0 -7 3.5 -11t10.5 -4q14 0 36 17.5t53 57.5l24 -23q-47 -69 -86.5 -99.5t-82.5 -30.5q-34 0 -54.5 21t-20.5 55q0 18 3.5 38t10.5 48l74 298l-69 35l7 25l176 36h28z" />
    <glyph glyph-name="Ibreve" unicode="&#x12c;" horiz-adv-x="391" 
d="M332 583l-97 -453q-1 -10 -2.5 -20t-1.5 -15q0 -28 19 -37.5t64 -10.5l-9 -47h-318l11 47q50 2 75.5 15t34.5 57l97 453q1 10 2.5 20t1.5 15q0 28 -19 37.5t-64 10.5l9 47h318l-11 -47q-50 -2 -75.5 -15t-34.5 -57zM308 754q-58 0 -91.5 31.5t-33.5 87.5q0 11 2 24t6 26
h45q-1 -4 -1 -8v-8q0 -43 27 -61t61 -18q37 0 71.5 22t52.5 73h49q-17 -80 -68 -124.5t-120 -44.5z" />
    <glyph glyph-name="ibreve" unicode="&#x12d;" horiz-adv-x="345" 
d="M285 546l-104 -420q-4 -14 -6.5 -25.5t-2.5 -17.5q0 -7 3.5 -11t10.5 -4q14 0 36 17.5t53 57.5l24 -23q-47 -69 -86.5 -99.5t-82.5 -30.5q-34 0 -54.5 21t-20.5 55q0 18 3.5 38t10.5 48l74 298l-69 35l7 25l176 36h28zM237 596q-58 0 -88 31.5t-30 86.5q0 12 2 24.5
t6 26.5h45q-1 -4 -1 -8v-8q0 -43 23.5 -61t57.5 -18q37 0 68 22t49 73h49q-17 -80 -64.5 -124.5t-116.5 -44.5z" />
    <glyph glyph-name="Iogonek" unicode="&#x12e;" horiz-adv-x="391" 
d="M332 583l-97 -453q-1 -10 -2.5 -20t-1.5 -15q0 -28 19 -37.5t64 -10.5l-9 -47h-102q-43 -24 -76 -52t-33 -61q0 -16 10.5 -26.5t32.5 -10.5q21 0 43 12t47 28l14 -21q-28 -30 -66.5 -55.5t-80.5 -25.5q-35 0 -58.5 18t-23.5 51q0 49 37.5 83t88.5 60h-151l11 47
q50 2 75.5 15t34.5 57l97 453q1 10 2.5 20t1.5 15q0 28 -19 37.5t-64 10.5l9 47h318l-11 -47q-50 -2 -75.5 -15t-34.5 -57z" />
    <glyph glyph-name="iogonek" unicode="&#x12f;" horiz-adv-x="345" 
d="M245 606q-32 0 -52.5 21t-20.5 49q0 33 23 56.5t57 23.5q32 0 52.5 -21t20.5 -49q0 -33 -23 -56.5t-57 -23.5zM55 66q0 18 3.5 38t10.5 48l74 298l-69 35l7 25l176 36h28l-104 -418q-4 -14 -6 -25.5t-2 -17.5q0 -7 3.5 -11t10.5 -4q14 0 35 16.5t52 56.5l25 -23
q-39 -54 -82 -87.5t-78 -57.5t-58.5 -43.5t-23.5 -44.5q0 -16 10 -26.5t32 -10.5q21 0 43 12t47 28l14 -21q-28 -30 -66.5 -55.5t-80.5 -25.5q-35 0 -58 18t-23 52q0 46 38.5 80t92.5 60q-22 7 -36.5 24.5t-14.5 43.5z" />
    <glyph glyph-name="Idotaccent" unicode="&#x130;" horiz-adv-x="391" 
d="M332 583l-97 -453q-1 -10 -2.5 -20t-1.5 -15q0 -28 19 -37.5t64 -10.5l-9 -47h-318l11 47q50 2 75.5 15t34.5 57l97 453q1 10 2.5 20t1.5 15q0 28 -19 37.5t-64 10.5l9 47h318l-11 -47q-50 -2 -75.5 -15t-34.5 -57zM319 760q-32 0 -52.5 21t-20.5 50q0 32 23 55.5
t57 23.5q32 0 52.5 -21t20.5 -49q0 -33 -23 -56.5t-57 -23.5z" />
    <glyph glyph-name="dotlessi" unicode="&#x131;" horiz-adv-x="345" 
d="M285 546l-104 -420q-4 -14 -6.5 -25.5t-2.5 -17.5q0 -7 3.5 -11t10.5 -4q14 0 36 17.5t53 57.5l24 -23q-47 -69 -86.5 -99.5t-82.5 -30.5q-34 0 -54.5 21t-20.5 55q0 18 3.5 38t10.5 48l74 298l-69 35l7 25l176 36h28z" />
    <glyph glyph-name="IJ" unicode="&#x132;" horiz-adv-x="926" 
d="M332 583l-97 -453q-1 -10 -2.5 -20t-1.5 -15q0 -28 19 -37.5t64 -10.5l-9 -47h-318l11 47q50 2 75.5 15t34.5 57l97 453q1 10 2.5 20t1.5 15q0 28 -19 37.5t-64 10.5l9 47h318l-11 -47q-50 -2 -75.5 -15t-34.5 -57zM680 179l82 393q2 10 3.5 20t1.5 15q0 28 -19 37.5
t-65 10.5l10 47h317l-10 -47q-50 -2 -75.5 -15t-35.5 -57l-81 -383q-24 -111 -89 -160.5t-166 -49.5q-95 0 -136.5 36.5t-41.5 87.5q0 29 14.5 51t33.5 32h90q-9 -21 -13 -40.5t-4 -37.5q0 -36 17 -57t49 -21q43 0 72.5 30.5t45.5 107.5z" />
    <glyph glyph-name="ij" unicode="&#x133;" horiz-adv-x="656" 
d="M285 546l-104 -420q-4 -14 -6.5 -25.5t-2.5 -17.5q0 -7 3.5 -11t10.5 -4q14 0 36 17.5t53 57.5l24 -23q-47 -69 -86.5 -99.5t-82.5 -30.5q-34 0 -54.5 21t-20.5 55q0 18 3.5 38t10.5 48l74 298l-69 35l7 25l176 36h28zM245 606q-32 0 -52.5 21t-20.5 49q0 33 23 56.5
t57 23.5q32 0 52.5 -21t20.5 -49q0 -33 -23 -56.5t-57 -23.5zM594 606q-32 0 -52.5 21t-20.5 49q0 33 23 56.5t57 23.5q32 0 52.5 -21t20.5 -49q0 -33 -23 -56.5t-57 -23.5zM390 -17l101 467l-68 35l7 25l176 36h28l-105 -448q-33 -139 -90 -222t-150 -83q-45 0 -73 18
t-28 49t19.5 46.5t41.5 19.5h18q5 -41 17.5 -65t35.5 -24q25 0 40 38t30 108z" />
    <glyph glyph-name="Jcircumflex" unicode="&#x134;" horiz-adv-x="535" 
d="M289 179l82 393q2 10 3.5 20t1.5 15q0 28 -19 37.5t-65 10.5l10 47h317l-10 -47q-50 -2 -75.5 -15t-35.5 -57l-81 -383q-24 -111 -89 -160.5t-166 -49.5q-95 0 -136.5 36.5t-41.5 87.5q0 29 14.5 51t33.5 32h90q-9 -21 -13 -40.5t-4 -37.5q0 -36 17 -57t49 -21
q43 0 72.5 30.5t45.5 107.5zM550 919l102 -162h-59l-101 87l-158 -87h-64l187 162h93z" />
    <glyph glyph-name="jcircumflex" unicode="&#x135;" horiz-adv-x="311" 
d="M45 -17l101 467l-68 35l7 25l176 36h28l-105 -448q-33 -139 -90 -222t-150 -83q-45 0 -73 18t-28 49t19.5 46.5t41.5 19.5h18q5 -41 17.5 -65t35.5 -24q25 0 40 38t30 108zM310 763l95 -169h-58l-95 94l-151 -94h-63l180 169h92z" />
    <glyph glyph-name="Kcommaaccent" unicode="&#x136;" horiz-adv-x="735" 
d="M416 392l159 -268q26 -43 50 -60t67 -17l-9 -47h-165q-22 19 -42 48t-45 71l-136 238l278 229q15 13 23.5 23t8.5 18q0 13 -19.5 19.5t-50.5 8.5l11 47h257l-10 -47q-36 -1 -61 -12t-56 -38zM332 583l-97 -453q-1 -10 -2.5 -20t-1.5 -15q0 -28 19 -37.5t64 -10.5l-9 -47
h-318l11 47q50 2 75.5 15t34.5 57l97 453q1 10 2.5 20t1.5 15q0 28 -19 37.5t-64 10.5l9 47h318l-11 -47q-50 -2 -75.5 -15t-34.5 -57zM352 -155h-50q-19 4 -27.5 15.5t-8.5 27.5q0 30 22.5 48t57.5 18q34 0 51.5 -19t17.5 -50q0 -49 -39.5 -85t-120.5 -36l5 37q42 0 65 12
t27 32z" />
    <glyph glyph-name="kcommaaccent" unicode="&#x137;" horiz-adv-x="597" 
d="M331 332l82 -193q12 -29 23.5 -47.5t27.5 -18.5t37 18t46 50l21 -24q-39 -63 -76 -95t-79 -32q-40 0 -64 29.5t-42 75.5l-75 187l178 199q30 34 53.5 49.5t52.5 15.5q34 0 51 -20t17 -44q0 -28 -16 -46.5t-46 -29.5h-16q0 20 -8.5 33.5t-28.5 13.5q-15 0 -32.5 -9.5
t-42.5 -39.5zM326 761l-179 -761h-118l153 660l-70 35l7 24l180 42h27zM217 -155h-50q-19 4 -27.5 15.5t-8.5 27.5q0 30 22.5 48t57.5 18q34 0 51.5 -19t17.5 -50q0 -49 -39.5 -85t-120.5 -36l5 37q42 0 65 12t27 32z" />
    <glyph glyph-name="kgreenlandic" unicode="&#x138;" horiz-adv-x="604" 
d="M339 332l82 -193q12 -29 23.5 -47.5t27.5 -18.5t37 18t46 50l21 -24q-40 -63 -76.5 -95t-78.5 -32q-40 0 -64 29.5t-42 75.5l-75 187l178 199q29 34 53 49.5t53 15.5q34 0 50.5 -20t16.5 -44q0 -28 -15.5 -46.5t-45.5 -29.5h-16q0 20 -8.5 33.5t-28.5 13.5
q-15 0 -32.5 -9.5t-42.5 -39.5zM285 547l-131 -547h-119l112 450l-68 35l7 25l173 37h26z" />
    <glyph glyph-name="Lacute" unicode="&#x139;" horiz-adv-x="631" 
d="M332 583l-96 -450q-2 -10 -3.5 -19.5t-1.5 -14.5q0 -26 19.5 -35.5t62.5 -9.5h43q61 0 101 34t105 120h49l-78 -208h-546l11 47q50 2 75.5 15t34.5 57l97 453q1 10 2.5 20t1.5 15q0 28 -19 37.5t-64 10.5l9 47h318l-11 -47q-50 -2 -75.5 -15t-34.5 -57zM377 910h152
l-186 -152h-58z" />
    <glyph glyph-name="lacute" unicode="&#x13a;" horiz-adv-x="326" 
d="M177 660l-70 35l7 24l180 42h27l-150 -635q-4 -15 -5.5 -26t-1.5 -17q0 -7 3.5 -11t10.5 -4q14 0 35.5 17.5t53.5 57.5l23 -23q-46 -69 -86 -99.5t-83 -30.5q-34 0 -54 21t-20 55q0 18 3 38t10 48zM337 945h152l-186 -152h-58z" />
    <glyph glyph-name="Lcommaaccent" unicode="&#x13b;" horiz-adv-x="631" 
d="M332 583l-96 -450q-2 -10 -3.5 -19.5t-1.5 -14.5q0 -26 19.5 -35.5t62.5 -9.5h43q61 0 101 34t105 120h49l-78 -208h-546l11 47q50 2 75.5 15t34.5 57l97 453q1 10 2.5 20t1.5 15q0 28 -19 37.5t-64 10.5l9 47h318l-11 -47q-50 -2 -75.5 -15t-34.5 -57zM274 -155h-50
q-19 4 -27.5 15.5t-8.5 27.5q0 30 22.5 48t57.5 18q34 0 51.5 -19t17.5 -50q0 -49 -39.5 -85t-120.5 -36l5 37q42 0 65 12t27 32z" />
    <glyph glyph-name="lcommaaccent" unicode="&#x13c;" horiz-adv-x="326" 
d="M177 660l-70 35l7 24l180 42h27l-150 -635q-4 -15 -5.5 -26t-1.5 -17q0 -7 3.5 -11t10.5 -4q14 0 35.5 17.5t53.5 57.5l23 -23q-46 -69 -86 -99.5t-83 -30.5q-34 0 -54 21t-20 55q0 18 3 38t10 48zM95 -155h-50q-19 4 -27.5 15.5t-8.5 27.5q0 30 22.5 48t57.5 18
q34 0 51.5 -19t17.5 -50q0 -49 -39.5 -85t-120.5 -36l5 37q42 0 65 12t27 32z" />
    <glyph glyph-name="Lcaron" unicode="&#x13d;" horiz-adv-x="631" 
d="M332 583l-96 -450q-2 -10 -3.5 -19.5t-1.5 -14.5q0 -26 19.5 -35.5t62.5 -9.5h43q61 0 101 34t105 120h49l-78 -208h-546l11 47q50 2 75.5 15t34.5 57l97 453q1 10 2.5 20t1.5 15q0 28 -19 37.5t-64 10.5l9 47h318l-11 -47q-50 -2 -75.5 -15t-34.5 -57zM668 704
l-129 -205h-47l57 205h119z" />
    <glyph glyph-name="lcaron" unicode="&#x13e;" horiz-adv-x="329" 
d="M177 660l-70 35l7 24l180 42h27l-150 -635q-4 -15 -5.5 -26t-1.5 -17q0 -7 3.5 -11t10.5 -4q14 0 35.5 17.5t53.5 57.5l23 -23q-46 -69 -86 -99.5t-83 -30.5q-34 0 -54 21t-20 55q0 18 3 38t10 48zM526 763l-129 -205h-47l57 205h119z" />
    <glyph glyph-name="Ldot" unicode="&#x13f;" horiz-adv-x="631" 
d="M332 583l-96 -450q-2 -10 -3.5 -19.5t-1.5 -14.5q0 -26 19.5 -35.5t62.5 -9.5h43q61 0 101 34t105 120h49l-78 -208h-546l11 47q50 2 75.5 15t34.5 57l97 453q1 10 2.5 20t1.5 15q0 28 -19 37.5t-64 10.5l9 47h318l-11 -47q-50 -2 -75.5 -15t-34.5 -57zM547 312
q-33 0 -53 21t-20 50q0 32 22.5 55.5t57.5 23.5q32 0 52.5 -20.5t20.5 -49.5q0 -32 -23 -56t-57 -24z" />
    <glyph glyph-name="ldot" unicode="&#x140;" horiz-adv-x="426" 
d="M177 660l-70 35l7 24l180 42h27l-150 -635q-4 -15 -5.5 -26t-1.5 -17q0 -7 3.5 -11t10.5 -4q14 0 35.5 17.5t53.5 57.5l23 -23q-46 -69 -86 -99.5t-83 -30.5q-34 0 -54 21t-20 55q0 18 3 38t10 48zM379 301q-33 0 -53 21t-20 50q0 32 22.5 55.5t57.5 23.5
q32 0 52.5 -20.5t20.5 -49.5q0 -32 -23 -56t-57 -24z" />
    <glyph glyph-name="Lslash" unicode="&#x141;" horiz-adv-x="646" 
d="M346 583l-36 -170l144 61l-13 -57l-143 -60l-48 -224q-2 -10 -3.5 -19.5t-1.5 -14.5q0 -26 19.5 -35.5t62.5 -9.5h43q61 0 101 34t105 120h49l-78 -208h-546l11 47q50 2 75.5 15t34.5 57l40 187l-103 -44l13 57l102 43l45 210q1 10 2.5 20t1.5 15q0 28 -19 37.5t-64 10.5
l9 47h318l-11 -47q-50 -2 -75.5 -15t-34.5 -57z" />
    <glyph glyph-name="lslash" unicode="&#x142;" horiz-adv-x="352" 
d="M186 660l-70 35l7 24l180 42h27l-64 -271l112 61l-14 -58l-112 -61l-72 -306q-4 -15 -5.5 -26t-1.5 -17q0 -7 3.5 -11t10.5 -4q14 0 35.5 17.5t53.5 57.5l23 -23q-46 -69 -86 -99.5t-83 -30.5q-34 0 -54 21t-20 55q0 18 3 38t10 48l51 222l-87 -47l13 58l88 48z" />
    <glyph glyph-name="Nacute" unicode="&#x143;" horiz-adv-x="791" 
d="M594 198l79 374q2 10 3.5 20t1.5 15q0 28 -19 37.5t-65 10.5l10 47h260l-10 -47q-50 -2 -76 -15t-35 -57l-122 -583h-54l-302 541l-86 -411q-2 -10 -3.5 -20t-1.5 -15q0 -28 19 -37.5t65 -10.5l-10 -47h-261l11 47q50 2 75.5 15t34.5 57l103 481q-21 34 -36.5 44
t-49.5 11l10 47h187zM568 910h152l-186 -152h-58z" />
    <glyph glyph-name="nacute" unicode="&#x144;" horiz-adv-x="645" 
d="M285 547l-32 -128l-41 -126h7q26 45 59.5 90.5t70 81.5t75 58.5t74.5 22.5q40 0 57 -21t17 -55q0 -10 -2 -22t-4 -22l-80 -300q-4 -14 -6.5 -25.5t-2.5 -17.5q0 -7 3.5 -11t10.5 -4q14 0 35.5 17.5t53.5 57.5l23 -23q-46 -69 -85.5 -99.5t-82.5 -30.5q-34 0 -55 21
t-21 55q0 18 3.5 38t10.5 48l72 260q2 10 3.5 18.5t1.5 14.5q0 10 -4 15.5t-14 5.5q-20 0 -54.5 -26t-70.5 -70.5t-69 -104.5t-50 -127l-35 -138h-118l112 450l-68 35l7 25l171 37h28zM458 763h154l-193 -167h-61z" />
    <glyph glyph-name="Ncommaaccent" unicode="&#x145;" horiz-adv-x="791" 
d="M594 198l79 374q2 10 3.5 20t1.5 15q0 28 -19 37.5t-65 10.5l10 47h260l-10 -47q-50 -2 -76 -15t-35 -57l-122 -583h-54l-302 541l-86 -411q-2 -10 -3.5 -20t-1.5 -15q0 -28 19 -37.5t65 -10.5l-10 -47h-261l11 47q50 2 75.5 15t34.5 57l103 481q-21 34 -36.5 44
t-49.5 11l10 47h187zM356 -155h-50q-19 4 -27.5 15.5t-8.5 27.5q0 30 22.5 48t57.5 18q34 0 51.5 -19t17.5 -50q0 -49 -39.5 -85t-120.5 -36l5 37q42 0 65 12t27 32z" />
    <glyph glyph-name="ncommaaccent" unicode="&#x146;" horiz-adv-x="645" 
d="M285 547l-32 -128l-41 -126h7q26 45 59.5 90.5t70 81.5t75 58.5t74.5 22.5q40 0 57 -21t17 -55q0 -10 -2 -22t-4 -22l-80 -300q-4 -14 -6.5 -25.5t-2.5 -17.5q0 -7 3.5 -11t10.5 -4q14 0 35.5 17.5t53.5 57.5l23 -23q-46 -69 -85.5 -99.5t-82.5 -30.5q-34 0 -55 21
t-21 55q0 18 3.5 38t10.5 48l72 260q2 10 3.5 18.5t1.5 14.5q0 10 -4 15.5t-14 5.5q-20 0 -54.5 -26t-70.5 -70.5t-69 -104.5t-50 -127l-35 -138h-118l112 450l-68 35l7 25l171 37h28zM253 -155h-50q-19 4 -27.5 15.5t-8.5 27.5q0 30 22.5 48t57.5 18q34 0 51.5 -19
t17.5 -50q0 -49 -39.5 -85t-120.5 -36l5 37q42 0 65 12t27 32z" />
    <glyph glyph-name="Ncaron" unicode="&#x147;" horiz-adv-x="791" 
d="M594 198l79 374q2 10 3.5 20t1.5 15q0 28 -19 37.5t-65 10.5l10 47h260l-10 -47q-50 -2 -76 -15t-35 -57l-122 -583h-54l-302 541l-86 -411q-2 -10 -3.5 -20t-1.5 -15q0 -28 19 -37.5t65 -10.5l-10 -47h-261l11 47q50 2 75.5 15t34.5 57l103 481q-21 34 -36.5 44
t-49.5 11l10 47h187zM466 758l-102 162h59l101 -86l158 86h64l-187 -162h-93z" />
    <glyph glyph-name="ncaron" unicode="&#x148;" horiz-adv-x="645" 
d="M285 547l-32 -128l-41 -126h7q26 45 59.5 90.5t70 81.5t75 58.5t74.5 22.5q40 0 57 -21t17 -55q0 -10 -2 -22t-4 -22l-80 -300q-4 -14 -6.5 -25.5t-2.5 -17.5q0 -7 3.5 -11t10.5 -4q14 0 35.5 17.5t53.5 57.5l23 -23q-46 -69 -85.5 -99.5t-82.5 -30.5q-34 0 -55 21
t-21 55q0 18 3.5 38t10.5 48l72 260q2 10 3.5 18.5t1.5 14.5q0 10 -4 15.5t-14 5.5q-20 0 -54.5 -26t-70.5 -70.5t-69 -104.5t-50 -127l-35 -138h-118l112 450l-68 35l7 25l171 37h28zM349 598l-95 169h58l94 -94l152 94h63l-180 -169h-92z" />
    <glyph glyph-name="Eng" unicode="&#x14a;" horiz-adv-x="791" 
d="M743 583l-102 -485q-29 -140 -86.5 -222.5t-149.5 -82.5q-45 0 -73.5 18t-28.5 49t19.5 46.5t41.5 19.5h18q6 -41 18 -65t36 -24t42 34.5t35 109.5l19 79l-267 481l-86 -411q-2 -10 -3.5 -20t-1.5 -15q0 -28 19 -37.5t65 -10.5l-10 -47h-261l11 47q50 2 75.5 15t34.5 57
l103 481q-21 34 -36.5 44t-49.5 11l10 47h187l272 -504l79 374q2 10 3.5 20t1.5 15q0 28 -19 37.5t-65 10.5l10 47h260l-10 -47q-50 -2 -76 -15t-35 -57z" />
    <glyph glyph-name="eng" unicode="&#x14b;" horiz-adv-x="613" 
d="M337 -17l108 429q2 10 3.5 18.5t1.5 14.5q0 10 -4 15.5t-14 5.5q-20 0 -54.5 -26t-70.5 -70.5t-69 -104.5t-50 -127l-35 -138h-118l112 450l-68 35l7 25l171 37h28l-32 -128l-41 -126h7q26 45 59.5 90.5t70 81.5t75 58.5t74.5 22.5q40 0 57 -21t17 -55q0 -10 -2 -22
t-4 -22l-87 -328q-36 -138 -91.5 -221.5t-147.5 -83.5q-45 0 -75 18t-30 49t19 46.5t42 19.5h18q5 -41 17 -65t36 -24t38 38.5t32 107.5z" />
    <glyph glyph-name="Omacron" unicode="&#x14c;" horiz-adv-x="733" 
d="M332 48q58 0 104.5 34.5t79 90t50 124.5t17.5 138q0 94 -33 156.5t-107 62.5q-57 0 -103.5 -34.5t-79 -89.5t-50 -124.5t-17.5 -137.5q0 -94 32.5 -157t106.5 -63zM330 -10q-130 0 -200.5 80.5t-70.5 204.5q0 87 29.5 166.5t81 139t122.5 95.5t153 36q131 0 201 -80
t70 -204q0 -87 -29 -166.5t-80.5 -139.5t-122.5 -96t-154 -36zM329 776l17 75h293l-17 -75h-293z" />
    <glyph glyph-name="omacron" unicode="&#x14d;" horiz-adv-x="548" 
d="M225 37q39 0 70.5 33t53.5 82.5t34 108t12 108.5q0 60 -18.5 95t-53.5 35q-39 0 -70.5 -33t-53.5 -82.5t-34 -108.5t-12 -109q0 -60 18.5 -94.5t53.5 -34.5zM221 -10q-83 0 -135 55.5t-52 154.5q0 64 21.5 126.5t60 111t92.5 78.5t119 30q83 0 135 -55.5t52 -154.5
q0 -64 -21.5 -126.5t-60 -111t-92.5 -78.5t-119 -30zM212 624l16 71h276l-16 -71h-276z" />
    <glyph glyph-name="Obreve" unicode="&#x14e;" horiz-adv-x="733" 
d="M332 48q58 0 104.5 34.5t79 90t50 124.5t17.5 138q0 94 -33 156.5t-107 62.5q-57 0 -103.5 -34.5t-79 -89.5t-50 -124.5t-17.5 -137.5q0 -94 32.5 -157t106.5 -63zM330 -10q-130 0 -200.5 80.5t-70.5 204.5q0 87 29.5 166.5t81 139t122.5 95.5t153 36q131 0 201 -80
t70 -204q0 -87 -29 -166.5t-80.5 -139.5t-122.5 -96t-154 -36zM475 754q-58 0 -91.5 31.5t-33.5 87.5q0 11 2 24t6 26h45q-1 -4 -1 -8v-8q0 -43 27 -61t61 -18q37 0 71.5 22t52.5 73h49q-17 -80 -68 -124.5t-120 -44.5z" />
    <glyph glyph-name="obreve" unicode="&#x14f;" horiz-adv-x="548" 
d="M225 37q39 0 70.5 33t53.5 82.5t34 108t12 108.5q0 60 -18.5 95t-53.5 35q-39 0 -70.5 -33t-53.5 -82.5t-34 -108.5t-12 -109q0 -60 18.5 -94.5t53.5 -34.5zM221 -10q-83 0 -135 55.5t-52 154.5q0 64 21.5 126.5t60 111t92.5 78.5t119 30q83 0 135 -55.5t52 -154.5
q0 -64 -21.5 -126.5t-60 -111t-92.5 -78.5t-119 -30zM345 596q-58 0 -88 31.5t-30 86.5q0 12 2 24.5t6 26.5h45q-1 -4 -1 -8v-8q0 -43 23.5 -61t57.5 -18q37 0 68 22t49 73h49q-17 -80 -64.5 -124.5t-116.5 -44.5z" />
    <glyph glyph-name="Ohungarumlaut" unicode="&#x150;" horiz-adv-x="733" 
d="M332 48q58 0 104.5 34.5t79 90t50 124.5t17.5 138q0 94 -33 156.5t-107 62.5q-57 0 -103.5 -34.5t-79 -89.5t-50 -124.5t-17.5 -137.5q0 -94 32.5 -157t106.5 -63zM330 -10q-130 0 -200.5 80.5t-70.5 204.5q0 87 29.5 166.5t81 139t122.5 95.5t153 36q131 0 201 -80
t70 -204q0 -87 -29 -166.5t-80.5 -139.5t-122.5 -96t-154 -36zM444 910h125l-165 -152h-63zM615 910h126l-166 -152h-64z" />
    <glyph glyph-name="ohungarumlaut" unicode="&#x151;" horiz-adv-x="548" 
d="M225 37q39 0 70.5 33t53.5 82.5t34 108t12 108.5q0 60 -18.5 95t-53.5 35q-39 0 -70.5 -33t-53.5 -82.5t-34 -108.5t-12 -109q0 -60 18.5 -94.5t53.5 -34.5zM221 -10q-83 0 -135 55.5t-52 154.5q0 64 21.5 126.5t60 111t92.5 78.5t119 30q83 0 135 -55.5t52 -154.5
q0 -64 -21.5 -126.5t-60 -111t-92.5 -78.5t-119 -30zM324 763h124l-169 -167h-64zM494 763h127l-172 -167h-63z" />
    <glyph glyph-name="OE" unicode="&#x152;" horiz-adv-x="1010" 
d="M504 702h534l-37 -174h-40q-13 63 -31.5 92t-78.5 29h-167l-55 -262h134q34 0 54.5 20.5t37.5 65.5h43l-48 -227h-43q0 46 -11 66.5t-45 20.5h-134l-41 -197q-3 -12 -4 -22t-1 -15q0 -28 20 -37t63 -9h60q63 0 103.5 28.5t103.5 106.5h44l-70 -188h-513
q-166 0 -244.5 81.5t-78.5 206.5q0 90 34 166.5t93 131t141 85.5t177 31zM560 649h-65q-67 0 -122.5 -28.5t-95.5 -77.5t-62 -116.5t-22 -144.5q0 -96 44.5 -162t160.5 -66h36z" />
    <glyph glyph-name="oe" unicode="&#x153;" horiz-adv-x="832" 
d="M327 546q54 0 93.5 -28t61.5 -76q40 46 92.5 75t114.5 29q64 0 95.5 -33.5t31.5 -80.5q0 -43 -27.5 -76t-73 -57.5t-104.5 -42.5t-121 -32v-24q0 -63 28 -101t77 -38q44 0 82.5 24t74.5 67l26 -22q-52 -75 -109 -107.5t-119 -32.5q-54 0 -88.5 25.5t-53.5 65.5
q-37 -41 -83.5 -66t-103.5 -25q-83 0 -135 55.5t-52 154.5q0 64 21.5 126.5t60 111t92.5 78.5t119 30zM225 37q39 0 70.5 33t53.5 82.5t34 108t12 108.5q0 60 -18.5 95t-53.5 35q-39 0 -70.5 -33t-53.5 -82.5t-34 -108.5t-12 -109q0 -60 18.5 -94.5t53.5 -34.5zM662 492
q-57 0 -106 -69.5t-62 -165.5q111 33 165.5 72.5t54.5 99.5q0 26 -13 44.5t-39 18.5z" />
    <glyph glyph-name="Racute" unicode="&#x154;" horiz-adv-x="706" 
d="M391 649h-48l-61 -292h42q93 0 153 39t60 129q0 57 -34.5 90.5t-111.5 33.5zM271 306l-37 -176q-2 -10 -3.5 -20t-1.5 -15q0 -28 19 -37.5t65 -10.5l-10 -47h-316l11 47q50 2 75.5 15t34.5 57l97 453q1 10 2.5 20t1.5 15q0 28 -19 37.5t-64 10.5l9 47h304
q113 0 170 -45.5t57 -130.5q0 -89 -66.5 -141t-159.5 -64l104 -186q27 -47 48 -67t70 -21l-10 -47h-159q-24 22 -41 50.5t-36 65.5l-96 190h-49zM485 910h152l-186 -152h-58z" />
    <glyph glyph-name="racute" unicode="&#x155;" horiz-adv-x="480" 
d="M191 212h7q82 164 138 249t110 85q33 0 47.5 -20.5t14.5 -46.5q0 -36 -21 -59.5t-49 -36.5h-17q0 14 -5.5 25.5t-22.5 11.5q-22 0 -53 -31t-63.5 -86.5t-64 -133t-54.5 -169.5h-118l111 450l-68 35l7 25l171 37h28l-41 -161zM407 763h154l-193 -167h-61z" />
    <glyph glyph-name="Rcommaaccent" unicode="&#x156;" horiz-adv-x="706" 
d="M391 649h-48l-61 -292h42q93 0 153 39t60 129q0 57 -34.5 90.5t-111.5 33.5zM271 306l-37 -176q-2 -10 -3.5 -20t-1.5 -15q0 -28 19 -37.5t65 -10.5l-10 -47h-316l11 47q50 2 75.5 15t34.5 57l97 453q1 10 2.5 20t1.5 15q0 28 -19 37.5t-64 10.5l9 47h304
q113 0 170 -45.5t57 -130.5q0 -89 -66.5 -141t-159.5 -64l104 -186q27 -47 48 -67t70 -21l-10 -47h-159q-24 22 -41 50.5t-36 65.5l-96 190h-49zM308 -155h-50q-19 4 -27.5 15.5t-8.5 27.5q0 30 22.5 48t57.5 18q34 0 51.5 -19t17.5 -50q0 -49 -39.5 -85t-120.5 -36l5 37
q42 0 65 12t27 32z" />
    <glyph glyph-name="rcommaaccent" unicode="&#x157;" horiz-adv-x="480" 
d="M191 212h7q82 164 138 249t110 85q33 0 47.5 -20.5t14.5 -46.5q0 -36 -21 -59.5t-49 -36.5h-17q0 14 -5.5 25.5t-22.5 11.5q-22 0 -53 -31t-63.5 -86.5t-64 -133t-54.5 -169.5h-118l111 450l-68 35l7 25l171 37h28l-41 -161zM92 -155h-50q-19 4 -27.5 15.5t-8.5 27.5
q0 30 22.5 48t57.5 18q34 0 51.5 -19t17.5 -50q0 -49 -39.5 -85t-120.5 -36l5 37q42 0 65 12t27 32z" />
    <glyph glyph-name="Rcaron" unicode="&#x158;" horiz-adv-x="706" 
d="M391 649h-48l-61 -292h42q93 0 153 39t60 129q0 57 -34.5 90.5t-111.5 33.5zM271 306l-37 -176q-2 -10 -3.5 -20t-1.5 -15q0 -28 19 -37.5t65 -10.5l-10 -47h-316l11 47q50 2 75.5 15t34.5 57l97 453q1 10 2.5 20t1.5 15q0 28 -19 37.5t-64 10.5l9 47h304
q113 0 170 -45.5t57 -130.5q0 -89 -66.5 -141t-159.5 -64l104 -186q27 -47 48 -67t70 -21l-10 -47h-159q-24 22 -41 50.5t-36 65.5l-96 190h-49zM383 758l-102 162h59l101 -86l158 86h64l-187 -162h-93z" />
    <glyph glyph-name="rcaron" unicode="&#x159;" horiz-adv-x="480" 
d="M191 212h7q82 164 138 249t110 85q33 0 47.5 -20.5t14.5 -46.5q0 -36 -21 -59.5t-49 -36.5h-17q0 14 -5.5 25.5t-22.5 11.5q-22 0 -53 -31t-63.5 -86.5t-64 -133t-54.5 -169.5h-118l111 450l-68 35l7 25l171 37h28l-41 -161zM298 598l-95 169h58l94 -94l152 94h63
l-180 -169h-92z" />
    <glyph glyph-name="Sacute" unicode="&#x15a;" horiz-adv-x="568" 
d="M258 -10q-86 0 -146.5 30t-88.5 59l26 163h51q6 -93 48 -146t116 -53q54 0 93.5 29.5t39.5 90.5q0 49 -30.5 80t-101.5 68q-75 39 -111.5 86t-36.5 112q0 95 65.5 149t164.5 54q72 0 125 -21t89 -52l-29 -146h-47q-8 74 -40 120t-103 46q-59 0 -88.5 -31.5t-29.5 -81.5
q0 -43 26.5 -71t85.5 -59q81 -42 128 -89t47 -122q0 -54 -22 -94.5t-57.5 -67t-81 -40t-92.5 -13.5zM442 910h152l-186 -152h-58z" />
    <glyph glyph-name="sacute" unicode="&#x15b;" horiz-adv-x="435" 
d="M200 39q35 0 53.5 18t18.5 49q0 28 -29.5 58t-64.5 63t-64.5 71t-29.5 82q0 71 54 118.5t136 47.5q59 0 96 -26t37 -68q0 -19 -14.5 -33.5t-32.5 -21.5h-17q-16 44 -42.5 70.5t-63.5 26.5q-33 0 -49.5 -16t-16.5 -44q0 -25 30.5 -55t66.5 -64t66.5 -72t30.5 -81
q0 -79 -58.5 -125.5t-135.5 -46.5q-73 0 -118.5 31.5t-45.5 77.5q0 24 13.5 42t35.5 27h15q17 -57 49 -93t80 -36zM363 763h154l-193 -167h-61z" />
    <glyph glyph-name="Scircumflex" unicode="&#x15c;" horiz-adv-x="568" 
d="M258 -10q-86 0 -146.5 30t-88.5 59l26 163h51q6 -93 48 -146t116 -53q54 0 93.5 29.5t39.5 90.5q0 49 -30.5 80t-101.5 68q-75 39 -111.5 86t-36.5 112q0 95 65.5 149t164.5 54q72 0 125 -21t89 -52l-29 -146h-47q-8 74 -40 120t-103 46q-59 0 -88.5 -31.5t-29.5 -81.5
q0 -43 26.5 -71t85.5 -59q81 -42 128 -89t47 -122q0 -54 -22 -94.5t-57.5 -67t-81 -40t-92.5 -13.5zM464 919l102 -162h-59l-101 87l-158 -87h-64l187 162h93z" />
    <glyph glyph-name="scircumflex" unicode="&#x15d;" horiz-adv-x="435" 
d="M200 39q35 0 53.5 18t18.5 49q0 28 -29.5 58t-64.5 63t-64.5 71t-29.5 82q0 71 54 118.5t136 47.5q59 0 96 -26t37 -68q0 -19 -14.5 -33.5t-32.5 -21.5h-17q-16 44 -42.5 70.5t-63.5 26.5q-33 0 -49.5 -16t-16.5 -44q0 -25 30.5 -55t66.5 -64t66.5 -72t30.5 -81
q0 -79 -58.5 -125.5t-135.5 -46.5q-73 0 -118.5 31.5t-45.5 77.5q0 24 13.5 42t35.5 27h15q17 -57 49 -93t80 -36zM377 763l95 -169h-58l-95 94l-151 -94h-63l180 169h92z" />
    <glyph glyph-name="Scedilla" unicode="&#x15e;" horiz-adv-x="568" 
d="M106 -225l-5 38q54 0 88.5 11.5t34.5 34.5q0 20 -22.5 29.5t-62.5 10.5l51 97q-60 10 -102.5 35t-64.5 48l26 163h51q6 -93 48 -146t116 -53q54 0 93.5 29.5t39.5 90.5q0 49 -30.5 80t-101.5 68q-75 39 -111.5 86t-36.5 112q0 95 65.5 149t164.5 54q72 0 125 -21t89 -52
l-29 -146h-47q-8 74 -40 120t-103 46q-59 0 -88.5 -31.5t-29.5 -81.5q0 -43 26.5 -71t85.5 -59q81 -42 128 -89t47 -122q0 -54 -22 -94.5t-57.5 -67t-81 -40t-92.5 -13.5q-8 0 -16.5 0.5t-16.5 1.5l-20 -39q46 -1 71.5 -17.5t25.5 -50.5q0 -56 -59 -83t-137 -27z" />
    <glyph glyph-name="scedilla" unicode="&#x15f;" horiz-adv-x="435" 
d="M32 -225l-5 38q54 0 88.5 11.5t34.5 34.5q0 20 -22.5 29.5t-62.5 10.5l51 97q-50 10 -79.5 38t-29.5 65q0 24 13.5 42t35.5 27h15q17 -57 49 -93t80 -36q35 0 53.5 18t18.5 49q0 28 -29.5 58t-64.5 63t-64.5 71t-29.5 82q0 71 54 118.5t136 47.5q59 0 96 -26t37 -68
q0 -19 -14.5 -33.5t-32.5 -21.5h-17q-16 44 -42.5 70.5t-63.5 26.5q-33 0 -49.5 -16t-16.5 -44q0 -25 30.5 -55t66.5 -64t66.5 -72t30.5 -81q0 -79 -58.5 -125.5t-135.5 -46.5q-5 0 -10.5 0.5t-9.5 0.5l-20 -38q46 -1 71.5 -17.5t25.5 -50.5q0 -56 -59 -83t-137 -27z" />
    <glyph glyph-name="Scaron" unicode="&#x160;" horiz-adv-x="568" 
d="M258 -10q-86 0 -146.5 30t-88.5 59l26 163h51q6 -93 48 -146t116 -53q54 0 93.5 29.5t39.5 90.5q0 49 -30.5 80t-101.5 68q-75 39 -111.5 86t-36.5 112q0 95 65.5 149t164.5 54q72 0 125 -21t89 -52l-29 -146h-47q-8 74 -40 120t-103 46q-59 0 -88.5 -31.5t-29.5 -81.5
q0 -43 26.5 -71t85.5 -59q81 -42 128 -89t47 -122q0 -54 -22 -94.5t-57.5 -67t-81 -40t-92.5 -13.5zM340 758l-102 162h59l101 -86l158 86h64l-187 -162h-93z" />
    <glyph glyph-name="scaron" unicode="&#x161;" horiz-adv-x="435" 
d="M200 39q35 0 53.5 18t18.5 49q0 28 -29.5 58t-64.5 63t-64.5 71t-29.5 82q0 71 54 118.5t136 47.5q59 0 96 -26t37 -68q0 -19 -14.5 -33.5t-32.5 -21.5h-17q-16 44 -42.5 70.5t-63.5 26.5q-33 0 -49.5 -16t-16.5 -44q0 -25 30.5 -55t66.5 -64t66.5 -72t30.5 -81
q0 -79 -58.5 -125.5t-135.5 -46.5q-73 0 -118.5 31.5t-45.5 77.5q0 24 13.5 42t35.5 27h15q17 -57 49 -93t80 -36zM254 598l-95 169h58l94 -94l152 94h63l-180 -169h-92z" />
    <glyph glyph-name="Tcommaaccent" unicode="&#x162;" horiz-adv-x="692" 
d="M176 -225l-5 38q54 0 88.5 11.5t34.5 34.5q0 20 -22.5 29.5t-62.5 10.5l53 101h-133l10 47q50 2 80 15t39 57l113 532h-54q-33 0 -56 -7.5t-43.5 -26.5t-42.5 -51t-54 -81h-45l62 217h614l-31 -217h-44q-21 97 -41 131.5t-86 34.5h-55l-109 -517q-3 -13 -4 -23t-1 -15
q0 -28 23.5 -38t69.5 -11l-10 -47h-164l-25 -47q46 -1 71.5 -17.5t25.5 -50.5q0 -56 -59 -83t-137 -27z" />
    <glyph glyph-name="tcommaaccent" unicode="&#x163;" horiz-adv-x="398" 
d="M26 -225l-5 38q54 0 88.5 11.5t34.5 34.5q0 20 -22.5 29.5t-62.5 10.5l50 94q-22 6 -35 22q-19 25 -19 62q0 18 3 36t8 40l76 329h-73l10 35q54 16 98 50.5t84 85.5h40l-28 -117h122l-13 -54h-123l-77 -335q-4 -19 -6.5 -32.5t-2.5 -23.5q0 -11 5 -18t17 -7q26 0 57.5 24
t76.5 72l25 -25q-53 -69 -109 -108q-53 -36 -101 -39l-19 -37q46 -1 71.5 -17.5t25.5 -50.5q0 -56 -59 -83t-137 -27z" />
    <glyph glyph-name="Tcaron" unicode="&#x164;" horiz-adv-x="692" 
d="M138 702h614l-31 -217h-44q-21 97 -41 131.5t-86 34.5h-55l-109 -517q-3 -13 -4 -23t-1 -15q0 -28 23.5 -38t69.5 -11l-10 -47h-335l10 47q50 2 80 15t39 57l113 532h-54q-33 0 -56 -7.5t-43.5 -26.5t-42.5 -51t-54 -81h-45zM413 758l-102 162h59l101 -86l158 86h64
l-187 -162h-93z" />
    <glyph glyph-name="tcaron" unicode="&#x165;" horiz-adv-x="398" 
d="M259 482l-77 -335q-4 -19 -6.5 -32.5t-2.5 -23.5q0 -11 5 -18t17 -7q26 0 57.5 24t76.5 72l25 -25q-53 -69 -109 -108t-107 -39q-44 0 -63.5 25t-19.5 62q0 18 3 36t8 40l76 329h-73l10 35q54 16 98 50.5t84 85.5h40l-28 -117h122l-13 -54h-123zM515 810l-129 -205h-47
l57 205h119z" />
    <glyph glyph-name="Tbar" unicode="&#x166;" horiz-adv-x="692" 
d="M138 702h614l-31 -217h-44q-21 97 -41 131.5t-86 34.5h-55l-54 -257h125l-11 -51h-125l-44 -209q-3 -13 -4 -23t-1 -15q0 -28 23.5 -38t69.5 -11l-10 -47h-335l10 47q50 2 80 15t39 57l47 224h-120l11 51h120l55 257h-54q-33 0 -56 -7.5t-43.5 -26.5t-42.5 -51t-54 -81
h-45z" />
    <glyph glyph-name="tbar" unicode="&#x167;" horiz-adv-x="422" 
d="M270 482l-29 -123h130l-12 -51h-129l-37 -161q-4 -19 -6.5 -32.5t-2.5 -23.5q0 -11 5 -18t17 -7q26 0 57.5 24t76.5 72l26 -25q-54 -69 -110 -108t-107 -39q-43 0 -63 25t-20 62q0 18 3 36t8 40l36 155h-67l13 51h65l29 123h-73l10 35q55 16 98.5 50.5t83.5 85.5h40
l-28 -117h122l-13 -54h-123z" />
    <glyph glyph-name="Utilde" unicode="&#x168;" horiz-adv-x="766" 
d="M590 254l67 318q2 10 3.5 20t1.5 15q0 28 -19 37.5t-64 10.5l9 47h260l-10 -47q-50 -2 -76 -15t-35 -57l-74 -351q-26 -126 -107.5 -184t-185.5 -58q-119 0 -183.5 55.5t-64.5 158.5q0 16 2 34.5t6 39.5l61 294q2 10 3.5 20t1.5 15q0 28 -19 37.5t-65 10.5l10 47h317
l-10 -47q-50 -2 -75.5 -15t-35.5 -57l-65 -308q-4 -17 -6 -32.5t-2 -30.5q0 -68 37 -108.5t106 -40.5q81 0 135.5 42t76.5 149zM681 893l42 -11q-40 -79 -67.5 -104t-65.5 -25q-21 0 -38.5 11t-33.5 24t-30.5 24t-29.5 11q-23 0 -37 -16t-31 -44l-44 10q41 80 68.5 104.5
t64.5 24.5q22 0 40 -11t33.5 -23.5t30 -23.5t29.5 -11q22 0 36.5 16t32.5 44z" />
    <glyph glyph-name="utilde" unicode="&#x169;" horiz-adv-x="646" 
d="M408 247h-7q-60 -117 -128.5 -187t-134.5 -70q-37 0 -58.5 24t-21.5 64q0 13 2.5 30t6.5 34l76 308l-68 35l7 25l175 36h28l-100 -402q-3 -11 -5 -24.5t-2 -24.5q0 -13 4.5 -19.5t15.5 -6.5q26 0 61 31t69.5 81t64.5 113t46 126l28 108l120 8l-102 -410
q-4 -14 -6.5 -25.5t-2.5 -17.5q0 -7 3.5 -11t10.5 -4q14 0 36 17.5t54 57.5l23 -23q-47 -69 -86 -99.5t-82 -30.5q-34 0 -52 22t-18 58q0 22 10.5 63.5t32.5 113.5zM553 750l42 -10q-40 -80 -67.5 -104.5t-65.5 -24.5q-21 0 -38.5 11t-33.5 23.5t-30.5 23.5t-29.5 11
q-23 0 -37 -16t-31 -44l-44 10q41 80 68.5 104.5t64.5 24.5q22 0 40 -11t33.5 -23.5t30 -23.5t29.5 -11q22 0 36.5 16t32.5 44z" />
    <glyph glyph-name="Umacron" unicode="&#x16a;" horiz-adv-x="766" 
d="M590 254l67 318q2 10 3.5 20t1.5 15q0 28 -19 37.5t-64 10.5l9 47h260l-10 -47q-50 -2 -76 -15t-35 -57l-74 -351q-26 -126 -107.5 -184t-185.5 -58q-119 0 -183.5 55.5t-64.5 158.5q0 16 2 34.5t6 39.5l61 294q2 10 3.5 20t1.5 15q0 28 -19 37.5t-65 10.5l10 47h317
l-10 -47q-50 -2 -75.5 -15t-35.5 -57l-65 -308q-4 -17 -6 -32.5t-2 -30.5q0 -68 37 -108.5t106 -40.5q81 0 135.5 42t76.5 149zM376 776l17 75h293l-17 -75h-293z" />
    <glyph glyph-name="umacron" unicode="&#x16b;" horiz-adv-x="646" 
d="M408 247h-7q-60 -117 -128.5 -187t-134.5 -70q-37 0 -58.5 24t-21.5 64q0 13 2.5 30t6.5 34l76 308l-68 35l7 25l175 36h28l-100 -402q-3 -11 -5 -24.5t-2 -24.5q0 -13 4.5 -19.5t15.5 -6.5q26 0 61 31t69.5 81t64.5 113t46 126l28 108l120 8l-102 -410
q-4 -14 -6.5 -25.5t-2.5 -17.5q0 -7 3.5 -11t10.5 -4q14 0 36 17.5t54 57.5l23 -23q-47 -69 -86 -99.5t-82 -30.5q-34 0 -52 22t-18 58q0 22 10.5 63.5t32.5 113.5zM256 624l16 71h276l-16 -71h-276z" />
    <glyph glyph-name="Ubreve" unicode="&#x16c;" horiz-adv-x="766" 
d="M590 254l67 318q2 10 3.5 20t1.5 15q0 28 -19 37.5t-64 10.5l9 47h260l-10 -47q-50 -2 -76 -15t-35 -57l-74 -351q-26 -126 -107.5 -184t-185.5 -58q-119 0 -183.5 55.5t-64.5 158.5q0 16 2 34.5t6 39.5l61 294q2 10 3.5 20t1.5 15q0 28 -19 37.5t-65 10.5l10 47h317
l-10 -47q-50 -2 -75.5 -15t-35.5 -57l-65 -308q-4 -17 -6 -32.5t-2 -30.5q0 -68 37 -108.5t106 -40.5q81 0 135.5 42t76.5 149zM521 754q-58 0 -91.5 31.5t-33.5 87.5q0 11 2 24t6 26h45q-1 -4 -1 -8v-8q0 -43 27 -61t61 -18q37 0 71.5 22t52.5 73h49q-17 -80 -68 -124.5
t-120 -44.5z" />
    <glyph glyph-name="ubreve" unicode="&#x16d;" horiz-adv-x="646" 
d="M408 247h-7q-60 -117 -128.5 -187t-134.5 -70q-37 0 -58.5 24t-21.5 64q0 13 2.5 30t6.5 34l76 308l-68 35l7 25l175 36h28l-100 -402q-3 -11 -5 -24.5t-2 -24.5q0 -13 4.5 -19.5t15.5 -6.5q26 0 61 31t69.5 81t64.5 113t46 126l28 108l120 8l-102 -410
q-4 -14 -6.5 -25.5t-2.5 -17.5q0 -7 3.5 -11t10.5 -4q14 0 36 17.5t54 57.5l23 -23q-47 -69 -86 -99.5t-82 -30.5q-34 0 -52 22t-18 58q0 22 10.5 63.5t32.5 113.5zM390 596q-58 0 -88 31.5t-30 86.5q0 12 2 24.5t6 26.5h45q-1 -4 -1 -8v-8q0 -43 23.5 -61t57.5 -18
q37 0 68 22t49 73h49q-17 -80 -64.5 -124.5t-116.5 -44.5z" />
    <glyph glyph-name="Uring" unicode="&#x16e;" horiz-adv-x="766" 
d="M590 254l67 318q2 10 3.5 20t1.5 15q0 28 -19 37.5t-64 10.5l9 47h260l-10 -47q-50 -2 -76 -15t-35 -57l-74 -351q-26 -126 -107.5 -184t-185.5 -58q-119 0 -183.5 55.5t-64.5 158.5q0 16 2 34.5t6 39.5l61 294q2 10 3.5 20t1.5 15q0 28 -19 37.5t-65 10.5l10 47h317
l-10 -47q-50 -2 -75.5 -15t-35.5 -57l-65 -308q-4 -17 -6 -32.5t-2 -30.5q0 -68 37 -108.5t106 -40.5q81 0 135.5 42t76.5 149zM530 786q26 0 40.5 17.5t14.5 41.5q0 19 -11.5 31t-32.5 12q-26 0 -40 -18t-14 -42q0 -19 11.5 -30.5t31.5 -11.5zM525 743q-40 0 -64 23.5
t-24 60.5q0 44 31.5 74t77.5 30q40 0 64 -24t24 -61q0 -44 -31.5 -73.5t-77.5 -29.5z" />
    <glyph glyph-name="uring" unicode="&#x16f;" horiz-adv-x="646" 
d="M408 247h-7q-60 -117 -128.5 -187t-134.5 -70q-37 0 -58.5 24t-21.5 64q0 13 2.5 30t6.5 34l76 308l-68 35l7 25l175 36h28l-100 -402q-3 -11 -5 -24.5t-2 -24.5q0 -13 4.5 -19.5t15.5 -6.5q26 0 61 31t69.5 81t64.5 113t46 126l28 108l120 8l-102 -410
q-4 -14 -6.5 -25.5t-2.5 -17.5q0 -7 3.5 -11t10.5 -4q14 0 36 17.5t54 57.5l23 -23q-47 -69 -86 -99.5t-82 -30.5q-34 0 -52 22t-18 58q0 22 10.5 63.5t32.5 113.5zM401 634q26 0 40 17.5t14 41.5q0 19 -11.5 31t-31.5 12q-26 0 -40.5 -17.5t-14.5 -41.5q0 -19 11.5 -31
t32.5 -12zM396 591q-40 0 -64 23.5t-24 60.5q0 44 31.5 74t77.5 30q40 0 64 -24t24 -61q0 -44 -31.5 -73.5t-77.5 -29.5z" />
    <glyph glyph-name="Uhungarumlaut" unicode="&#x170;" horiz-adv-x="766" 
d="M590 254l67 318q2 10 3.5 20t1.5 15q0 28 -19 37.5t-64 10.5l9 47h260l-10 -47q-50 -2 -76 -15t-35 -57l-74 -351q-26 -126 -107.5 -184t-185.5 -58q-119 0 -183.5 55.5t-64.5 158.5q0 16 2 34.5t6 39.5l61 294q2 10 3.5 20t1.5 15q0 28 -19 37.5t-65 10.5l10 47h317
l-10 -47q-50 -2 -75.5 -15t-35.5 -57l-65 -308q-4 -17 -6 -32.5t-2 -30.5q0 -68 37 -108.5t106 -40.5q81 0 135.5 42t76.5 149zM491 910h125l-165 -152h-63zM662 910h126l-166 -152h-64z" />
    <glyph glyph-name="uhungarumlaut" unicode="&#x171;" horiz-adv-x="646" 
d="M408 247h-7q-60 -117 -128.5 -187t-134.5 -70q-37 0 -58.5 24t-21.5 64q0 13 2.5 30t6.5 34l76 308l-68 35l7 25l175 36h28l-100 -402q-3 -11 -5 -24.5t-2 -24.5q0 -13 4.5 -19.5t15.5 -6.5q26 0 61 31t69.5 81t64.5 113t46 126l28 108l120 8l-102 -410
q-4 -14 -6.5 -25.5t-2.5 -17.5q0 -7 3.5 -11t10.5 -4q14 0 36 17.5t54 57.5l23 -23q-47 -69 -86 -99.5t-82 -30.5q-34 0 -52 22t-18 58q0 22 10.5 63.5t32.5 113.5zM364 763h124l-169 -167h-64zM534 763h127l-172 -167h-63z" />
    <glyph glyph-name="Uogonek" unicode="&#x172;" horiz-adv-x="766" 
d="M590 254l67 318q2 10 3.5 20t1.5 15q0 28 -19 37.5t-64 10.5l9 47h260l-10 -47q-50 -2 -76 -15t-35 -57l-74 -351q-20 -98 -75 -154.5t-128 -76.5q-45 -24 -78.5 -52t-33.5 -62q0 -16 10.5 -26.5t32.5 -10.5q21 0 43 12t47 28l14 -21q-28 -30 -66.5 -55.5t-80.5 -25.5
q-35 0 -58.5 18t-23.5 51q0 44 30.5 76t76.5 57h-3q-119 0 -183.5 55.5t-64.5 158.5q0 16 2 34.5t6 39.5l61 294q2 10 3.5 20t1.5 15q0 28 -19 37.5t-65 10.5l10 47h317l-10 -47q-50 -2 -75.5 -15t-35.5 -57l-65 -308q-4 -17 -6 -32.5t-2 -30.5q0 -68 37 -108.5t106 -40.5
q81 0 135.5 42t76.5 149z" />
    <glyph glyph-name="uogonek" unicode="&#x173;" horiz-adv-x="646" 
d="M587 536l-102 -408q-4 -14 -6 -25.5t-2 -17.5q0 -7 3.5 -11t10.5 -4q14 0 35.5 16.5t52.5 56.5l24 -23q-39 -54 -82 -87.5t-78 -57.5t-58.5 -43.5t-23.5 -44.5q0 -16 10.5 -26.5t31.5 -10.5q22 0 43.5 12t46.5 28l14 -21q-28 -30 -66.5 -55.5t-80.5 -25.5q-35 0 -58 18
t-23 52q0 46 38.5 80t92.5 60q-22 7 -33.5 26.5t-11.5 45.5q0 22 10.5 63.5t32.5 113.5h-7q-60 -117 -128.5 -187t-134.5 -70q-37 0 -58.5 24t-21.5 64q0 13 2.5 30t6.5 34l76 308l-68 35l7 25l175 36h28l-100 -402q-3 -11 -5 -24.5t-2 -24.5q0 -13 4.5 -19.5t15.5 -6.5
q26 0 61 31t69.5 81t64.5 113t46 126l28 108z" />
    <glyph glyph-name="Wcircumflex" unicode="&#x174;" horiz-adv-x="988" 
d="M686 175l216 391q9 16 15 30t6 26q0 18 -19.5 25t-59.5 8l11 47h224l-10 -47q-21 -4 -39 -10t-31 -27l-357 -626h-43l-59 418l-238 -418h-42l-111 626q-3 19 -17.5 26t-34.5 11l10 47h282l-10 -47q-40 -2 -67 -11t-28 -49q0 -5 1 -13.5t2 -18.5l62 -391l180 316l-19 130
q-2 21 -16 27t-34 10l11 47h273l-11 -47q-43 -2 -70 -12.5t-27 -50.5q0 -6 0.5 -12.5t1.5 -14.5zM697 919l102 -162h-59l-101 87l-158 -87h-64l187 162h93z" />
    <glyph glyph-name="wcircumflex" unicode="&#x175;" horiz-adv-x="780" 
d="M374 455l-69 30l7 25l144 36h20l34 -430l108 137q26 33 40.5 71t14.5 79q0 37 -24 55.5t-64 18.5v16q14 19 38.5 36t58.5 17q46 0 66 -29t20 -67q0 -51 -31 -106.5t-77 -112.5l-194 -240h-47l-27 276l-204 -276h-46l-47 464l-69 30l7 25l149 36h20l35 -424l149 203z
M541 763l95 -169h-58l-95 94l-151 -94h-63l180 169h92z" />
    <glyph glyph-name="Ycircumflex" unicode="&#x176;" horiz-adv-x="674" 
d="M381 332l192 235q14 17 22 30.5t8 23.5q0 17 -17 24t-60 10l10 47h230l-11 -47q-22 -4 -37.5 -11t-31.5 -26l-283 -343l-31 -145q-3 -10 -4 -19.5t-1 -14.5q0 -28 23.5 -38t69.5 -11l-10 -47h-329l10 47q50 2 80 15t40 57l33 156l-135 343q-7 19 -19 26t-33 11l10 47h282
l-11 -47q-39 0 -66 -8t-28 -38q0 -9 3 -19.5t7 -22.5zM551 919l102 -162h-59l-101 87l-158 -87h-64l187 162h93z" />
    <glyph glyph-name="ycircumflex" unicode="&#x177;" horiz-adv-x="531" 
d="M343 87q-61 -91 -110.5 -148.5t-90 -89.5t-75 -43.5t-65.5 -11.5q-37 0 -69 19t-32 62q0 24 14.5 42.5t36.5 25.5h21q0 -41 17 -64t52 -23q29 0 63 19t84 76l-96 504l-69 30l7 25l148 36h19l80 -480l32 47q73 108 94 176.5t21 109.5q0 40 -24.5 59t-64.5 19l1 16
q13 19 37.5 36t58.5 17q46 0 66.5 -29t20.5 -64q0 -64 -45.5 -152t-131.5 -214zM404 763l95 -169h-58l-95 94l-151 -94h-63l180 169h92z" />
    <glyph glyph-name="Ydieresis" unicode="&#x178;" horiz-adv-x="674" 
d="M381 332l192 235q14 17 22 30.5t8 23.5q0 17 -17 24t-60 10l10 47h230l-11 -47q-22 -4 -37.5 -11t-31.5 -26l-283 -343l-31 -145q-3 -10 -4 -19.5t-1 -14.5q0 -28 23.5 -38t69.5 -11l-10 -47h-329l10 47q50 2 80 15t40 57l33 156l-135 343q-7 19 -19 26t-33 11l10 47h282
l-11 -47q-39 0 -66 -8t-28 -38q0 -9 3 -19.5t7 -22.5zM378 762q-30 0 -48 19t-18 46q0 30 20.5 51.5t51.5 21.5q30 0 48 -19t18 -46q0 -30 -20.5 -51.5t-51.5 -21.5zM574 762q-30 0 -48 19t-18 46q0 30 20 51.5t51 21.5q30 0 48.5 -19t18.5 -46q0 -30 -20.5 -51.5
t-51.5 -21.5z" />
    <glyph glyph-name="Zacute" unicode="&#x179;" horiz-adv-x="620" 
d="M148 54h190q33 0 57 8t45.5 26t45.5 47.5t56 72.5h47l-77 -208h-534l6 32l522 615h-175q-61 0 -91 -31t-80 -106h-42l41 192h518l-8 -33zM471 910h152l-186 -152h-58z" />
    <glyph glyph-name="zacute" unicode="&#x17a;" horiz-adv-x="506" 
d="M381 434h-195q-25 0 -37 -7.5t-23 -26.5l-29 -48l-28 9l76 208h25q1 -16 7 -27t20 -11h325l-1 -26l-380 -357l112 -36q20 -6 38 -10t37 -4q37 0 61.5 18t52.5 71l27 -9q-35 -99 -70.5 -144.5t-100.5 -45.5q-31 0 -60 10.5t-58 24.5l-111 53l-48 -78q-22 1 -32.5 10.5
t-10.5 22.5q0 11 5.5 23t18.5 25zM391 763h154l-193 -167h-61z" />
    <glyph glyph-name="Zdotaccent" unicode="&#x17b;" horiz-adv-x="620" 
d="M148 54h190q33 0 57 8t45.5 26t45.5 47.5t56 72.5h47l-77 -208h-534l6 32l522 615h-175q-61 0 -91 -31t-80 -106h-42l41 192h518l-8 -33zM427 760q-32 0 -52.5 21t-20.5 50q0 32 23 55.5t57 23.5q32 0 52.5 -21t20.5 -49q0 -33 -23 -56.5t-57 -23.5z" />
    <glyph glyph-name="zdotaccent" unicode="&#x17c;" horiz-adv-x="506" 
d="M381 434h-195q-25 0 -37 -7.5t-23 -26.5l-29 -48l-28 9l76 208h25q1 -16 7 -27t20 -11h325l-1 -26l-380 -357l112 -36q20 -6 38 -10t37 -4q37 0 61.5 18t52.5 71l27 -9q-35 -99 -70.5 -144.5t-100.5 -45.5q-31 0 -60 10.5t-58 24.5l-111 53l-48 -78q-22 1 -32.5 10.5
t-10.5 22.5q0 11 5.5 23t18.5 25zM341 607q-33 0 -53 21t-20 50q0 32 22.5 55.5t57.5 23.5q32 0 52.5 -20.5t20.5 -49.5q0 -32 -23 -56t-57 -24z" />
    <glyph glyph-name="Zcaron" unicode="&#x17d;" horiz-adv-x="620" 
d="M148 54h190q33 0 57 8t45.5 26t45.5 47.5t56 72.5h47l-77 -208h-534l6 32l522 615h-175q-61 0 -91 -31t-80 -106h-42l41 192h518l-8 -33zM369 758l-102 162h59l101 -86l158 86h64l-187 -162h-93z" />
    <glyph glyph-name="zcaron" unicode="&#x17e;" horiz-adv-x="506" 
d="M381 434h-195q-25 0 -37 -7.5t-23 -26.5l-29 -48l-28 9l76 208h25q1 -16 7 -27t20 -11h325l-1 -26l-380 -357l112 -36q20 -6 38 -10t37 -4q37 0 61.5 18t52.5 71l27 -9q-35 -99 -70.5 -144.5t-100.5 -45.5q-31 0 -60 10.5t-58 24.5l-111 53l-48 -78q-22 1 -32.5 10.5
t-10.5 22.5q0 11 5.5 23t18.5 25zM282 598l-95 169h58l94 -94l152 94h63l-180 -169h-92z" />
    <glyph glyph-name="florin" unicode="&#x192;" horiz-adv-x="486" 
d="M80 303l12 49h88l17 74q31 137 86 211.5t153 74.5q53 0 81.5 -19.5t28.5 -54.5q0 -26 -15.5 -42t-38.5 -23h-32q1 41 -6 69t-36 28q-25 0 -39 -23t-22 -60l-53 -235h112l-8 -49h-115l-41 -187q-33 -144 -88.5 -219.5t-153.5 -75.5q-54 0 -82 19.5t-28 53.5q0 27 15.5 43
t38.5 23h32q-1 -41 5.5 -69t36.5 -28q25 0 39 23t22 60l80 357h-89z" />
    <glyph glyph-name="Aringacute" unicode="&#x1fa;" horiz-adv-x="730" 
d="M454 738q-41 0 -66 21.5t-25 54.5q0 39 32.5 64.5t78.5 25.5q42 0 66.5 -21t24.5 -55q0 -39 -32 -64.5t-79 -25.5zM539 1038h152l-159 -107h-58zM459 776q27 0 41 14.5t14 36.5q0 17 -11.5 28t-32.5 11q-27 0 -41.5 -15t-14.5 -36q0 -17 11.5 -28t33.5 -11zM490 131
l-19 92h-282l-57 -92q-9 -14 -14 -26.5t-5 -22.5q0 -19 19.5 -26.5t60.5 -8.5l-9 -47h-226l10 47q22 4 38.5 10.5t29.5 26.5l346 555l-18 70h132l133 -625q4 -19 18 -26.5t35 -10.5l-8 -47h-288l10 47q42 2 69 11t28 42q0 7 -1 15zM402 568l-179 -290h237z" />
    <glyph glyph-name="aringacute" unicode="&#x1fb;" horiz-adv-x="626" 
d="M398 611q27 0 41 14.5t14 36.5q0 17 -11.5 28t-32.5 11q-27 0 -41.5 -14.5t-14.5 -36.5q0 -17 11.5 -28t33.5 -11zM393 573q-41 0 -66 21.5t-25 54.5q0 39 32.5 64.5t78.5 25.5q41 0 66 -21t25 -54q0 -40 -32 -65.5t-79 -25.5zM478 874h152l-159 -107h-59zM200 73
q54 0 121.5 105.5t108.5 274.5q-12 23 -28.5 34.5t-41.5 11.5q-46 0 -84.5 -32t-66.5 -81t-44 -110t-16 -118q0 -38 13 -61.5t38 -23.5zM460 502l73 49h46l-37 -120l-74 -305q-4 -14 -6.5 -25.5t-2.5 -17.5q0 -7 3.5 -11t10.5 -4q14 0 35.5 17.5t52.5 57.5l24 -23
q-46 -69 -86 -99.5t-83 -30.5q-34 0 -51.5 22t-17.5 58q0 23 11.5 67t24.5 84h-7q-21 -45 -46.5 -87t-54 -74t-60 -51t-65.5 -19q-54 0 -86 42t-32 116q0 77 26.5 149.5t70 127.5t101 88t119.5 33q37 0 63.5 -11.5t47.5 -32.5z" />
    <glyph glyph-name="AEacute" unicode="&#x1fc;" horiz-adv-x="1041" 
d="M36 84l483 542q-7 18 -26 23.5t-54 5.5l10 47h621l-38 -174h-40q-13 63 -31 92t-79 29h-167l-55 -262h134q34 0 54.5 20.5t37.5 65.5h43l-48 -227h-43q0 46 -10.5 66.5t-44.5 20.5h-134l-42 -197q-2 -12 -3.5 -22t-1.5 -15q0 -28 20 -37t63 -9h61q63 0 103.5 28.5
t103.5 106.5h44l-70 -188h-569l10 47q50 2 76 15t35 57l28 131h-249l-103 -116q-14 -15 -19 -28.5t-5 -23.5q0 -19 20 -26.5t61 -8.5l-9 -47h-245l10 47q22 4 37 11.5t31 25.5zM584 614l-280 -313h214zM807 910h152l-186 -152h-58z" />
    <glyph glyph-name="aeacute" unicode="&#x1fd;" horiz-adv-x="799" 
d="M347 546q42 0 74.5 -17.5t57.5 -50.5q37 31 82.5 49.5t94.5 18.5q64 0 95.5 -33.5t31.5 -80.5q0 -43 -27.5 -76t-72.5 -57.5t-104 -42.5t-121 -32v-24q0 -63 28 -101t77 -38q44 0 82 24t75 67l26 -22q-53 -75 -109.5 -107.5t-119.5 -32.5q-81 0 -123 50.5t-49 120.5
q-40 -71 -89.5 -121t-105.5 -50q-54 0 -86 42t-32 116q0 77 26.5 149.5t69.5 127.5t100.5 88t118.5 33zM200 73q31 0 69.5 38t75.5 107q4 62 30.5 121t67.5 105q-13 23 -33 40t-50 17q-46 0 -84.5 -32t-66.5 -82t-44 -111t-16 -118q0 -38 13 -61.5t38 -23.5zM630 492
q-57 0 -106 -69.5t-62 -165.5q110 33 165 72.5t55 99.5q0 26 -13 44.5t-39 18.5zM543 763h154l-193 -167h-61z" />
    <glyph glyph-name="Oslashacute" unicode="&#x1fe;" horiz-adv-x="733" 
d="M656 739l-46 -75q51 -37 78.5 -98.5t27.5 -137.5q0 -87 -29 -166.5t-80.5 -139.5t-122.5 -96t-154 -36q-34 0 -64.5 6.5t-56.5 16.5l-53 -85l-43 25l52 85q-51 37 -78.5 98.5t-27.5 138.5q0 87 29.5 166.5t81 139t122.5 95.5t153 36q34 0 64.5 -6.5t56.5 -17.5l47 76z
M332 48q58 0 105 34.5t79.5 89.5t50.5 124t18 137q0 43 -7 81t-20 66l-310 -502q16 -15 37 -22.5t47 -7.5zM190 270q0 -44 6.5 -82t20.5 -66l309 502q-16 14 -37 22t-46 8q-57 0 -104 -34.5t-80 -89.5t-51 -123.5t-18 -136.5zM533 910h152l-186 -152h-58z" />
    <glyph glyph-name="oslashacute" unicode="&#x1ff;" horiz-adv-x="563" 
d="M495 581l-44 -72q35 -26 56 -70t21 -103q0 -64 -22.5 -126.5t-62 -111t-95 -78.5t-120.5 -30q-22 0 -42.5 4t-38.5 11l-53 -87l-38 23l53 87q-34 26 -54 70t-20 102q0 64 22.5 126.5t62 111t94.5 78.5t120 30q21 0 41 -4t38 -11l44 72zM233 37q39 0 72.5 33t57.5 82
t38 106.5t14 105.5q0 20 -2.5 38t-6.5 33l-227 -377q10 -10 23.5 -15.5t30.5 -5.5zM148 171q0 -19 1.5 -36t5.5 -31l227 375q-10 10 -23.5 15t-29.5 5q-39 0 -72 -33t-57.5 -82t-38 -106.5t-13.5 -106.5zM404 763h154l-193 -167h-61z" />
    <glyph glyph-name="Scommaaccent" unicode="&#x218;" horiz-adv-x="568" 
d="M258 -10q-86 0 -146.5 30t-88.5 59l26 163h51q6 -93 48 -146t116 -53q54 0 93.5 29.5t39.5 90.5q0 49 -30.5 80t-101.5 68q-75 39 -111.5 86t-36.5 112q0 95 65.5 149t164.5 54q72 0 125 -21t89 -52l-29 -146h-47q-8 74 -40 120t-103 46q-59 0 -88.5 -31.5t-29.5 -81.5
q0 -43 26.5 -71t85.5 -59q81 -42 128 -89t47 -122q0 -54 -22 -94.5t-57.5 -67t-81 -40t-92.5 -13.5zM210 -155h-50q-19 4 -27.5 15.5t-8.5 27.5q0 30 22.5 48t57.5 18q34 0 51.5 -19t17.5 -50q0 -49 -39.5 -85t-120.5 -36l5 37q42 0 65 12t27 32z" />
    <glyph glyph-name="scommaaccent" unicode="&#x219;" horiz-adv-x="435" 
d="M200 39q35 0 53.5 18t18.5 49q0 28 -29.5 58t-64.5 63t-64.5 71t-29.5 82q0 71 54 118.5t136 47.5q59 0 96 -26t37 -68q0 -19 -14.5 -33.5t-32.5 -21.5h-17q-16 44 -42.5 70.5t-63.5 26.5q-33 0 -49.5 -16t-16.5 -44q0 -25 30.5 -55t66.5 -64t66.5 -72t30.5 -81
q0 -79 -58.5 -125.5t-135.5 -46.5q-73 0 -118.5 31.5t-45.5 77.5q0 24 13.5 42t35.5 27h15q17 -57 49 -93t80 -36zM139 -155h-50q-19 4 -27.5 15.5t-8.5 27.5q0 30 22.5 48t57.5 18q34 0 51.5 -19t17.5 -50q0 -49 -39.5 -85t-120.5 -36l5 37q42 0 65 12t27 32z" />
    <glyph glyph-name="uni021A" unicode="&#x21a;" horiz-adv-x="692" 
d="M138 702h614l-31 -217h-44q-21 97 -41 131.5t-86 34.5h-55l-109 -517q-3 -13 -4 -23t-1 -15q0 -28 23.5 -38t69.5 -11l-10 -47h-335l10 47q50 2 80 15t39 57l113 532h-54q-33 0 -56 -7.5t-43.5 -26.5t-42.5 -51t-54 -81h-45zM284 -155h-50q-19 4 -27.5 15.5t-8.5 27.5
q0 30 22.5 48t57.5 18q34 0 51.5 -19t17.5 -50q0 -49 -39.5 -85t-120.5 -36l5 37q42 0 65 12t27 32z" />
    <glyph glyph-name="uni021B" unicode="&#x21b;" horiz-adv-x="398" 
d="M259 482l-77 -335q-4 -19 -6.5 -32.5t-2.5 -23.5q0 -11 5 -18t17 -7q26 0 57.5 24t76.5 72l25 -25q-53 -69 -109 -108t-107 -39q-44 0 -63.5 25t-19.5 62q0 18 3 36t8 40l76 329h-73l10 35q54 16 98 50.5t84 85.5h40l-28 -117h122l-13 -54h-123zM130 -155h-50
q-19 4 -27.5 15.5t-8.5 27.5q0 30 22.5 48t57.5 18q34 0 51.5 -19t17.5 -50q0 -49 -39.5 -85t-120.5 -36l5 37q42 0 65 12t27 32z" />
    <glyph glyph-name="dotlessj" unicode="&#x237;" horiz-adv-x="311" 
d="M45 -17l101 467l-68 35l7 25l176 36h28l-105 -448q-33 -139 -90 -222t-150 -83q-45 0 -73 18t-28 49t19.5 46.5t41.5 19.5h18q5 -41 17.5 -65t35.5 -24q25 0 40 38t30 108z" />
    <glyph glyph-name="circumflex" unicode="&#x2c6;" horiz-adv-x="500" 
d="M330 763l95 -169h-58l-95 94l-151 -94h-63l180 169h92z" />
    <glyph glyph-name="caron" unicode="&#x2c7;" horiz-adv-x="500" 
d="M162 598l-95 169h58l94 -94l152 94h63l-180 -169h-92z" />
    <glyph glyph-name="breve" unicode="&#x2d8;" horiz-adv-x="500" 
d="M227 596q-58 0 -88 31.5t-30 86.5q0 12 2 24.5t6 26.5h45q-1 -4 -1 -8v-8q0 -43 23.5 -61t57.5 -18q37 0 68 22t49 73h49q-17 -80 -64.5 -124.5t-116.5 -44.5z" />
    <glyph glyph-name="dotaccent" unicode="&#x2d9;" horiz-adv-x="500" 
d="M251 607q-33 0 -53 21t-20 50q0 32 22.5 55.5t57.5 23.5q32 0 52.5 -20.5t20.5 -49.5q0 -32 -23 -56t-57 -24z" />
    <glyph glyph-name="ring" unicode="&#x2da;" horiz-adv-x="500" 
d="M248 634q26 0 40 17.5t14 41.5q0 19 -11.5 31t-31.5 12q-26 0 -40.5 -17.5t-14.5 -41.5q0 -19 11.5 -31t32.5 -12zM243 591q-40 0 -64 23.5t-24 60.5q0 44 31.5 74t77.5 30q40 0 64 -24t24 -61q0 -44 -31.5 -73.5t-77.5 -29.5z" />
    <glyph glyph-name="ogonek" unicode="&#x2db;" horiz-adv-x="500" 
d="M340 37l10 -24q-51 -27 -92.5 -58t-41.5 -68q0 -16 10.5 -26.5t32.5 -10.5q21 0 43 12t47 28l14 -21q-28 -30 -66.5 -55.5t-80.5 -25.5q-35 0 -58.5 18t-23.5 51t18 59t47.5 47.5t66.5 39.5t74 34z" />
    <glyph glyph-name="tilde" unicode="&#x2dc;" horiz-adv-x="500" 
d="M396 750l42 -10q-40 -80 -67.5 -104.5t-65.5 -24.5q-21 0 -38.5 11t-33.5 23.5t-30.5 23.5t-29.5 11q-23 0 -37 -16t-31 -44l-44 10q41 80 68.5 104.5t64.5 24.5q22 0 40 -11t33.5 -23.5t30 -23.5t29.5 -11q22 0 36.5 16t32.5 44z" />
    <glyph glyph-name="hungarumlaut" unicode="&#x2dd;" horiz-adv-x="500" 
d="M157 763h124l-169 -167h-64zM327 763h127l-172 -167h-63z" />
    <glyph glyph-name="gravecmb" unicode="&#x300;" horiz-adv-x="0" 
d="M-95 763h141l55 -167h-56z" />
    <glyph glyph-name="acutecmb" unicode="&#x301;" horiz-adv-x="0" 
d="M-27 763h154l-193 -167h-61z" />
    <glyph glyph-name="circumflexcmb" unicode="&#x302;" horiz-adv-x="0" 
d="M80 763l95 -169h-58l-95 94l-151 -94h-63l180 169h92z" />
    <glyph glyph-name="tildecmb" unicode="&#x303;" horiz-adv-x="0" 
d="M146 750l42 -10q-40 -80 -67.5 -104.5t-65.5 -24.5q-21 0 -38.5 11t-33.5 23.5t-30.5 23.5t-29.5 11q-23 0 -37 -16t-31 -44l-44 10q41 80 68.5 104.5t64.5 24.5q22 0 40 -11t33.5 -23.5t30 -23.5t29.5 -11q22 0 36.5 16t32.5 44z" />
    <glyph glyph-name="macroncmb" unicode="&#x304;" horiz-adv-x="0" 
d="M-146 624l16 71h276l-16 -71h-276z" />
    <glyph glyph-name="brevecmb" unicode="&#x306;" horiz-adv-x="0" 
d="M-31 596q-58 0 -88 31.5t-30 86.5q0 12 2 24.5t6 26.5h45q-1 -4 -1 -8v-8q0 -43 23.5 -61t57.5 -18q37 0 68 22t49 73h49q-17 -80 -64.5 -124.5t-116.5 -44.5z" />
    <glyph glyph-name="dotaccentcmb" unicode="&#x307;" horiz-adv-x="0" 
d="M1 607q-33 0 -53 21t-20 50q0 32 22.5 55.5t57.5 23.5q32 0 52.5 -20.5t20.5 -49.5q0 -32 -23 -56t-57 -24z" />
    <glyph glyph-name="dieresiscmb" unicode="&#x308;" horiz-adv-x="0" 
d="M-101 611q-30 0 -48 19.5t-18 46.5q0 29 20.5 51t51.5 22q30 0 48 -19t18 -47q0 -29 -20.5 -51t-51.5 -22zM95 611q-30 0 -48 19.5t-18 46.5q0 29 20 51t51 22q30 0 48.5 -19t18.5 -47q0 -29 -20.5 -51t-51.5 -22z" />
    <glyph glyph-name="ringcmb" unicode="&#x30a;" horiz-adv-x="0" 
d="M-2 634q26 0 40 17.5t14 41.5q0 19 -11.5 31t-31.5 12q-26 0 -40.5 -17.5t-14.5 -41.5q0 -19 11.5 -31t32.5 -12zM-7 591q-40 0 -64 23.5t-24 60.5q0 44 31.5 74t77.5 30q40 0 64 -24t24 -61q0 -44 -31.5 -73.5t-77.5 -29.5z" />
    <glyph glyph-name="hungarumlautcmb" unicode="&#x30b;" horiz-adv-x="0" 
d="M-106 763h124l-169 -167h-64zM64 763h127l-172 -167h-63z" />
    <glyph glyph-name="caroncmb" unicode="&#x30c;" horiz-adv-x="0" 
d="M-88 598l-95 169h58l94 -94l152 94h63l-180 -169h-92z" />
    <glyph glyph-name="commaaboverightcmb" unicode="&#x315;" horiz-adv-x="0" 
d="M64 763l-129 -205h-47l57 205h119z" />
    <glyph glyph-name="dotbelowcmb" unicode="&#x323;" horiz-adv-x="0" 
d="M-3 -195q-33 0 -53 21t-20 50q0 32 22.5 55.5t57.5 23.5q32 0 52.5 -20.5t20.5 -49.5q0 -32 -23 -56t-57 -24z" />
    <glyph glyph-name="cedillacmb" unicode="&#x327;" horiz-adv-x="0" 
d="M-99 -225l-5 38q54 0 88.5 11.5t34.5 34.5q0 20 -22.5 29.5t-62.5 10.5l58 109h37l-29 -55q46 -1 71.5 -17.5t25.5 -50.5q0 -56 -59 -83t-137 -27z" />
    <glyph glyph-name="ogonekcmb" unicode="&#x328;" horiz-adv-x="0" 
d="M92 37l10 -24q-51 -27 -92.5 -58t-41.5 -68q0 -16 10.5 -26.5t32.5 -10.5q21 0 43 12t47 28l14 -21q-28 -30 -66.5 -55.5t-80.5 -25.5q-35 0 -58.5 18t-23.5 51t18 59t47.5 47.5t66.5 39.5t74 34z" />
    <glyph glyph-name="Omega" unicode="&#x3a9;" horiz-adv-x="763" 
d="M461 659q-59 0 -102.5 -37.5t-72 -92.5t-42.5 -119t-14 -116q0 -79 21 -133t46 -85l-16 -76h-260l13 181h30q22 -67 41.5 -83t86.5 -16h57q-46 22 -93 91t-47 173q0 71 27.5 137t75.5 117t114 81.5t142 30.5q107 0 172 -65.5t65 -175.5q0 -125 -81.5 -231t-198.5 -158h57
q34 0 55.5 3t38.5 13t34 29.5t42 53.5h34l-63 -181h-264l16 76q44 38 82 88t65 106t42.5 116t15.5 117q0 77 -32 116.5t-87 39.5z" />
    <glyph glyph-name="mu" unicode="&#x3bc;" horiz-adv-x="646" 
d="M141 -9l-41 -178l-120 -10l159 647l-68 35l7 25l175 36h28l-100 -402q-3 -11 -5.5 -24.5t-2.5 -24.5q0 -13 5 -19.5t16 -6.5q26 0 61 31t69.5 81t64.5 113t46 126l28 108l120 8l-102 -410q-4 -14 -6.5 -25.5t-2.5 -17.5q0 -7 3.5 -11t10.5 -4q14 0 36 17.5t53 57.5
l24 -23q-47 -69 -86.5 -99.5t-82.5 -30.5q-34 0 -51.5 22t-17.5 58q0 22 10.5 63.5t32.5 113.5h-7q-58 -112 -128.5 -181t-127.5 -75z" />
    <glyph glyph-name="pi" unicode="&#x3c0;" horiz-adv-x="648" 
d="M434 446h-155q-32 -152 -61.5 -250t-72.5 -196h-128l5 26q50 81 100.5 180t80.5 240h-100l19 90h522l-36 -90h-80q-34 -128 -52 -208.5t-18 -127.5q0 -22 12 -32t31 -10q7 0 21.5 1.5t25.5 4.5v-32q-33 -26 -62.5 -39t-60.5 -13q-38 0 -61 22.5t-23 60.5q0 54 24 142.5
t69 230.5z" />
    <glyph glyph-name="Wgrave" unicode="&#x1e80;" horiz-adv-x="988" 
d="M686 175l216 391q9 16 15 30t6 26q0 18 -19.5 25t-59.5 8l11 47h224l-10 -47q-21 -4 -39 -10t-31 -27l-357 -626h-43l-59 418l-238 -418h-42l-111 626q-3 19 -17.5 26t-34.5 11l10 47h282l-10 -47q-40 -2 -67 -11t-28 -49q0 -5 1 -13.5t2 -18.5l62 -391l180 316l-19 130
q-2 21 -16 27t-34 10l11 47h273l-11 -47q-43 -2 -70 -12.5t-27 -50.5q0 -6 0.5 -12.5t1.5 -14.5zM465 910h140l50 -152h-56z" />
    <glyph glyph-name="wgrave" unicode="&#x1e81;" horiz-adv-x="780" 
d="M374 455l-69 30l7 25l144 36h20l34 -430l108 137q26 33 40.5 71t14.5 79q0 37 -24 55.5t-64 18.5v16q14 19 38.5 36t58.5 17q46 0 66 -29t20 -67q0 -51 -31 -106.5t-77 -112.5l-194 -240h-47l-27 276l-204 -276h-46l-47 464l-69 30l7 25l149 36h20l35 -424l149 203z
M306 763h141l55 -167h-56z" />
    <glyph glyph-name="Wacute" unicode="&#x1e82;" horiz-adv-x="988" 
d="M686 175l216 391q9 16 15 30t6 26q0 18 -19.5 25t-59.5 8l11 47h224l-10 -47q-21 -4 -39 -10t-31 -27l-357 -626h-43l-59 418l-238 -418h-42l-111 626q-3 19 -17.5 26t-34.5 11l10 47h282l-10 -47q-40 -2 -67 -11t-28 -49q0 -5 1 -13.5t2 -18.5l62 -391l180 316l-19 130
q-2 21 -16 27t-34 10l11 47h273l-11 -47q-43 -2 -70 -12.5t-27 -50.5q0 -6 0.5 -12.5t1.5 -14.5zM675 910h152l-186 -152h-58z" />
    <glyph glyph-name="wacute" unicode="&#x1e83;" horiz-adv-x="780" 
d="M374 455l-69 30l7 25l144 36h20l34 -430l108 137q26 33 40.5 71t14.5 79q0 37 -24 55.5t-64 18.5v16q14 19 38.5 36t58.5 17q46 0 66 -29t20 -67q0 -51 -31 -106.5t-77 -112.5l-194 -240h-47l-27 276l-204 -276h-46l-47 464l-69 30l7 25l149 36h20l35 -424l149 203z
M527 763h154l-193 -167h-61z" />
    <glyph glyph-name="Wdieresis" unicode="&#x1e84;" horiz-adv-x="988" 
d="M686 175l216 391q9 16 15 30t6 26q0 18 -19.5 25t-59.5 8l11 47h224l-10 -47q-21 -4 -39 -10t-31 -27l-357 -626h-43l-59 418l-238 -418h-42l-111 626q-3 19 -17.5 26t-34.5 11l10 47h282l-10 -47q-40 -2 -67 -11t-28 -49q0 -5 1 -13.5t2 -18.5l62 -391l180 316l-19 130
q-2 21 -16 27t-34 10l11 47h273l-11 -47q-43 -2 -70 -12.5t-27 -50.5q0 -6 0.5 -12.5t1.5 -14.5zM533 762q-30 0 -48 19t-18 46q0 30 20.5 51.5t51.5 21.5q30 0 48 -19t18 -46q0 -30 -20.5 -51.5t-51.5 -21.5zM729 762q-30 0 -48 19t-18 46q0 30 20 51.5t51 21.5
q30 0 48.5 -19t18.5 -46q0 -30 -20.5 -51.5t-51.5 -21.5z" />
    <glyph glyph-name="wdieresis" unicode="&#x1e85;" horiz-adv-x="780" 
d="M374 455l-69 30l7 25l144 36h20l34 -430l108 137q26 33 40.5 71t14.5 79q0 37 -24 55.5t-64 18.5v16q14 19 38.5 36t58.5 17q46 0 66 -29t20 -67q0 -51 -31 -106.5t-77 -112.5l-194 -240h-47l-27 276l-204 -276h-46l-47 464l-69 30l7 25l149 36h20l35 -424l149 203z
M379 611q-30 0 -48 19.5t-18 46.5q0 29 20.5 51t51.5 22q30 0 48 -19t18 -47q0 -29 -20.5 -51t-51.5 -22zM575 611q-30 0 -48 19.5t-18 46.5q0 29 20 51t51 22q30 0 48.5 -19t18.5 -47q0 -29 -20.5 -51t-51.5 -22z" />
    <glyph glyph-name="Edotbelow" unicode="&#x1eb8;" horiz-adv-x="671" 
d="M-13 0l11 47q50 2 75.5 15t34.5 57l97 453q1 10 2.5 20t1.5 15q0 28 -19 37.5t-64 10.5l9 47h564l-37 -174h-41q-13 63 -31 92t-79 29h-166l-56 -262h135q33 0 53.5 20.5t37.5 65.5h43l-48 -227h-43q0 46 -10.5 66.5t-44.5 20.5h-134l-41 -197q-3 -12 -4 -22t-1 -15
q0 -28 20 -37t63 -9h60q63 0 103.5 28.5t103.5 106.5h44l-70 -188h-569zM271 -196q-33 0 -53 21t-20 50q0 32 22.5 55.5t57.5 23.5q32 0 52.5 -20.5t20.5 -49.5q0 -32 -23 -56t-57 -24z" />
    <glyph glyph-name="edotbelow" unicode="&#x1eb9;" horiz-adv-x="489" 
d="M473 432q0 -43 -27.5 -76t-72.5 -57.5t-104 -42.5t-121 -32v-24q0 -63 28 -101t77 -38q44 0 82.5 24t74.5 67l26 -22q-53 -75 -109.5 -107.5t-118.5 -32.5q-90 0 -132 61t-42 141q0 65 24.5 129t67 113.5t99.5 80.5t121 31t95.5 -33.5t31.5 -80.5zM320 492
q-57 0 -106 -69.5t-62 -165.5q110 33 165 72.5t55 99.5q0 26 -13 44.5t-39 18.5zM187 -196q-33 0 -53 21t-20 50q0 32 22.5 55.5t57.5 23.5q32 0 52.5 -20.5t20.5 -49.5q0 -32 -23 -56t-57 -24z" />
    <glyph glyph-name="Ygrave" unicode="&#x1ef2;" horiz-adv-x="674" 
d="M381 332l192 235q14 17 22 30.5t8 23.5q0 17 -17 24t-60 10l10 47h230l-11 -47q-22 -4 -37.5 -11t-31.5 -26l-283 -343l-31 -145q-3 -10 -4 -19.5t-1 -14.5q0 -28 23.5 -38t69.5 -11l-10 -47h-329l10 47q50 2 80 15t40 57l33 156l-135 343q-7 19 -19 26t-33 11l10 47h282
l-11 -47q-39 0 -66 -8t-28 -38q0 -9 3 -19.5t7 -22.5zM322 910h140l50 -152h-56z" />
    <glyph glyph-name="ygrave" unicode="&#x1ef3;" horiz-adv-x="531" 
d="M343 87q-61 -91 -110.5 -148.5t-90 -89.5t-75 -43.5t-65.5 -11.5q-37 0 -69 19t-32 62q0 24 14.5 42.5t36.5 25.5h21q0 -41 17 -64t52 -23q29 0 63 19t84 76l-96 504l-69 30l7 25l148 36h19l80 -480l32 47q73 108 94 176.5t21 109.5q0 40 -24.5 59t-64.5 19l1 16
q13 19 37.5 36t58.5 17q46 0 66.5 -29t20.5 -64q0 -64 -45.5 -152t-131.5 -214zM169 763h141l55 -167h-56z" />
    <glyph glyph-name="endash" unicode="&#x2013;" horiz-adv-x="580" 
d="M516 269h-470l17 72h470z" />
    <glyph glyph-name="emdash" unicode="&#x2014;" horiz-adv-x="1000" 
d="M936 269h-890l17 72h890z" />
    <glyph glyph-name="quoteleft" unicode="&#x2018;" horiz-adv-x="309" 
d="M211 630h34q23 -6 37.5 -20t14.5 -42q0 -30 -20.5 -51t-53.5 -21q-39 0 -61.5 25t-22.5 68q0 66 54.5 118t143.5 57v-45q-51 -9 -85.5 -32t-40.5 -57z" />
    <glyph glyph-name="quoteright" unicode="&#x2019;" horiz-adv-x="309" 
d="M238 630h-35q-23 6 -37 20t-14 42q0 30 20.5 51t53.5 21q38 0 61 -25t23 -68q0 -66 -55 -118t-144 -57v44q51 9 86 32.5t41 57.5z" />
    <glyph glyph-name="quotesinglbase" unicode="&#x201a;" horiz-adv-x="309" 
d="M139 18h-35q-23 6 -37 20t-14 42q0 30 20.5 51t53.5 21q39 0 61.5 -25t22.5 -68q0 -66 -55 -118t-144 -57v44q51 10 86 33t41 57z" />
    <glyph glyph-name="quotedblleft" unicode="&#x201c;" horiz-adv-x="525" 
d="M211 630h34q23 -6 37.5 -20t14.5 -42q0 -30 -20.5 -51t-53.5 -21q-39 0 -61.5 25t-22.5 68q0 66 54.5 118t143.5 57v-45q-51 -9 -85.5 -32t-40.5 -57zM427 630h34q23 -6 37.5 -20t14.5 -42q0 -30 -20.5 -51t-53.5 -21q-39 0 -61.5 25t-22.5 68q0 66 54.5 118t143.5 57
v-45q-51 -9 -85.5 -32t-40.5 -57z" />
    <glyph glyph-name="quotedblright" unicode="&#x201d;" horiz-adv-x="525" 
d="M238 630h-35q-23 6 -37 20t-14 42q0 30 20.5 51t53.5 21q38 0 61 -25t23 -68q0 -66 -55 -118t-144 -57v44q51 9 86 32.5t41 57.5zM454 630h-35q-23 6 -37 20t-14 42q0 30 20.5 51t53.5 21q38 0 61 -25t23 -68q0 -66 -55 -118t-144 -57v44q51 9 86 32.5t41 57.5z" />
    <glyph glyph-name="quotedblbase" unicode="&#x201e;" horiz-adv-x="525" 
d="M139 18h-35q-23 6 -37 20t-14 42q0 30 20.5 51t53.5 21q39 0 61.5 -25t22.5 -68q0 -66 -55 -118t-144 -57v44q51 10 86 33t41 57zM355 18h-35q-23 6 -37 20t-14 42q0 30 20.5 51t53.5 21q39 0 61.5 -25t22.5 -68q0 -66 -55 -118t-144 -57v44q51 10 86 33t41 57z" />
    <glyph glyph-name="dagger" unicode="&#x2020;" horiz-adv-x="474" 
d="M111 605l166 -15l20 168h77l-51 -168l172 15l-15 -73l-167 14l-48 -303h-77l80 303l-172 -14z" />
    <glyph glyph-name="daggerdbl" unicode="&#x2021;" horiz-adv-x="474" 
d="M279 561l-173 -14l15 73l166 -15l17 153h77l-48 -153l172 15l-15 -73l-167 14l-27 -122l174 15l-16 -73l-166 14l-17 -152h-77l48 152l-172 -14l16 73l167 -15z" />
    <glyph glyph-name="bullet" unicode="&#x2022;" horiz-adv-x="416" 
d="M77 303q0 55 40 95t94 40t94 -40t40 -95t-40 -95t-94 -40t-94 40t-40 95z" />
    <glyph glyph-name="ellipsis" unicode="&#x2026;" horiz-adv-x="959" 
d="M46 73q0 36 24.5 60t58.5 24q35 0 59.5 -24t24.5 -60q0 -35 -24.5 -59t-59.5 -24q-34 0 -58.5 24t-24.5 59zM366 73q0 36 24.5 60t58.5 24q35 0 59.5 -24t24.5 -60q0 -35 -24.5 -59t-59.5 -24q-34 0 -58.5 24t-24.5 59zM686 73q0 36 24.5 60t58.5 24q35 0 59.5 -24
t24.5 -60q0 -35 -24.5 -59t-59.5 -24q-34 0 -58.5 24t-24.5 59z" />
    <glyph glyph-name="perthousand" unicode="&#x2030;" horiz-adv-x="1280" 
d="M273 669q-24 0 -43.5 -16.5t-33.5 -43.5t-22 -62t-8 -70q0 -37 13 -63.5t50 -26.5q24 0 43.5 16.5t34 43.5t22.5 61.5t8 70.5q0 37 -13.5 63.5t-50.5 26.5zM114 -19l611 741h65l-611 -741h-65zM227 343q-65 0 -109.5 41.5t-44.5 111.5q0 51 18 91.5t47 68t65.5 42
t72.5 14.5q64 0 108.5 -41t44.5 -112q0 -51 -18 -91.5t-47 -68t-65 -42t-72 -14.5zM631 34q24 0 43.5 16.5t34 43.5t22.5 62t8 70q0 38 -13.5 64.5t-50.5 26.5q-24 0 -43.5 -16.5t-33.5 -43.5t-22 -62t-8 -70q0 -38 13 -64.5t50 -26.5zM678 360q64 0 108.5 -41.5
t44.5 -111.5q0 -51 -18 -91.5t-47 -68t-65 -42t-72 -14.5q-65 0 -109.5 41t-44.5 112q0 51 18 91.5t47 68t65.5 42t72.5 14.5zM1027 34q24 0 43.5 16.5t34 43.5t22.5 62t8 70q0 38 -13.5 64.5t-50.5 26.5q-24 0 -43.5 -16.5t-33.5 -43.5t-22 -62t-8 -70q0 -38 13 -64.5
t50 -26.5zM1074 360q64 0 108.5 -41.5t44.5 -111.5q0 -51 -18 -91.5t-47 -68t-65 -42t-72 -14.5q-65 0 -109.5 41t-44.5 112q0 51 18 91.5t47 68t65.5 42t72.5 14.5z" />
    <glyph glyph-name="guilsinglleft" unicode="&#x2039;" horiz-adv-x="318" 
d="M44 270l2 10l211 193h64l-165 -198l76 -198h-53z" />
    <glyph glyph-name="guilsinglright" unicode="&#x203a;" horiz-adv-x="318" 
d="M274 280l-2 -10l-210 -193h-65l165 198l-76 198h54z" />
    <glyph glyph-name="fraction" unicode="&#x2044;" horiz-adv-x="283" 
d="M-195 0l634 753h68l-634 -753h-68z" />
    <glyph glyph-name="Euro" unicode="&#x20ac;" horiz-adv-x="693" 
d="M49 384l10 47h84q42 122 135.5 201t212.5 79q60 0 110 -17.5t84 -47.5l-26 -150h-49q-7 82 -36 120.5t-87 38.5q-83 0 -137.5 -66t-79.5 -158h268l-22 -47h-257q-3 -17 -5.5 -34t-3.5 -34h237l-23 -48h-216v-8q0 -104 32 -158.5t101 -54.5q68 0 110.5 41t83.5 137h57
l-39 -173q-46 -29 -99.5 -45.5t-119.5 -16.5q-122 0 -190.5 68.5t-68.5 199.5v10h-90l11 48h82q1 17 4 34.5t7 33.5h-80z" />
    <glyph glyph-name="trademark" unicode="&#x2122;" horiz-adv-x="898" 
d="M154 702h305l-15 -105h-28q-9 39 -18.5 55t-40.5 16h-20l-51 -234q-1 -7 -1.5 -11t-0.5 -5q0 -13 11 -17t32 -5l-7 -29h-170l6 29q23 1 36.5 6.5t17.5 24.5l52 241h-21q-31 0 -47 -16t-42 -55h-28zM650 474l111 196q4 7 7.5 15t6.5 17h115l-9 -30q-22 -1 -32 -8.5
t-14 -22.5l-11 -219q-1 -15 7 -20t28 -6l-6 -29h-157l6 29q25 1 37 6t15 21q1 4 2 14t1 20l6 150l-135 -240h-26l-35 239l-53 -149q-4 -10 -7.5 -21.5t-3.5 -18.5q0 -11 8 -15.5t33 -5.5l-7 -29h-127l6 29q19 1 30.5 7t15.5 19l78 219q0 14 -5.5 22t-27.5 9l6 30h108v-16.5
t1 -14.5z" />
    <glyph glyph-name="uni2153" unicode="&#x2153;" horiz-adv-x="958" 
d="M191 0l611 741h65l-611 -741h-65zM313 748h36l-78 -366q-1 -8 -2 -14.5t-1 -11.5q0 -18 18.5 -23t60.5 -7l-7 -39h-279l8 39q51 3 71 10t26 36l53 253h-91l7 39l32 4q53 8 83.5 25t62.5 55zM760 184q48 -7 77.5 -35t29.5 -73q0 -40 -17 -69t-44 -47.5t-62 -27.5t-71 -9
q-71 0 -108.5 28t-37.5 63q0 24 12 39.5t30 22.5h59q-5 -13 -7 -25.5t-2 -24.5q0 -28 15 -47t46 -19q38 0 62.5 27.5t24.5 76.5q0 40 -20.5 60t-53.5 20q-9 0 -16.5 -0.5t-17.5 -1.5l-5 25q54 18 90.5 42t36.5 63q0 21 -13.5 34.5t-39.5 13.5q-31 0 -57 -15.5t-48 -37.5
l-21 21q25 43 69 72t101 29q52 0 82 -23t30 -65q0 -50 -39.5 -78.5t-84.5 -38.5z" />
    <glyph glyph-name="uni2154" unicode="&#x2154;" horiz-adv-x="995" 
d="M180 372h97q39 0 57.5 10.5t50.5 52.5h31l-51 -148h-316l7 33q87 69 138.5 115t78 77t34.5 54t8 48q0 29 -17 46.5t-48 17.5q-34 0 -63 -20t-50 -43l-19 26q24 41 70.5 74t109.5 33q54 0 88 -29.5t34 -81.5q0 -79 -68 -133t-172 -132zM227 0l611 741h65l-612 -741h-64z
M797 184q49 -7 78.5 -35t29.5 -73q0 -40 -17 -69t-44.5 -47.5t-62.5 -27.5t-70 -9q-72 0 -109 28t-37 63q0 24 12 39.5t29 22.5h59q-4 -13 -6 -25.5t-2 -24.5q0 -28 15 -47t45 -19q39 0 63.5 27.5t24.5 76.5q0 40 -21 60t-54 20q-8 0 -16 -0.5t-18 -1.5l-4 25q53 18 90 42
t37 63q0 21 -14 34.5t-39 13.5q-31 0 -57.5 -15.5t-48.5 -37.5l-20 21q25 43 69 72t101 29q52 0 82 -23t30 -65q0 -50 -40 -78.5t-85 -38.5z" />
    <glyph glyph-name="uni215B" unicode="&#x215b;" horiz-adv-x="995" 
d="M313 748h36l-78 -366q-1 -8 -2 -14.5t-1 -11.5q0 -18 18.5 -23t60.5 -7l-7 -39h-279l8 39q51 3 71 10t26 36l53 253h-91l7 39l32 4q53 8 83.5 25t62.5 55zM922 281q-2 -43 -36 -67t-80 -31q40 -22 64 -51.5t24 -66.5q0 -69 -51 -105.5t-126 -36.5q-71 0 -118 34t-47 84
q0 48 38 75.5t87 35.5q-28 16 -46.5 43.5t-18.5 61.5q0 59 46.5 96t115.5 37q71 0 109.5 -31.5t38.5 -77.5zM763 105l-65 35q-32 -16 -48 -40.5t-16 -54.5q0 -36 23.5 -58.5t63.5 -22.5q37 0 61 19.5t24 53.5q0 23 -10.5 39t-32.5 29zM739 221l47 -25q25 16 40.5 35.5
t15.5 48.5q0 28 -18 48.5t-55 20.5q-31 0 -50.5 -18t-19.5 -47q0 -22 10.5 -37t29.5 -26zM191 0l611 741h65l-611 -741h-65z" />
    <glyph glyph-name="uni215C" unicode="&#x215c;" horiz-adv-x="1000" 
d="M289 539q48 -7 77.5 -35t29.5 -73q0 -40 -17 -69t-44 -47.5t-62 -27.5t-71 -9q-71 0 -108 28t-37 63q0 24 11.5 39.5t29.5 22.5h59q-4 -13 -6.5 -25.5t-2.5 -24.5q0 -28 15.5 -47t45.5 -19q38 0 62.5 27.5t24.5 76.5q0 40 -20.5 60t-53.5 20q-9 0 -16.5 -0.5t-17.5 -1.5
l-5 25q54 18 91 42t37 63q0 21 -14 34.5t-39 13.5q-32 0 -58 -15.5t-48 -37.5l-21 21q26 43 70 72t100 29q52 0 82 -23t30 -65q0 -50 -39.5 -78.5t-84.5 -38.5zM195 0l610 741h66l-612 -741h-64zM927 281q-2 -43 -36 -67t-80 -31q40 -22 64 -51.5t24 -66.5q0 -69 -51 -105.5
t-126 -36.5q-71 0 -118 34t-47 84q0 48 38 75.5t87 35.5q-28 16 -46.5 43.5t-18.5 61.5q0 59 46.5 96t115.5 37q71 0 109.5 -31.5t38.5 -77.5zM768 105l-65 35q-32 -16 -48 -40.5t-16 -54.5q0 -36 23.5 -58.5t63.5 -22.5q37 0 61 19.5t24 53.5q0 23 -10.5 39t-32.5 29z
M744 221l47 -25q25 16 40.5 35.5t15.5 48.5q0 28 -18 48.5t-55 20.5q-31 0 -50.5 -18t-19.5 -47q0 -22 10.5 -37t29.5 -26z" />
    <glyph glyph-name="uni215D" unicode="&#x215d;" horiz-adv-x="991" 
d="M426 736l-32 -91h-185l-23 -66q87 -1 145 -33.5t58 -103.5q0 -75 -53.5 -120t-131.5 -45q-71 0 -106 26t-35 63q0 23 13 39.5t29 23.5h53q-4 -13 -7 -26.5t-3 -24.5q0 -27 16 -45t50 -18q39 0 61.5 24.5t22.5 66.5q0 52 -48.5 74t-128.5 22l83 234h222zM918 281
q-1 -43 -35.5 -67t-80.5 -31q40 -22 64.5 -51.5t24.5 -66.5q0 -69 -51 -105.5t-127 -36.5q-71 0 -118 34t-47 84q0 48 38 75.5t87 35.5q-27 16 -45.5 43.5t-18.5 61.5q0 59 46 96t115 37q72 0 110 -31.5t38 -77.5zM759 105l-65 35q-32 -16 -48 -40.5t-16 -54.5
q0 -36 23.5 -58.5t63.5 -22.5q37 0 61 19.5t24 53.5q0 23 -10 39t-33 29zM735 221l47 -25q26 16 41.5 35.5t15.5 48.5q0 28 -18 48.5t-56 20.5q-31 0 -50.5 -18t-19.5 -47q0 -22 10.5 -37t29.5 -26zM186 0l611 741h65l-611 -741h-65z" />
    <glyph glyph-name="uni215E" unicode="&#x215e;" horiz-adv-x="903" 
d="M365 636h-155q-22 0 -38.5 -15.5t-35.5 -47.5h-35l61 163h310l-6 -28l-285 -421h-78zM829 281q-1 -43 -35 -67t-80 -31q40 -22 64 -51.5t24 -66.5q0 -69 -51 -105.5t-127 -36.5q-71 0 -117.5 34t-46.5 84q0 48 38 75.5t87 35.5q-28 16 -46.5 43.5t-18.5 61.5q0 59 46 96
t115 37q72 0 110 -31.5t38 -77.5zM670 105l-64 35q-32 -16 -48 -40.5t-16 -54.5q0 -36 23.5 -58.5t62.5 -22.5q37 0 61 19.5t24 53.5q0 23 -10 39t-33 29zM647 221l46 -25q26 16 41.5 35.5t15.5 48.5q0 28 -18 48.5t-56 20.5q-31 0 -50.5 -18t-19.5 -47q0 -22 10.5 -37
t30.5 -26zM98 0l610 741h66l-612 -741h-64z" />
    <glyph glyph-name="partialdiff" unicode="&#x2202;" horiz-adv-x="548" 
d="M320 542q14 0 27.5 -2.5t25.5 -6.5q-21 63 -68.5 115t-134.5 95l24 33q157 -52 238.5 -166.5t81.5 -255.5q0 -71 -21.5 -137t-60 -116t-92.5 -80.5t-119 -30.5q-83 0 -135 55.5t-52 154.5q0 64 21.5 126t59 109.5t90.5 77t115 29.5zM395 369q0 29 -2.5 57t-6.5 53
q-12 9 -27.5 12.5t-31.5 3.5q-40 0 -72.5 -32.5t-55 -81.5t-34.5 -107t-12 -108q0 -60 18.5 -94.5t53.5 -34.5q39 0 70.5 33t53.5 82.5t34 108t12 108.5z" />
    <glyph glyph-name="Delta" unicode="&#x2206;" horiz-adv-x="696" 
d="M613 0h-628l8 39l429 663h47l152 -663zM387 553l-317 -497h423z" />
    <glyph glyph-name="product" unicode="&#x220f;" horiz-adv-x="780" 
d="M115 702h732l-11 -48q-50 -1 -75 -14.5t-35 -56.5l-140 -661q-2 -7 -3 -13.5t-1 -11.5q0 -28 21.5 -36.5t62.5 -9.5l-10 -48h-314l10 48q49 1 75 14.5t35 56.5l156 734h-294l-156 -734q-1 -7 -2 -13t-1 -12q0 -28 21 -36.5t62 -9.5l-10 -48h-313l10 48q49 1 74.5 14.5
t34.5 56.5l141 661q1 7 2 13t1 11q0 28 -21 37t-62 10z" />
    <glyph glyph-name="summation" unicode="&#x2211;" horiz-adv-x="609" 
d="M43 -94h199q35 0 59.5 2.5t46 13t43.5 32t52 58.5h45l-78 -209h-506l9 45l381 415l-205 387l11 52h509l-37 -174h-45q-13 66 -36 94.5t-86 28.5h-182l178 -340l-7 -27z" />
    <glyph glyph-name="minus" unicode="&#x2212;" horiz-adv-x="575" 
d="M72 333l16 72h444l-16 -72h-444z" />
    <glyph glyph-name="radical" unicode="&#x221a;" horiz-adv-x="590" 
d="M284 175l314 537h64l-411 -712h-65l-42 434q-4 30 -12 42t-30 13l-36 1l10 46h186z" />
    <glyph glyph-name="infinity" unicode="&#x221e;" horiz-adv-x="783" 
d="M369 349l-31 42q-22 28 -45 42.5t-51 14.5q-43 0 -75 -32t-32 -89q0 -36 22.5 -57t52.5 -21q31 0 55 12.5t48 34.5zM453 348l31 -42q22 -29 45 -43t51 -14q43 0 74.5 32t31.5 89q0 35 -22 56.5t-52 21.5q-31 0 -55 -12.5t-48 -35.5zM405 299l-46 -45q-34 -34 -71 -53
t-83 -19q-61 0 -101.5 37.5t-40.5 105.5q0 83 54 136t131 53q46 0 80 -20t56 -51l33 -46l46 46q34 34 71 52.5t83 18.5q60 0 101 -37t41 -105q0 -84 -54 -136.5t-131 -52.5q-46 0 -80 20t-56 51z" />
    <glyph glyph-name="integral" unicode="&#x222b;" horiz-adv-x="428" 
d="M279 473l-88 -416q-25 -119 -78 -186.5t-153 -67.5q-43 0 -70.5 19.5t-27.5 56.5q0 21 13 37t36 23h32q0 -41 6 -67.5t31 -26.5q33 0 49 43.5t39 153.5l88 416q25 119 78 186.5t153 67.5q43 0 70.5 -19.5t27.5 -56.5q0 -21 -13 -37t-36 -23h-32q0 41 -6 67.5t-31 26.5
q-33 0 -48.5 -44t-39.5 -153z" />
    <glyph glyph-name="approxequal" unicode="&#x2248;" horiz-adv-x="586" 
d="M90 383l15 74q37 21 68.5 30.5t59.5 9.5q57 0 97.5 -19.5t97.5 -19.5q28 0 60 9t71 31l-17 -73q-37 -22 -70 -31.5t-59 -9.5q-58 0 -98.5 20t-97.5 20q-26 0 -58 -9.5t-69 -31.5zM61 246l15 72q37 22 69 31.5t59 9.5q57 0 97.5 -19.5t97.5 -19.5q28 0 60.5 9t69.5 31
l-15 -73q-38 -22 -70.5 -31t-59.5 -9q-57 0 -97.5 19.5t-97.5 19.5q-26 0 -58.5 -9.5t-69.5 -30.5z" />
    <glyph glyph-name="notequal" unicode="&#x2260;" horiz-adv-x="586" 
d="M94 408l15 70h264l96 103h73l-96 -103h107l-14 -70h-157l-72 -78h212l-14 -69h-262l-96 -104h-74l96 104h-108l14 69h158l73 78h-215z" />
    <glyph glyph-name="lessequal" unicode="&#x2264;" horiz-adv-x="448" 
d="M79 401l2 9l357 172l-19 -84l-203 -95l164 -95l-17 -79zM22 129l15 70h319l-16 -70h-318z" />
    <glyph glyph-name="greaterequal" unicode="&#x2265;" horiz-adv-x="448" 
d="M375 199l-16 -70h-318l15 70h319zM419 410l-2 -9l-355 -172l18 85l202 95l-162 94l17 79z" />
    <glyph glyph-name="lozenge" unicode="&#x25ca;" horiz-adv-x="596" 
d="M65 351l277 351h89l128 -351l-277 -351h-89zM470 351l-98 283l-219 -283l99 -283z" />
    <glyph glyph-name="commaaccent" unicode="&#xf6c3;" horiz-adv-x="500" 
d="M263 -155h-50q-19 4 -27.5 15.5t-8.5 27.5q0 30 22.5 48t57.5 18q34 0 51.5 -19t17.5 -50q0 -49 -39.5 -85t-120.5 -36l5 37q42 0 65 12t27 32z" />
    <glyph glyph-name="caron.cap" horiz-adv-x="500" 
d="M161 758l-102 162h59l101 -86l158 86h64l-187 -162h-93z" />
    <glyph glyph-name="dieresis.cap" horiz-adv-x="500" 
d="M149 762q-30 0 -48 19t-18 46q0 30 20.5 51.5t51.5 21.5q30 0 48 -19t18 -46q0 -30 -20.5 -51.5t-51.5 -21.5zM345 762q-30 0 -48 19t-18 46q0 30 20 51.5t51 21.5q30 0 48.5 -19t18.5 -46q0 -30 -20.5 -51.5t-51.5 -21.5z" />
    <glyph glyph-name="grave.cap" horiz-adv-x="500" 
d="M155 910h140l50 -152h-56z" />
    <glyph glyph-name="acute.cap" horiz-adv-x="500" 
d="M220 910h152l-186 -152h-58z" />
    <glyph glyph-name="circumflex.cap" horiz-adv-x="500" 
d="M339 919l102 -162h-59l-101 87l-158 -87h-64l187 162h93z" />
    <glyph glyph-name="tilde.cap" horiz-adv-x="500" 
d="M396 893l42 -11q-40 -79 -67.5 -104t-65.5 -25q-21 0 -38.5 11t-33.5 24t-30.5 24t-29.5 11q-23 0 -37 -16t-31 -44l-44 10q41 80 68.5 104.5t64.5 24.5q22 0 40 -11t33.5 -23.5t30 -23.5t29.5 -11q22 0 36.5 16t32.5 44z" />
    <glyph glyph-name="ring.cap" horiz-adv-x="500" 
d="M244 786q26 0 40.5 17.5t14.5 41.5q0 19 -11.5 31t-32.5 12q-26 0 -40 -18t-14 -42q0 -19 11.5 -30.5t31.5 -11.5zM239 743q-40 0 -64 23.5t-24 60.5q0 44 31.5 74t77.5 30q40 0 64 -24t24 -61q0 -44 -31.5 -73.5t-77.5 -29.5z" />
    <glyph glyph-name="published" horiz-adv-x="796" 
d="M396 30q72 0 134 27t106.5 73.5t70.5 110.5t26 136q0 125 -81 210t-211 85q-72 0 -134 -27t-106.5 -73.5t-70.5 -110.5t-26 -136q0 -125 81 -210t211 -85zM396 -10q-74 0 -136 25.5t-106 70.5t-69 106.5t-25 132.5q0 81 29.5 151.5t80.5 123t121 82.5t150 30
q74 0 136 -25.5t106 -70.5t69 -106.5t25 -132.5q0 -81 -29.5 -151.5t-80.5 -123t-121 -82.5t-150 -30zM435 315h-50l-19 -83q-1 -7 -2 -12.5t-1 -8.5q0 -16 14.5 -20.5t43.5 -4.5l-6 -32h-199l7 32q28 1 40.5 7.5t18.5 31.5l58 255q1 4 1.5 8.5t0.5 8.5q0 13 -10.5 17
t-32.5 5l7 32h180q66 0 97.5 -29.5t31.5 -75.5q0 -55 -48 -93t-132 -38zM430 514l-38 -164h30q44 0 76.5 20t32.5 74q0 34 -18.5 52t-57.5 18h-25z" />
    <glyph glyph-name="dotbelow" horiz-adv-x="500" 
d="M178 -134q-1 31 21 54t53 24q29 1 49.5 -20t21.5 -50q1 -31 -21 -54t-53 -23q-29 -1 -49.5 20t-21.5 49z" />
    <glyph glyph-name="exclamdown.cap" horiz-adv-x="305" 
d="M325 630q0 -34 -23.5 -58t-57.5 -24t-57.5 24t-23.5 58t23.5 58t57.5 24t57.5 -24t23.5 -58zM24 0l166 488h59l-69 -488h-156z" />
    <glyph glyph-name="questiondown.cap" horiz-adv-x="451" 
d="M402 630q0 -34 -23.5 -58t-57.5 -24t-57.5 24t-23.5 58t23.5 58t57.5 24t57.5 -24t23.5 -58zM221 254q-48 -28 -73.5 -55t-25.5 -75q0 -37 22 -60t61 -23q43 0 66.5 28.5t23.5 72.5q0 11 -2 21t-3 18h85q10 -9 17.5 -24t7.5 -34q0 -59 -57.5 -95.5t-141.5 -36.5
q-87 0 -137.5 42.5t-50.5 112.5q0 71 42 111t102 72q51 28 85.5 58t34.5 76q0 8 -1 14l-2 12h32q16 -18 25.5 -39t9.5 -45q0 -48 -34 -84.5t-86 -66.5z" />
    <glyph glyph-name="guilsinglleft.cap" horiz-adv-x="318" 
d="M64 347l2 10l211 193h64l-165 -198l76 -198h-53z" />
    <glyph glyph-name="guilsinglright.cap" horiz-adv-x="318" 
d="M296 357l-2 -10l-211 -193h-64l164 198l-76 198h54z" />
    <glyph glyph-name="guillemotleft.cap" horiz-adv-x="510" 
d="M64 347l2 10l211 193h64l-165 -198l76 -198h-53zM257 347l2 10l211 193h64l-165 -198l76 -198h-53z" />
    <glyph glyph-name="guillemotright.cap" horiz-adv-x="510" 
d="M296 357l-2 -10l-211 -193h-64l164 198l-76 198h54zM489 357l-2 -10l-211 -193h-64l164 198l-76 198h54z" />
    <glyph glyph-name="slash.cap" horiz-adv-x="411" 
d="M489 770l-453 -871h-74l452 871h75z" />
    <glyph glyph-name="backslash.cap" horiz-adv-x="411" 
d="M241 -101l-81 871h71l81 -871h-71z" />
    <glyph glyph-name="bar.cap" horiz-adv-x="271" 
d="M286 770l-187 -871h-70l187 871h70z" />
    <glyph glyph-name="brokenbar.cap" horiz-adv-x="271" 
d="M286 770l-80 -374h-71l81 374h70zM180 274l-81 -375h-70l80 375h71z" />
    <glyph glyph-name="bullet.cap" horiz-adv-x="416" 
d="M94 356q0 55 40 95t94 40t94 -40t40 -95q0 -54 -40 -94t-94 -40t-94 40t-40 94z" />
    <glyph glyph-name="periodcentered.cap" horiz-adv-x="274" 
d="M79 356q0 35 24 59t59 24t59 -24t24 -59q0 -36 -24 -59.5t-59 -23.5t-59 23.5t-24 59.5z" />
    <glyph glyph-name="hyphen.cap" horiz-adv-x="360" 
d="M308 315h-246l22 88h246z" />
    <glyph glyph-name="endash.cap" horiz-adv-x="580" 
d="M533 323h-470l17 72h470z" />
    <glyph glyph-name="emdash.cap" horiz-adv-x="1000" 
d="M953 323h-890l17 72h890z" />
    <glyph glyph-name="parenleft.cap" horiz-adv-x="353" 
d="M61 214q0 161 86 307t221 249h65q-76 -65 -129 -140t-85.5 -151.5t-47 -152t-14.5 -143.5q0 -80 20 -150.5t69 -135.5h-64q-60 63 -90.5 145t-30.5 172z" />
    <glyph glyph-name="parenright.cap" horiz-adv-x="353" 
d="M321 453q0 -160 -86 -306.5t-220 -249.5h-66q76 66 129 140.5t85.5 151t47 152t14.5 143.5q0 81 -20 151t-69 135h64q60 -63 90.5 -145t30.5 -172z" />
    <glyph glyph-name="bracketleft.cap" horiz-adv-x="326" 
d="M260 672l-144 -673q-1 -6 -1.5 -10.5t-0.5 -8.5q0 -27 25.5 -33.5t76.5 -9.5l-8 -38h-198l185 871h198l-8 -38q-60 -4 -88.5 -12.5t-36.5 -47.5z" />
    <glyph glyph-name="bracketright.cap" horiz-adv-x="326" 
d="M100 -3l144 673q1 6 1.5 10.5t0.5 8.5q0 27 -26 33t-77 10l9 38h198l-185 -871h-199l9 38q60 4 88.5 12.5t36.5 47.5z" />
    <glyph glyph-name="braceleft.cap" horiz-adv-x="357" 
d="M65 324l4 22q37 7 66 29.5t39 70.5l42 196q13 59 65.5 93.5t142.5 34.5l-7 -31q-37 -4 -69.5 -26t-42.5 -72l-42 -194q-11 -51 -36 -74t-78 -38q37 -12 54 -28t17 -47q0 -16 -7.5 -52t-16.5 -75.5t-16.5 -76t-7.5 -53.5q0 -35 22.5 -51.5t51.5 -20.5l-7 -31
q-75 0 -116 27t-41 74q0 18 7.5 53t16.5 73.5t16.5 73.5t7.5 52q0 31 -18.5 48t-46.5 23z" />
    <glyph glyph-name="braceright.cap" horiz-adv-x="357" 
d="M326 346l-4 -22q-37 -7 -66 -29.5t-39 -70.5l-41 -196q-13 -59 -66 -93.5t-143 -34.5l7 31q37 4 69.5 26t42.5 72l42 194q11 51 36 74t78 38q-37 12 -54 28t-17 47q0 16 7.5 52t17 75.5t17 76t7.5 53.5q0 35 -22.5 51.5t-52.5 20.5l7 31q75 0 116.5 -27t41.5 -74
q0 -18 -7.5 -53t-16.5 -73t-16.5 -73t-7.5 -53q0 -31 18 -48t46 -23z" />
    <glyph glyph-name="at.cap" horiz-adv-x="906" 
d="M632 145q-75 0 -92.5 56t1.5 122h-6q-31 -73 -77.5 -125.5t-97.5 -52.5q-43 0 -69.5 33.5t-26.5 92.5q0 55 20.5 108.5t54.5 95.5t79 67.5t93 25.5q28 0 51 -9.5t38 -24.5l57 35h42l-29 -90l-50 -200q-7 -28 -3.5 -58.5t34.5 -30.5q43 0 73.5 29t49 70.5t27 88t8.5 80.5
q0 112 -71.5 186t-205.5 74q-83 0 -154.5 -36t-123.5 -95.5t-82 -138t-30 -162.5q0 -140 91 -220.5t232 -80.5q76 0 139.5 17t130.5 54l13 -30q-53 -43 -130.5 -68.5t-167.5 -25.5q-83 0 -153.5 24.5t-120.5 69.5t-78.5 110.5t-28.5 146.5q0 91 35 178t97 153t147.5 106.5
t186.5 40.5q161 0 251 -86.5t90 -215.5q0 -51 -14.5 -106.5t-44.5 -101.5t-76.5 -76t-108.5 -30zM403 214q40 0 90 78.5t81 198.5q-9 19 -22 27.5t-31 8.5q-34 0 -63 -25t-49.5 -62t-32 -81t-11.5 -82q0 -30 9.5 -46.5t28.5 -16.5z" />
    <glyph glyph-name="macron.cap" horiz-adv-x="500" 
d="M95 776l17 75h293l-17 -75h-293z" />
    <glyph glyph-name="breve.cap" horiz-adv-x="500" 
d="M218 754q-58 0 -91.5 31.5t-33.5 87.5q0 11 2 24t6 26h45q-1 -4 -1 -8v-8q0 -43 27 -61t61 -18q37 0 71.5 22t52.5 73h49q-17 -80 -68 -124.5t-120 -44.5z" />
    <glyph glyph-name="dotaccent.cap" horiz-adv-x="500" 
d="M246 760q-32 0 -52.5 21t-20.5 50q0 32 23 55.5t57 23.5q32 0 52.5 -21t20.5 -49q0 -33 -23 -56.5t-57 -23.5z" />
    <glyph glyph-name="hungarumlaut.cap" horiz-adv-x="500" 
d="M153 910h125l-165 -152h-63zM324 910h126l-166 -152h-64z" />
    <glyph glyph-name="caron.Slovak" horiz-adv-x="500" 
d="M341 763l-129 -205h-47l57 205h119z" />
    <glyph glyph-name="commaturn" horiz-adv-x="500" 
d="M229 712h51q18 -4 26.5 -15.5t8.5 -27.5q0 -30 -22 -48t-57 -18q-34 0 -52 19t-18 50q0 49 39.5 85t120.5 36l-4 -36q-42 0 -65.5 -12.5t-27.5 -32.5z" />
    <glyph glyph-name="cedilla.alt" horiz-adv-x="500" 
d="M207 -47h33q49 0 75 -17t26 -51q0 -56 -59 -83t-137 -27l-5 38q54 0 88.5 11.5t34.5 34.5q0 20 -22.5 29.5t-62.5 10.5z" />
    <glyph glyph-name="idotaccent" horiz-adv-x="345" 
d="M285 546l-104 -420q-4 -14 -6.5 -25.5t-2.5 -17.5q0 -7 3.5 -11t10.5 -4q14 0 36 17.5t53 57.5l24 -23q-47 -69 -86.5 -99.5t-82.5 -30.5q-34 0 -54.5 21t-20.5 55q0 18 3.5 38t10.5 48l74 298l-69 35l7 25l176 36h28zM252 607q-33 0 -53 21t-20 50q0 32 22.5 55.5
t57.5 23.5q32 0 52.5 -20.5t20.5 -49.5q0 -32 -23 -56t-57 -24z" />
    <glyph glyph-name="ampersand.sc" horiz-adv-x="626" 
d="M348 610q74 0 113 -33t39 -84q0 -60 -50.5 -97.5t-126.5 -61.5l111 -170q16 24 25 50t9 53q0 15 -8 21.5t-27 6.5l9 46h182l-10 -46q-49 0 -67 -12.5t-32 -49.5q-11 -28 -26 -54.5t-32 -49.5l24 -37q16 -24 38 -35t53 -11l-9 -46h-139q-16 10 -28.5 22t-22.5 25
q-39 -27 -85.5 -42t-98.5 -15q-73 0 -126 40t-53 117q0 71 50 116.5t127 68.5q-12 20 -23 49t-11 63q0 70 55 118t140 48zM340 94l-135 209q-39 -18 -57 -54t-18 -82q0 -51 30.5 -81.5t85.5 -30.5q25 0 51 7.5t50 20.5zM257 480q0 -31 13.5 -59t29.5 -52l4 -6
q48 17 73.5 46.5t25.5 81.5q0 34 -17.5 54.5t-49.5 20.5q-35 0 -57 -22.5t-22 -63.5z" />
    <glyph glyph-name="exclam.sc" horiz-adv-x="272" 
d="M292 600l-146 -407h-57l57 407h146zM20 66q0 31 22.5 53.5t53.5 22.5t53.5 -22.5t22.5 -53.5q0 -32 -22.5 -54t-53.5 -22t-53.5 22t-22.5 54z" />
    <glyph glyph-name="question.sc" horiz-adv-x="399" 
d="M238 390q41 25 63.5 45t22.5 60q0 30 -18.5 48.5t-49.5 18.5q-37 0 -56.5 -22.5t-19.5 -59.5q0 -9 1 -17.5t2 -16.5h-82q-9 8 -14.5 20.5t-5.5 28.5q0 52 51.5 83.5t126.5 31.5q78 0 122.5 -38t44.5 -98q0 -61 -37.5 -96t-86.5 -61q-45 -24 -75 -46.5t-30 -58.5
q0 -7 1 -12t2 -9h-32q-15 16 -24 34t-9 40q0 39 26.5 67t76.5 58zM67 66q0 31 22.5 53.5t53.5 22.5q32 0 54 -22.5t22 -53.5q0 -32 -22 -54t-54 -22q-31 0 -53.5 22t-22.5 54z" />
    <glyph glyph-name="zero.op" horiz-adv-x="627" 
d="M597 366q0 -77 -25 -146t-68 -119.5t-101.5 -80.5t-124.5 -30q-108 0 -170.5 68t-62.5 175q0 78 25 147t68 119.5t101.5 80.5t124.5 30q108 0 170.5 -68.5t62.5 -175.5zM173 208q0 -73 23 -117t82 -44q42 0 77.5 32t60.5 82t39 111.5t14 119.5q0 72 -22.5 116t-82.5 44
q-42 0 -77.5 -32t-60.5 -82t-39 -111.5t-14 -118.5z" />
    <glyph glyph-name="one.op" horiz-adv-x="427" 
d="M331 603h34l-105 -463q-3 -13 -4.5 -24t-1.5 -19q0 -30 19.5 -38t88.5 -12l-9 -47h-362l10 47q75 3 99.5 14.5t34.5 57.5l74 327h-130l9 45l36 5q72 10 115 34t92 73z" />
    <glyph glyph-name="two.op" horiz-adv-x="539" 
d="M125 98h148q66 0 96.5 10.5t70.5 67.5h37l-59 -176h-456l7 32q110 86 186.5 141.5t123 96t67.5 74t21 76.5q0 42 -27 68.5t-78 26.5q-60 0 -101.5 -28t-74.5 -64l-23 30q39 65 101 111t150 46q87 0 133 -45.5t46 -114.5q0 -51 -30 -96t-80 -86t-117 -82.5t-141 -87.5z
" />
    <glyph glyph-name="three.op" horiz-adv-x="496" 
d="M164 -113q-89 0 -138 34t-49 82q0 28 14.5 45.5t35.5 25.5h41q0 -57 27 -97.5t84 -40.5q64 0 100.5 44.5t36.5 110.5q0 80 -52.5 109.5t-116.5 29.5l-6 38q90 25 148 67t58 105q0 37 -23 58t-65 21q-46 0 -85 -22t-73 -60l-24 30q40 60 98 101.5t138 41.5q75 0 116 -39
t41 -96q0 -41 -20 -73t-49.5 -55t-64.5 -38.5t-64 -23.5q71 -10 116.5 -55.5t45.5 -114.5q0 -56 -25.5 -98.5t-64.5 -71.5t-87 -43.5t-93 -14.5z" />
    <glyph glyph-name="four.op" horiz-adv-x="604" 
d="M558 92h-123l-43 -194h-121l43 194h-327l9 43l473 472h80l-102 -460h123zM396 461l-317 -314h247z" />
    <glyph glyph-name="five.op" horiz-adv-x="488" 
d="M507 600l-34 -112h-267l-43 -108q50 -16 96.5 -38t82 -52t57 -69.5t21.5 -89.5q0 -106 -76.5 -175t-186.5 -69q-85 0 -132.5 34t-47.5 82q0 28 14.5 45.5t35.5 25.5h40q0 -57 28 -97t88 -40q57 0 95 39t38 101q0 43 -20 76t-53 58.5t-76 45t-89 34.5l120 309h309z" />
    <glyph glyph-name="six.op" horiz-adv-x="592" 
d="M553 711l10 -37q-132 -41 -226.5 -116.5t-135.5 -182.5q32 31 74 52t92 21q87 0 136 -51t49 -135q0 -113 -77.5 -192.5t-190.5 -79.5q-111 0 -172.5 67.5t-61.5 173.5q0 84 35.5 163.5t101 143.5t158.5 109.5t208 63.5zM314 389q-37 0 -69 -15t-57 -37q-8 -29 -12 -60.5
t-4 -65.5q0 -75 27.5 -121.5t85.5 -46.5q37 0 65 18t46.5 47t27.5 65.5t9 72.5q0 64 -30.5 103.5t-88.5 39.5z" />
    <glyph glyph-name="seven.op" horiz-adv-x="513" 
d="M438 490h-236q-37 0 -59 -15t-50 -57h-43l80 182h423l-5 -28l-411 -674h-104z" />
    <glyph glyph-name="eight.op" horiz-adv-x="570" 
d="M554 548q0 -69 -52.5 -111t-116.5 -56l23 -15q49 -31 77 -70t28 -96q0 -94 -68.5 -152t-177.5 -58t-171 51t-62 130q0 73 53 118t129 60l-13 10q-31 25 -53 61.5t-22 87.5q0 86 62 144.5t164 58.5q88 0 144 -42t56 -121zM329 279l-87 55q-55 -27 -80 -68.5t-25 -90.5
q0 -60 35 -96.5t98 -36.5q54 0 95.5 31.5t41.5 87.5q0 41 -20 68t-58 50zM294 440l67 -42q44 25 71 62t27 88q0 49 -28 80.5t-80 31.5q-49 0 -83.5 -29.5t-34.5 -81.5q0 -32 14 -60t47 -49z" />
    <glyph glyph-name="nine.op" horiz-adv-x="592" 
d="M56 -111l-10 37q132 41 226.5 116t135.5 182q-33 -31 -75 -51.5t-91 -20.5q-87 0 -136 51t-49 135q0 113 77.5 192.5t190.5 79.5q111 0 172.5 -67.5t61.5 -173.5q0 -84 -35.5 -163.5t-101 -143.5t-158.5 -109.5t-208 -63.5zM295 211q37 0 69 15t56 37q8 29 12.5 60.5
t4.5 65.5q0 75 -27.5 121.5t-85.5 46.5q-37 0 -65 -18t-46.5 -47t-27.5 -65.5t-9 -72.5q0 -64 30.5 -103.5t88.5 -39.5z" />
    <glyph glyph-name="questiondown.sc" horiz-adv-x="399" 
d="M193 210q-41 -25 -63.5 -45t-22.5 -60q0 -30 18.5 -48.5t49.5 -18.5q37 0 56.5 22.5t19.5 59.5q0 9 -1 17.5t-2 16.5h82q9 -8 14.5 -20.5t5.5 -28.5q0 -52 -51.5 -83.5t-126.5 -31.5q-78 0 -122.5 38t-44.5 98q0 61 37.5 96t86.5 61q45 24 75 46.5t30 58.5q0 7 -1 12
t-2 9h32q15 -16 24 -34t9 -40q0 -39 -26.5 -67t-76.5 -58zM364 534q0 -31 -22.5 -53.5t-53.5 -22.5q-32 0 -54 22.5t-22 53.5q0 32 22 54t54 22q31 0 53.5 -22t22.5 -54z" />
    <glyph glyph-name="exclamdown.sc" horiz-adv-x="272" 
d="M11 0l146 407h57l-57 -407h-146zM283 534q0 -31 -22.5 -53.5t-53.5 -22.5t-53.5 22.5t-22.5 53.5q0 32 22.5 54t53.5 22t53.5 -22t22.5 -54z" />
    <glyph glyph-name="dollar.op" horiz-adv-x="540" 
d="M180 -113l21 105q-66 7 -113 32t-69 49l25 151h48q6 -75 36 -121.5t83 -57.5l48 238l-8 4q-72 37 -107 81t-35 104q0 88 63.5 138t157.5 50h3l20 97h48l-20 -101q49 -7 86.5 -24.5t64.5 -39.5l-27 -135h-45q-7 55 -27 93.5t-63 51.5l-44 -221q72 -38 114.5 -81t42.5 -110
q0 -49 -20.5 -86.5t-53.5 -62t-75.5 -37.5t-85.5 -14l-20 -103h-48zM376 150q0 35 -17.5 59.5t-56.5 48.5l-44 -217q49 2 83.5 28.5t34.5 80.5zM210 506q0 -33 17.5 -56.5t55.5 -45.5l40 205q-56 -1 -84.5 -29t-28.5 -74z" />
    <glyph glyph-name="Euro.op" horiz-adv-x="638" 
d="M46 356l10 46h76q39 115 126 186.5t197 71.5q56 0 104 -16t79 -44l-25 -144h-47q-6 76 -33.5 111.5t-81.5 35.5q-75 0 -124 -59t-73 -142h230l-22 -46h-219q-3 -16 -5 -32t-3 -32h197l-22 -45h-177v-6q0 -92 28 -143.5t93 -51.5q62 0 101.5 37.5t77.5 126.5h54l-37 -162
q-42 -27 -93 -42.5t-111 -15.5q-113 0 -176.5 66t-63.5 184v7h-83l10 45h75q1 16 4 32t7 32h-73z" />
    <glyph glyph-name="sterling.op" horiz-adv-x="673" 
d="M120 317l10 45h106l26 81q31 102 91.5 160t161.5 58q69 0 112.5 -28t43.5 -73q0 -27 -13.5 -45t-35.5 -25h-77q6 13 9.5 28t3.5 32q0 22 -9.5 42.5t-40.5 20.5q-40 0 -62 -36.5t-43 -96.5l-42 -118h142l-11 -45h-146l-58 -165q49 -19 97.5 -39.5t101.5 -20.5
q34 0 53.5 13t19.5 43q0 13 -7.5 25t-20.5 22l24 25q25 -11 47.5 -35t22.5 -67q0 -63 -40.5 -95.5t-103.5 -32.5q-74 0 -131.5 36t-97.5 61q-25 -40 -64 -68.5t-90 -28.5q-52 0 -79.5 30t-27.5 70q0 49 33 79t81 30q21 0 39.5 -6t34.5 -11l42 135h-102zM93 47q23 0 41.5 20
t31.5 66q-13 5 -27.5 10.5t-32.5 5.5q-26 0 -41 -16t-15 -42q0 -17 11.5 -30.5t31.5 -13.5z" />
    <glyph glyph-name="yen.op" horiz-adv-x="646" 
d="M94 302l9 45h118l-88 224q-7 17 -19 24.5t-32 9.5l10 46h273l-10 -46q-46 0 -67.5 -9.5t-21.5 -34.5q0 -7 2.5 -17.5t6.5 -20.5l79 -214l161 204q15 19 24 32.5t9 27.5q0 16 -15.5 23.5t-61.5 8.5l10 46h228l-10 -46q-21 -2 -36 -9t-30 -25l-182 -224h120l-9 -45h-147
l-43 -53l-3 -12h179l-9 -46h-179l-15 -71q-2 -10 -3 -17t-1 -12q0 -28 22 -36.5t63 -9.5l-9 -45h-307l9 45q49 1 76.5 14t35.5 54l17 78h-177l9 46h177l3 11l-22 54h-144z" />
    <glyph glyph-name="percent.op" horiz-adv-x="849" 
d="M205 361q44 0 71.5 56t27.5 119q0 37 -12 62.5t-46 25.5q-44 0 -71.5 -56t-27.5 -119q0 -37 12 -62.5t46 -25.5zM202 322q-60 0 -103.5 38t-43.5 103q0 47 17.5 84.5t45.5 63t62.5 39t68.5 13.5q60 0 103 -38t43 -103q0 -47 -17.5 -84.5t-45 -63t-62 -39t-68.5 -13.5z
M649 293q-44 0 -71.5 -56t-27.5 -119q0 -37 12 -62t46 -25q44 0 71.5 55.5t27.5 118.5q0 37 -12 62.5t-46 25.5zM652 333q60 0 103.5 -38.5t43.5 -103.5q0 -47 -17.5 -84.5t-45 -63t-62 -39t-68.5 -13.5q-60 0 -103.5 38t-43.5 103q0 48 17.5 85.5t45 63t62 39t68.5 13.5z
M745 673l-570 -692h-66l571 692h65z" />
    <glyph glyph-name="perthousand.op" horiz-adv-x="1228" 
d="M205 361q44 0 71.5 56t27.5 119q0 37 -12 62.5t-46 25.5q-44 0 -71.5 -56t-27.5 -119q0 -37 12 -62.5t46 -25.5zM202 322q-60 0 -103.5 38t-43.5 103q0 47 17.5 84.5t45.5 63t62.5 39t68.5 13.5q60 0 103 -38t43 -103q0 -47 -17.5 -84.5t-45 -63t-62 -39t-68.5 -13.5z
M649 293q-44 0 -71.5 -56t-27.5 -119q0 -37 12 -62t46 -25q44 0 71.5 55.5t27.5 118.5q0 37 -12 62.5t-46 25.5zM652 333q60 0 103.5 -38.5t43.5 -103.5q0 -47 -17.5 -84.5t-45 -63t-62 -39t-68.5 -13.5q-60 0 -103.5 38t-43.5 103q0 48 17.5 85.5t45 63t62 39t68.5 13.5z
M745 673l-570 -692h-66l571 692h65zM1028 293q-44 0 -71.5 -56t-27.5 -119q0 -37 12 -62t46 -25q44 0 71.5 55.5t27.5 118.5q0 37 -12 62.5t-46 25.5zM1031 333q60 0 103.5 -38.5t43.5 -103.5q0 -47 -17.5 -84.5t-45.5 -63t-62.5 -39t-68.5 -13.5q-60 0 -103 38t-43 103
q0 48 17.5 85.5t45 63t62 39t68.5 13.5z" />
    <glyph glyph-name="parenleft.sc" horiz-adv-x="353" 
d="M77 181q0 145 75 278.5t197 229.5h70q-67 -59 -114 -127.5t-75.5 -138.5t-41.5 -139.5t-13 -130.5q0 -72 16 -139t58 -125h-64q-53 56 -80.5 133.5t-27.5 158.5z" />
    <glyph glyph-name="bracketleft.sc" horiz-adv-x="326" 
d="M250 591l-129 -602q-1 -6 -1.5 -10.5t-0.5 -8.5q0 -27 26 -33.5t77 -9.5l-9 -38h-198l170 800h198l-8 -38q-60 -4 -88.5 -12.5t-36.5 -47.5z" />
    <glyph glyph-name="braceleft.sc" horiz-adv-x="357" 
d="M61 278l5 22q37 7 66 29.5t39 70.5l33 161q13 59 66 93.5t143 34.5l-7 -32q-37 -4 -69.5 -26t-42.5 -72l-35 -158q-11 -51 -36 -74t-78 -38q37 -12 54 -28t17 -47q0 -16 -6.5 -46.5t-14 -63.5t-14 -64t-6.5 -48q0 -36 22.5 -52t51.5 -20l-7 -31q-75 0 -116 27t-41 74
q0 18 6.5 47.5t14 61t14 61t6.5 46.5q0 32 -18.5 49t-46.5 23z" />
    <glyph glyph-name="parenright.sc" horiz-adv-x="353" 
d="M301 396q0 -145 -75 -278.5t-197 -228.5h-69q67 59 113.5 127.5t75.5 138.5t41.5 139.5t12.5 129.5q0 72 -16 139t-58 126h64q53 -57 80.5 -134.5t27.5 -158.5z" />
    <glyph glyph-name="bracketright.sc" horiz-adv-x="326" 
d="M99 -13l128 602q1 6 1.5 10.5t0.5 8.5q0 27 -25.5 33.5t-76.5 9.5l8 38h198l-169 -800h-199l8 38q60 4 89 12.5t37 47.5z" />
    <glyph glyph-name="braceright.sc" horiz-adv-x="357" 
d="M318 300l-4 -22q-37 -7 -66 -29.5t-39 -70.5l-34 -161q-13 -59 -66 -93.5t-143 -34.5l7 31q37 4 69.5 26t42.5 72l35 159q11 51 36 74t78 38q-37 12 -54 28t-17 47q0 15 6.5 45.5t14 64t14 64.5t6.5 47q0 36 -22.5 52t-51.5 20l7 32q75 0 116.5 -27t41.5 -75
q0 -17 -6.5 -46.5t-14.5 -61.5t-14.5 -61.5t-6.5 -46.5q0 -32 18.5 -48.5t46.5 -22.5z" />
    <glyph glyph-name="slash.sc" horiz-adv-x="400" 
d="M451 689l-415 -801h-75l415 801h75z" />
    <glyph glyph-name="backslash.sc" horiz-adv-x="399" 
d="M229 -112l-74 801h70l75 -801h-71z" />
    <glyph glyph-name="bar.sc" horiz-adv-x="271" 
d="M269 689l-171 -801h-71l171 801h71z" />
    <glyph glyph-name="brokenbar.sc" horiz-adv-x="271" 
d="M170 225l-72 -337h-71l72 337h71zM269 689l-72 -337h-71l72 337h71z" />
    <glyph glyph-name="zero.ot" 
d="M267 -10q-106 0 -167 68t-61 175q0 78 24.5 147t66.5 119.5t99 80.5t122 30q107 0 168 -68.5t61 -175.5q0 -77 -24.5 -146t-66.5 -119.5t-99.5 -80.5t-122.5 -30zM353 553q-41 0 -75.5 -32.5t-59.5 -83t-39 -113t-14 -122.5q0 -69 22 -112t78 -43q41 0 75.5 32.5t59.5 83
t39 113t14 121.5q0 69 -22 112.5t-78 43.5z" />
    <glyph glyph-name="one.ot" 
d="M441 603h32l-106 -470q-2 -10 -3 -17.5t-1 -13.5q0 -33 33.5 -42.5t112.5 -9.5l-9 -50h-449l9 50q99 0 137 12t47 55l74 328h-162l9 44l57 6q79 7 124.5 31t94.5 77z" />
    <glyph glyph-name="two.ot" 
d="M155 98h151q66 0 96.5 10.5t70.5 67.5h37l-59 -176h-459l7 32q110 86 186.5 141.5t123 96t67.5 74t21 76.5q0 42 -27.5 68.5t-78.5 26.5q-59 0 -100.5 -28t-74.5 -64l-23 30q39 65 101 111t150 46q87 0 133 -45.5t46 -114.5q0 -51 -30 -96t-80 -86t-117 -82.5t-141 -87.5
z" />
    <glyph glyph-name="three.ot" 
d="M206 -113q-93 0 -143.5 34t-50.5 82q0 28 15.5 45.5t37.5 25.5h42q0 -57 28 -97.5t85 -40.5q66 0 104 44.5t38 110.5q0 80 -54 109.5t-120 29.5l-6 38q93 25 153 67t60 105q0 37 -24.5 58t-67.5 21q-47 0 -87.5 -22t-75.5 -60l-25 30q42 60 102 101.5t142 41.5
q77 0 119.5 -39t42.5 -96q0 -41 -20.5 -73t-51 -55t-66.5 -38.5t-66 -23.5q73 -10 120 -55.5t47 -114.5q0 -56 -26 -98.5t-66.5 -71.5t-90 -43.5t-95.5 -14.5z" />
    <glyph glyph-name="four.ot" 
d="M563 92h-118l-43 -194h-121l43 194h-316l9 43l462 472h80l-102 -460h118zM407 464l-307 -317h236z" />
    <glyph glyph-name="five.ot" 
d="M569 600l-34 -112h-276l-42 -108q51 -16 99.5 -38t85 -52t58.5 -69.5t22 -89.5q0 -106 -79 -175t-192 -69q-87 0 -135.5 34t-48.5 82q0 28 14.5 45.5t36.5 25.5h41q0 -57 29 -97t90 -40q59 0 99 39t40 101q0 43 -21 76t-55 58.5t-79 45t-92 34.5l121 309h318z" />
    <glyph glyph-name="six.ot" 
d="M561 711l9 -37q-134 -40 -228.5 -115t-136.5 -182q33 30 75 50.5t92 20.5q88 0 137 -51t49 -135q0 -113 -77.5 -192.5t-192.5 -79.5q-113 0 -173.5 67.5t-60.5 173.5q0 84 35.5 163.5t101 143.5t160 109.5t210.5 63.5zM319 389q-37 0 -69 -14.5t-57 -35.5
q-8 -30 -12.5 -62t-4.5 -66q0 -75 26.5 -121.5t86.5 -46.5q38 0 66 18t46.5 47t27.5 65.5t9 72.5q0 64 -30 103.5t-89 39.5z" />
    <glyph glyph-name="seven.ot" 
d="M498 490h-273q-37 0 -59 -15t-50 -57h-43l80 182h460l-5 -28l-418 -674h-104z" />
    <glyph glyph-name="eight.ot" 
d="M573 548q0 -69 -52.5 -111t-116.5 -56l23 -15q49 -31 77.5 -70t28.5 -96q0 -94 -69.5 -152t-178.5 -58q-111 0 -174 51t-63 130q0 73 53.5 118t130.5 60l-13 10q-31 25 -54.5 61.5t-23.5 87.5q0 86 63 144.5t166 58.5q90 0 146.5 -42t56.5 -121zM347 279l-89 55
q-56 -27 -81 -68.5t-25 -90.5q0 -60 36 -96.5t99 -36.5q54 0 96 31.5t42 87.5q0 41 -20 68t-58 50zM311 440l67 -42q46 25 72.5 62t26.5 88q0 49 -28 80.5t-82 31.5q-49 0 -84 -29.5t-35 -81.5q0 -32 14.5 -60t48.5 -49z" />
    <glyph glyph-name="nine.ot" 
d="M60 -111l-9 37q133 40 228 115t136 182q-32 -31 -74.5 -51t-91.5 -20q-88 0 -137 51t-49 135q0 113 77.5 192.5t192.5 79.5q113 0 173.5 -67.5t60.5 -173.5q0 -84 -35.5 -163.5t-101 -143.5t-160 -109.5t-210.5 -63.5zM302 211q37 0 69 14.5t57 35.5q8 29 12.5 61.5
t4.5 66.5q0 75 -26.5 121.5t-86.5 46.5q-38 0 -66 -18t-46.5 -47t-27.5 -65.5t-9 -72.5q0 -64 30 -103.5t89 -39.5z" />
    <glyph glyph-name="zero.lt" 
d="M375 654q-31 0 -58.5 -18t-50.5 -52q-22 -32 -39.5 -78t-30 -96t-19 -101t-6.5 -94q0 -70 18.5 -119t68.5 -49q31 0 58.5 18.5t50.5 52.5q22 32 40 77.5t30.5 95.5t19 101t6.5 94q0 71 -19 119.5t-69 48.5zM252 -10q-103 0 -156.5 77.5t-53.5 189.5q0 82 23.5 164
t67.5 146t107 104t142 40q103 0 156 -77t53 -189q0 -83 -23.5 -165t-67 -146t-107 -104t-141.5 -40z" />
    <glyph glyph-name="one.lt" 
d="M442 712h33l-123 -579l-3.5 -17.5t-1.5 -14.5q0 -33 33 -42t114 -9l-10 -50h-453l10 50q98 0 136 12t47 55l93 436h-162l9 45l56 5q80 7 126.5 31t95.5 78z" />
    <glyph glyph-name="two.lt" 
d="M147 101h152q34 0 56 3t40.5 13.5t37 31t43.5 54.5h39l-67 -203h-470l8 32q132 107 215.5 180t130 124.5t63 91.5t16.5 81q0 49 -28 78t-82 29q-60 0 -102 -27.5t-76 -63.5l-23 30q40 64 103 110t153 46q87 0 137 -47t50 -125q0 -60 -31 -112.5t-84 -103.5t-126 -105
t-155 -117z" />
    <glyph glyph-name="three.lt" 
d="M218 331l-6 38q42 11 81 27.5t68.5 38t47.5 48t18 58.5q0 37 -24 58t-68 21q-46 0 -87 -22t-77 -60l-25 30q43 60 103.5 101.5t142.5 41.5q77 0 119.5 -38.5t42.5 -95.5q0 -41 -18.5 -72t-46.5 -53t-61.5 -36.5t-63.5 -22.5q72 -10 117.5 -54t45.5 -108q0 -61 -25 -106.5
t-65 -75t-90 -44.5t-99 -15q-113 0 -165.5 46t-52.5 100q0 36 18 59t42 33h71q-7 -19 -10.5 -36.5t-3.5 -41.5q0 -43 25 -77.5t81 -34.5q65 0 107.5 45.5t42.5 123.5q0 57 -33.5 94t-90.5 37q-15 0 -28.5 -1.5t-32.5 -5.5z" />
    <glyph glyph-name="four.lt" 
d="M104 240h228l64 308zM305 119l14 61h-308l10 46l447 476h83l-97 -462h114l-14 -60h-114l-11 -50q-1 -10 -2.5 -20t-1.5 -15q0 -28 20.5 -37.5t63.5 -10.5l-9 -47h-316l9 47q51 2 77 15t35 57z" />
    <glyph glyph-name="five.lt" 
d="M582 702l-37 -116h-283l-45 -130q62 -1 118.5 -14t99 -39t67.5 -69t25 -104q0 -108 -77.5 -174t-190.5 -66q-112 0 -166 45.5t-54 99.5q0 32 16.5 55.5t41.5 33.5h69q-7 -19 -10 -35t-3 -33q0 -47 28 -81t90 -34q66 0 104.5 40.5t38.5 109.5q0 48 -22.5 79t-61.5 49
t-91 25.5t-111 7.5l121 350h333z" />
    </font>
</defs>
</svg>
