<?xml version="1.0" standalone="no"?>
<!DOCTYPE svg PUBLIC "-//W3C//DTD SVG 1.1//EN" "http://www.w3.org/Graphics/SVG/1.1/DTD/svg11.dtd" >
<svg xmlns="http://www.w3.org/2000/svg" xmlns:xlink="http://www.w3.org/1999/xlink" version="1.1">
<metadata>
Created by FontForge 20200314 at Mon Nov  3 02:27:53 2014
 By Unknown
Copyright (c) 2011 by Ryoichi Tsunekawa. All rights reserved.
</metadata>
<defs>
<font id="SheepmanW03-BoldSlanted" horiz-adv-x="437" >
  <font-face 
    font-family="SheepmanW03-BoldSlanted"
    font-weight="700"
    font-style="oblique"
    font-stretch="normal"
    units-per-em="1000"
    panose-1="4 2 8 4 3 14 2 2 1 2"
    ascent="800"
    descent="-200"
    x-height="555"
    cap-height="700"
    bbox="-175 -155 830 868"
    underline-thickness="50"
    underline-position="-125"
    slope="-9"
    unicode-range="U+0020-FB02"
  />
<missing-glyph horiz-adv-x="618" 
d="M84 700h474v-700h-474v700zM138 50h366v600h-366v-600z" />
    <glyph glyph-name="IJ" unicode="IJ" horiz-adv-x="693" 
d="M191 0h-224l40 56l93 588l-23 56h224l-41 -56l-93 -588zM397 155q-1 -3 -1 -9q0 -13 7 -21.5t22 -8.5h9q17 0 27 11t13 28l77 489l-23 56h225l-42 -56l-89 -562q-3 -20 -8.5 -35.5t-15 -26t-25.5 -15.5t-41 -5h-235q-36 0 -52 15t-16 45q0 5 0.5 10.5t1.5 11.5l46 285
l140 -84z" />
    <glyph glyph-name="ij" unicode="ij" horiz-adv-x="430" 
d="M169 0h-206l38 51l71 453l-22 51h176l-79 -504zM87 597l16 103h146l-16 -103h-146zM286 504l-22 51h176l-98 -622q-3 -21 -9 -35.5t-16.5 -24t-27.5 -14t-44 -4.5h-136l21 134l43 -29q15 0 22 6t9 20zM301 597l16 103h146l-16 -103h-146z" />
    <glyph glyph-name="uniFB01" unicode="fi" horiz-adv-x="471" 
d="M34 450l16 105h39l11 67q3 21 9 35.5t16.5 24t28 14t44.5 4.5h134l-20 -128l-39 23h-10q-26 0 -30 -24l-3 -16h60l-16 -105h-55l-63 -399l21 -51h-205l38 51l63 399h-39zM424 0h-206l38 51l71 453l-22 51h176l-79 -504zM342 597l16 103h146l-16 -103h-146z" />
    <glyph glyph-name="uniFB02" unicode="fl" horiz-adv-x="469" 
d="M73 450h-39l16 105h39l11 67q7 42 30 60t71 18h259l46 10l-104 -659l22 -51h-206l38 51l86 544h-79q-26 0 -30 -24l-3 -16h60l-16 -105h-54l-63 -399l21 -51h-206l38 51z" />
    <glyph glyph-name=".notdef" horiz-adv-x="618" 
d="M84 700h474v-700h-474v700zM138 50h366v600h-366v-600z" />
    <glyph glyph-name=".null" horiz-adv-x="0" 
 />
    <glyph glyph-name="nonmarkingreturn" horiz-adv-x="333" 
 />
    <glyph glyph-name="space" unicode=" " horiz-adv-x="206" 
 />
    <glyph glyph-name="exclam" unicode="!" horiz-adv-x="224" 
d="M-7 0l20 130h151l-20 -130h-151zM142 178h-90l-5 219l40 252l-11 51h205l-26 -51l-40 -252z" />
    <glyph glyph-name="quotedbl" unicode="&#x22;" horiz-adv-x="356" 
d="M239 425l20 275h143l-67 -275h-96zM69 425l20 275h143l-67 -275h-96z" />
    <glyph glyph-name="numbersign" unicode="#" 
d="M407 458l-57 -215h49l-27 -100h-49l-37 -143h-118l37 143h-61l-37 -143h-117l37 143h-49l26 100h50l57 215h-49l26 100h49l38 142h118l-38 -142h60l38 142h118l-38 -142h50l-27 -100h-49zM171 243h61l57 215h-60z" />
    <glyph glyph-name="dollar" unicode="$" horiz-adv-x="416" 
d="M210 30l-5 -32l18 -28h-124l26 28l5 32h-70q-34 0 -49 14t-15 41q0 5 0.5 10.5t1.5 11.5l31 196l135 -79l-8 -49q-1 -3 -1 -9q0 -26 27 -26h5q17 0 25.5 9.5t10.5 25.5l6 39q1 5 1.5 9.5t0.5 8.5q0 14 -6 22t-20 16l-124 75q-33 20 -33 61v12t2 13l25 162q3 19 8 33.5
t14.5 24t25 14.5t39.5 5h70l5 32l-18 28h124l-26 -28l-5 -32h68q33 0 48 -14t15 -41q0 -5 -0.5 -10.5t-1.5 -11.5l-30 -195l-135 79l8 48q1 4 1 9q0 26 -27 26h-5q-17 0 -25 -9.5t-11 -25.5l-7 -39q-1 -5 -1 -9v-7q0 -14 5.5 -23t20.5 -17l124 -74q33 -20 33 -61
q0 -6 -0.5 -12t-1.5 -13l-26 -163q-3 -19 -7.5 -33.5t-14 -24t-25 -14.5t-39.5 -5h-68z" />
    <glyph glyph-name="percent" unicode="%" horiz-adv-x="582" 
d="M323 282q5 26 16 39t43 13h135q43 0 43 -37q0 -10 -1 -15l-36 -230q-4 -26 -15.5 -39t-42.5 -13h-135q-45 0 -45 37q0 5 2 15zM83 648q5 26 15.5 39t42.5 13h135q44 0 44 -37q0 -10 -1 -15l-36 -230q-4 -26 -16.5 -39t-43.5 -13h-135q-43 0 -43 36q0 4 0.5 7.5t1.5 8.5z
M562 700l-436 -700h-82l436 700h82zM458 245q1 4 1 7q0 13 -17 13h-7q-20 0 -23 -19l-25 -157q-1 -4 -1 -6q0 -14 18 -14h7q19 0 22 19zM217 611q1 4 1 7q0 13 -17 13h-7q-20 0 -23 -19l-25 -157q-1 -4 -1 -6q0 -14 18 -14h7q19 0 22 19z" />
    <glyph glyph-name="ampersand" unicode="&#x26;" horiz-adv-x="471" 
d="M56 0q-34 0 -49 14t-15 41q0 5 0.5 10.5t1.5 11.5l33 213q7 48 29 69.5t71 23.5q-53 11 -53 67q0 5 0.5 11t1.5 12l24 150q6 38 22 57.5t64 19.5h200q34 0 49 -14t15 -41q0 -5 -0.5 -10.5t-1.5 -11.5l-21 -131q-10 -57 -46 -78h108l-26 -163l-47 36l-33 -210
q-6 -38 -22 -57.5t-64 -19.5h-241zM218 326q-17 0 -25.5 -9.5t-10.5 -25.5l-24 -146q-1 -3 -1 -9q0 -26 27 -26h19q16 0 24.5 9.5t11.5 25.5l23 143q1 5 1 7v4q0 12 -6 19.5t-20 7.5h-19zM246 437q16 0 25 9.5t11 25.5l13 83q1 4 1 10q0 25 -26 25h-2q-16 0 -25.5 -9.5
t-11.5 -25.5l-13 -83q0 -2 -0.5 -4t-0.5 -4q0 -27 27 -27h2z" />
    <glyph glyph-name="quotesingle" unicode="'" horiz-adv-x="186" 
d="M69 425l20 275h143l-67 -275h-96z" />
    <glyph glyph-name="parenleft" unicode="(" horiz-adv-x="251" 
d="M321 740q-31 -49 -60.5 -116.5t-53 -145.5t-37.5 -162.5t-14 -168.5q0 -75 9 -138.5t23 -108.5h-107q-23 51 -35.5 120.5t-12.5 149.5q0 81 14.5 162t39 155t57.5 139t70 114h107v0z" />
    <glyph glyph-name="parenright" unicode=")" horiz-adv-x="251" 
d="M185 740q22 -51 34.5 -120.5t12.5 -149.5q0 -81 -14.5 -162t-39.5 -155.5t-57.5 -139t-68.5 -113.5h-106q30 49 59.5 117t52.5 146.5t37 163.5t14 169q0 74 -8.5 136.5t-22.5 107.5h107z" />
    <glyph glyph-name="asterisk" unicode="*" 
d="M180 351l-96 71l100 83l-120 18l48 114l110 -55l-8 118h129l-34 -118l116 55l30 -114l-130 -18l80 -83l-112 -71l-44 106z" />
    <glyph glyph-name="plus" unicode="+" 
d="M279 398h149v-95h-149v-145h-98v145h-149v95h149v145h98v-145z" />
    <glyph glyph-name="comma" unicode="," horiz-adv-x="218" 
d="M142 0q-4 -26 -18 -52t-36.5 -46.5t-53 -33.5t-67.5 -13l8 55q32 4 52 24.5t28 65.5h-65l20 130h152z" />
    <glyph glyph-name="hyphen" unicode="-" horiz-adv-x="257" 
d="M20 238l20 125h206l-20 -125h-206z" />
    <glyph glyph-name="period" unicode="." horiz-adv-x="218" 
d="M-10 0l20 130h152l-20 -130h-152z" />
    <glyph glyph-name="slash" unicode="/" horiz-adv-x="360" 
d="M90 0h-141l347 700h140z" />
    <glyph glyph-name="zero" unicode="0" 
d="M61 0q-34 0 -49 14t-15 41q0 5 0.5 10.5t1.5 11.5l86 546q3 19 7.5 33.5t14 24t25 14.5t39.5 5h229q64 0 64 -56q0 -5 -0.5 -10t-1.5 -11l-86 -546q-6 -38 -22 -57.5t-64 -19.5h-229zM198 110q16 0 24.5 9.5t10.5 25.5l65 410q1 4 1 10q0 25 -25 25h-11q-16 0 -25.5 -9.5
t-11.5 -25.5l-65 -410q-1 -3 -1 -8q0 -27 27 -27h11z" />
    <glyph glyph-name="one" unicode="1" horiz-adv-x="245" 
d="M188 0h-217l40 54l92 582l-24 52l220 18l-40 -55l-95 -597z" />
    <glyph glyph-name="two" unicode="2" horiz-adv-x="426" 
d="M395 700q64 0 64 -56q0 -5 -0.5 -10t-1.5 -11l-31 -195q-5 -30 -19 -51t-41 -35l-158 -79q-21 -11 -29.5 -22t-12.5 -34l-15 -97h77l17 112l161 80l-47 -302h-377l42 267q5 29 18.5 50t40.5 35l158 79q21 11 29.5 22t12.5 34l10 68q1 5 1 10q0 25 -26 25h-5
q-15 0 -25 -9.5t-12 -25.5l-11 -77l-160 -80l35 225q6 38 22 57.5t64 19.5h219v0z" />
    <glyph glyph-name="three" unicode="3" horiz-adv-x="425" 
d="M174 426h64q16 0 25.5 9.5t11.5 25.5l14 94q1 4 1 10q0 25 -26 25h-5q-17 0 -26 -9.5t-11 -25.5l-9 -59l-160 -80l33 207q6 38 22 57.5t64 19.5h213q34 0 49 -14t15 -41q0 -5 -0.5 -10.5t-1.5 -11.5l-25 -160q-8 -44 -26.5 -65.5t-59.5 -26.5q33 -3 50.5 -19t17.5 -50
q0 -5 -0.5 -11t-1.5 -12l-32 -202q-6 -38 -22 -57.5t-64 -19.5h-224q-34 0 -49 14t-15 41q0 5 0.5 10.5t1.5 11.5l39 250l135 -80l-17 -102q-1 -4 -1 -9q0 -26 27 -26h10q17 0 25 9.5t11 25.5l22 135q1 4 1 9q0 26 -27 26h-67z" />
    <glyph glyph-name="four" unicode="4" horiz-adv-x="458" 
d="M398 265l60 31l-27 -172l-50 31h-16l-16 -101l24 -54h-216l40 54l16 101h-244l274 491l-14 54h254l-40 -54l-61 -381h16zM168 265h62l32 196z" />
    <glyph glyph-name="five" unicode="5" horiz-adv-x="423" 
d="M248 314q1 3 1 6.5v6.5q0 34 -36 34h-165l85 285l-17 54h345l-25 -163l-99 53h-77l-36 -119h127q34 0 49 -14t15 -41q0 -5 -0.5 -10.5t-1.5 -11.5l-50 -317q-3 -19 -7.5 -33.5t-14 -24t-25 -14.5t-39.5 -5h-223q-34 0 -49 14t-15 41q0 5 0.5 10.5t1.5 11.5l39 250
l135 -80l-17 -102q-1 -3 -1 -9q0 -26 27 -26h10q17 0 25.5 9.5t10.5 25.5z" />
    <glyph glyph-name="six" unicode="6" horiz-adv-x="436" 
d="M395 700q64 0 64 -56q0 -5 -0.5 -10t-1.5 -11l-29 -182l-135 80l5 34q1 4 1 10q0 25 -25 25h-11q-16 0 -25.5 -9.5t-11.5 -25.5l-21 -133h151q64 0 64 -56q0 -5 -0.5 -10t-1.5 -11l-42 -268q-6 -38 -22 -57.5t-64 -19.5h-229q-34 0 -49 14t-15 41q0 5 0.5 10.5t1.5 11.5
l86 546q3 19 7.5 33.5t14 24t25 14.5t39.5 5h224zM187 312l-26 -167q-1 -3 -1 -8q0 -27 27 -27h11q16 0 24.5 9.5t10.5 25.5l19 120q1 3 1 6.5v6.5q0 34 -36 34h-30z" />
    <glyph glyph-name="seven" unicode="7" horiz-adv-x="400" 
d="M443 648l-266 -594l7 -54h-220l47 52l254 538h-101l-115 -53l25 163h405z" />
    <glyph glyph-name="eight" unicode="8" horiz-adv-x="435" 
d="M394 700q64 0 64 -56q0 -5 -0.5 -10t-1.5 -11l-25 -159q-8 -44 -26 -65.5t-60 -26.5q32 -3 50 -19t18 -48q0 -6 -0.5 -12t-1.5 -13l-32 -203q-6 -38 -22 -57.5t-64 -19.5h-237q-34 0 -49 14t-15 41q0 5 0.5 10.5t1.5 11.5l32 203q7 47 28.5 68.5t68.5 23.5
q-30 5 -45.5 20.5t-15.5 46.5v12t2 13l25 159q6 38 22 57.5t64 19.5h219zM215 316q-17 0 -26 -9.5t-11 -25.5l-22 -136q-1 -3 -1 -9q0 -26 27 -26h19q29 0 35 35l22 136q1 5 1 9q0 26 -25 26h-19zM246 427q15 0 25 9.5t12 25.5l14 93q1 5 1 10q0 25 -26 25h-10
q-15 0 -25 -9.5t-12 -25.5l-14 -93q-1 -4 -1 -10q0 -25 26 -25h10z" />
    <glyph glyph-name="nine" unicode="9" horiz-adv-x="436" 
d="M160 146q-1 -4 -1 -9q0 -27 27 -27h10q17 0 25.5 9.5t10.5 25.5l21 133h-149q-34 0 -49 14t-15 41q0 5 0.5 10.5t1.5 11.5l42 268q3 19 7.5 33.5t14 24t25 14.5t39.5 5h229q64 0 64 -56q0 -5 -0.5 -10t-1.5 -11l-86 -546q-6 -38 -22 -57.5t-64 -19.5h-224q-64 0 -64 56
q0 5 0.5 10t1.5 11l29 182l134 -80zM205 424q0 -17 9 -26.5t29 -9.5h27l27 167q1 4 1 10q0 25 -26 25h-10q-16 0 -25.5 -9.5t-11.5 -25.5l-19 -120q-1 -4 -1 -11z" />
    <glyph glyph-name="colon" unicode=":" horiz-adv-x="218" 
d="M53 400l20 130h152l-20 -130h-152zM-10 0l20 130h152l-20 -130h-152z" />
    <glyph glyph-name="semicolon" unicode=";" horiz-adv-x="218" 
d="M142 0q-4 -26 -18 -52t-36.5 -46.5t-53 -33.5t-67.5 -13l8 55q32 4 52 24.5t28 65.5h-65l20 130h152zM53 400l20 130h152l-20 -130h-152z" />
    <glyph glyph-name="less" unicode="&#x3c;" 
d="M32 305v90l396 144v-104l-257 -85l257 -87v-103z" />
    <glyph glyph-name="equal" unicode="=" 
d="M32 213v95h396v-95h-396zM32 393v95h396v-95h-396z" />
    <glyph glyph-name="greater" unicode="&#x3e;" 
d="M32 160v103l257 87l-257 85v104l396 -144v-90z" />
    <glyph glyph-name="question" unicode="?" horiz-adv-x="413" 
d="M385 700q34 0 49 -14t15 -41q0 -5 -0.5 -10.5t-1.5 -11.5l-30 -190q-5 -30 -18.5 -51t-40.5 -35l-98 -48q-21 -11 -29 -22t-12 -34l-9 -62h-144l19 120q5 30 18.5 51t40.5 35l87 43q22 11 30 22t12 34l11 69q1 4 1 10q0 25 -26 25h-10q-17 0 -26 -9.5t-11 -25.5l-13 -81
l-160 -80l37 229q3 19 7.5 33.5t14 24t25 14.5t39.5 5h223zM33 0l20 130h154l-20 -130h-154z" />
    <glyph glyph-name="at" unicode="@" horiz-adv-x="647" 
d="M216 111q-37 0 -37 31q0 8 1 13l16 98q6 36 36 52l133 66l7 45q1 5 1 7q0 16 -14 16h-20q-9 0 -13.5 -6t-6.5 -15l-5 -32l-99 -49l20 126q3 22 12 33t38 11h154q37 0 37 -32q0 -8 -1 -12l-44 -275q66 19 101.5 78.5t35.5 161.5q0 39 -10 72.5t-33 58t-60 38t-90 13.5
q-77 0 -130 -34.5t-85.5 -89.5t-47 -123.5t-14.5 -135.5q0 -47 10.5 -84.5t33.5 -63.5t59.5 -40.5t88.5 -14.5q68 0 118 26h124q-45 -48 -106.5 -74t-146.5 -26q-69 0 -118.5 19t-82 53.5t-47.5 83.5t-15 110q0 82 18.5 165.5t61.5 150.5t114.5 109.5t176.5 42.5
q70 0 120 -18t82 -50.5t46.5 -77t14.5 -97.5q0 -72 -19 -132.5t-53.5 -104.5t-83.5 -68.5t-110 -24.5h-168zM335 179l16 103l-38 -19q-13 -7 -18.5 -14t-7.5 -21l-5 -28q-1 -3 -1 -6q0 -15 15 -15h39z" />
    <glyph glyph-name="A" unicode="A" horiz-adv-x="487" 
d="M430 56l28 -56h-232l38 56l4 65h-95l-18 -65l21 -56h-232l46 56l204 644h235zM203 238h70l16 321z" />
    <glyph glyph-name="B" unicode="B" horiz-adv-x="476" 
d="M469 446q-8 -48 -28.5 -69.5t-65.5 -26.5q35 -3 54 -20t19 -52q0 -5 -0.5 -11t-1.5 -13l-28 -172q-3 -20 -8.5 -35.5t-15 -26t-25.5 -15.5t-41 -5h-361l40 56l93 588l-23 56h354q67 0 67 -59q0 -5 -0.5 -11t-1.5 -12zM283 239q1 5 1 13q0 17 -9 28.5t-29 11.5h-41
l-28 -176h41q23 0 36.5 15t17.5 38zM223 408h38q23 0 37 15t18 38l11 70q1 4 1 11q0 18 -9.5 30t-29.5 12h-38z" />
    <glyph glyph-name="C" unicode="C" horiz-adv-x="467" 
d="M323 543q1 5 1 10q0 14 -6.5 22.5t-21.5 8.5h-19q-18 0 -28 -11t-12 -28l-62 -390q-1 -4 -1 -9q0 -13 7 -21.5t22 -8.5h19q17 0 27 11t13 28l20 128l169 84l-46 -285q-3 -20 -8.5 -35.5t-15 -26t-26 -15.5t-41.5 -5h-245q-68 0 -68 60q0 5 0.5 10.5t1.5 11.5l85 536
q3 20 8 35.5t15 26t26.5 15.5t41.5 5h245q68 0 68 -59q0 -5 -0.5 -11t-1.5 -12l-28 -177l-168 -84z" />
    <glyph glyph-name="D" unicode="D" horiz-adv-x="479" 
d="M77 700h357q67 0 67 -59q0 -5 -0.5 -11t-1.5 -12l-85 -536q-3 -20 -8.5 -35.5t-15 -26t-25.5 -15.5t-41 -5h-357l40 56l93 588zM326 531q1 5 1 11q0 18 -9.5 30t-29.5 12h-37l-74 -468h37q24 0 37 15t17 38z" />
    <glyph glyph-name="E" unicode="E" horiz-adv-x="433" 
d="M223 408h89l62 27l-27 -170l-53 27h-89l-28 -176h95l123 56l-27 -172h-401l40 56l93 588l-23 56h401l-27 -172l-105 56h-95z" />
    <glyph glyph-name="F" unicode="F" horiz-adv-x="404" 
d="M222 403h74l63 27l-27 -170l-54 27h-74l-37 -231l25 -56h-225l40 56l93 588l-23 56h386l-27 -172l-106 56h-79z" />
    <glyph glyph-name="G" unicode="G" horiz-adv-x="478" 
d="M328 542q1 5 1 7v4q0 14 -6.5 22.5t-21.5 8.5h-24q-18 0 -28 -11t-12 -28l-62 -389q-1 -4 -1 -10q0 -13 7 -21.5t22 -8.5h19q17 0 27 11t13 28l22 139l-23 56h225l-42 -56l-34 -212q-3 -20 -8.5 -35.5t-15 -26t-25.5 -15.5t-41 -5h-251q-68 0 -68 60q0 5 0.5 10.5
t1.5 11.5l85 536q3 20 8 35.5t15 26t26.5 15.5t41.5 5h251q67 0 67 -59q0 -5 -0.5 -11t-1.5 -12l-37 -238l-142 84z" />
    <glyph glyph-name="H" unicode="H" horiz-adv-x="488" 
d="M435 0h-224l40 56l38 235h-84l-38 -235l24 -56h-224l40 56l93 588l-23 56h224l-41 -56l-37 -237h84l37 237l-23 56h224l-41 -56l-93 -588z" />
    <glyph glyph-name="I" unicode="I" horiz-adv-x="244" 
d="M191 0h-224l40 56l93 588l-23 56h224l-41 -56l-93 -588z" />
    <glyph glyph-name="J" unicode="J" horiz-adv-x="449" 
d="M153 155q-1 -3 -1 -9q0 -13 7 -21.5t22 -8.5h9q17 0 27 11t13 28l77 489l-23 56h225l-42 -56l-89 -562q-3 -20 -8.5 -35.5t-15 -26t-25.5 -15.5t-41 -5h-235q-36 0 -52 15t-16 45q0 5 0.5 10.5t1.5 11.5l46 285l140 -84z" />
    <glyph glyph-name="K" unicode="K" horiz-adv-x="501" 
d="M191 0h-224l40 56l93 588l-23 56h224l-41 -56l-32 -204l115 204l4 56h227l-60 -59l-163 -228l81 -358l40 -55h-234l21 56l-27 191l-45 -63l-20 -128z" />
    <glyph glyph-name="L" unicode="L" horiz-adv-x="396" 
d="M7 56l93 588l-23 56h225l-42 -56l-83 -528h74l123 56l-27 -172h-380z" />
    <glyph glyph-name="M" unicode="M" horiz-adv-x="681" 
d="M351 0h-121l-8 478l-67 -422l23 -56h-212l40 56l93 588l-23 56h300l-24 -56l-8 -313l91 313l-6 56h309l-41 -56l-93 -588l24 -56h-224l40 56l67 420z" />
    <glyph glyph-name="N" unicode="N" horiz-adv-x="494" 
d="M76 700h236l-23 -56l29 -295l46 295l-23 56h211l-41 -56l-101 -644h-154l-45 405l-56 -349l23 -56h-212l40 56l93 588z" />
    <glyph glyph-name="O" unicode="O" horiz-adv-x="475" 
d="M430 700q67 0 67 -59q0 -5 -0.5 -11t-1.5 -12l-85 -536q-3 -20 -8.5 -35.5t-15 -26t-25.5 -15.5t-41 -5h-251q-68 0 -68 60q0 5 0.5 10.5t1.5 11.5l85 536q3 20 8 35.5t15 26t26.5 15.5t41.5 5h251zM323 543q1 5 1 10q0 14 -6.5 22.5t-21.5 8.5h-19q-18 0 -28 -11
t-12 -28l-62 -390q-1 -3 -1 -9q0 -13 7 -21.5t22 -8.5h19q17 0 27 11t13 28z" />
    <glyph glyph-name="P" unicode="P" horiz-adv-x="461" 
d="M77 700h354q67 0 67 -59q0 -5 -0.5 -11t-1.5 -12l-40 -252q-3 -20 -8.5 -35.5t-15.5 -26t-26 -15.5t-41 -5h-162l-36 -228l24 -56h-224l40 56l93 588zM323 531q1 4 1 11q0 18 -9.5 30t-29.5 12h-34l-29 -184h34q23 0 36.5 15t17.5 38z" />
    <glyph glyph-name="Q" unicode="Q" horiz-adv-x="501" 
d="M88 618q3 20 8.5 35.5t15.5 26t26 15.5t41 5h251q67 0 67 -59q0 -5 -0.5 -11t-1.5 -12l-79 -499l56 29l-23 -148h-380q-68 0 -68 60q0 5 0.5 10.5t1.5 11.5zM323 542q1 5 1 7v4q0 14 -6.5 22.5t-21.5 8.5h-19q-18 0 -28 -11t-12 -28l-62 -390q-1 -3 -1 -9q0 -13 7 -21.5
t22 -8.5h19q17 0 27 11t13 28z" />
    <glyph glyph-name="R" unicode="R" horiz-adv-x="495" 
d="M205 292l-38 -236l25 -56h-225l40 56l93 588l-23 56h357q67 0 67 -59q0 -5 -0.5 -11t-1.5 -12l-36 -228q-6 -38 -20 -62t-47 -32l27 -241l36 -55h-229l30 56l-8 169q-1 32 -8.5 49.5t-33.5 17.5h-5zM326 531q1 4 1 11q0 18 -9.5 30t-29.5 12h-37l-28 -176h37q23 0 37 15
t18 38z" />
    <glyph glyph-name="S" unicode="S" horiz-adv-x="457" 
d="M310 543q1 5 1 10q0 14 -7 22.5t-21 8.5h-9q-18 0 -28 -11t-12 -28l-8 -50q-1 -6 -1.5 -11t-0.5 -10q-1 -14 6 -22.5t21 -16.5l143 -86q36 -22 36 -65q0 -6 -0.5 -12t-1.5 -13l-28 -177q-3 -20 -8.5 -35.5t-15 -26t-26 -15.5t-41.5 -5h-246q-36 0 -52 15t-16 45
q0 5 0.5 10.5t1.5 11.5l37 229l141 -84l-12 -72q-1 -4 -1 -8q0 -14 7.5 -22.5t21.5 -8.5h21q17 0 27 11t13 28l8 49q1 5 1.5 10t0.5 9q0 14 -6 23t-21 18l-145 85q-35 20 -35 66q0 5 0.5 11t1.5 13l28 179q3 20 8 35.5t15 26t26.5 15.5t41.5 5h235q35 0 51 -14.5t16 -43.5
q0 -5 -0.5 -11t-1.5 -13l-35 -223l-141 84z" />
    <glyph glyph-name="T" unicode="T" horiz-adv-x="415" 
d="M448 519l-103 73h-8l-85 -536l24 -56h-223l40 56l85 536h-7l-126 -73l28 181h403z" />
    <glyph glyph-name="U" unicode="U" horiz-adv-x="477" 
d="M407 82q-3 -20 -8 -35.5t-15 -26t-26.5 -15.5t-41.5 -5h-241q-68 0 -68 60q0 5 0.5 10.5t1.5 11.5l89 562l-23 56h224l-41 -56l-77 -489q-1 -3 -1 -9q0 -13 7 -21.5t22 -8.5h15q17 0 27 11t13 28l77 489l-23 56h219l-41 -56l-89 -562v0z" />
    <glyph glyph-name="V" unicode="V" horiz-adv-x="477" 
d="M80 0l1 644l-27 56h231l-38 -56l-27 -483l124 483l-19 56h232l-47 -56l-200 -644h-230z" />
    <glyph glyph-name="W" unicode="W" horiz-adv-x="744" 
d="M71 0l10 644l-27 56h227l-36 -56l-35 -469l124 469l-16 56h245l-41 -56l-19 -461l112 461l-16 56h225l-46 -56l-193 -644h-217l18 361l-95 -361h-220z" />
    <glyph glyph-name="X" unicode="X" horiz-adv-x="482" 
d="M262 644l12 -162l65 162l-15 56h224l-47 -55l-147 -287l59 -303l31 -55h-225l32 56l-16 189l-74 -189l12 -56h-221l47 55l155 305l-55 285l-31 55h224z" />
    <glyph glyph-name="Y" unicode="Y" horiz-adv-x="467" 
d="M118 56l39 245l-71 344l-34 55h224l-30 -56l18 -175l73 175l-10 56h222l-48 -55l-185 -349l-38 -240l24 -56h-223z" />
    <glyph glyph-name="Z" unicode="Z" horiz-adv-x="422" 
d="M449 645l-258 -529h71l124 55l-27 -171h-407l40 55l258 529h-56l-123 -55l27 171h391z" />
    <glyph glyph-name="bracketleft" unicode="[" horiz-adv-x="251" 
d="M-10 -100l133 840h179l-13 -80h-53l-108 -680h53l-12 -80h-179z" />
    <glyph glyph-name="backslash" unicode="\" horiz-adv-x="360" 
d="M62 700h132l127 -700h-133z" />
    <glyph glyph-name="bracketright" unicode="]" horiz-adv-x="251" 
d="M-36 -100l12 80h53l108 680h-53l13 80h179l-133 -840h-179z" />
    <glyph glyph-name="asciicircum" unicode="^" 
d="M183 700h96l154 -370h-110l-93 240l-92 -240h-111z" />
    <glyph glyph-name="underscore" unicode="_" horiz-adv-x="309" 
d="M-60 -110l12 75h308l-12 -75h-308z" />
    <glyph glyph-name="grave" unicode="`" horiz-adv-x="309" 
d="M103 700h159l63 -100h-105z" />
    <glyph glyph-name="a" unicode="a" horiz-adv-x="415" 
d="M9 192q5 29 16 48t40 34l187 93l8 51q1 4 1 8q0 24 -24 24h-10q-16 0 -23 -9t-10 -23l-5 -26l-152 -76l27 169q3 17 7 30t12 22t22 13.5t37 4.5h218q58 0 58 -49q0 -5 -0.5 -10.5t-1.5 -10.5l-68 -434l22 -51h-323q-58 0 -58 49q0 5 0.5 10t1.5 11zM210 105l19 119
l-38 -19q-11 -5 -17.5 -10t-11 -10.5t-7.5 -13.5t-5 -19q-1 -5 -1.5 -8.5t-0.5 -6.5q0 -14 7.5 -23t24.5 -9h30z" />
    <glyph glyph-name="b" unicode="b" horiz-adv-x="418" 
d="M224 555h145q58 0 58 -49q0 -5 -0.5 -10.5t-1.5 -10.5l-65 -415q-5 -35 -19.5 -52.5t-58.5 -17.5h-291l98 619l-22 51l182 40zM267 406q1 4 1 12q0 14 -7.5 23t-24.5 9h-28l-55 -345h28q20 0 30 12t13 32z" />
    <glyph glyph-name="c" unicode="c" horiz-adv-x="404" 
d="M263 418q1 5 1 8q0 24 -24 24h-12q-15 0 -23 -9t-10 -23l-45 -281q-1 -3 -1 -9q0 -23 24 -23h12q15 0 23 9t10 23l14 86l152 76l-36 -229q-5 -35 -20 -52.5t-58 -17.5h-220q-58 0 -58 49q0 5 0.5 10t1.5 11l65 415q3 17 7 30t12 22t22 13.5t37 4.5h220q58 0 58 -50
q0 -5 -0.5 -10t-1.5 -10l-19 -122l-152 -76z" />
    <glyph glyph-name="d" unicode="d" horiz-adv-x="418" 
d="M59 485q3 17 7 30t12.5 22t22 13.5t36.5 4.5h145l11 64l-22 51l182 40l-104 -659l22 -51h-321q-58 0 -58 49q0 5 0.5 10t1.5 11zM152 149q-1 -4 -1 -12q0 -14 7.5 -23t24.5 -9h28l55 345h-28q-20 0 -31 -12t-14 -32z" />
    <glyph glyph-name="e" unicode="e" horiz-adv-x="410" 
d="M392 316l-232 -117l-10 -62q-1 -3 -1 -9q0 -23 24 -23h17q15 0 23 9t10 23l6 39l153 76l-28 -182q-5 -35 -19.5 -52.5t-58.5 -17.5h-226q-58 0 -58 49q0 5 0.5 10t1.5 11l65 415q3 17 7 30t12 22t22 13.5t37 4.5h226q58 0 58 -49q0 -5 -0.5 -10.5t-1.5 -10.5zM182 338
l51 27q13 7 19.5 14.5t8.5 21.5l2 17q1 5 1 8q0 24 -24 24h-12q-15 0 -23 -9t-10 -23z" />
    <glyph glyph-name="f" unicode="f" horiz-adv-x="255" 
d="M34 450l16 105h39l11 67q3 21 9 35.5t16.5 24t28 14t44.5 4.5h134l-20 -128l-39 23h-10q-26 0 -30 -24l-3 -16h60l-16 -105h-55l-63 -399l21 -51h-205l38 51l63 399h-39z" />
    <glyph glyph-name="g" unicode="g" horiz-adv-x="414" 
d="M330 -67q-3 -21 -9 -35.5t-16.5 -24t-27.5 -14t-44 -4.5h-265l21 134l61 -29h108q31 0 35 28l3 22h-145q-31 0 -44.5 12.5t-13.5 37.5q0 5 0.5 10t1.5 10l64 405q3 17 7 30t12 22t22 13.5t37 4.5h321l-38 -51zM238 450q-20 0 -31 -12t-14 -32l-39 -247q-1 -4 -1 -12
q0 -14 7.5 -23t24.5 -9h28l53 335h-28z" />
    <glyph glyph-name="h" unicode="h" horiz-adv-x="426" 
d="M226 555h146q57 0 57 -49q0 -5 -0.5 -10.5t-1.5 -10.5l-68 -434l22 -51h-206l38 51l56 355q1 5 1 12q0 14 -7.5 23t-24.5 9h-28l-63 -399l22 -51h-206l38 51l90 568l-22 51l182 40z" />
    <glyph glyph-name="i" unicode="i" horiz-adv-x="216" 
d="M169 0h-206l38 51l71 453l-22 51h176l-79 -504zM87 597l16 103h146l-16 -103h-146z" />
    <glyph glyph-name="j" unicode="j" horiz-adv-x="214" 
d="M70 504l-22 51h176l-98 -622q-3 -21 -9 -35.5t-16.5 -24t-27.5 -14t-44 -4.5h-136l21 134l43 -29q15 0 22 6t9 20zM85 597l16 103h146l-16 -103h-146z" />
    <glyph glyph-name="k" unicode="k" horiz-adv-x="447" 
d="M195 355l82 149l4 51h217l-59 -50l-135 -182l75 -273l40 -50h-215l17 51l-25 150l-33 -46l-16 -104l22 -51h-206l38 51l90 568l-22 51l182 40z" />
    <glyph glyph-name="l" unicode="l" horiz-adv-x="214" 
d="M147 51l22 -51h-206l38 51l90 568l-22 51l182 40z" />
    <glyph glyph-name="m" unicode="m" horiz-adv-x="630" 
d="M585 0h-206l38 51l56 355q1 4 1 12q0 14 -7.5 23t-24.5 9h-26l-62 -399l22 -51h-206l38 51l56 355q1 4 1 12q0 14 -7.5 23t-24.5 9h-25l-63 -399l22 -51h-206l38 51l71 453l-22 51h527q58 0 58 -49q0 -5 -0.5 -10.5t-1.5 -10.5l-68 -434z" />
    <glyph glyph-name="n" unicode="n" horiz-adv-x="424" 
d="M369 555q58 0 58 -49q0 -5 -0.5 -10.5t-1.5 -10.5l-68 -434l22 -51h-206l38 51l56 355q1 4 1 12q0 14 -7.5 23t-24.5 9h-28l-63 -399l22 -51h-206l38 51l71 453l-22 51h321z" />
    <glyph glyph-name="o" unicode="o" horiz-adv-x="412" 
d="M59 485q3 17 7 30t12.5 22t22 13.5t36.5 4.5h226q58 0 58 -49q0 -5 -0.5 -10.5t-1.5 -10.5l-65 -415q-5 -35 -19.5 -52.5t-58.5 -17.5h-226q-58 0 -58 49q0 5 0.5 10t1.5 11zM263 418q1 5 1 8q0 24 -24 24h-12q-15 0 -23 -9t-10 -23l-45 -281q-1 -3 -1 -9q0 -23 24 -23
h12q15 0 23 9t10 23z" />
    <glyph glyph-name="p" unicode="p" horiz-adv-x="420" 
d="M372 555q57 0 57 -49q0 -5 -0.5 -10.5t-1.5 -10.5l-65 -415q-5 -35 -19.5 -52.5t-57.5 -17.5h-146l-15 -94l22 -51h-205l37 51l94 598l-22 51h322zM269 406q1 4 1 12q0 14 -7.5 23t-24.5 9h-28l-55 -345h28q20 0 31 12t14 32z" />
    <glyph glyph-name="q" unicode="q" horiz-adv-x="414" 
d="M238 450q-20 0 -31 -12t-14 -32l-41 -257q-1 -4 -1 -12q0 -14 7.5 -23t24.5 -9h28l55 345h-28zM50 0q-58 0 -58 49q0 5 0.5 10t1.5 11l65 415q3 17 7 30t12 22t22 13.5t37 4.5h291l-102 -649l22 -51h-206l38 51l15 94h-145z" />
    <glyph glyph-name="r" unicode="r" horiz-adv-x="290" 
d="M145 51l22 -51h-206l38 51l71 453l-22 51h278l-24 -156l-63 51h-3q-15 0 -23 -9t-10 -23z" />
    <glyph glyph-name="s" unicode="s" horiz-adv-x="404" 
d="M148 166l-5 -29q-1 -3 -1 -9q0 -23 24 -23h14q15 0 22.5 9t10.5 23l3 15q1 5 1.5 9t0.5 8q0 13 -6 21t-20 16l-122 73q-32 19 -32 60q0 5 0.5 10.5t1.5 11.5l19 124q5 34 19.5 52t58.5 18h213q58 0 58 -50q0 -5 -0.5 -10t-1.5 -10l-26 -162l-128 76l4 19q1 5 1 8
q0 24 -24 24h-5q-15 0 -23 -9t-10 -23l-2 -10q-1 -5 -1.5 -9.5t-0.5 -8.5q0 -13 5.5 -20.5t19.5 -15.5l123 -73q32 -19 32 -60q0 -5 -0.5 -10.5t-1.5 -11.5l-20 -129q-5 -35 -19.5 -52.5t-58.5 -17.5h-223q-58 0 -58 49q0 5 0.5 10t1.5 11l27 172z" />
    <glyph glyph-name="t" unicode="t" horiz-adv-x="266" 
d="M166 128q-1 -4 -1 -8q0 -15 19 -15l42 23l-20 -128h-139q-58 0 -58 50q0 5 0.5 10t1.5 10l60 380h-39l16 105h39l12 71l151 30l-16 -101h59l-16 -105h-59z" />
    <glyph glyph-name="u" unicode="u" horiz-adv-x="424" 
d="M56 0q-58 0 -58 49q0 5 0.5 10t1.5 11l68 434l-22 51h176l-64 -406q-1 -4 -1 -11q0 -15 7.5 -24t24.5 -9h30l63 399l-22 51h176l-79 -504l22 -51h-323v0z" />
    <glyph glyph-name="v" unicode="v" horiz-adv-x="427" 
d="M64 0l-4 504l-28 51h214l-33 -52l-25 -390l99 390l-16 52h213l-44 -51l-163 -504h-213z" />
    <glyph glyph-name="w" unicode="w" horiz-adv-x="667" 
d="M56 0l4 504l-28 51h211l-33 -52l-31 -394l108 394l-16 52h215l-33 -52l-16 -390l93 390l-16 52h210l-44 -51l-154 -504h-202l10 272l-76 -272h-202z" />
    <glyph glyph-name="x" unicode="x" horiz-adv-x="430" 
d="M189 0l24 52l-12 139l-56 -139l8 -52h-202l46 51l126 233l-50 220l-30 51h204l-25 -52l10 -118l48 118l-8 52h203l-48 -51l-118 -219l54 -234l30 -51h-204z" />
    <glyph glyph-name="y" unicode="y" horiz-adv-x="424" 
d="M253 -67q-7 -21 -14.5 -35.5t-19 -24t-29 -14t-44.5 -4.5h-186l21 134l46 -29h8q17 0 24 11.5t7 28.5l-6 504l-28 51h214l-33 -52l-28 -396l99 396l-16 52h213l-44 -51z" />
    <glyph glyph-name="z" unicode="z" horiz-adv-x="371" 
d="M-12 51l207 399h-39l-112 -51l24 156h352l-39 -51l-211 -399h54l112 51l-24 -156h-363z" />
    <glyph glyph-name="braceleft" unicode="{" horiz-adv-x="251" 
d="M153 320q20 -6 28 -19t8 -34q0 -13 -3 -29l-38 -241q-1 -4 -1 -6q0 -11 14 -11h20l-12 -80h-101q-32 0 -45 10.5t-13 34.5v8t1 9l48 302l-28 56l46 56l48 302q5 33 22.5 47.5t53.5 14.5h101l-13 -80h-20q-16 0 -19 -16l-38 -242q-5 -33 -17.5 -53.5t-41.5 -28.5z" />
    <glyph glyph-name="bar" unicode="|" horiz-adv-x="309" 
d="M225 -145h-118v945h118v-945z" />
    <glyph glyph-name="braceright" unicode="}" horiz-adv-x="251" 
d="M112 320q-20 6 -28 19.5t-8 33.5q0 12 3 29l37 239q1 5 1 8q0 11 -13 11h-20l13 80h101q31 0 44.5 -10.5t13.5 -33.5q0 -4 -0.5 -8.5t-1.5 -9.5l-48 -302l28 -56l-46 -56l-48 -302q-5 -33 -22 -47.5t-53 -14.5h-101l12 80h20q16 0 19 16l38 242q5 33 18 53.5t41 28.5z
" />
    <glyph glyph-name="asciitilde" unicode="~" 
d="M32 376q17 24 42.5 36t51.5 12q34 0 59.5 -8t48 -17t46 -17t53.5 -8q29 0 51.5 12t43.5 44v-105q-17 -24 -43 -36t-52 -12q-34 0 -59 8t-47.5 17t-46 17t-54.5 8q-29 0 -51.5 -12t-42.5 -44v105z" />
    <glyph glyph-name="uni00A0" unicode="&#xa0;" horiz-adv-x="206" 
 />
    <glyph glyph-name="exclamdown" unicode="&#xa1;" horiz-adv-x="224" 
d="M231 555l-20 -130h-151l20 130h151zM82 377h90l5 -219l-40 -252l11 -51h-204l25 51l40 252z" />
    <glyph glyph-name="cent" unicode="&#xa2;" horiz-adv-x="404" 
d="M359 143q-5 -35 -19.5 -52.5t-58.5 -17.5h-70l-7 -45l18 -28h-124l26 28l7 45h-70q-31 0 -44.5 12.5t-13.5 37.5q0 5 0.5 10t1.5 10l66 414q3 17 7 30t12 22t22 13.5t37 4.5h70l7 45l-18 28h124l-26 -28l-7 -45h70q30 0 43.5 -13t13.5 -38v-9.5t-1 -9.5l-19 -119
l-152 -76l20 128q1 4 1 8q0 24 -24 24h-12q-15 0 -23 -9t-10 -23l-44 -280q-1 -3 -1 -9q0 -23 24 -23h12q15 0 23 9t10 23l13 83l152 76l-36 -226v0z" />
    <glyph glyph-name="sterling" unicode="&#xa3;" 
d="M356 391l-17 -110h-147l-27 -171h72l15 98l160 80l-45 -288h-404l40 54l36 227h-26l17 110h26l37 232q6 38 22 57.5t64 19.5h219q64 0 64 -56q0 -5 -0.5 -10t-1.5 -11l-19 -120l-161 -80l21 132q1 4 1 10q0 25 -25 25h-6q-16 0 -25 -9.5t-11 -25.5l-26 -164h147z" />
    <glyph glyph-name="currency" unicode="&#xa4;" 
d="M91 264q-26 38 -26 86t26 85l-45 45l50 49l46 -45q39 25 88 25t88 -25l46 45l51 -49l-46 -45q12 -18 19 -40t7 -45q0 -24 -7 -45.5t-19 -40.5l46 -44l-51 -49l-46 44q-19 -11 -41.5 -17.5t-46.5 -6.5t-46.5 6.5t-41.5 17.5l-46 -44l-50 49zM139 350q0 -37 26.5 -63
t64.5 -26q19 0 36 7t29.5 19t20 28.5t7.5 34.5t-7.5 34.5t-20 28.5t-29.5 19t-36 7q-38 0 -64.5 -26t-26.5 -63z" />
    <glyph glyph-name="yen" unicode="&#xa5;" horiz-adv-x="441" 
d="M373 140h-97l-14 -86l24 -54h-217l40 54l14 86h-97l9 58h97l7 48h-97l9 57h94l2 10l-62 334l-34 53h214l-25 -54l11 -181l70 181l-10 54h213l-50 -53l-169 -334l-2 -10h95l-9 -57h-97l-7 -48h97z" />
    <glyph glyph-name="brokenbar" unicode="&#xa6;" horiz-adv-x="309" 
d="M225 405h-118v395h118v-395zM225 -145h-118v395h118v-395z" />
    <glyph glyph-name="section" unicode="&#xa7;" 
d="M296 543l3 20q1 5 1 9q0 23 -23 23h-19q-15 0 -23 -9t-10 -23l-1 -7q-1 -5 -1.5 -9t-0.5 -8q0 -23 25 -37l136 -80q33 -19 33 -61q0 -5 -0.5 -10.5t-1.5 -10.5l-17 -106q-5 -29 -15.5 -46.5t-36.5 -30.5l-13 -6l7 -4q33 -20 33 -60q0 -5 -0.5 -10.5t-1.5 -11.5l-17 -105
q-3 -17 -7.5 -30t-13 -22t-22.5 -13.5t-35 -4.5h-236q-58 0 -58 51q0 5 0.5 9.5t1.5 9.5l27 169l129 -77l-4 -25q-1 -4 -1 -9q0 -23 24 -23h27q14 0 21.5 8t10.5 22l2 9q1 5 1 8.5v7.5q0 14 -5 22t-19 16l-136 80q-17 10 -24.5 24.5t-7.5 34.5q0 5 0.5 11t1.5 12l16 106
q5 29 14.5 46.5t35.5 30.5l13 6l-7 5q-17 10 -24.5 25t-7.5 35q0 5 0.5 10.5t1.5 11.5l17 104q5 35 20 52.5t58 17.5h228q57 0 57 -49q0 -5 -0.5 -10.5t-1.5 -10.5l-26 -164zM216 376q-14 -8 -19.5 -18t-8.5 -29l-8 -48q-1 -5 -1 -9v-7q0 -14 5.5 -22t19.5 -16l22 -13
q13 8 19 18t9 29l7 48q1 5 1.5 9t0.5 8q0 23 -24 37z" />
    <glyph glyph-name="dieresis" unicode="&#xa8;" horiz-adv-x="309" 
d="M53 600l14 90h130l-14 -90h-130zM230 600l14 90h130l-14 -90h-130z" />
    <glyph glyph-name="copyright" unicode="&#xa9;" horiz-adv-x="647" 
d="M276 -13q-69 0 -118 20.5t-80 57t-45 86t-14 107.5q0 89 22 171t67.5 145t116 101t166.5 38q69 0 118 -20.5t80 -57t45 -86t14 -107.5q0 -89 -22 -171t-67.5 -145t-116 -101t-166.5 -38zM380 644q-73 0 -126 -33.5t-87 -87t-50.5 -121t-16.5 -134.5q0 -44 10 -83
t32 -67.5t57.5 -45t87.5 -16.5q73 0 126 33.5t87 87t50.5 120.5t16.5 135q0 44 -10 83t-32 67.5t-57.5 45t-87.5 16.5zM438 560q41 0 41 -35v-6.5t-1 -7.5l-16 -101l-100 -50l16 106q1 5 1 7q0 17 -17 17h-12q-10 0 -16 -6.5t-8 -16.5l-37 -232q-1 -4 -1 -7q0 -8 5 -13
t13 -5h12q10 0 15.5 6.5t7.5 16.5l12 71l101 51l-27 -166q-4 -24 -15 -36.5t-40 -12.5h-146q-41 0 -41 35q0 9 1 14l51 322q4 24 15 36.5t40 12.5h146z" />
    <glyph glyph-name="ordfeminine" unicode="&#xaa;" horiz-adv-x="298" 
d="M40 381q3 20 10.5 33t28.5 24l128 64l7 40q1 4 1 8q0 16 -16 16h-7q-19 0 -22 -22l-4 -22l-107 -54l19 123q4 24 15 36.5t40 12.5h153q40 0 40 -35v-6.5t-1 -7.5l-48 -304l15 -36h-227q-21 0 -30 9t-9 26v6.5t1 7.5zM13 209h259l-11 -69h-259zM180 325l13 85l-26 -12
q-15 -8 -21 -15.5t-8 -22.5q-1 -5 -1 -8v-5q0 -22 22 -22h21z" />
    <glyph glyph-name="guillemotleft" unicode="&#xab;" horiz-adv-x="416" 
d="M196 278l229 154l-83 -154l34 -155zM16 278l229 154l-83 -154l34 -155z" />
    <glyph glyph-name="logicalnot" unicode="&#xac;" 
d="M330 158v145h-298v95h396v-240h-98z" />
    <glyph glyph-name="uni00AD" unicode="&#xad;" horiz-adv-x="257" 
d="M20 238l20 125h206l-20 -125h-206z" />
    <glyph glyph-name="registered" unicode="&#xae;" horiz-adv-x="647" 
d="M276 -13q-69 0 -118 20.5t-80 57t-45 86t-14 107.5q0 89 22 171t67.5 145t116 101t166.5 38q69 0 118 -20.5t80 -57t45 -86t14 -107.5q0 -89 -22 -171t-67.5 -145t-116 -101t-166.5 -38zM380 644q-73 0 -126 -33.5t-87 -87t-50.5 -121t-16.5 -134.5q0 -44 10 -83
t32 -67.5t57.5 -45t87.5 -16.5q73 0 126 33.5t87 87t50.5 120.5t16.5 135q0 44 -10 83t-32 67.5t-57.5 45t-87.5 16.5zM377 458q1 5 1 9q0 23 -24 23h-22l-17 -105h22q14 0 23 9t11 23zM304 315l-22 -141l14 -34h-135l25 34l56 352l-15 34h215q40 0 40 -35v-6.5t-1 -7.5
l-21 -137q-4 -23 -12.5 -36.5t-26.5 -19.5l16 -145l20 -33h-137l19 34l-5 101q-1 19 -6 29.5t-20 10.5h-4z" />
    <glyph glyph-name="macron" unicode="&#xaf;" horiz-adv-x="309" 
d="M87 600l11 72h238l-11 -72h-238z" />
    <glyph glyph-name="degree" unicode="&#xb0;" horiz-adv-x="273" 
d="M67 557q0 24 9 45t24.5 36t36.5 23.5t45 8.5t45 -8.5t37 -23.5t25 -36t9 -45t-9 -44.5t-25 -35.5t-37 -23.5t-45 -8.5t-45 8.5t-36.5 23.5t-24.5 35.5t-9 44.5zM118 558q0 -28 18.5 -45t45.5 -17t46 17t19 45t-19 45.5t-46 17.5t-45.5 -17.5t-18.5 -45.5z" />
    <glyph glyph-name="plusminus" unicode="&#xb1;" 
d="M279 438h149v-95h-149v-133h149v-95h-396v95h149v133h-149v95h149v145h98v-145z" />
    <glyph glyph-name="uni00B2" unicode="&#xb2;" horiz-adv-x="301" 
d="M295 700q43 0 43 -37q0 -10 -1 -15l-22 -134q-4 -20 -12 -35t-27 -24l-109 -54q-14 -7 -19.5 -15t-8.5 -23l-9 -64h52l11 71l108 54l-31 -200h-255l28 182q3 20 11.5 34t28.5 24l107 54q15 8 20.5 15t8.5 23l7 43q1 4 1 8q0 18 -19 18h-3q-20 0 -23 -24l-8 -46l-110 -55
l24 148q4 26 15 39t43 13h149v0z" />
    <glyph glyph-name="uni00B3" unicode="&#xb3;" horiz-adv-x="301" 
d="M146 514h43q23 0 26 23l9 62q1 5 1 7q0 19 -19 19h-3q-12 0 -17 -6.5t-7 -17.5l-6 -34l-108 -54l21 135q4 26 15 39t43 13h145q44 0 44 -37q0 -10 -1 -15l-17 -110q-5 -29 -18.5 -43.5t-39.5 -18.5q22 -2 33 -13t11 -34v-7.5t-1 -8.5l-22 -137q-5 -26 -15.5 -39
t-42.5 -13h-152q-23 0 -33 9.5t-10 28.5v6.5t1 7.5l26 165l92 -54l-10 -64q-1 -5 -1 -8q0 -16 17 -16h7q23 0 26 24l13 89q1 5 1 8q0 18 -18 18h-45z" />
    <glyph glyph-name="acute" unicode="&#xb4;" horiz-adv-x="309" 
d="M198 600h-115l93 100h169z" />
    <glyph glyph-name="uni00B5" unicode="&#xb5;" horiz-adv-x="428" 
d="M162 149q-1 -4 -1 -11q0 -15 7.5 -24t24.5 -9h30l63 399l-22 51h177l-79 -504l21 -51h-244l-15 -94l22 -51h-205l37 51l94 598l-22 51h176l-64 -406v0z" />
    <glyph glyph-name="paragraph" unicode="&#xb6;" 
d="M363 -110h-125l110 694h-55l-110 -694h-126l41 54l48 306h-44q-35 0 -51 12.5t-16 39.5q0 5 0.5 10t1.5 11l48 304q3 19 8 33t14.5 23t25.5 13t40 4h318l-40 -54l-111 -702z" />
    <glyph glyph-name="periodcentered" unicode="&#xb7;" horiz-adv-x="218" 
d="M35 285l20 130h152l-20 -130h-152z" />
    <glyph glyph-name="cedilla" unicode="&#xb8;" horiz-adv-x="309" 
d="M177 -32q3 -12 3 -24q0 -45 -33.5 -67t-84.5 -22h-53l5 36q20 0 30.5 12.5t10.5 31.5q0 18 -7 33h129v0z" />
    <glyph glyph-name="uni00B9" unicode="&#xb9;" horiz-adv-x="167" 
d="M149 225h-147l28 37l63 395l-17 36l149 12l-28 -37l-64 -406z" />
    <glyph glyph-name="ordmasculine" unicode="&#xba;" horiz-adv-x="303" 
d="M76 591q4 24 14.5 36.5t39.5 12.5h159q21 0 30 -9t9 -26v-6.5t-1 -7.5l-46 -291q-4 -24 -14.5 -36.5t-39.5 -12.5h-159q-21 0 -30 9t-9 26v6.5t1 7.5zM16 209h251l-11 -69h-251zM217 542q1 4 1 7q0 17 -16 17h-9q-19 0 -22 -22l-32 -196q-1 -4 -1 -7q0 -16 17 -16h9
q19 0 22 22z" />
    <glyph glyph-name="guillemotright" unicode="&#xbb;" horiz-adv-x="416" 
d="M400 277l-229 -154l83 154l-34 155zM220 277l-229 -154l83 154l-34 155z" />
    <glyph glyph-name="onequarter" unicode="&#xbc;" horiz-adv-x="566" 
d="M511 700l-436 -700h-83l437 700h82zM149 225h-147l28 37l63 395l-17 36l149 12l-28 -37l-64 -406zM508 180l41 21l-19 -117l-33 21h-11l-11 -68l16 -37h-147l28 37l11 68h-166l187 334l-11 37h173l-27 -37l-42 -259h11zM347 180h47l24 140z" />
    <glyph glyph-name="onehalf" unicode="&#xbd;" horiz-adv-x="612" 
d="M511 700l-436 -700h-83l437 700h82zM149 225h-147l28 37l63 395l-17 36l149 12l-28 -37l-64 -406zM570 476q43 0 43 -37q0 -10 -1 -15l-22 -134q-4 -20 -12 -35t-27 -24l-109 -54q-14 -7 -19.5 -15t-8.5 -23l-9 -64h52l11 71l108 54l-31 -200h-255l28 182q3 20 11.5 34
t28.5 24l107 54q15 8 20.5 15t8.5 23l7 43q1 4 1 8q0 18 -19 18h-3q-20 0 -23 -24l-8 -46l-110 -55l24 148q4 26 15 39t43 13h149z" />
    <glyph glyph-name="threequarters" unicode="&#xbe;" horiz-adv-x="700" 
d="M645 700l-436 -700h-83l437 700h82zM642 180l41 21l-19 -117l-33 21h-11l-11 -68l16 -37h-147l28 37l11 68h-166l187 334l-11 37h173l-27 -37l-42 -259h11zM481 180h47l24 140zM146 514h43q23 0 26 23l9 62q1 5 1 7q0 19 -19 19h-3q-12 0 -17 -6.5t-7 -17.5l-6 -34
l-108 -54l21 135q4 26 15 39t43 13h145q44 0 44 -37q0 -10 -1 -15l-17 -110q-5 -29 -18.5 -43.5t-39.5 -18.5q22 -2 33 -13t11 -34v-7.5t-1 -8.5l-22 -137q-5 -26 -15.5 -39t-42.5 -13h-152q-23 0 -33 9.5t-10 28.5v6.5t1 7.5l26 165l92 -54l-10 -64q-1 -5 -1 -8
q0 -16 17 -16h7q23 0 26 24l13 89q1 5 1 8q0 18 -18 18h-45z" />
    <glyph glyph-name="questiondown" unicode="&#xbf;" horiz-adv-x="413" 
d="M29 -145q-34 0 -49 14t-15 41q0 5 0.5 10.5t1.5 11.5l30 190q5 30 18 51t41 35l98 48q20 10 29 21.5t12 34.5l9 62h144l-19 -120q-5 -30 -18.5 -51t-40.5 -35l-87 -43q-22 -11 -30 -22t-12 -34l-11 -69q-1 -4 -1 -11q0 -24 26 -24h10q15 0 24.5 9.5t12.5 25.5l13 81
l160 80l-37 -229q-3 -19 -7.5 -33.5t-14 -24t-25 -14.5t-39.5 -5h-223zM381 555l-20 -130h-154l20 130h154z" />
    <glyph glyph-name="Agrave" unicode="&#xc0;" horiz-adv-x="487" 
d="M430 56l28 -56h-232l38 56l4 65h-95l-18 -65l21 -56h-232l46 56l204 644h235zM203 238h70l16 321zM178 838h159l63 -100h-105z" />
    <glyph glyph-name="Aacute" unicode="&#xc1;" horiz-adv-x="487" 
d="M430 56l28 -56h-232l38 56l4 65h-95l-18 -65l21 -56h-232l46 56l204 644h235zM203 238h70l16 321zM343 738h-115l93 100h169z" />
    <glyph glyph-name="Acircumflex" unicode="&#xc2;" horiz-adv-x="487" 
d="M430 56l28 -56h-232l38 56l4 65h-95l-18 -65l21 -56h-232l46 56l204 644h235zM203 238h70l16 321zM326 783l-65 -45h-108l98 100h160l68 -100h-100z" />
    <glyph glyph-name="Atilde" unicode="&#xc3;" horiz-adv-x="487" 
d="M430 56l28 -56h-232l38 56l4 65h-95l-18 -65l21 -56h-232l46 56l204 644h235zM203 238h70l16 321zM275 843q23 0 36.5 -5.5t24 -11.5t20.5 -11.5t25 -5.5q20 0 27.5 11t8.5 18h42q-2 -19 -7 -37.5t-15 -33.5t-26 -24.5t-39 -9.5t-36.5 5.5t-24 11.5t-20.5 11.5t-25 5.5
q-20 0 -27.5 -11t-8.5 -18h-42q2 19 7 37.5t15 33.5t26 24.5t39 9.5z" />
    <glyph glyph-name="Adieresis" unicode="&#xc4;" horiz-adv-x="487" 
d="M430 56l28 -56h-232l38 56l4 65h-95l-18 -65l21 -56h-232l46 56l204 644h235zM203 238h70l16 321zM163 738l14 90h130l-14 -90h-130zM340 738l14 90h130l-14 -90h-130z" />
    <glyph glyph-name="Aring" unicode="&#xc5;" horiz-adv-x="487" 
d="M430 56l28 -56h-232l38 56l4 65h-95l-18 -65l21 -56h-232l46 56l204 644h235zM203 238h70l16 321zM327 828q-14 0 -24.5 -10.5t-10.5 -24.5q0 -11 8.5 -18t19.5 -7q14 0 25.5 9.5t11.5 23.5q0 12 -8 19.5t-22 7.5zM329 868q32 0 51.5 -18t19.5 -46q0 -32 -24 -54t-58 -22
q-29 0 -49 17.5t-20 44.5q0 33 23 55.5t57 22.5z" />
    <glyph glyph-name="AE" unicode="&#xc6;" horiz-adv-x="682" 
d="M256 56l11 65h-86l-24 -65l17 -56h-232l46 55l269 645h470l-27 -172l-105 56h-95l-28 -176h89l62 27l-27 -170l-53 27h-89l-28 -176h95l123 56l-27 -172h-401zM224 238h61l53 336z" />
    <glyph glyph-name="Ccedilla" unicode="&#xc7;" horiz-adv-x="467" 
d="M323 543q1 5 1 10q0 14 -6.5 22.5t-21.5 8.5h-19q-18 0 -28 -11t-12 -28l-62 -390q-1 -4 -1 -9q0 -13 7 -21.5t22 -8.5h19q17 0 27 11t13 28l20 128l169 84l-46 -285q-3 -20 -8.5 -35.5t-15 -26t-26 -15.5t-41.5 -5h-245q-68 0 -68 60q0 5 0.5 10.5t1.5 11.5l85 536
q3 20 8 35.5t15 26t26.5 15.5t41.5 5h245q68 0 68 -59q0 -5 -0.5 -11t-1.5 -12l-28 -177l-168 -84zM251 -32q3 -12 3 -24q0 -45 -33.5 -67t-84.5 -22h-53l5 36q20 0 30.5 12.5t10.5 31.5q0 18 -7 33h129z" />
    <glyph glyph-name="Egrave" unicode="&#xc8;" horiz-adv-x="433" 
d="M223 408h89l62 27l-27 -170l-53 27h-89l-28 -176h95l123 56l-27 -172h-401l40 56l93 588l-23 56h401l-27 -172l-105 56h-95zM162 838h159l63 -100h-105z" />
    <glyph glyph-name="Eacute" unicode="&#xc9;" horiz-adv-x="433" 
d="M223 408h89l62 27l-27 -170l-53 27h-89l-28 -176h95l123 56l-27 -172h-401l40 56l93 588l-23 56h401l-27 -172l-105 56h-95zM317 738h-115l93 100h169z" />
    <glyph glyph-name="Ecircumflex" unicode="&#xca;" horiz-adv-x="433" 
d="M223 408h89l62 27l-27 -170l-53 27h-89l-28 -176h95l123 56l-27 -172h-401l40 56l93 588l-23 56h401l-27 -172l-105 56h-95zM305 783l-65 -45h-108l98 100h160l68 -100h-100z" />
    <glyph glyph-name="Edieresis" unicode="&#xcb;" horiz-adv-x="433" 
d="M223 408h89l62 27l-27 -170l-53 27h-89l-28 -176h95l123 56l-27 -172h-401l40 56l93 588l-23 56h401l-27 -172l-105 56h-95zM142 738l14 90h130l-14 -90h-130zM319 738l14 90h130l-14 -90h-130z" />
    <glyph glyph-name="Igrave" unicode="&#xcc;" horiz-adv-x="244" 
d="M191 0h-224l40 56l93 588l-23 56h224l-41 -56l-93 -588zM58 838h159l63 -100h-105z" />
    <glyph glyph-name="Iacute" unicode="&#xcd;" horiz-adv-x="244" 
d="M191 0h-224l40 56l93 588l-23 56h224l-41 -56l-93 -588zM222 738h-115l93 100h169z" />
    <glyph glyph-name="Icircumflex" unicode="&#xce;" horiz-adv-x="244" 
d="M191 0h-224l40 56l93 588l-23 56h224l-41 -56l-93 -588zM206 783l-65 -45h-108l98 100h160l68 -100h-100z" />
    <glyph glyph-name="Idieresis" unicode="&#xcf;" horiz-adv-x="244" 
d="M47 738l15 90h130l-15 -90h-130zM214 738l15 90h130l-15 -90h-130zM191 0h-224l40 56l93 588l-23 56h224l-41 -56l-93 -588z" />
    <glyph glyph-name="Eth" unicode="&#xd0;" horiz-adv-x="479" 
d="M77 700h357q67 0 67 -59q0 -5 -0.5 -11t-1.5 -12l-85 -536q-3 -20 -8.5 -35.5t-15 -26t-25.5 -15.5t-41 -5h-357l40 56l37 236h-31l18 116h32l37 236zM326 531q1 5 1 11q0 18 -9.5 30t-29.5 12h-37l-28 -176h43l-18 -116h-43l-28 -176h37q24 0 37 15t17 38z" />
    <glyph glyph-name="Ntilde" unicode="&#xd1;" horiz-adv-x="494" 
d="M76 700h236l-23 -56l29 -295l46 295l-23 56h211l-41 -56l-101 -644h-154l-45 405l-56 -349l23 -56h-212l40 56l93 588zM278 843q23 0 36.5 -5.5t24 -11.5t20.5 -11.5t25 -5.5q20 0 27.5 11t8.5 18h42q-2 -19 -7 -37.5t-15 -33.5t-26 -24.5t-39 -9.5t-36.5 5.5t-24 11.5
t-20.5 11.5t-25 5.5q-20 0 -27.5 -11t-8.5 -18h-42q2 19 7 37.5t15 33.5t26 24.5t39 9.5z" />
    <glyph glyph-name="Ograve" unicode="&#xd2;" horiz-adv-x="475" 
d="M430 700q67 0 67 -59q0 -5 -0.5 -11t-1.5 -12l-85 -536q-3 -20 -8.5 -35.5t-15 -26t-25.5 -15.5t-41 -5h-251q-68 0 -68 60q0 5 0.5 10.5t1.5 11.5l85 536q3 20 8 35.5t15 26t26.5 15.5t41.5 5h251zM323 543q1 5 1 10q0 14 -6.5 22.5t-21.5 8.5h-19q-18 0 -28 -11
t-12 -28l-62 -390q-1 -3 -1 -9q0 -13 7 -21.5t22 -8.5h19q17 0 27 11t13 28zM172 838h159l63 -100h-105z" />
    <glyph glyph-name="Oacute" unicode="&#xd3;" horiz-adv-x="475" 
d="M430 700q67 0 67 -59q0 -5 -0.5 -11t-1.5 -12l-85 -536q-3 -20 -8.5 -35.5t-15 -26t-25.5 -15.5t-41 -5h-251q-68 0 -68 60q0 5 0.5 10.5t1.5 11.5l85 536q3 20 8 35.5t15 26t26.5 15.5t41.5 5h251zM323 543q1 5 1 10q0 14 -6.5 22.5t-21.5 8.5h-19q-18 0 -28 -11
t-12 -28l-62 -390q-1 -3 -1 -9q0 -13 7 -21.5t22 -8.5h19q17 0 27 11t13 28zM337 738h-115l93 100h169z" />
    <glyph glyph-name="Ocircumflex" unicode="&#xd4;" horiz-adv-x="475" 
d="M430 700q67 0 67 -59q0 -5 -0.5 -11t-1.5 -12l-85 -536q-3 -20 -8.5 -35.5t-15 -26t-25.5 -15.5t-41 -5h-251q-68 0 -68 60q0 5 0.5 10.5t1.5 11.5l85 536q3 20 8 35.5t15 26t26.5 15.5t41.5 5h251zM323 543q1 5 1 10q0 14 -6.5 22.5t-21.5 8.5h-19q-18 0 -28 -11
t-12 -28l-62 -390q-1 -3 -1 -9q0 -13 7 -21.5t22 -8.5h19q17 0 27 11t13 28zM320 783l-65 -45h-108l98 100h160l68 -100h-100z" />
    <glyph glyph-name="Otilde" unicode="&#xd5;" horiz-adv-x="475" 
d="M430 700q67 0 67 -59q0 -5 -0.5 -11t-1.5 -12l-85 -536q-3 -20 -8.5 -35.5t-15 -26t-25.5 -15.5t-41 -5h-251q-68 0 -68 60q0 5 0.5 10.5t1.5 11.5l85 536q3 20 8 35.5t15 26t26.5 15.5t41.5 5h251zM323 543q1 5 1 10q0 14 -6.5 22.5t-21.5 8.5h-19q-18 0 -28 -11
t-12 -28l-62 -390q-1 -3 -1 -9q0 -13 7 -21.5t22 -8.5h19q17 0 27 11t13 28zM269 843q23 0 36.5 -5.5t24 -11.5t20.5 -11.5t25 -5.5q20 0 27.5 11t8.5 18h42q-2 -19 -7 -37.5t-15 -33.5t-26 -24.5t-39 -9.5t-36.5 5.5t-24 11.5t-20.5 11.5t-25 5.5q-20 0 -27.5 -11t-8.5 -18
h-42q2 19 7 37.5t15 33.5t26 24.5t39 9.5z" />
    <glyph glyph-name="Odieresis" unicode="&#xd6;" horiz-adv-x="475" 
d="M430 700q67 0 67 -59q0 -5 -0.5 -11t-1.5 -12l-85 -536q-3 -20 -8.5 -35.5t-15 -26t-25.5 -15.5t-41 -5h-251q-68 0 -68 60q0 5 0.5 10.5t1.5 11.5l85 536q3 20 8 35.5t15 26t26.5 15.5t41.5 5h251zM323 543q1 5 1 10q0 14 -6.5 22.5t-21.5 8.5h-19q-18 0 -28 -11
t-12 -28l-62 -390q-1 -3 -1 -9q0 -13 7 -21.5t22 -8.5h19q17 0 27 11t13 28zM157 738l14 90h130l-14 -90h-130zM334 738l14 90h130l-14 -90h-130z" />
    <glyph glyph-name="multiply" unicode="&#xd7;" 
d="M230 283l-113 -113l-68 67l113 113l-113 114l68 67l113 -113l113 113l68 -67l-114 -114l114 -113l-68 -67z" />
    <glyph glyph-name="Oslash" unicode="&#xd8;" horiz-adv-x="475" 
d="M351 700l25 50h140l-34 -67q15 -15 15 -42q0 -5 -0.5 -11t-1.5 -12l-85 -536q-3 -20 -8.5 -35.5t-15 -26t-25.5 -15.5t-41 -5h-171l-25 -50h-141l33 66q-15 15 -15 44q0 5 0.5 10.5t1.5 11.5l85 536q3 20 8 35.5t15 26t26.5 15.5t41.5 5h172zM209 370l104 209q-7 5 -17 5
h-19q-18 0 -28 -11t-12 -28zM289 329l-103 -209q4 -2 8 -3t9 -1h19q17 0 27 11t13 28z" />
    <glyph glyph-name="Ugrave" unicode="&#xd9;" horiz-adv-x="477" 
d="M407 82q-3 -20 -8 -35.5t-15 -26t-26.5 -15.5t-41.5 -5h-241q-68 0 -68 60q0 5 0.5 10.5t1.5 11.5l89 562l-23 56h224l-41 -56l-77 -489q-1 -3 -1 -9q0 -13 7 -21.5t22 -8.5h15q17 0 27 11t13 28l77 489l-23 56h219l-41 -56zM173 838h159l63 -100h-105z" />
    <glyph glyph-name="Uacute" unicode="&#xda;" horiz-adv-x="477" 
d="M407 82q-3 -20 -8 -35.5t-15 -26t-26.5 -15.5t-41.5 -5h-241q-68 0 -68 60q0 5 0.5 10.5t1.5 11.5l89 562l-23 56h224l-41 -56l-77 -489q-1 -3 -1 -9q0 -13 7 -21.5t22 -8.5h15q17 0 27 11t13 28l77 489l-23 56h219l-41 -56zM338 738h-115l93 100h169z" />
    <glyph glyph-name="Ucircumflex" unicode="&#xdb;" horiz-adv-x="477" 
d="M407 82q-3 -20 -8 -35.5t-15 -26t-26.5 -15.5t-41.5 -5h-241q-68 0 -68 60q0 5 0.5 10.5t1.5 11.5l89 562l-23 56h224l-41 -56l-77 -489q-1 -3 -1 -9q0 -13 7 -21.5t22 -8.5h15q17 0 27 11t13 28l77 489l-23 56h219l-41 -56zM321 783l-65 -45h-108l98 100h160l68 -100
h-100z" />
    <glyph glyph-name="Udieresis" unicode="&#xdc;" horiz-adv-x="477" 
d="M407 82q-3 -20 -8 -35.5t-15 -26t-26.5 -15.5t-41.5 -5h-241q-68 0 -68 60q0 5 0.5 10.5t1.5 11.5l89 562l-23 56h224l-41 -56l-77 -489q-1 -3 -1 -9q0 -13 7 -21.5t22 -8.5h15q17 0 27 11t13 28l77 489l-23 56h219l-41 -56zM158 738l14 90h130l-14 -90h-130zM335 738
l14 90h130l-14 -90h-130z" />
    <glyph glyph-name="Yacute" unicode="&#xdd;" horiz-adv-x="467" 
d="M118 56l39 245l-71 344l-34 55h224l-30 -56l18 -175l73 175l-10 56h222l-48 -55l-185 -349l-38 -240l24 -56h-223zM333 738h-115l93 100h169z" />
    <glyph glyph-name="Thorn" unicode="&#xde;" horiz-adv-x="461" 
d="M77 700h224l-41 -56l-2 -16h162q67 0 67 -59q0 -5 -0.5 -11t-1.5 -12l-40 -252q-3 -20 -8.5 -35.5t-15.5 -26t-26 -15.5t-41 -5h-162l-25 -156l24 -56h-224l40 56l93 588zM311 459q1 3 1 6.5v6.5q0 17 -9 28.5t-29 11.5h-34l-30 -184h34q23 0 37 15t18 38z" />
    <glyph glyph-name="germandbls" unicode="&#xdf;" horiz-adv-x="420" 
d="M220 368l17 106h9q15 0 23 9t10 23l10 69q1 5 1 9q0 21 -26 21h-4q-30 0 -34 -28l-83 -526l22 -51h-206l38 51l92 581q3 21 8.5 35.5t16 24t28 14t44.5 4.5h182q74 0 74 -58v-10t-1 -10l-20 -123q-8 -42 -25 -62.5t-55 -25.5q32 -2 49.5 -17t17.5 -47q0 -5 -0.5 -11
t-1.5 -13l-41 -263q-5 -35 -20 -52.5t-58 -17.5h-114l16 105h6q15 0 23 9t10 23l32 199q1 5 1 8q0 24 -24 24h-17z" />
    <glyph glyph-name="agrave" unicode="&#xe0;" horiz-adv-x="415" 
d="M9 192q5 29 16 48t40 34l187 93l8 51q1 4 1 8q0 24 -24 24h-10q-16 0 -23 -9t-10 -23l-5 -26l-152 -76l27 169q3 17 7 30t12 22t22 13.5t37 4.5h218q58 0 58 -49q0 -5 -0.5 -10.5t-1.5 -10.5l-68 -434l22 -51h-323q-58 0 -58 49q0 5 0.5 10t1.5 11zM210 105l19 119
l-38 -19q-11 -5 -17.5 -10t-11 -10.5t-7.5 -13.5t-5 -19q-1 -5 -1.5 -8.5t-0.5 -6.5q0 -14 7.5 -23t24.5 -9h30zM124 700h159l63 -100h-105z" />
    <glyph glyph-name="aacute" unicode="&#xe1;" horiz-adv-x="415" 
d="M9 192q5 29 16 48t40 34l187 93l8 51q1 4 1 8q0 24 -24 24h-10q-16 0 -23 -9t-10 -23l-5 -26l-152 -76l27 169q3 17 7 30t12 22t22 13.5t37 4.5h218q58 0 58 -49q0 -5 -0.5 -10.5t-1.5 -10.5l-68 -434l22 -51h-323q-58 0 -58 49q0 5 0.5 10t1.5 11zM210 105l19 119
l-38 -19q-11 -5 -17.5 -10t-11 -10.5t-7.5 -13.5t-5 -19q-1 -5 -1.5 -8.5t-0.5 -6.5q0 -14 7.5 -23t24.5 -9h30zM289 600h-115l93 100h169z" />
    <glyph glyph-name="acircumflex" unicode="&#xe2;" horiz-adv-x="415" 
d="M9 192q5 29 16 48t40 34l187 93l8 51q1 4 1 8q0 24 -24 24h-10q-16 0 -23 -9t-10 -23l-5 -26l-152 -76l27 169q3 17 7 30t12 22t22 13.5t37 4.5h218q58 0 58 -49q0 -5 -0.5 -10.5t-1.5 -10.5l-68 -434l22 -51h-323q-58 0 -58 49q0 5 0.5 10t1.5 11zM210 105l19 119
l-38 -19q-11 -5 -17.5 -10t-11 -10.5t-7.5 -13.5t-5 -19q-1 -5 -1.5 -8.5t-0.5 -6.5q0 -14 7.5 -23t24.5 -9h30zM272 645l-65 -45h-108l98 100h160l68 -100h-100z" />
    <glyph glyph-name="atilde" unicode="&#xe3;" horiz-adv-x="415" 
d="M9 192q5 29 16 48t40 34l187 93l8 51q1 4 1 8q0 24 -24 24h-10q-16 0 -23 -9t-10 -23l-5 -26l-152 -76l27 169q3 17 7 30t12 22t22 13.5t37 4.5h218q58 0 58 -49q0 -5 -0.5 -10.5t-1.5 -10.5l-68 -434l22 -51h-323q-58 0 -58 49q0 5 0.5 10t1.5 11zM210 105l19 119
l-38 -19q-11 -5 -17.5 -10t-11 -10.5t-7.5 -13.5t-5 -19q-1 -5 -1.5 -8.5t-0.5 -6.5q0 -14 7.5 -23t24.5 -9h30zM221 705q23 0 36.5 -5.5t24 -11.5t20.5 -11.5t25 -5.5q20 0 27.5 11t8.5 18h42q-2 -19 -7 -37.5t-15 -33.5t-26 -24.5t-39 -9.5t-36.5 5.5t-24 11.5t-20.5 11.5
t-25 5.5q-20 0 -27.5 -11t-8.5 -18h-42q2 19 7 37.5t15 33.5t26 24.5t39 9.5z" />
    <glyph glyph-name="adieresis" unicode="&#xe4;" horiz-adv-x="415" 
d="M9 192q5 29 16 48t40 34l187 93l8 51q1 4 1 8q0 24 -24 24h-10q-16 0 -23 -9t-10 -23l-5 -26l-152 -76l27 169q3 17 7 30t12 22t22 13.5t37 4.5h218q58 0 58 -49q0 -5 -0.5 -10.5t-1.5 -10.5l-68 -434l22 -51h-323q-58 0 -58 49q0 5 0.5 10t1.5 11zM210 105l19 119
l-38 -19q-11 -5 -17.5 -10t-11 -10.5t-7.5 -13.5t-5 -19q-1 -5 -1.5 -8.5t-0.5 -6.5q0 -14 7.5 -23t24.5 -9h30zM109 600l14 90h130l-14 -90h-130zM286 600l14 90h130l-14 -90h-130z" />
    <glyph glyph-name="aring" unicode="&#xe5;" horiz-adv-x="415" 
d="M9 192q5 29 16 48t40 34l187 93l8 51q1 4 1 8q0 24 -24 24h-10q-16 0 -23 -9t-10 -23l-5 -26l-152 -76l27 169q3 17 7 30t12 22t22 13.5t37 4.5h218q58 0 58 -49q0 -5 -0.5 -10.5t-1.5 -10.5l-68 -434l22 -51h-323q-58 0 -58 49q0 5 0.5 10t1.5 11zM210 105l19 119
l-38 -19q-11 -5 -17.5 -10t-11 -10.5t-7.5 -13.5t-5 -19q-1 -5 -1.5 -8.5t-0.5 -6.5q0 -14 7.5 -23t24.5 -9h30zM273 690q-14 0 -24.5 -10.5t-10.5 -24.5q0 -11 8.5 -18t19.5 -7q14 0 25.5 9.5t11.5 23.5q0 12 -8 19.5t-22 7.5zM275 730q32 0 51.5 -18t19.5 -46
q0 -32 -24 -54t-58 -22q-29 0 -49 17.5t-20 44.5q0 33 23 55.5t57 22.5z" />
    <glyph glyph-name="ae" unicode="&#xe6;" horiz-adv-x="621" 
d="M440 176l153 76l-28 -182q-5 -35 -19.5 -52.5t-58.5 -17.5h-440q-58 0 -58 49q0 5 0.5 10t1.5 11l18 122q8 57 56 82l187 93l8 50q1 5 1 9q0 24 -24 24h-10q-16 0 -23 -9t-10 -23l-5 -26l-152 -76l27 169q3 17 7 30t12 22t22 13.5t37 4.5h432q58 0 58 -49
q0 -5 -0.5 -10.5t-1.5 -10.5l-27 -169l-232 -117l-10 -62q-1 -5 -1 -9q0 -23 24 -23h17q15 0 23 9t10 23zM210 105l19 119l-38 -19q-21 -11 -29 -21t-13 -33q-1 -5 -1 -8v-6q0 -14 7.5 -23t24.5 -9h30zM393 338l51 27q13 7 19.5 14.5t8.5 21.5l2 16q1 5 1 9q0 24 -24 24h-12
q-15 0 -23 -9t-10 -23z" />
    <glyph glyph-name="ccedilla" unicode="&#xe7;" horiz-adv-x="404" 
d="M263 418q1 5 1 8q0 24 -24 24h-12q-15 0 -23 -9t-10 -23l-45 -281q-1 -3 -1 -9q0 -23 24 -23h12q15 0 23 9t10 23l14 86l152 76l-36 -229q-5 -35 -20 -52.5t-58 -17.5h-220q-58 0 -58 49q0 5 0.5 10t1.5 11l65 415q3 17 7 30t12 22t22 13.5t37 4.5h220q58 0 58 -50
q0 -5 -0.5 -10t-1.5 -10l-19 -122l-152 -76zM218 -32q3 -12 3 -24q0 -45 -33.5 -67t-84.5 -22h-53l5 36q20 0 30.5 12.5t10.5 31.5q0 18 -7 33h129z" />
    <glyph glyph-name="egrave" unicode="&#xe8;" horiz-adv-x="410" 
d="M392 316l-232 -117l-10 -62q-1 -3 -1 -9q0 -23 24 -23h17q15 0 23 9t10 23l6 39l153 76l-28 -182q-5 -35 -19.5 -52.5t-58.5 -17.5h-226q-58 0 -58 49q0 5 0.5 10t1.5 11l65 415q3 17 7 30t12 22t22 13.5t37 4.5h226q58 0 58 -49q0 -5 -0.5 -10.5t-1.5 -10.5zM182 338
l51 27q13 7 19.5 14.5t8.5 21.5l2 17q1 5 1 8q0 24 -24 24h-12q-15 0 -23 -9t-10 -23zM118 700h159l63 -100h-105z" />
    <glyph glyph-name="eacute" unicode="&#xe9;" horiz-adv-x="410" 
d="M392 316l-232 -117l-10 -62q-1 -3 -1 -9q0 -23 24 -23h17q15 0 23 9t10 23l6 39l153 76l-28 -182q-5 -35 -19.5 -52.5t-58.5 -17.5h-226q-58 0 -58 49q0 5 0.5 10t1.5 11l65 415q3 17 7 30t12 22t22 13.5t37 4.5h226q58 0 58 -49q0 -5 -0.5 -10.5t-1.5 -10.5zM182 338
l51 27q13 7 19.5 14.5t8.5 21.5l2 17q1 5 1 8q0 24 -24 24h-12q-15 0 -23 -9t-10 -23zM283 600h-115l93 100h169z" />
    <glyph glyph-name="ecircumflex" unicode="&#xea;" horiz-adv-x="410" 
d="M392 316l-232 -117l-10 -62q-1 -3 -1 -9q0 -23 24 -23h17q15 0 23 9t10 23l6 39l153 76l-28 -182q-5 -35 -19.5 -52.5t-58.5 -17.5h-226q-58 0 -58 49q0 5 0.5 10t1.5 11l65 415q3 17 7 30t12 22t22 13.5t37 4.5h226q58 0 58 -49q0 -5 -0.5 -10.5t-1.5 -10.5zM182 338
l51 27q13 7 19.5 14.5t8.5 21.5l2 17q1 5 1 8q0 24 -24 24h-12q-15 0 -23 -9t-10 -23zM267 645l-65 -45h-108l98 100h160l68 -100h-100z" />
    <glyph glyph-name="edieresis" unicode="&#xeb;" horiz-adv-x="410" 
d="M392 316l-232 -117l-10 -62q-1 -3 -1 -9q0 -23 24 -23h17q15 0 23 9t10 23l6 39l153 76l-28 -182q-5 -35 -19.5 -52.5t-58.5 -17.5h-226q-58 0 -58 49q0 5 0.5 10t1.5 11l65 415q3 17 7 30t12 22t22 13.5t37 4.5h226q58 0 58 -49q0 -5 -0.5 -10.5t-1.5 -10.5zM182 338
l51 27q13 7 19.5 14.5t8.5 21.5l2 17q1 5 1 8q0 24 -24 24h-12q-15 0 -23 -9t-10 -23zM103 600l14 90h130l-14 -90h-130zM280 600l14 90h130l-14 -90h-130z" />
    <glyph glyph-name="igrave" unicode="&#xec;" horiz-adv-x="216" 
d="M22 700h159l63 -100h-105zM169 0h-206l38 51l71 453l-22 51h176l-79 -504z" />
    <glyph glyph-name="iacute" unicode="&#xed;" horiz-adv-x="216" 
d="M187 600h-115l93 100h169zM169 0h-206l38 51l71 453l-22 51h176l-79 -504z" />
    <glyph glyph-name="icircumflex" unicode="&#xee;" horiz-adv-x="216" 
d="M169 0h-206l38 51l71 453l-22 51h176l-79 -504zM170 645l-65 -45h-108l98 100h160l68 -100h-100z" />
    <glyph glyph-name="idieresis" unicode="&#xef;" horiz-adv-x="216" 
d="M12 600l14 90h130l-14 -90h-130zM179 600l14 90h130l-14 -90h-130zM169 0h-206l38 51l71 453l-22 51h176l-79 -504z" />
    <glyph glyph-name="eth" unicode="&#xf0;" horiz-adv-x="412" 
d="M113 623l80 21l-57 66h155l29 -33l100 26l-8 -50l-57 -15l33 -37q19 -21 27 -40t8 -41q0 -7 -0.5 -13t-1.5 -14l-67 -423q-5 -35 -19.5 -52.5t-58.5 -17.5h-226q-58 0 -58 49q0 5 0.5 10t1.5 11l65 415q3 17 7 30t12 22t22 13.5t37 4.5h134l-44 50l-122 -32zM150 137
q-1 -3 -1 -9q0 -23 24 -23h12q15 0 23 9t10 23l50 313h-30q-20 0 -31 -12t-14 -32z" />
    <glyph glyph-name="ntilde" unicode="&#xf1;" horiz-adv-x="424" 
d="M369 555q58 0 58 -49q0 -5 -0.5 -10.5t-1.5 -10.5l-68 -434l22 -51h-206l38 51l56 355q1 4 1 12q0 14 -7.5 23t-24.5 9h-28l-63 -399l22 -51h-206l38 51l71 453l-22 51h321zM222 705q23 0 36.5 -5.5t24 -11.5t20.5 -11.5t25 -5.5q20 0 27.5 11t8.5 18h42q-2 -19 -7 -37.5
t-15 -33.5t-26 -24.5t-39 -9.5t-36.5 5.5t-24 11.5t-20.5 11.5t-25 5.5q-20 0 -27.5 -11t-8.5 -18h-42q2 19 7 37.5t15 33.5t26 24.5t39 9.5z" />
    <glyph glyph-name="ograve" unicode="&#xf2;" horiz-adv-x="412" 
d="M59 485q3 17 7 30t12.5 22t22 13.5t36.5 4.5h226q58 0 58 -49q0 -5 -0.5 -10.5t-1.5 -10.5l-65 -415q-5 -35 -19.5 -52.5t-58.5 -17.5h-226q-58 0 -58 49q0 5 0.5 10t1.5 11zM263 418q1 5 1 8q0 24 -24 24h-12q-15 0 -23 -9t-10 -23l-45 -281q-1 -3 -1 -9q0 -23 24 -23
h12q15 0 23 9t10 23zM119 700h159l63 -100h-105z" />
    <glyph glyph-name="oacute" unicode="&#xf3;" horiz-adv-x="412" 
d="M59 485q3 17 7 30t12.5 22t22 13.5t36.5 4.5h226q58 0 58 -49q0 -5 -0.5 -10.5t-1.5 -10.5l-65 -415q-5 -35 -19.5 -52.5t-58.5 -17.5h-226q-58 0 -58 49q0 5 0.5 10t1.5 11zM263 418q1 5 1 8q0 24 -24 24h-12q-15 0 -23 -9t-10 -23l-45 -281q-1 -3 -1 -9q0 -23 24 -23
h12q15 0 23 9t10 23zM284 600h-115l93 100h169z" />
    <glyph glyph-name="ocircumflex" unicode="&#xf4;" horiz-adv-x="412" 
d="M59 485q3 17 7 30t12.5 22t22 13.5t36.5 4.5h226q58 0 58 -49q0 -5 -0.5 -10.5t-1.5 -10.5l-65 -415q-5 -35 -19.5 -52.5t-58.5 -17.5h-226q-58 0 -58 49q0 5 0.5 10t1.5 11zM263 418q1 5 1 8q0 24 -24 24h-12q-15 0 -23 -9t-10 -23l-45 -281q-1 -3 -1 -9q0 -23 24 -23
h12q15 0 23 9t10 23zM268 645l-65 -45h-108l98 100h160l68 -100h-100z" />
    <glyph glyph-name="otilde" unicode="&#xf5;" horiz-adv-x="412" 
d="M59 485q3 17 7 30t12.5 22t22 13.5t36.5 4.5h226q58 0 58 -49q0 -5 -0.5 -10.5t-1.5 -10.5l-65 -415q-5 -35 -19.5 -52.5t-58.5 -17.5h-226q-58 0 -58 49q0 5 0.5 10t1.5 11zM263 418q1 5 1 8q0 24 -24 24h-12q-15 0 -23 -9t-10 -23l-45 -281q-1 -3 -1 -9q0 -23 24 -23
h12q15 0 23 9t10 23zM216 705q23 0 36.5 -5.5t24 -11.5t20.5 -11.5t25 -5.5q20 0 27.5 11t8.5 18h42q-2 -19 -7 -37.5t-15 -33.5t-26 -24.5t-39 -9.5t-36.5 5.5t-24 11.5t-20.5 11.5t-25 5.5q-20 0 -27.5 -11t-8.5 -18h-42q2 19 7 37.5t15 33.5t26 24.5t39 9.5z" />
    <glyph glyph-name="odieresis" unicode="&#xf6;" horiz-adv-x="412" 
d="M59 485q3 17 7 30t12.5 22t22 13.5t36.5 4.5h226q58 0 58 -49q0 -5 -0.5 -10.5t-1.5 -10.5l-65 -415q-5 -35 -19.5 -52.5t-58.5 -17.5h-226q-58 0 -58 49q0 5 0.5 10t1.5 11zM263 418q1 5 1 8q0 24 -24 24h-12q-15 0 -23 -9t-10 -23l-45 -281q-1 -3 -1 -9q0 -23 24 -23
h12q15 0 23 9t10 23zM104 600l14 90h130l-14 -90h-130zM281 600l14 90h130l-14 -90h-130z" />
    <glyph glyph-name="divide" unicode="&#xf7;" 
d="M32 303v95h396v-95h-396zM166 444v115h126v-115h-126zM166 140v116h126v-116h-126z" />
    <glyph glyph-name="oslash" unicode="&#xf8;" horiz-adv-x="412" 
d="M59 485q3 17 7 30t12.5 22t22 13.5t36.5 4.5h137l25 50h139l-31 -63q14 -12 14 -36q0 -5 -0.5 -10.5t-1.5 -10.5l-65 -415q-5 -35 -19.5 -52.5t-58.5 -17.5h-137l-24 -50h-140l31 62q-14 12 -14 37q0 5 0.5 10t1.5 11zM175 294l77 154q-6 2 -12 2h-12q-15 0 -23 -9
t-10 -23zM237 259l-76 -152q3 -2 12 -2h12q15 0 23 9t10 23z" />
    <glyph glyph-name="ugrave" unicode="&#xf9;" horiz-adv-x="424" 
d="M56 0q-58 0 -58 49q0 5 0.5 10t1.5 11l68 434l-22 51h176l-64 -406q-1 -4 -1 -11q0 -15 7.5 -24t24.5 -9h30l63 399l-22 51h176l-79 -504l22 -51h-323zM125 700h159l63 -100h-105z" />
    <glyph glyph-name="uacute" unicode="&#xfa;" horiz-adv-x="424" 
d="M56 0q-58 0 -58 49q0 5 0.5 10t1.5 11l68 434l-22 51h176l-64 -406q-1 -4 -1 -11q0 -15 7.5 -24t24.5 -9h30l63 399l-22 51h176l-79 -504l22 -51h-323zM290 600h-115l93 100h169z" />
    <glyph glyph-name="ucircumflex" unicode="&#xfb;" horiz-adv-x="424" 
d="M56 0q-58 0 -58 49q0 5 0.5 10t1.5 11l68 434l-22 51h176l-64 -406q-1 -4 -1 -11q0 -15 7.5 -24t24.5 -9h30l63 399l-22 51h176l-79 -504l22 -51h-323zM274 645l-65 -45h-108l98 100h160l68 -100h-100z" />
    <glyph glyph-name="udieresis" unicode="&#xfc;" horiz-adv-x="424" 
d="M56 0q-58 0 -58 49q0 5 0.5 10t1.5 11l68 434l-22 51h176l-64 -406q-1 -4 -1 -11q0 -15 7.5 -24t24.5 -9h30l63 399l-22 51h176l-79 -504l22 -51h-323zM110 600l14 90h130l-14 -90h-130zM287 600l14 90h130l-14 -90h-130z" />
    <glyph glyph-name="yacute" unicode="&#xfd;" horiz-adv-x="424" 
d="M253 -67q-7 -21 -14.5 -35.5t-19 -24t-29 -14t-44.5 -4.5h-186l21 134l46 -29h8q17 0 24 11.5t7 28.5l-6 504l-28 51h214l-33 -52l-28 -396l99 396l-16 52h213l-44 -51zM290 600h-115l93 100h169z" />
    <glyph glyph-name="thorn" unicode="&#xfe;" horiz-adv-x="418" 
d="M224 555h145q58 0 58 -49q0 -5 -0.5 -10.5t-1.5 -10.5l-65 -415q-5 -35 -19.5 -52.5t-58.5 -17.5h-145l-15 -94l22 -51h-205l37 51l113 713l-22 51l182 40zM267 406q1 4 1 12q0 14 -7.5 23t-24.5 9h-28l-55 -345h28q20 0 31 12t14 32z" />
    <glyph glyph-name="ydieresis" unicode="&#xff;" horiz-adv-x="424" 
d="M253 -67q-7 -21 -14.5 -35.5t-19 -24t-29 -14t-44.5 -4.5h-186l21 134l46 -29h8q17 0 24 11.5t7 28.5l-6 504l-28 51h214l-33 -52l-28 -396l99 396l-16 52h213l-44 -51zM110 600l14 90h130l-14 -90h-130zM287 600l14 90h130l-14 -90h-130z" />
    <glyph glyph-name="Amacron" unicode="&#x100;" horiz-adv-x="487" 
d="M430 56l28 -56h-232l38 56l4 65h-95l-18 -65l21 -56h-232l46 56l204 644h235zM203 238h70l16 321zM197 738l11 72h238l-11 -72h-238z" />
    <glyph glyph-name="amacron" unicode="&#x101;" horiz-adv-x="415" 
d="M9 192q5 29 16 48t40 34l187 93l8 51q1 4 1 8q0 24 -24 24h-10q-16 0 -23 -9t-10 -23l-5 -26l-152 -76l27 169q3 17 7 30t12 22t22 13.5t37 4.5h218q58 0 58 -49q0 -5 -0.5 -10.5t-1.5 -10.5l-68 -434l22 -51h-323q-58 0 -58 49q0 5 0.5 10t1.5 11zM210 105l19 119
l-38 -19q-11 -5 -17.5 -10t-11 -10.5t-7.5 -13.5t-5 -19q-1 -5 -1.5 -8.5t-0.5 -6.5q0 -14 7.5 -23t24.5 -9h30zM143 600l11 72h238l-11 -72h-238z" />
    <glyph glyph-name="Abreve" unicode="&#x102;" horiz-adv-x="487" 
d="M430 56l28 -56h-232l38 56l4 65h-95l-18 -65l21 -56h-232l46 56l204 644h235zM203 238h70l16 321zM326 804q26 0 45.5 10t25.5 24h81q-7 -19 -17.5 -37.5t-28.5 -33.5t-45.5 -24t-67.5 -9q-36 0 -61 9t-41 24t-23.5 33.5t-8.5 37.5h81q7 -15 21 -24.5t39 -9.5z" />
    <glyph glyph-name="abreve" unicode="&#x103;" horiz-adv-x="415" 
d="M9 192q5 29 16 48t40 34l187 93l8 51q1 4 1 8q0 24 -24 24h-10q-16 0 -23 -9t-10 -23l-5 -26l-152 -76l27 169q3 17 7 30t12 22t22 13.5t37 4.5h218q58 0 58 -49q0 -5 -0.5 -10.5t-1.5 -10.5l-68 -434l22 -51h-323q-58 0 -58 49q0 5 0.5 10t1.5 11zM210 105l19 119
l-38 -19q-11 -5 -17.5 -10t-11 -10.5t-7.5 -13.5t-5 -19q-1 -5 -1.5 -8.5t-0.5 -6.5q0 -14 7.5 -23t24.5 -9h30zM272 666q26 0 45.5 10t25.5 24h81q-7 -19 -17.5 -37.5t-28.5 -33.5t-45.5 -24t-67.5 -9q-36 0 -61 9t-41 24t-23.5 33.5t-8.5 37.5h81q7 -15 21 -24.5t39 -9.5z
" />
    <glyph glyph-name="Aogonek" unicode="&#x104;" horiz-adv-x="487" 
d="M430 56l28 -56h-79q-25 -11 -33.5 -22.5t-8.5 -19.5q0 -9 9.5 -13.5t25.5 -4.5h56l-13 -85h-77q-50 0 -72 12.5t-22 38.5q0 33 25 56t55 38h-98l38 56l4 65h-95l-18 -65l21 -56h-232l46 56l204 644h235zM203 238h70l16 321z" />
    <glyph glyph-name="aogonek" unicode="&#x105;" horiz-adv-x="415" 
d="M9 192q5 29 16 48t40 34l187 93l8 51q1 4 1 8q0 24 -24 24h-10q-16 0 -23 -9t-10 -23l-5 -26l-152 -76l27 169q3 17 7 30t12 22t22 13.5t37 4.5h218q58 0 58 -49q0 -5 -0.5 -10.5t-1.5 -10.5l-68 -434l22 -51h-79q-25 -11 -33.5 -22.5t-8.5 -19.5q0 -9 9.5 -13.5
t25.5 -4.5h56l-13 -85h-77q-50 0 -72 12.5t-22 38.5q0 33 25 56t55 38h-189q-58 0 -58 49q0 5 0.5 10t1.5 11zM210 105l19 119l-38 -19q-11 -5 -17.5 -10t-11 -10.5t-7.5 -13.5t-5 -19q-1 -5 -1.5 -8.5t-0.5 -6.5q0 -14 7.5 -23t24.5 -9h30z" />
    <glyph glyph-name="Cacute" unicode="&#x106;" horiz-adv-x="467" 
d="M323 543q1 5 1 10q0 14 -6.5 22.5t-21.5 8.5h-19q-18 0 -28 -11t-12 -28l-62 -390q-1 -4 -1 -9q0 -13 7 -21.5t22 -8.5h19q17 0 27 11t13 28l20 128l169 84l-46 -285q-3 -20 -8.5 -35.5t-15 -26t-26 -15.5t-41.5 -5h-245q-68 0 -68 60q0 5 0.5 10.5t1.5 11.5l85 536
q3 20 8 35.5t15 26t26.5 15.5t41.5 5h245q68 0 68 -59q0 -5 -0.5 -11t-1.5 -12l-28 -177l-168 -84zM338 738h-115l93 100h169z" />
    <glyph glyph-name="cacute" unicode="&#x107;" horiz-adv-x="404" 
d="M263 418q1 5 1 8q0 24 -24 24h-12q-15 0 -23 -9t-10 -23l-45 -281q-1 -3 -1 -9q0 -23 24 -23h12q15 0 23 9t10 23l14 86l152 76l-36 -229q-5 -35 -20 -52.5t-58 -17.5h-220q-58 0 -58 49q0 5 0.5 10t1.5 11l65 415q3 17 7 30t12 22t22 13.5t37 4.5h220q58 0 58 -50
q0 -5 -0.5 -10t-1.5 -10l-19 -122l-152 -76zM275 600h-115l93 100h169z" />
    <glyph glyph-name="Ccircumflex" unicode="&#x108;" horiz-adv-x="467" 
d="M323 543q1 5 1 10q0 14 -6.5 22.5t-21.5 8.5h-19q-18 0 -28 -11t-12 -28l-62 -390q-1 -4 -1 -9q0 -13 7 -21.5t22 -8.5h19q17 0 27 11t13 28l20 128l169 84l-46 -285q-3 -20 -8.5 -35.5t-15 -26t-26 -15.5t-41.5 -5h-245q-68 0 -68 60q0 5 0.5 10.5t1.5 11.5l85 536
q3 20 8 35.5t15 26t26.5 15.5t41.5 5h245q68 0 68 -59q0 -5 -0.5 -11t-1.5 -12l-28 -177l-168 -84zM320 783l-65 -45h-108l98 100h160l68 -100h-100z" />
    <glyph glyph-name="ccircumflex" unicode="&#x109;" horiz-adv-x="404" 
d="M263 418q1 5 1 8q0 24 -24 24h-12q-15 0 -23 -9t-10 -23l-45 -281q-1 -3 -1 -9q0 -23 24 -23h12q15 0 23 9t10 23l14 86l152 76l-36 -229q-5 -35 -20 -52.5t-58 -17.5h-220q-58 0 -58 49q0 5 0.5 10t1.5 11l65 415q3 17 7 30t12 22t22 13.5t37 4.5h220q58 0 58 -50
q0 -5 -0.5 -10t-1.5 -10l-19 -122l-152 -76zM264 645l-65 -45h-108l98 100h160l68 -100h-100z" />
    <glyph glyph-name="Cdotaccent" unicode="&#x10a;" horiz-adv-x="467" 
d="M323 543q1 5 1 10q0 14 -6.5 22.5t-21.5 8.5h-19q-18 0 -28 -11t-12 -28l-62 -390q-1 -4 -1 -9q0 -13 7 -21.5t22 -8.5h19q17 0 27 11t13 28l20 128l169 84l-46 -285q-3 -20 -8.5 -35.5t-15 -26t-26 -15.5t-41.5 -5h-245q-68 0 -68 60q0 5 0.5 10.5t1.5 11.5l85 536
q3 20 8 35.5t15 26t26.5 15.5t41.5 5h245q68 0 68 -59q0 -5 -0.5 -11t-1.5 -12l-28 -177l-168 -84zM246 738l14 90h129l-14 -90h-129z" />
    <glyph glyph-name="cdotaccent" unicode="&#x10b;" horiz-adv-x="404" 
d="M263 418q1 5 1 8q0 24 -24 24h-12q-15 0 -23 -9t-10 -23l-45 -281q-1 -3 -1 -9q0 -23 24 -23h12q15 0 23 9t10 23l14 86l152 76l-36 -229q-5 -35 -20 -52.5t-58 -17.5h-220q-58 0 -58 49q0 5 0.5 10t1.5 11l65 415q3 17 7 30t12 22t22 13.5t37 4.5h220q58 0 58 -50
q0 -5 -0.5 -10t-1.5 -10l-19 -122l-152 -76zM189 600l14 90h129l-14 -90h-129z" />
    <glyph glyph-name="Ccaron" unicode="&#x10c;" horiz-adv-x="467" 
d="M323 543q1 5 1 10q0 14 -6.5 22.5t-21.5 8.5h-19q-18 0 -28 -11t-12 -28l-62 -390q-1 -4 -1 -9q0 -13 7 -21.5t22 -8.5h19q17 0 27 11t13 28l20 128l169 84l-46 -285q-3 -20 -8.5 -35.5t-15 -26t-26 -15.5t-41.5 -5h-245q-68 0 -68 60q0 5 0.5 10.5t1.5 11.5l85 536
q3 20 8 35.5t15 26t26.5 15.5t41.5 5h245q68 0 68 -59q0 -5 -0.5 -11t-1.5 -12l-28 -177l-168 -84zM381 838h108l-98 -100h-160l-68 100h100l51 -45z" />
    <glyph glyph-name="ccaron" unicode="&#x10d;" horiz-adv-x="404" 
d="M263 418q1 5 1 8q0 24 -24 24h-12q-15 0 -23 -9t-10 -23l-45 -281q-1 -3 -1 -9q0 -23 24 -23h12q15 0 23 9t10 23l14 86l152 76l-36 -229q-5 -35 -20 -52.5t-58 -17.5h-220q-58 0 -58 49q0 5 0.5 10t1.5 11l65 415q3 17 7 30t12 22t22 13.5t37 4.5h220q58 0 58 -50
q0 -5 -0.5 -10t-1.5 -10l-19 -122l-152 -76zM324 700h108l-98 -100h-160l-68 100h100l51 -45z" />
    <glyph glyph-name="Dcaron" unicode="&#x10e;" horiz-adv-x="479" 
d="M77 700h357q67 0 67 -59q0 -5 -0.5 -11t-1.5 -12l-85 -536q-3 -20 -8.5 -35.5t-15 -26t-25.5 -15.5t-41 -5h-357l40 56l93 588zM326 531q1 5 1 11q0 18 -9.5 30t-29.5 12h-37l-74 -468h37q24 0 37 15t17 38zM382 838h108l-98 -100h-160l-68 100h100l51 -45z" />
    <glyph glyph-name="dcaron" unicode="&#x10f;" horiz-adv-x="601" 
d="M59 485q3 17 7 30t12.5 22t22 13.5t36.5 4.5h145l11 64l-22 51l182 40l-104 -659l22 -51h-321q-58 0 -58 49q0 5 0.5 10t1.5 11zM152 149q-1 -4 -1 -12q0 -14 7.5 -23t24.5 -9h28l55 345h-28q-20 0 -31 -12t-14 -32zM630 570q-4 -26 -18 -52t-36.5 -46.5t-53 -33.5
t-67.5 -13l8 55q32 4 52 24.5t28 65.5h-65l20 130h152z" />
    <glyph glyph-name="Dcroat" unicode="&#x110;" horiz-adv-x="479" 
d="M77 700h357q67 0 67 -59q0 -5 -0.5 -11t-1.5 -12l-85 -536q-3 -20 -8.5 -35.5t-15 -26t-25.5 -15.5t-41 -5h-357l40 56l37 236h-31l18 116h32l37 236zM326 531q1 5 1 11q0 18 -9.5 30t-29.5 12h-37l-28 -176h43l-18 -116h-43l-28 -176h37q24 0 37 15t17 38z" />
    <glyph glyph-name="dcroat" unicode="&#x111;" horiz-adv-x="418" 
d="M59 485q3 17 7 30t12.5 22t22 13.5t36.5 4.5h145l6 34h-110l7 45h101l-15 36l182 40l-12 -76h30l-7 -45h-30l-85 -538l22 -51h-321q-58 0 -58 49q0 5 0.5 10t1.5 11zM152 149q-1 -4 -1 -12q0 -14 7.5 -23t24.5 -9h28l55 345h-28q-20 0 -31 -12t-14 -32z" />
    <glyph glyph-name="Emacron" unicode="&#x112;" horiz-adv-x="433" 
d="M223 408h89l62 27l-27 -170l-53 27h-89l-28 -176h95l123 56l-27 -172h-401l40 56l93 588l-23 56h401l-27 -172l-105 56h-95zM176 738l11 72h238l-11 -72h-238z" />
    <glyph glyph-name="emacron" unicode="&#x113;" horiz-adv-x="410" 
d="M392 316l-232 -117l-10 -62q-1 -3 -1 -9q0 -23 24 -23h17q15 0 23 9t10 23l6 39l153 76l-28 -182q-5 -35 -19.5 -52.5t-58.5 -17.5h-226q-58 0 -58 49q0 5 0.5 10t1.5 11l65 415q3 17 7 30t12 22t22 13.5t37 4.5h226q58 0 58 -49q0 -5 -0.5 -10.5t-1.5 -10.5zM182 338
l51 27q13 7 19.5 14.5t8.5 21.5l2 17q1 5 1 8q0 24 -24 24h-12q-15 0 -23 -9t-10 -23zM138 600l11 72h238l-11 -72h-238z" />
    <glyph glyph-name="Ebreve" unicode="&#x114;" horiz-adv-x="433" 
d="M223 408h89l62 27l-27 -170l-53 27h-89l-28 -176h95l123 56l-27 -172h-401l40 56l93 588l-23 56h401l-27 -172l-105 56h-95zM305 804q26 0 45.5 10t25.5 24h81q-7 -19 -17.5 -37.5t-28.5 -33.5t-45.5 -24t-67.5 -9q-36 0 -61 9t-41 24t-23.5 33.5t-8.5 37.5h81
q7 -15 21 -24.5t39 -9.5z" />
    <glyph glyph-name="ebreve" unicode="&#x115;" horiz-adv-x="410" 
d="M392 316l-232 -117l-10 -62q-1 -3 -1 -9q0 -23 24 -23h17q15 0 23 9t10 23l6 39l153 76l-28 -182q-5 -35 -19.5 -52.5t-58.5 -17.5h-226q-58 0 -58 49q0 5 0.5 10t1.5 11l65 415q3 17 7 30t12 22t22 13.5t37 4.5h226q58 0 58 -49q0 -5 -0.5 -10.5t-1.5 -10.5zM182 338
l51 27q13 7 19.5 14.5t8.5 21.5l2 17q1 5 1 8q0 24 -24 24h-12q-15 0 -23 -9t-10 -23zM266 666q26 0 45.5 10t25.5 24h81q-7 -19 -17.5 -37.5t-28.5 -33.5t-45.5 -24t-67.5 -9q-36 0 -61 9t-41 24t-23.5 33.5t-8.5 37.5h81q7 -15 21 -24.5t39 -9.5z" />
    <glyph glyph-name="Edotaccent" unicode="&#x116;" horiz-adv-x="433" 
d="M223 408h89l62 27l-27 -170l-53 27h-89l-28 -176h95l123 56l-27 -172h-401l40 56l93 588l-23 56h401l-27 -172l-105 56h-95zM231 738l14 90h129l-14 -90h-129z" />
    <glyph glyph-name="edotaccent" unicode="&#x117;" horiz-adv-x="410" 
d="M392 316l-232 -117l-10 -62q-1 -3 -1 -9q0 -23 24 -23h17q15 0 23 9t10 23l6 39l153 76l-28 -182q-5 -35 -19.5 -52.5t-58.5 -17.5h-226q-58 0 -58 49q0 5 0.5 10t1.5 11l65 415q3 17 7 30t12 22t22 13.5t37 4.5h226q58 0 58 -49q0 -5 -0.5 -10.5t-1.5 -10.5zM182 338
l51 27q13 7 19.5 14.5t8.5 21.5l2 17q1 5 1 8q0 24 -24 24h-12q-15 0 -23 -9t-10 -23zM192 600l14 90h129l-14 -90h-129z" />
    <glyph glyph-name="Eogonek" unicode="&#x118;" horiz-adv-x="433" 
d="M223 408h89l62 27l-27 -170l-53 27h-89l-28 -176h95l123 56l-27 -172h-59q-25 -11 -33.5 -22.5t-8.5 -19.5q0 -9 9.5 -13.5t25.5 -4.5h56l-13 -85h-77q-50 0 -72 12.5t-22 38.5q0 33 25 56t55 38h-287l40 56l93 588l-23 56h401l-27 -172l-105 56h-95z" />
    <glyph glyph-name="eogonek" unicode="&#x119;" horiz-adv-x="410" 
d="M392 316l-232 -117l-10 -62q-1 -3 -1 -9q0 -23 24 -23h17q15 0 23 9t10 23l6 39l153 76l-28 -182q-5 -35 -19.5 -52.5t-58.5 -17.5h-22q-25 -11 -33.5 -22.5t-8.5 -19.5q0 -9 9.5 -13.5t25.5 -4.5h56l-13 -85h-77q-50 0 -72 12.5t-22 38.5q0 33 25 56t55 38h-149
q-58 0 -58 49q0 5 0.5 10t1.5 11l65 415q3 17 7 30t12 22t22 13.5t37 4.5h226q58 0 58 -49q0 -5 -0.5 -10.5t-1.5 -10.5zM182 338l51 27q13 7 19.5 14.5t8.5 21.5l2 17q1 5 1 8q0 24 -24 24h-12q-15 0 -23 -9t-10 -23z" />
    <glyph glyph-name="Ecaron" unicode="&#x11a;" horiz-adv-x="433" 
d="M223 408h89l62 27l-27 -170l-53 27h-89l-28 -176h95l123 56l-27 -172h-401l40 56l93 588l-23 56h401l-27 -172l-105 56h-95zM366 838h108l-98 -100h-160l-68 100h100l51 -45z" />
    <glyph glyph-name="ecaron" unicode="&#x11b;" horiz-adv-x="410" 
d="M392 316l-232 -117l-10 -62q-1 -3 -1 -9q0 -23 24 -23h17q15 0 23 9t10 23l6 39l153 76l-28 -182q-5 -35 -19.5 -52.5t-58.5 -17.5h-226q-58 0 -58 49q0 5 0.5 10t1.5 11l65 415q3 17 7 30t12 22t22 13.5t37 4.5h226q58 0 58 -49q0 -5 -0.5 -10.5t-1.5 -10.5zM182 338
l51 27q13 7 19.5 14.5t8.5 21.5l2 17q1 5 1 8q0 24 -24 24h-12q-15 0 -23 -9t-10 -23zM327 700h108l-98 -100h-160l-68 100h100l51 -45z" />
    <glyph glyph-name="Gcircumflex" unicode="&#x11c;" horiz-adv-x="478" 
d="M328 542q1 5 1 7v4q0 14 -6.5 22.5t-21.5 8.5h-24q-18 0 -28 -11t-12 -28l-62 -389q-1 -4 -1 -10q0 -13 7 -21.5t22 -8.5h19q17 0 27 11t13 28l22 139l-23 56h225l-42 -56l-34 -212q-3 -20 -8.5 -35.5t-15 -26t-25.5 -15.5t-41 -5h-251q-68 0 -68 60q0 5 0.5 10.5
t1.5 11.5l85 536q3 20 8 35.5t15 26t26.5 15.5t41.5 5h251q67 0 67 -59q0 -5 -0.5 -11t-1.5 -12l-37 -238l-142 84zM322 783l-65 -45h-108l98 100h160l68 -100h-100z" />
    <glyph glyph-name="gcircumflex" unicode="&#x11d;" horiz-adv-x="414" 
d="M330 -67q-3 -21 -9 -35.5t-16.5 -24t-27.5 -14t-44 -4.5h-265l21 134l61 -29h108q31 0 35 28l3 22h-145q-31 0 -44.5 12.5t-13.5 37.5q0 5 0.5 10t1.5 10l64 405q3 17 7 30t12 22t22 13.5t37 4.5h321l-38 -51zM238 450q-20 0 -31 -12t-14 -32l-39 -247q-1 -4 -1 -12
q0 -14 7.5 -23t24.5 -9h28l53 335h-28zM277 645l-65 -45h-108l98 100h160l68 -100h-100z" />
    <glyph glyph-name="Gbreve" unicode="&#x11e;" horiz-adv-x="478" 
d="M328 542q1 5 1 7v4q0 14 -6.5 22.5t-21.5 8.5h-24q-18 0 -28 -11t-12 -28l-62 -389q-1 -4 -1 -10q0 -13 7 -21.5t22 -8.5h19q17 0 27 11t13 28l22 139l-23 56h225l-42 -56l-34 -212q-3 -20 -8.5 -35.5t-15 -26t-25.5 -15.5t-41 -5h-251q-68 0 -68 60q0 5 0.5 10.5
t1.5 11.5l85 536q3 20 8 35.5t15 26t26.5 15.5t41.5 5h251q67 0 67 -59q0 -5 -0.5 -11t-1.5 -12l-37 -238l-142 84zM322 804q26 0 45.5 10t25.5 24h81q-7 -19 -17.5 -37.5t-28.5 -33.5t-45.5 -24t-67.5 -9q-36 0 -61 9t-41 24t-23.5 33.5t-8.5 37.5h81q7 -15 21 -24.5
t39 -9.5z" />
    <glyph glyph-name="gbreve" unicode="&#x11f;" horiz-adv-x="414" 
d="M330 -67q-3 -21 -9 -35.5t-16.5 -24t-27.5 -14t-44 -4.5h-265l21 134l61 -29h108q31 0 35 28l3 22h-145q-31 0 -44.5 12.5t-13.5 37.5q0 5 0.5 10t1.5 10l64 405q3 17 7 30t12 22t22 13.5t37 4.5h321l-38 -51zM238 450q-20 0 -31 -12t-14 -32l-39 -247q-1 -4 -1 -12
q0 -14 7.5 -23t24.5 -9h28l53 335h-28zM276 666q26 0 45.5 10t25.5 24h81q-7 -19 -17.5 -37.5t-28.5 -33.5t-45.5 -24t-67.5 -9q-36 0 -61 9t-41 24t-23.5 33.5t-8.5 37.5h81q7 -15 21 -24.5t39 -9.5z" />
    <glyph glyph-name="Gdotaccent" unicode="&#x120;" horiz-adv-x="478" 
d="M328 542q1 5 1 7v4q0 14 -6.5 22.5t-21.5 8.5h-24q-18 0 -28 -11t-12 -28l-62 -389q-1 -4 -1 -10q0 -13 7 -21.5t22 -8.5h19q17 0 27 11t13 28l22 139l-23 56h225l-42 -56l-34 -212q-3 -20 -8.5 -35.5t-15 -26t-25.5 -15.5t-41 -5h-251q-68 0 -68 60q0 5 0.5 10.5
t1.5 11.5l85 536q3 20 8 35.5t15 26t26.5 15.5t41.5 5h251q67 0 67 -59q0 -5 -0.5 -11t-1.5 -12l-37 -238l-142 84zM248 738l14 90h129l-14 -90h-129z" />
    <glyph glyph-name="gdotaccent" unicode="&#x121;" horiz-adv-x="414" 
d="M330 -67q-3 -21 -9 -35.5t-16.5 -24t-27.5 -14t-44 -4.5h-265l21 134l61 -29h108q31 0 35 28l3 22h-145q-31 0 -44.5 12.5t-13.5 37.5q0 5 0.5 10t1.5 10l64 405q3 17 7 30t12 22t22 13.5t37 4.5h321l-38 -51zM238 450q-20 0 -31 -12t-14 -32l-39 -247q-1 -4 -1 -12
q0 -14 7.5 -23t24.5 -9h28l53 335h-28zM202 600l14 90h129l-14 -90h-129z" />
    <glyph glyph-name="Gcommaaccent" unicode="&#x122;" horiz-adv-x="478" 
d="M328 542q1 5 1 7v4q0 14 -6.5 22.5t-21.5 8.5h-24q-18 0 -28 -11t-12 -28l-62 -389q-1 -4 -1 -10q0 -13 7 -21.5t22 -8.5h19q17 0 27 11t13 28l22 139l-23 56h225l-42 -56l-34 -212q-3 -20 -8.5 -35.5t-15 -26t-25.5 -15.5t-41 -5h-251q-68 0 -68 60q0 5 0.5 10.5
t1.5 11.5l85 536q3 20 8 35.5t15 26t26.5 15.5t41.5 5h251q67 0 67 -59q0 -5 -0.5 -11t-1.5 -12l-37 -238l-142 84zM256 -71q-6 -37 -38 -55.5t-79 -18.5h-53l3 23q29 0 38.5 6.5t12.5 22.5h-34l9 61h147z" />
    <glyph glyph-name="gcommaaccent" unicode="&#x123;" horiz-adv-x="414" 
d="M199 639q5 37 37.5 55.5t79.5 18.5h53l-3 -23q-29 0 -38.5 -6.5t-12.5 -22.5h34l-9 -61h-147zM330 -67q-3 -21 -9 -35.5t-16.5 -24t-27.5 -14t-44 -4.5h-265l21 134l61 -29h108q31 0 35 28l3 22h-145q-31 0 -44.5 12.5t-13.5 37.5q0 5 0.5 10t1.5 10l64 405q3 17 7 30
t12 22t22 13.5t37 4.5h321l-38 -51zM238 450q-20 0 -31 -12t-14 -32l-39 -247q-1 -4 -1 -12q0 -14 7.5 -23t24.5 -9h28l53 335h-28z" />
    <glyph glyph-name="Hcircumflex" unicode="&#x124;" horiz-adv-x="488" 
d="M435 0h-224l40 56l38 235h-84l-38 -235l24 -56h-224l40 56l93 588l-23 56h224l-41 -56l-37 -237h84l37 237l-23 56h224l-41 -56l-93 -588zM327 783l-65 -45h-108l98 100h160l68 -100h-100z" />
    <glyph glyph-name="hcircumflex" unicode="&#x125;" horiz-adv-x="426" 
d="M226 555h146q57 0 57 -49q0 -5 -0.5 -10.5t-1.5 -10.5l-68 -434l22 -51h-206l38 51l56 355q1 5 1 12q0 14 -7.5 23t-24.5 9h-28l-63 -399l22 -51h-206l38 51l90 568l-22 51l182 40zM195 783l-65 -45h-108l98 100h160l68 -100h-100z" />
    <glyph glyph-name="Hbar" unicode="&#x126;" horiz-adv-x="488" 
d="M435 0h-224l40 56l38 235h-84l-38 -235l24 -56h-224l40 56l70 447h-31l12 72h31l11 69l-23 56h224l-41 -56l-11 -69h84l11 69l-23 56h224l-41 -56l-11 -69h33l-12 -72h-33l-70 -447zM307 407l15 96h-84l-15 -96h84z" />
    <glyph glyph-name="hbar" unicode="&#x127;" horiz-adv-x="426" 
d="M239 634h110l-7 -45h-111l-5 -34h146q57 0 57 -49q0 -5 -0.5 -10.5t-1.5 -10.5l-68 -434l22 -51h-206l38 51l56 355q1 5 1 12q0 14 -7.5 23t-24.5 9h-28l-63 -399l22 -51h-206l38 51l85 538h-30l7 45h21l-15 36l182 40z" />
    <glyph glyph-name="Itilde" unicode="&#x128;" horiz-adv-x="244" 
d="M191 0h-224l40 56l93 588l-23 56h224l-41 -56l-93 -588zM155 843q23 0 36.5 -5.5t24 -11.5t20.5 -11.5t25 -5.5q20 0 27.5 11t8.5 18h42q-2 -19 -7 -37.5t-15 -33.5t-26 -24.5t-39 -9.5t-36.5 5.5t-24 11.5t-20.5 11.5t-25 5.5q-20 0 -27.5 -11t-8.5 -18h-42q2 19 7 37.5
t15 33.5t26 24.5t39 9.5z" />
    <glyph glyph-name="itilde" unicode="&#x129;" horiz-adv-x="216" 
d="M119 705q23 0 36.5 -5.5t24 -11.5t20.5 -11.5t25 -5.5q20 0 27.5 11t8.5 18h42q-2 -19 -7 -37.5t-15 -33.5t-26 -24.5t-39 -9.5t-36.5 5.5t-24 11.5t-20.5 11.5t-25 5.5q-20 0 -27.5 -11t-8.5 -18h-42q2 19 7 37.5t15 33.5t26 24.5t39 9.5zM169 0h-206l38 51l71 453
l-22 51h176l-79 -504z" />
    <glyph glyph-name="Imacron" unicode="&#x12a;" horiz-adv-x="244" 
d="M191 0h-224l40 56l93 588l-23 56h224l-41 -56l-93 -588zM77 738l11 72h238l-11 -72h-238z" />
    <glyph glyph-name="imacron" unicode="&#x12b;" horiz-adv-x="216" 
d="M41 600l11 72h238l-11 -72h-238zM169 0h-206l38 51l71 453l-22 51h176l-79 -504z" />
    <glyph glyph-name="Ibreve" unicode="&#x12c;" horiz-adv-x="244" 
d="M191 0h-224l40 56l93 588l-23 56h224l-41 -56l-93 -588zM206 804q26 0 45.5 10t25.5 24h81q-7 -19 -17.5 -37.5t-28.5 -33.5t-45.5 -24t-67.5 -9q-36 0 -61 9t-41 24t-23.5 33.5t-8.5 37.5h81q7 -15 21 -24.5t39 -9.5z" />
    <glyph glyph-name="ibreve" unicode="&#x12d;" horiz-adv-x="216" 
d="M170 666q26 0 45.5 10t25.5 24h81q-7 -19 -17.5 -37.5t-28.5 -33.5t-45.5 -24t-67.5 -9q-36 0 -61 9t-41 24t-23.5 33.5t-8.5 37.5h81q7 -15 21 -24.5t39 -9.5zM169 0h-206l38 51l71 453l-22 51h176l-79 -504z" />
    <glyph glyph-name="Iogonek" unicode="&#x12e;" horiz-adv-x="244" 
d="M191 0h-86q-25 -11 -33.5 -22.5t-8.5 -19.5q0 -9 9.5 -13.5t25.5 -4.5h56l-13 -85h-77q-50 0 -72 12.5t-22 38.5q0 33 25 56t55 38h-83l40 56l93 588l-23 56h224l-41 -56l-93 -588z" />
    <glyph glyph-name="iogonek" unicode="&#x12f;" horiz-adv-x="216" 
d="M169 0h-73q-25 -11 -33.5 -22.5t-8.5 -19.5q0 -9 9.5 -13.5t25.5 -4.5h56l-13 -85h-77q-50 0 -72 12.5t-22 38.5q0 33 25 56t55 38h-78l38 51l71 453l-22 51h176l-79 -504zM87 597l16 103h146l-16 -103h-146z" />
    <glyph glyph-name="Idotaccent" unicode="&#x130;" horiz-adv-x="244" 
d="M191 0h-224l40 56l93 588l-23 56h224l-41 -56l-93 -588zM132 738l14 90h129l-14 -90h-129z" />
    <glyph glyph-name="dotlessi" unicode="&#x131;" horiz-adv-x="216" 
d="M169 0h-206l38 51l71 453l-22 51h176l-79 -504z" />
    <glyph glyph-name="Jcircumflex" unicode="&#x134;" horiz-adv-x="449" 
d="M153 155q-1 -3 -1 -9q0 -13 7 -21.5t22 -8.5h9q17 0 27 11t13 28l77 489l-23 56h225l-42 -56l-89 -562q-3 -20 -8.5 -35.5t-15 -26t-25.5 -15.5t-41 -5h-235q-36 0 -52 15t-16 45q0 5 0.5 10.5t1.5 11.5l46 285l140 -84zM414 783l-65 -45h-108l98 100h160l68 -100h-100z
" />
    <glyph glyph-name="jcircumflex" unicode="&#x135;" horiz-adv-x="214" 
d="M70 504l-22 51h176l-98 -622q-5 -28 -15 -43.5t-27 -23t-42 -9.5t-59 -2h-90l21 134l43 -29q15 0 22 6t9 20zM169 645l-65 -45h-108l98 100h160l68 -100h-100z" />
    <glyph glyph-name="Kcommaaccent" unicode="&#x136;" horiz-adv-x="500" 
d="M191 0h-224l40 56l93 588l-23 56h224l-41 -56l-32 -204l115 204l4 56h227l-60 -59l-163 -228l81 -358l40 -55h-234l21 56l-27 191l-45 -63l-20 -128zM274 -71q-6 -37 -38 -55.5t-79 -18.5h-53l3 23q29 0 38.5 6.5t12.5 22.5h-34l9 61h147z" />
    <glyph glyph-name="kcommaaccent" unicode="&#x137;" horiz-adv-x="500" 
d="M195 355l82 149l4 51h217l-59 -50l-135 -182l75 -273l40 -50h-215l17 51l-25 150l-33 -46l-16 -104l22 -51h-206l38 51l90 568l-22 51l182 40zM237 -71q-6 -37 -38 -55.5t-79 -18.5h-53l3 23q29 0 38.5 6.5t12.5 22.5h-34l9 61h147z" />
    <glyph glyph-name="kgreenlandic" unicode="&#x138;" horiz-adv-x="445" 
d="M219 51l-25 150l-33 -46l-16 -104l22 -51h-206l38 51l71 453l-22 51h176l-32 -201l83 150l4 51h217l-59 -50l-135 -182l75 -273l40 -50h-215z" />
    <glyph glyph-name="Lacute" unicode="&#x139;" horiz-adv-x="396" 
d="M7 56l93 588l-23 56h225l-42 -56l-83 -528h74l123 56l-27 -172h-380zM225 738h-115l93 100h169z" />
    <glyph glyph-name="lacute" unicode="&#x13a;" horiz-adv-x="214" 
d="M147 51l22 -51h-206l38 51l90 568l-22 51l182 40zM211 738h-115l93 100h169z" />
    <glyph glyph-name="Lcommaaccent" unicode="&#x13b;" horiz-adv-x="396" 
d="M7 56l93 588l-23 56h225l-42 -56l-83 -528h74l123 56l-27 -172h-380zM227 -71q-6 -37 -38 -55.5t-79 -18.5h-53l3 23q29 0 38.5 6.5t12.5 22.5h-34l9 61h147z" />
    <glyph glyph-name="lcommaaccent" unicode="&#x13c;" horiz-adv-x="214" 
d="M147 51l22 -51h-206l38 51l90 568l-22 51l182 40zM128 -71q-6 -37 -38 -55.5t-79 -18.5h-53l3 23q29 0 38.5 6.5t12.5 22.5h-34l9 61h147z" />
    <glyph glyph-name="Lcaron" unicode="&#x13d;" horiz-adv-x="408" 
d="M7 56l93 588l-23 56h225l-42 -56l-83 -528h74l123 56l-27 -172h-380zM447 570q-4 -26 -18 -52t-36.5 -46.5t-53 -33.5t-67.5 -13l8 55q32 4 52 24.5t28 65.5h-65l20 130h152z" />
    <glyph glyph-name="lcaron" unicode="&#x13e;" horiz-adv-x="399" 
d="M147 51l22 -51h-206l38 51l90 568l-22 51l182 40zM428 570q-4 -26 -18 -52t-36.5 -46.5t-53 -33.5t-67.5 -13l8 55q32 4 52 24.5t28 65.5h-65l20 130h152z" />
    <glyph glyph-name="Ldot" unicode="&#x13f;" horiz-adv-x="398" 
d="M245 305l20 130h142l-20 -130h-142zM7 56l93 588l-23 56h225l-42 -56l-83 -528h74l123 56l-27 -172h-380z" />
    <glyph glyph-name="ldot" unicode="&#x140;" horiz-adv-x="372" 
d="M224 285l20 130h142l-20 -130h-142zM147 51l22 -51h-206l38 51l90 568l-22 51l182 40z" />
    <glyph glyph-name="Lslash" unicode="&#x141;" horiz-adv-x="396" 
d="M7 56l19 122l-34 -20l22 140l34 20l52 326l-23 56h225l-42 -56l-35 -222l129 76l-22 -140l-129 -76l-26 -166h74l123 56l-27 -172h-380z" />
    <glyph glyph-name="lslash" unicode="&#x142;" horiz-adv-x="224" 
d="M222 497l34 20l-22 -141l-34 -20l-48 -305l22 -51h-206l38 51l33 210l-39 -23l22 141l40 23l34 217l-22 51l182 40z" />
    <glyph glyph-name="Nacute" unicode="&#x143;" horiz-adv-x="494" 
d="M76 700h236l-23 -56l29 -295l46 295l-23 56h211l-41 -56l-101 -644h-154l-45 405l-56 -349l23 -56h-212l40 56l93 588zM346 738h-115l93 100h169z" />
    <glyph glyph-name="nacute" unicode="&#x144;" horiz-adv-x="424" 
d="M369 555q58 0 58 -49q0 -5 -0.5 -10.5t-1.5 -10.5l-68 -434l22 -51h-206l38 51l56 355q1 4 1 12q0 14 -7.5 23t-24.5 9h-28l-63 -399l22 -51h-206l38 51l71 453l-22 51h321zM290 600h-115l93 100h169z" />
    <glyph glyph-name="Ncommaaccent" unicode="&#x145;" horiz-adv-x="494" 
d="M76 700h236l-23 -56l29 -295l46 295l-23 56h211l-41 -56l-101 -644h-154l-45 405l-56 -349l23 -56h-212l40 56l93 588zM268 -71q-6 -37 -38 -55.5t-79 -18.5h-53l3 23q29 0 38.5 6.5t12.5 22.5h-34l9 61h147z" />
    <glyph glyph-name="ncommaaccent" unicode="&#x146;" horiz-adv-x="424" 
d="M369 555q58 0 58 -49q0 -5 -0.5 -10.5t-1.5 -10.5l-68 -434l22 -51h-206l38 51l56 355q1 4 1 12q0 14 -7.5 23t-24.5 9h-28l-63 -399l22 -51h-206l38 51l71 453l-22 51h321zM230 -71q-6 -37 -38 -55.5t-79 -18.5h-53l3 23q29 0 38.5 6.5t12.5 22.5h-34l9 61h147z" />
    <glyph glyph-name="Ncaron" unicode="&#x147;" horiz-adv-x="494" 
d="M76 700h236l-23 -56l29 -295l46 295l-23 56h211l-41 -56l-101 -644h-154l-45 405l-56 -349l23 -56h-212l40 56l93 588zM390 838h108l-98 -100h-160l-68 100h100l51 -45z" />
    <glyph glyph-name="ncaron" unicode="&#x148;" horiz-adv-x="424" 
d="M369 555q58 0 58 -49q0 -5 -0.5 -10.5t-1.5 -10.5l-68 -434l22 -51h-206l38 51l56 355q1 4 1 12q0 14 -7.5 23t-24.5 9h-28l-63 -399l22 -51h-206l38 51l71 453l-22 51h321zM334 700h108l-98 -100h-160l-68 100h100l51 -45z" />
    <glyph glyph-name="Omacron" unicode="&#x14c;" horiz-adv-x="475" 
d="M430 700q67 0 67 -59q0 -5 -0.5 -11t-1.5 -12l-85 -536q-3 -20 -8.5 -35.5t-15 -26t-25.5 -15.5t-41 -5h-251q-68 0 -68 60q0 5 0.5 10.5t1.5 11.5l85 536q3 20 8 35.5t15 26t26.5 15.5t41.5 5h251zM323 543q1 5 1 10q0 14 -6.5 22.5t-21.5 8.5h-19q-18 0 -28 -11
t-12 -28l-62 -390q-1 -3 -1 -9q0 -13 7 -21.5t22 -8.5h19q17 0 27 11t13 28zM191 738l11 72h238l-11 -72h-238z" />
    <glyph glyph-name="omacron" unicode="&#x14d;" horiz-adv-x="412" 
d="M59 485q3 17 7 30t12.5 22t22 13.5t36.5 4.5h226q58 0 58 -49q0 -5 -0.5 -10.5t-1.5 -10.5l-65 -415q-5 -35 -19.5 -52.5t-58.5 -17.5h-226q-58 0 -58 49q0 5 0.5 10t1.5 11zM263 418q1 5 1 8q0 24 -24 24h-12q-15 0 -23 -9t-10 -23l-45 -281q-1 -3 -1 -9q0 -23 24 -23
h12q15 0 23 9t10 23zM139 600l11 72h238l-11 -72h-238z" />
    <glyph glyph-name="Obreve" unicode="&#x14e;" horiz-adv-x="475" 
d="M430 700q67 0 67 -59q0 -5 -0.5 -11t-1.5 -12l-85 -536q-3 -20 -8.5 -35.5t-15 -26t-25.5 -15.5t-41 -5h-251q-68 0 -68 60q0 5 0.5 10.5t1.5 11.5l85 536q3 20 8 35.5t15 26t26.5 15.5t41.5 5h251zM323 543q1 5 1 10q0 14 -6.5 22.5t-21.5 8.5h-19q-18 0 -28 -11
t-12 -28l-62 -390q-1 -3 -1 -9q0 -13 7 -21.5t22 -8.5h19q17 0 27 11t13 28zM320 804q26 0 45.5 10t25.5 24h81q-7 -19 -17.5 -37.5t-28.5 -33.5t-45.5 -24t-67.5 -9q-36 0 -61 9t-41 24t-23.5 33.5t-8.5 37.5h81q7 -15 21 -24.5t39 -9.5z" />
    <glyph glyph-name="obreve" unicode="&#x14f;" horiz-adv-x="412" 
d="M59 485q3 17 7 30t12.5 22t22 13.5t36.5 4.5h226q58 0 58 -49q0 -5 -0.5 -10.5t-1.5 -10.5l-65 -415q-5 -35 -19.5 -52.5t-58.5 -17.5h-226q-58 0 -58 49q0 5 0.5 10t1.5 11zM263 418q1 5 1 8q0 24 -24 24h-12q-15 0 -23 -9t-10 -23l-45 -281q-1 -3 -1 -9q0 -23 24 -23
h12q15 0 23 9t10 23zM267 666q26 0 45.5 10t25.5 24h81q-7 -19 -17.5 -37.5t-28.5 -33.5t-45.5 -24t-67.5 -9q-36 0 -61 9t-41 24t-23.5 33.5t-8.5 37.5h81q7 -15 21 -24.5t39 -9.5z" />
    <glyph glyph-name="Ohungarumlaut" unicode="&#x150;" horiz-adv-x="475" 
d="M430 700q67 0 67 -59q0 -5 -0.5 -11t-1.5 -12l-85 -536q-3 -20 -8.5 -35.5t-15 -26t-25.5 -15.5t-41 -5h-251q-68 0 -68 60q0 5 0.5 10.5t1.5 11.5l85 536q3 20 8 35.5t15 26t26.5 15.5t41.5 5h251zM323 543q1 5 1 10q0 14 -6.5 22.5t-21.5 8.5h-19q-18 0 -28 -11
t-12 -28l-62 -390q-1 -3 -1 -9q0 -13 7 -21.5t22 -8.5h19q17 0 27 11t13 28zM242 738h-92l93 100h145zM408 738h-92l93 100h146z" />
    <glyph glyph-name="ohungarumlaut" unicode="&#x151;" horiz-adv-x="412" 
d="M59 485q3 17 7 30t12.5 22t22 13.5t36.5 4.5h226q58 0 58 -49q0 -5 -0.5 -10.5t-1.5 -10.5l-65 -415q-5 -35 -19.5 -52.5t-58.5 -17.5h-226q-58 0 -58 49q0 5 0.5 10t1.5 11zM263 418q1 5 1 8q0 24 -24 24h-12q-15 0 -23 -9t-10 -23l-45 -281q-1 -3 -1 -9q0 -23 24 -23
h12q15 0 23 9t10 23zM190 600h-92l93 100h145zM356 600h-92l93 100h146z" />
    <glyph glyph-name="OE" unicode="&#x152;" horiz-adv-x="668" 
d="M458 408h89l62 27l-27 -170l-53 27h-89l-28 -176h95l123 56l-27 -172h-534q-68 0 -68 60q0 5 0.5 10.5t1.5 11.5l85 536q3 20 8 35.5t15 26t26.5 15.5t41.5 5h534l-27 -172l-105 56h-95zM177 169q-1 -4 -1 -11q0 -19 9.5 -30.5t29.5 -11.5h37l74 468h-37q-24 0 -37 -15
t-17 -38z" />
    <glyph glyph-name="oe" unicode="&#x153;" horiz-adv-x="624" 
d="M568 70q-5 -35 -19.5 -52.5t-58.5 -17.5h-440q-58 0 -58 49q0 5 0.5 10t1.5 11l65 415q3 17 7 30t12 22t22 13.5t37 4.5h440q58 0 58 -49q0 -5 -0.5 -10.5t-1.5 -10.5l-27 -169l-232 -117l-10 -62q-1 -3 -1 -9q0 -23 24 -23h17q15 0 23 9t10 23l6 39l153 76zM263 418
q1 4 1 8q0 24 -24 24h-12q-15 0 -23 -9t-10 -23l-45 -281q-1 -3 -1 -9q0 -23 24 -23h12q15 0 23 9t10 23zM396 338l51 27q13 7 19.5 14.5t8.5 21.5l2 17q0 3 0.5 4.5t0.5 3.5q0 24 -24 24h-12q-15 0 -23 -9t-10 -23z" />
    <glyph glyph-name="Racute" unicode="&#x154;" horiz-adv-x="495" 
d="M205 292l-38 -236l25 -56h-225l40 56l93 588l-23 56h357q67 0 67 -59q0 -5 -0.5 -11t-1.5 -12l-36 -228q-6 -38 -20 -62t-47 -32l27 -241l36 -55h-229l30 56l-8 169q-1 32 -8.5 49.5t-33.5 17.5h-5zM326 531q1 4 1 11q0 18 -9.5 30t-29.5 12h-37l-28 -176h37q23 0 37 15
t18 38zM328 738h-115l93 100h169z" />
    <glyph glyph-name="racute" unicode="&#x155;" horiz-adv-x="290" 
d="M145 51l22 -51h-206l38 51l71 453l-22 51h278l-24 -156l-63 51h-3q-15 0 -23 -9t-10 -23zM234 600h-115l93 100h169z" />
    <glyph glyph-name="Rcommaaccent" unicode="&#x156;" horiz-adv-x="495" 
d="M205 292l-38 -236l25 -56h-225l40 56l93 588l-23 56h357q67 0 67 -59q0 -5 -0.5 -11t-1.5 -12l-36 -228q-6 -38 -20 -62t-47 -32l27 -241l36 -55h-229l30 56l-8 169q-1 32 -8.5 49.5t-33.5 17.5h-5zM326 531q1 4 1 11q0 18 -9.5 30t-29.5 12h-37l-28 -176h37q23 0 37 15
t18 38zM265 -71q-6 -37 -38 -55.5t-79 -18.5h-53l3 23q29 0 38.5 6.5t12.5 22.5h-34l9 61h147z" />
    <glyph glyph-name="rcommaaccent" unicode="&#x157;" horiz-adv-x="290" 
d="M145 51l22 -51h-206l38 51l71 453l-22 51h278l-24 -156l-63 51h-3q-15 0 -23 -9t-10 -23zM126 -71q-6 -37 -38 -55.5t-79 -18.5h-53l3 23q29 0 38.5 6.5t12.5 22.5h-34l9 61h147z" />
    <glyph glyph-name="Rcaron" unicode="&#x158;" horiz-adv-x="495" 
d="M205 292l-38 -236l25 -56h-225l40 56l93 588l-23 56h357q67 0 67 -59q0 -5 -0.5 -11t-1.5 -12l-36 -228q-6 -38 -20 -62t-47 -32l27 -241l36 -55h-229l30 56l-8 169q-1 32 -8.5 49.5t-33.5 17.5h-5zM326 531q1 4 1 11q0 18 -9.5 30t-29.5 12h-37l-28 -176h37q23 0 37 15
t18 38zM376 838h108l-98 -100h-160l-68 100h100l51 -45z" />
    <glyph glyph-name="rcaron" unicode="&#x159;" horiz-adv-x="290" 
d="M145 51l22 -51h-206l38 51l71 453l-22 51h278l-24 -156l-63 51h-3q-15 0 -23 -9t-10 -23zM277 700h108l-98 -100h-160l-68 100h100l51 -45z" />
    <glyph glyph-name="Sacute" unicode="&#x15a;" horiz-adv-x="457" 
d="M310 543q1 5 1 10q0 14 -7 22.5t-21 8.5h-9q-18 0 -28 -11t-12 -28l-8 -50q-1 -6 -1.5 -11t-0.5 -10q-1 -14 6 -22.5t21 -16.5l143 -86q36 -22 36 -65q0 -6 -0.5 -12t-1.5 -13l-28 -177q-3 -20 -8.5 -35.5t-15 -26t-26 -15.5t-41.5 -5h-246q-36 0 -52 15t-16 45
q0 5 0.5 10.5t1.5 11.5l37 229l141 -84l-12 -72q-1 -4 -1 -8q0 -14 7.5 -22.5t21.5 -8.5h21q17 0 27 11t13 28l8 49q1 5 1.5 10t0.5 9q0 14 -6 23t-21 18l-145 85q-35 20 -35 66q0 5 0.5 11t1.5 13l28 179q3 20 8 35.5t15 26t26.5 15.5t41.5 5h235q35 0 51 -14.5t16 -43.5
q0 -5 -0.5 -11t-1.5 -13l-35 -223l-141 84zM328 738h-115l93 100h169z" />
    <glyph glyph-name="sacute" unicode="&#x15b;" horiz-adv-x="404" 
d="M148 166l-5 -29q-1 -3 -1 -9q0 -23 24 -23h14q15 0 22.5 9t10.5 23l3 15q1 5 1.5 9t0.5 8q0 13 -6 21t-20 16l-122 73q-32 19 -32 60q0 5 0.5 10.5t1.5 11.5l19 124q5 34 19.5 52t58.5 18h213q58 0 58 -50q0 -5 -0.5 -10t-1.5 -10l-26 -162l-128 76l4 19q1 5 1 8
q0 24 -24 24h-5q-15 0 -23 -9t-10 -23l-2 -10q-1 -5 -1.5 -9.5t-0.5 -8.5q0 -13 5.5 -20.5t19.5 -15.5l123 -73q32 -19 32 -60q0 -5 -0.5 -10.5t-1.5 -11.5l-20 -129q-5 -35 -19.5 -52.5t-58.5 -17.5h-223q-58 0 -58 49q0 5 0.5 10t1.5 11l27 172zM280 600h-115l93 100h169z
" />
    <glyph glyph-name="Scircumflex" unicode="&#x15c;" horiz-adv-x="457" 
d="M310 543q1 5 1 10q0 14 -7 22.5t-21 8.5h-9q-18 0 -28 -11t-12 -28l-8 -50q-1 -6 -1.5 -11t-0.5 -10q-1 -14 6 -22.5t21 -16.5l143 -86q36 -22 36 -65q0 -6 -0.5 -12t-1.5 -13l-28 -177q-3 -20 -8.5 -35.5t-15 -26t-26 -15.5t-41.5 -5h-246q-36 0 -52 15t-16 45
q0 5 0.5 10.5t1.5 11.5l37 229l141 -84l-12 -72q-1 -4 -1 -8q0 -14 7.5 -22.5t21.5 -8.5h21q17 0 27 11t13 28l8 49q1 5 1.5 10t0.5 9q0 14 -6 23t-21 18l-145 85q-35 20 -35 66q0 5 0.5 11t1.5 13l28 179q3 20 8 35.5t15 26t26.5 15.5t41.5 5h235q35 0 51 -14.5t16 -43.5
q0 -5 -0.5 -11t-1.5 -13l-35 -223l-141 84zM311 783l-65 -45h-108l98 100h160l68 -100h-100z" />
    <glyph glyph-name="scircumflex" unicode="&#x15d;" horiz-adv-x="404" 
d="M148 166l-5 -29q-1 -3 -1 -9q0 -23 24 -23h14q15 0 22.5 9t10.5 23l3 15q1 5 1.5 9t0.5 8q0 13 -6 21t-20 16l-122 73q-32 19 -32 60q0 5 0.5 10.5t1.5 11.5l19 124q5 34 19.5 52t58.5 18h213q58 0 58 -50q0 -5 -0.5 -10t-1.5 -10l-26 -162l-128 76l4 19q1 5 1 8
q0 24 -24 24h-5q-15 0 -23 -9t-10 -23l-2 -10q-1 -5 -1.5 -9.5t-0.5 -8.5q0 -13 5.5 -20.5t19.5 -15.5l123 -73q32 -19 32 -60q0 -5 -0.5 -10.5t-1.5 -11.5l-20 -129q-5 -35 -19.5 -52.5t-58.5 -17.5h-223q-58 0 -58 49q0 5 0.5 10t1.5 11l27 172zM264 645l-65 -45h-108
l98 100h160l68 -100h-100z" />
    <glyph glyph-name="Scedilla" unicode="&#x15e;" horiz-adv-x="457" 
d="M310 543q1 5 1 10q0 14 -7 22.5t-21 8.5h-9q-18 0 -28 -11t-12 -28l-8 -50q-1 -6 -1.5 -11t-0.5 -10q-1 -14 6 -22.5t21 -16.5l143 -86q36 -22 36 -65q0 -6 -0.5 -12t-1.5 -13l-28 -177q-3 -20 -8.5 -35.5t-15 -26t-26 -15.5t-41.5 -5h-246q-36 0 -52 15t-16 45
q0 5 0.5 10.5t1.5 11.5l37 229l141 -84l-12 -72q-1 -4 -1 -8q0 -14 7.5 -22.5t21.5 -8.5h21q17 0 27 11t13 28l8 49q1 5 1.5 10t0.5 9q0 14 -6 23t-21 18l-145 85q-35 20 -35 66q0 5 0.5 11t1.5 13l28 179q3 20 8 35.5t15 26t26.5 15.5t41.5 5h235q35 0 51 -14.5t16 -43.5
q0 -5 -0.5 -11t-1.5 -13l-35 -223l-141 84zM246 -32q3 -12 3 -24q0 -45 -33.5 -67t-84.5 -22h-53l5 36q20 0 30.5 12.5t10.5 31.5q0 18 -7 33h129z" />
    <glyph glyph-name="scedilla" unicode="&#x15f;" horiz-adv-x="404" 
d="M148 166l-5 -29q-1 -3 -1 -9q0 -23 24 -23h14q15 0 22.5 9t10.5 23l3 15q1 5 1.5 9t0.5 8q0 13 -6 21t-20 16l-122 73q-32 19 -32 60q0 5 0.5 10.5t1.5 11.5l19 124q5 34 19.5 52t58.5 18h213q58 0 58 -50q0 -5 -0.5 -10t-1.5 -10l-26 -162l-128 76l4 19q1 5 1 8
q0 24 -24 24h-5q-15 0 -23 -9t-10 -23l-2 -10q-1 -5 -1.5 -9.5t-0.5 -8.5q0 -13 5.5 -20.5t19.5 -15.5l123 -73q32 -19 32 -60q0 -5 -0.5 -10.5t-1.5 -11.5l-20 -129q-5 -35 -19.5 -52.5t-58.5 -17.5h-223q-58 0 -58 49q0 5 0.5 10t1.5 11l27 172zM218 -32q3 -12 3 -24
q0 -45 -33.5 -67t-84.5 -22h-53l5 36q20 0 30.5 12.5t10.5 31.5q0 18 -7 33h129z" />
    <glyph glyph-name="Scaron" unicode="&#x160;" horiz-adv-x="457" 
d="M310 543q1 5 1 10q0 14 -7 22.5t-21 8.5h-9q-18 0 -28 -11t-12 -28l-8 -50q-1 -6 -1.5 -11t-0.5 -10q-1 -14 6 -22.5t21 -16.5l143 -86q36 -22 36 -65q0 -6 -0.5 -12t-1.5 -13l-28 -177q-3 -20 -8.5 -35.5t-15 -26t-26 -15.5t-41.5 -5h-246q-36 0 -52 15t-16 45
q0 5 0.5 10.5t1.5 11.5l37 229l141 -84l-12 -72q-1 -4 -1 -8q0 -14 7.5 -22.5t21.5 -8.5h21q17 0 27 11t13 28l8 49q1 5 1.5 10t0.5 9q0 14 -6 23t-21 18l-145 85q-35 20 -35 66q0 5 0.5 11t1.5 13l28 179q3 20 8 35.5t15 26t26.5 15.5t41.5 5h235q35 0 51 -14.5t16 -43.5
q0 -5 -0.5 -11t-1.5 -13l-35 -223l-141 84zM371 838h108l-98 -100h-160l-68 100h100l51 -45z" />
    <glyph glyph-name="scaron" unicode="&#x161;" horiz-adv-x="404" 
d="M148 166l-5 -29q-1 -3 -1 -9q0 -23 24 -23h14q15 0 22.5 9t10.5 23l3 15q1 5 1.5 9t0.5 8q0 13 -6 21t-20 16l-122 73q-32 19 -32 60q0 5 0.5 10.5t1.5 11.5l19 124q5 34 19.5 52t58.5 18h213q58 0 58 -50q0 -5 -0.5 -10t-1.5 -10l-26 -162l-128 76l4 19q1 5 1 8
q0 24 -24 24h-5q-15 0 -23 -9t-10 -23l-2 -10q-1 -5 -1.5 -9.5t-0.5 -8.5q0 -13 5.5 -20.5t19.5 -15.5l123 -73q32 -19 32 -60q0 -5 -0.5 -10.5t-1.5 -11.5l-20 -129q-5 -35 -19.5 -52.5t-58.5 -17.5h-223q-58 0 -58 49q0 5 0.5 10t1.5 11l27 172zM324 700h108l-98 -100
h-160l-68 100h100l51 -45z" />
    <glyph glyph-name="Tcommaaccent" unicode="&#x162;" horiz-adv-x="415" 
d="M448 519l-103 73h-8l-85 -536l24 -56h-223l40 56l85 536h-7l-126 -73l28 181h403zM222 -32q3 -12 3 -24q0 -45 -33.5 -67t-84.5 -22h-53l5 36q20 0 30.5 12.5t10.5 31.5q0 18 -7 33h129z" />
    <glyph glyph-name="tcommaaccent" unicode="&#x163;" horiz-adv-x="266" 
d="M166 128q-1 -4 -1 -8q0 -15 19 -15l42 23l-20 -128h-139q-58 0 -58 50q0 5 0.5 10t1.5 10l60 380h-39l16 105h39l12 71l151 30l-16 -101h59l-16 -105h-59zM141 -32q3 -12 3 -24q0 -45 -33.5 -67t-84.5 -22h-53l5 36q20 0 30.5 12.5t10.5 31.5q0 18 -7 33h129z" />
    <glyph glyph-name="Tcaron" unicode="&#x164;" horiz-adv-x="415" 
d="M448 519l-103 73h-8l-85 -536l24 -56h-223l40 56l85 536h-7l-126 -73l28 181h403zM350 838h108l-98 -100h-160l-68 100h100l51 -45z" />
    <glyph glyph-name="tcaron" unicode="&#x165;" horiz-adv-x="454" 
d="M166 128q-1 -4 -1 -8q0 -15 19 -15l42 23l-20 -128h-139q-58 0 -58 50q0 5 0.5 10t1.5 10l60 380h-39l16 105h39l12 71l151 30l-16 -101h59l-16 -105h-59zM483 570q-4 -26 -18 -52t-36.5 -46.5t-53 -33.5t-67.5 -13l8 55q32 4 52 24.5t28 65.5h-65l20 130h152z" />
    <glyph glyph-name="Tbar" unicode="&#x166;" horiz-adv-x="415" 
d="M448 519l-103 73h-8l-29 -184h82l-18 -116h-83l-37 -236l24 -56h-223l40 56l37 236h-81l18 116h82l29 184h-7l-126 -73l28 181h403z" />
    <glyph glyph-name="tbar" unicode="&#x167;" horiz-adv-x="266" 
d="M204 365h59l-16 -105h-60l-21 -132q-1 -4 -1 -8q0 -15 19 -15l42 23l-20 -128h-139q-58 0 -58 50q0 5 0.5 10t1.5 10l30 190h-39l16 105h39l14 85h-39l16 105h39l12 71l151 30l-16 -101h59l-16 -105h-59z" />
    <glyph glyph-name="Utilde" unicode="&#x168;" horiz-adv-x="477" 
d="M407 82q-3 -20 -8 -35.5t-15 -26t-26.5 -15.5t-41.5 -5h-241q-68 0 -68 60q0 5 0.5 10.5t1.5 11.5l89 562l-23 56h224l-41 -56l-77 -489q-1 -3 -1 -9q0 -13 7 -21.5t22 -8.5h15q17 0 27 11t13 28l77 489l-23 56h219l-41 -56zM270 843q23 0 36.5 -5.5t24 -11.5t20.5 -11.5
t25 -5.5q20 0 27.5 11t8.5 18h42q-2 -19 -7 -37.5t-15 -33.5t-26 -24.5t-39 -9.5t-36.5 5.5t-24 11.5t-20.5 11.5t-25 5.5q-20 0 -27.5 -11t-8.5 -18h-42q2 19 7 37.5t15 33.5t26 24.5t39 9.5z" />
    <glyph glyph-name="utilde" unicode="&#x169;" horiz-adv-x="424" 
d="M56 0q-58 0 -58 49q0 5 0.5 10t1.5 11l68 434l-22 51h176l-64 -406q-1 -4 -1 -11q0 -15 7.5 -24t24.5 -9h30l63 399l-22 51h176l-79 -504l22 -51h-323zM222 705q23 0 36.5 -5.5t24 -11.5t20.5 -11.5t25 -5.5q20 0 27.5 11t8.5 18h42q-2 -19 -7 -37.5t-15 -33.5t-26 -24.5
t-39 -9.5t-36.5 5.5t-24 11.5t-20.5 11.5t-25 5.5q-20 0 -27.5 -11t-8.5 -18h-42q2 19 7 37.5t15 33.5t26 24.5t39 9.5z" />
    <glyph glyph-name="Umacron" unicode="&#x16a;" horiz-adv-x="477" 
d="M407 82q-3 -20 -8 -35.5t-15 -26t-26.5 -15.5t-41.5 -5h-241q-68 0 -68 60q0 5 0.5 10.5t1.5 11.5l89 562l-23 56h224l-41 -56l-77 -489q-1 -3 -1 -9q0 -13 7 -21.5t22 -8.5h15q17 0 27 11t13 28l77 489l-23 56h219l-41 -56zM192 738l11 72h238l-11 -72h-238z" />
    <glyph glyph-name="umacron" unicode="&#x16b;" horiz-adv-x="424" 
d="M56 0q-58 0 -58 49q0 5 0.5 10t1.5 11l68 434l-22 51h176l-64 -406q-1 -4 -1 -11q0 -15 7.5 -24t24.5 -9h30l63 399l-22 51h176l-79 -504l22 -51h-323zM145 600l11 72h238l-11 -72h-238z" />
    <glyph glyph-name="Ubreve" unicode="&#x16c;" horiz-adv-x="477" 
d="M407 82q-3 -20 -8 -35.5t-15 -26t-26.5 -15.5t-41.5 -5h-241q-68 0 -68 60q0 5 0.5 10.5t1.5 11.5l89 562l-23 56h224l-41 -56l-77 -489q-1 -3 -1 -9q0 -13 7 -21.5t22 -8.5h15q17 0 27 11t13 28l77 489l-23 56h219l-41 -56zM321 804q26 0 45.5 10t25.5 24h81
q-7 -19 -17.5 -37.5t-28.5 -33.5t-45.5 -24t-67.5 -9q-36 0 -61 9t-41 24t-23.5 33.5t-8.5 37.5h81q7 -15 21 -24.5t39 -9.5z" />
    <glyph glyph-name="ubreve" unicode="&#x16d;" horiz-adv-x="424" 
d="M56 0q-58 0 -58 49q0 5 0.5 10t1.5 11l68 434l-22 51h176l-64 -406q-1 -4 -1 -11q0 -15 7.5 -24t24.5 -9h30l63 399l-22 51h176l-79 -504l22 -51h-323zM273 666q26 0 45.5 10t25.5 24h81q-7 -19 -17.5 -37.5t-28.5 -33.5t-45.5 -24t-67.5 -9q-36 0 -61 9t-41 24
t-23.5 33.5t-8.5 37.5h81q7 -15 21 -24.5t39 -9.5z" />
    <glyph glyph-name="Uring" unicode="&#x16e;" horiz-adv-x="477" 
d="M407 82q-3 -20 -8 -35.5t-15 -26t-26.5 -15.5t-41.5 -5h-241q-68 0 -68 60q0 5 0.5 10.5t1.5 11.5l89 562l-23 56h224l-41 -56l-77 -489q-1 -3 -1 -9q0 -13 7 -21.5t22 -8.5h15q17 0 27 11t13 28l77 489l-23 56h219l-41 -56zM322 828q-14 0 -24.5 -10.5t-10.5 -24.5
q0 -11 8.5 -18t19.5 -7q14 0 25.5 9.5t11.5 23.5q0 12 -8 19.5t-22 7.5zM324 868q32 0 51.5 -18t19.5 -46q0 -32 -24 -54t-58 -22q-29 0 -49 17.5t-20 44.5q0 33 23 55.5t57 22.5z" />
    <glyph glyph-name="uring" unicode="&#x16f;" horiz-adv-x="424" 
d="M56 0q-58 0 -58 49q0 5 0.5 10t1.5 11l68 434l-22 51h176l-64 -406q-1 -4 -1 -11q0 -15 7.5 -24t24.5 -9h30l63 399l-22 51h176l-79 -504l22 -51h-323zM275 690q-14 0 -24.5 -10.5t-10.5 -24.5q0 -11 8.5 -18t19.5 -7q14 0 25.5 9.5t11.5 23.5q0 12 -8 19.5t-22 7.5z
M277 730q32 0 51.5 -18t19.5 -46q0 -32 -24 -54t-58 -22q-29 0 -49 17.5t-20 44.5q0 33 23 55.5t57 22.5z" />
    <glyph glyph-name="Uhungarumlaut" unicode="&#x170;" horiz-adv-x="477" 
d="M407 82q-3 -20 -8 -35.5t-15 -26t-26.5 -15.5t-41.5 -5h-241q-68 0 -68 60q0 5 0.5 10.5t1.5 11.5l89 562l-23 56h224l-41 -56l-77 -489q-1 -3 -1 -9q0 -13 7 -21.5t22 -8.5h15q17 0 27 11t13 28l77 489l-23 56h219l-41 -56zM243 738h-92l93 100h145zM409 738h-92l93 100
h146z" />
    <glyph glyph-name="uhungarumlaut" unicode="&#x171;" horiz-adv-x="424" 
d="M56 0q-58 0 -58 49q0 5 0.5 10t1.5 11l68 434l-22 51h176l-64 -406q-1 -4 -1 -11q0 -15 7.5 -24t24.5 -9h30l63 399l-22 51h176l-79 -504l22 -51h-323zM196 600h-92l93 100h145zM362 600h-92l93 100h146z" />
    <glyph glyph-name="Uogonek" unicode="&#x172;" horiz-adv-x="477" 
d="M407 82q-3 -20 -8 -35.5t-15 -26t-26.5 -15.5t-41.5 -5h-18q-25 -11 -33.5 -22.5t-8.5 -19.5q0 -9 9.5 -13.5t25.5 -4.5h56l-13 -85h-77q-50 0 -72 12.5t-22 38.5q0 33 25 56t55 38h-168q-68 0 -68 60q0 5 0.5 10.5t1.5 11.5l89 562l-23 56h224l-41 -56l-77 -489
q-1 -3 -1 -9q0 -13 7 -21.5t22 -8.5h15q17 0 27 11t13 28l77 489l-23 56h219l-41 -56l-89 -562v0z" />
    <glyph glyph-name="uogonek" unicode="&#x173;" horiz-adv-x="424" 
d="M56 0q-58 0 -58 49q0 5 0.5 10t1.5 11l68 434l-22 51h176l-64 -406q-1 -4 -1 -11q0 -15 7.5 -24t24.5 -9h30l63 399l-22 51h176l-79 -504l22 -51h-79q-25 -11 -33.5 -22.5t-8.5 -19.5q0 -9 9.5 -13.5t25.5 -4.5h56l-13 -85h-77q-50 0 -72 12.5t-22 38.5q0 33 25 56t55 38
h-189v0z" />
    <glyph glyph-name="Wcircumflex" unicode="&#x174;" horiz-adv-x="744" 
d="M71 0l10 644l-27 56h227l-36 -56l-35 -469l124 469l-16 56h245l-41 -56l-19 -461l112 461l-16 56h225l-46 -56l-193 -644h-217l18 361l-95 -361h-220zM455 783l-65 -45h-108l98 100h160l68 -100h-100z" />
    <glyph glyph-name="wcircumflex" unicode="&#x175;" horiz-adv-x="667" 
d="M56 0l4 504l-28 51h211l-33 -52l-31 -394l108 394l-16 52h215l-33 -52l-16 -390l93 390l-16 52h210l-44 -51l-154 -504h-202l10 272l-76 -272h-202zM395 645l-65 -45h-108l98 100h160l68 -100h-100z" />
    <glyph glyph-name="Ycircumflex" unicode="&#x176;" horiz-adv-x="467" 
d="M118 56l39 245l-71 344l-34 55h224l-30 -56l18 -175l73 175l-10 56h222l-48 -55l-185 -349l-38 -240l24 -56h-223zM316 783l-65 -45h-108l98 100h160l68 -100h-100z" />
    <glyph glyph-name="ycircumflex" unicode="&#x177;" horiz-adv-x="424" 
d="M253 -67q-7 -21 -14.5 -35.5t-19 -24t-29 -14t-44.5 -4.5h-186l21 134l46 -29h8q17 0 24 11.5t7 28.5l-6 504l-28 51h214l-33 -52l-28 -396l99 396l-16 52h213l-44 -51zM274 645l-65 -45h-108l98 100h160l68 -100h-100z" />
    <glyph glyph-name="Ydieresis" unicode="&#x178;" horiz-adv-x="467" 
d="M118 56l39 245l-71 344l-34 55h224l-30 -56l18 -175l73 175l-10 56h222l-48 -55l-185 -349l-38 -240l24 -56h-223zM153 738l14 90h130l-14 -90h-130zM330 738l14 90h130l-14 -90h-130z" />
    <glyph glyph-name="Zacute" unicode="&#x179;" horiz-adv-x="422" 
d="M449 645l-258 -529h71l124 55l-27 -171h-407l40 55l258 529h-56l-123 -55l27 171h391zM319 738h-115l93 100h169z" />
    <glyph glyph-name="zacute" unicode="&#x17a;" horiz-adv-x="371" 
d="M-12 51l207 399h-39l-112 -51l24 156h352l-39 -51l-211 -399h54l112 51l-24 -156h-363zM272 600h-115l93 100h169z" />
    <glyph glyph-name="Zdotaccent" unicode="&#x17b;" horiz-adv-x="422" 
d="M449 645l-258 -529h71l124 55l-27 -171h-407l40 55l258 529h-56l-123 -55l27 171h391zM228 738l14 90h129l-14 -90h-129z" />
    <glyph glyph-name="zdotaccent" unicode="&#x17c;" horiz-adv-x="371" 
d="M-12 51l207 399h-39l-112 -51l24 156h352l-39 -51l-211 -399h54l112 51l-24 -156h-363zM181 600l14 90h129l-14 -90h-129z" />
    <glyph glyph-name="Zcaron" unicode="&#x17d;" horiz-adv-x="422" 
d="M449 645l-258 -529h71l124 55l-27 -171h-407l40 55l258 529h-56l-123 -55l27 171h391zM363 838h108l-98 -100h-160l-68 100h100l51 -45z" />
    <glyph glyph-name="zcaron" unicode="&#x17e;" horiz-adv-x="371" 
d="M-12 51l207 399h-39l-112 -51l24 156h352l-39 -51l-211 -399h54l112 51l-24 -156h-363zM315 700h108l-98 -100h-160l-68 100h100l51 -45z" />
    <glyph glyph-name="florin" unicode="&#x192;" horiz-adv-x="404" 
d="M142 373h-82l26 105h81l38 154q5 21 11 35.5t17 24t28 14t44 4.5h162l-32 -128l-37 23h-28q-27 0 -31 -24l-26 -103h96l-25 -105h-96l-89 -355q-5 -21 -11 -35.5t-17 -24t-28 -14t-44 -4.5h-145l29 128l38 -23h13q27 0 31 24z" />
    <glyph glyph-name="AEacute" unicode="&#x1fc;" horiz-adv-x="682" 
d="M256 56l11 65h-86l-24 -65l17 -56h-232l46 55l269 645h470l-27 -172l-105 56h-95l-28 -176h89l62 27l-27 -170l-53 27h-89l-28 -176h95l123 56l-27 -172h-401zM224 238h61l53 336zM472 738h-115l93 100h169z" />
    <glyph glyph-name="aeacute" unicode="&#x1fd;" horiz-adv-x="621" 
d="M440 176l153 76l-28 -182q-5 -35 -19.5 -52.5t-58.5 -17.5h-440q-58 0 -58 49q0 5 0.5 10t1.5 11l18 122q8 57 56 82l187 93l8 50q1 5 1 9q0 24 -24 24h-10q-16 0 -23 -9t-10 -23l-5 -26l-152 -76l27 169q3 17 7 30t12 22t22 13.5t37 4.5h432q58 0 58 -49
q0 -5 -0.5 -10.5t-1.5 -10.5l-27 -169l-232 -117l-10 -62q-1 -5 -1 -9q0 -23 24 -23h17q15 0 23 9t10 23zM210 105l19 119l-38 -19q-21 -11 -29 -21t-13 -33q-1 -5 -1 -8v-6q0 -14 7.5 -23t24.5 -9h30zM393 338l51 27q13 7 19.5 14.5t8.5 21.5l2 16q1 5 1 9q0 24 -24 24h-12
q-15 0 -23 -9t-10 -23zM389 600h-115l93 100h169z" />
    <glyph glyph-name="Oslashacute" unicode="&#x1fe;" horiz-adv-x="475" 
d="M337 738h-115l93 100h169zM351 700l25 50h140l-34 -67q15 -15 15 -42q0 -5 -0.5 -11t-1.5 -12l-85 -536q-3 -20 -8.5 -35.5t-15 -26t-25.5 -15.5t-41 -5h-171l-25 -50h-141l33 66q-15 15 -15 44q0 5 0.5 10.5t1.5 11.5l85 536q3 20 8 35.5t15 26t26.5 15.5t41.5 5h172z
M209 370l104 209q-7 5 -17 5h-19q-18 0 -28 -11t-12 -28zM289 329l-103 -209q4 -2 8 -3t9 -1h19q17 0 27 11t13 28z" />
    <glyph glyph-name="oslashacute" unicode="&#x1ff;" horiz-adv-x="412" 
d="M284 600h-115l93 100h169zM59 485q3 17 7 30t12.5 22t22 13.5t36.5 4.5h137l25 50h139l-31 -63q14 -12 14 -36q0 -5 -0.5 -10.5t-1.5 -10.5l-65 -415q-5 -35 -19.5 -52.5t-58.5 -17.5h-137l-24 -50h-140l31 62q-14 12 -14 37q0 5 0.5 10t1.5 11zM175 294l77 154
q-6 2 -12 2h-12q-15 0 -23 -9t-10 -23zM237 259l-76 -152q3 -2 12 -2h12q15 0 23 9t10 23z" />
    <glyph glyph-name="Scommaaccent" unicode="&#x218;" horiz-adv-x="457" 
d="M310 543q1 5 1 10q0 14 -7 22.5t-21 8.5h-9q-18 0 -28 -11t-12 -28l-8 -50q-1 -6 -1.5 -11t-0.5 -10q-1 -14 6 -22.5t21 -16.5l143 -86q36 -22 36 -65q0 -6 -0.5 -12t-1.5 -13l-28 -177q-3 -20 -8.5 -35.5t-15 -26t-26 -15.5t-41.5 -5h-246q-36 0 -52 15t-16 45
q0 5 0.5 10.5t1.5 11.5l37 229l141 -84l-12 -72q-1 -4 -1 -8q0 -14 7.5 -22.5t21.5 -8.5h21q17 0 27 11t13 28l8 49q1 5 1.5 10t0.5 9q0 14 -6 23t-21 18l-145 85q-35 20 -35 66q0 5 0.5 11t1.5 13l28 179q3 20 8 35.5t15 26t26.5 15.5t41.5 5h235q35 0 51 -14.5t16 -43.5
q0 -5 -0.5 -11t-1.5 -13l-35 -223l-141 84zM247 -71q-6 -37 -38 -55.5t-79 -18.5h-53l3 23q29 0 38.5 6.5t12.5 22.5h-34l9 61h147z" />
    <glyph glyph-name="scommaaccent" unicode="&#x219;" horiz-adv-x="404" 
d="M148 166l-5 -29q-1 -3 -1 -9q0 -23 24 -23h14q15 0 22.5 9t10.5 23l3 15q1 5 1.5 9t0.5 8q0 13 -6 21t-20 16l-122 73q-32 19 -32 60q0 5 0.5 10.5t1.5 11.5l19 124q5 34 19.5 52t58.5 18h213q58 0 58 -50q0 -5 -0.5 -10t-1.5 -10l-26 -162l-128 76l4 19q1 5 1 8
q0 24 -24 24h-5q-15 0 -23 -9t-10 -23l-2 -10q-1 -5 -1.5 -9.5t-0.5 -8.5q0 -13 5.5 -20.5t19.5 -15.5l123 -73q32 -19 32 -60q0 -5 -0.5 -10.5t-1.5 -11.5l-20 -129q-5 -35 -19.5 -52.5t-58.5 -17.5h-223q-58 0 -58 49q0 5 0.5 10t1.5 11l27 172zM220 -71q-6 -37 -38 -55.5
t-79 -18.5h-53l3 23q29 0 38.5 6.5t12.5 22.5h-34l9 61h147z" />
    <glyph glyph-name="uni021A" unicode="&#x21a;" horiz-adv-x="415" 
d="M448 519l-103 73h-8l-85 -536l24 -56h-223l40 56l85 536h-7l-126 -73l28 181h403zM228 -71q-6 -37 -38 -55.5t-79 -18.5h-53l3 23q29 0 38.5 6.5t12.5 22.5h-34l9 61h147z" />
    <glyph glyph-name="uni021B" unicode="&#x21b;" horiz-adv-x="266" 
d="M166 128q-1 -4 -1 -8q0 -15 19 -15l42 23l-20 -128h-139q-58 0 -58 50q0 5 0.5 10t1.5 10l60 380h-39l16 105h39l12 71l151 30l-16 -101h59l-16 -105h-59zM143 -71q-6 -37 -38 -55.5t-79 -18.5h-53l3 23q29 0 38.5 6.5t12.5 22.5h-34l9 61h147z" />
    <glyph glyph-name="uni0237" unicode="&#x237;" horiz-adv-x="214" 
d="M70 504l-22 51h176l-98 -622q-5 -28 -15 -43.5t-27 -23t-42 -9.5t-59 -2h-90l21 134l43 -29q15 0 22 6t9 20z" />
    <glyph glyph-name="circumflex" unicode="&#x2c6;" horiz-adv-x="309" 
d="M217 645l-65 -45h-108l98 100h160l68 -100h-100z" />
    <glyph glyph-name="caron" unicode="&#x2c7;" horiz-adv-x="309" 
d="M277 700h108l-98 -100h-160l-68 100h100l51 -45z" />
    <glyph glyph-name="breve" unicode="&#x2d8;" horiz-adv-x="309" 
d="M216 666q26 0 45.5 10t25.5 24h81q-7 -19 -17.5 -37.5t-28.5 -33.5t-45.5 -24t-67.5 -9q-36 0 -61 9t-41 24t-23.5 33.5t-8.5 37.5h81q7 -15 21 -24.5t39 -9.5z" />
    <glyph glyph-name="dotaccent" unicode="&#x2d9;" horiz-adv-x="309" 
d="M142 600l14 90h129l-14 -90h-129z" />
    <glyph glyph-name="ring" unicode="&#x2da;" horiz-adv-x="309" 
d="M217 690q-14 0 -24.5 -10.5t-10.5 -24.5q0 -11 8.5 -18t19.5 -7q14 0 25.5 9.5t11.5 23.5q0 12 -8 19.5t-22 7.5zM219 730q32 0 51.5 -18t19.5 -46q0 -32 -24 -54t-58 -22q-29 0 -49 17.5t-20 44.5q0 33 23 55.5t57 22.5z" />
    <glyph glyph-name="ogonek" unicode="&#x2db;" horiz-adv-x="309" 
d="M142 0q-25 -11 -33.5 -22.5t-8.5 -19.5q0 -9 9.5 -13.5t25.5 -4.5h56l-13 -85h-77q-50 0 -72 12.5t-22 38.5q0 33 25 56t55 38h55v0z" />
    <glyph glyph-name="tilde" unicode="&#x2dc;" horiz-adv-x="309" 
d="M165 705q23 0 36.5 -5.5t24 -11.5t20.5 -11.5t25 -5.5q20 0 27.5 11t8.5 18h42q-2 -19 -7 -37.5t-15 -33.5t-26 -24.5t-39 -9.5t-36.5 5.5t-24 11.5t-20.5 11.5t-25 5.5q-20 0 -27.5 -11t-8.5 -18h-42q2 19 7 37.5t15 33.5t26 24.5t39 9.5z" />
    <glyph glyph-name="hungarumlaut" unicode="&#x2dd;" horiz-adv-x="309" 
d="M104 600h-92l93 100h145zM270 600h-92l93 100h146z" />
    <glyph glyph-name="pi" unicode="&#x3c0;" horiz-adv-x="426" 
d="M208 450l-63 -399l22 -51h-206l38 51l71 453l-22 51h418l-38 -51l-71 -453l22 -51h-206l38 51l63 399h-66z" />
    <glyph glyph-name="uni1E02" unicode="&#x1e02;" horiz-adv-x="476" 
d="M469 446q-8 -48 -28.5 -69.5t-65.5 -26.5q35 -3 54 -20t19 -52q0 -5 -0.5 -11t-1.5 -13l-28 -172q-3 -20 -8.5 -35.5t-15 -26t-25.5 -15.5t-41 -5h-361l40 56l93 588l-23 56h354q67 0 67 -59q0 -5 -0.5 -11t-1.5 -12zM283 239q1 5 1 13q0 17 -9 28.5t-29 11.5h-41
l-28 -176h41q23 0 36.5 15t17.5 38zM223 408h38q23 0 37 15t18 38l11 70q1 4 1 11q0 18 -9.5 30t-29.5 12h-38zM248 738l14 90h129l-14 -90h-129z" />
    <glyph glyph-name="uni1E03" unicode="&#x1e03;" horiz-adv-x="418" 
d="M224 555h145q58 0 58 -49q0 -5 -0.5 -10.5t-1.5 -10.5l-65 -415q-5 -35 -19.5 -52.5t-58.5 -17.5h-291l98 619l-22 51l182 40zM267 406q1 4 1 12q0 14 -7.5 23t-24.5 9h-28l-55 -345h28q20 0 30 12t13 32zM270 600l14 90h129l-14 -90h-129z" />
    <glyph glyph-name="uni1E0A" unicode="&#x1e0a;" horiz-adv-x="479" 
d="M77 700h357q67 0 67 -59q0 -5 -0.5 -11t-1.5 -12l-85 -536q-3 -20 -8.5 -35.5t-15 -26t-25.5 -15.5t-41 -5h-357l40 56l93 588zM326 531q1 5 1 11q0 18 -9.5 30t-29.5 12h-37l-74 -468h37q24 0 37 15t17 38zM248 738l14 90h129l-14 -90h-129z" />
    <glyph glyph-name="uni1E0B" unicode="&#x1e0b;" horiz-adv-x="418" 
d="M59 485q3 17 7 30t12.5 22t22 13.5t36.5 4.5h145l11 64l-22 51l182 40l-104 -659l22 -51h-321q-58 0 -58 49q0 5 0.5 10t1.5 11zM152 149q-1 -4 -1 -12q0 -14 7.5 -23t24.5 -9h28l55 345h-28q-20 0 -31 -12t-14 -32zM99 600l14 90h129l-14 -90h-129z" />
    <glyph glyph-name="uni1E1E" unicode="&#x1e1e;" horiz-adv-x="404" 
d="M222 403h74l63 27l-27 -170l-54 27h-74l-37 -231l25 -56h-225l40 56l93 588l-23 56h386l-27 -172l-106 56h-79zM218 738l14 90h129l-14 -90h-129z" />
    <glyph glyph-name="uni1E1F" unicode="&#x1e1f;" horiz-adv-x="255" 
d="M34 450l16 105h39l11 67q3 21 9 35.5t16.5 24t28 14t44.5 4.5h134l-20 -128l-39 23h-10q-26 0 -30 -24l-3 -16h60l-16 -105h-55l-63 -399l21 -51h-205l38 51l63 399h-39zM151 738l14 90h129l-14 -90h-129z" />
    <glyph glyph-name="uni1E40" unicode="&#x1e40;" horiz-adv-x="681" 
d="M351 0h-121l-8 478l-67 -422l23 -56h-212l40 56l93 588l-23 56h300l-24 -56l-8 -313l91 313l-6 56h309l-41 -56l-93 -588l24 -56h-224l40 56l67 420zM349 738l14 90h129l-14 -90h-129z" />
    <glyph glyph-name="uni1E41" unicode="&#x1e41;" horiz-adv-x="630" 
d="M585 0h-206l38 51l56 355q1 4 1 12q0 14 -7.5 23t-24.5 9h-26l-62 -399l22 -51h-206l38 51l56 355q1 4 1 12q0 14 -7.5 23t-24.5 9h-25l-63 -399l22 -51h-206l38 51l71 453l-22 51h527q58 0 58 -49q0 -5 -0.5 -10.5t-1.5 -10.5l-68 -434zM302 600l14 90h129l-14 -90h-129
z" />
    <glyph glyph-name="uni1E56" unicode="&#x1e56;" horiz-adv-x="461" 
d="M77 700h354q67 0 67 -59q0 -5 -0.5 -11t-1.5 -12l-40 -252q-3 -20 -8.5 -35.5t-15.5 -26t-26 -15.5t-41 -5h-162l-36 -228l24 -56h-224l40 56l93 588zM323 531q1 4 1 11q0 18 -9.5 30t-29.5 12h-34l-29 -184h34q23 0 36.5 15t17.5 38zM242 738l14 90h129l-14 -90h-129z
" />
    <glyph glyph-name="uni1E57" unicode="&#x1e57;" horiz-adv-x="420" 
d="M372 555q57 0 57 -49q0 -5 -0.5 -10.5t-1.5 -10.5l-65 -415q-5 -35 -19.5 -52.5t-57.5 -17.5h-146l-15 -94l22 -51h-205l37 51l94 598l-22 51h322zM269 406q1 4 1 12q0 14 -7.5 23t-24.5 9h-28l-55 -345h28q20 0 31 12t14 32zM198 600l14 90h129l-14 -90h-129z" />
    <glyph glyph-name="uni1E60" unicode="&#x1e60;" horiz-adv-x="457" 
d="M310 543q1 5 1 10q0 14 -7 22.5t-21 8.5h-9q-18 0 -28 -11t-12 -28l-8 -50q-1 -6 -1.5 -11t-0.5 -10q-1 -14 6 -22.5t21 -16.5l143 -86q36 -22 36 -65q0 -6 -0.5 -12t-1.5 -13l-28 -177q-3 -20 -8.5 -35.5t-15 -26t-26 -15.5t-41.5 -5h-246q-36 0 -52 15t-16 45
q0 5 0.5 10.5t1.5 11.5l37 229l141 -84l-12 -72q-1 -4 -1 -8q0 -14 7.5 -22.5t21.5 -8.5h21q17 0 27 11t13 28l8 49q1 5 1.5 10t0.5 9q0 14 -6 23t-21 18l-145 85q-35 20 -35 66q0 5 0.5 11t1.5 13l28 179q3 20 8 35.5t15 26t26.5 15.5t41.5 5h235q35 0 51 -14.5t16 -43.5
q0 -5 -0.5 -11t-1.5 -13l-35 -223l-141 84zM237 738l14 90h129l-14 -90h-129z" />
    <glyph glyph-name="uni1E61" unicode="&#x1e61;" horiz-adv-x="404" 
d="M148 166l-5 -29q-1 -3 -1 -9q0 -23 24 -23h14q15 0 22.5 9t10.5 23l3 15q1 5 1.5 9t0.5 8q0 13 -6 21t-20 16l-122 73q-32 19 -32 60q0 5 0.5 10.5t1.5 11.5l19 124q5 34 19.5 52t58.5 18h213q58 0 58 -50q0 -5 -0.5 -10t-1.5 -10l-26 -162l-128 76l4 19q1 5 1 8
q0 24 -24 24h-5q-15 0 -23 -9t-10 -23l-2 -10q-1 -5 -1.5 -9.5t-0.5 -8.5q0 -13 5.5 -20.5t19.5 -15.5l123 -73q32 -19 32 -60q0 -5 -0.5 -10.5t-1.5 -11.5l-20 -129q-5 -35 -19.5 -52.5t-58.5 -17.5h-223q-58 0 -58 49q0 5 0.5 10t1.5 11l27 172zM189 600l14 90h129
l-14 -90h-129z" />
    <glyph glyph-name="uni1E6A" unicode="&#x1e6a;" horiz-adv-x="415" 
d="M448 519l-103 73h-8l-85 -536l24 -56h-223l40 56l85 536h-7l-126 -73l28 181h403zM216 738l14 90h129l-14 -90h-129z" />
    <glyph glyph-name="uni1E6B" unicode="&#x1e6b;" horiz-adv-x="266" 
d="M166 128q-1 -4 -1 -8q0 -15 19 -15l42 23l-20 -128h-139q-58 0 -58 50q0 5 0.5 10t1.5 10l60 380h-39l16 105h39l12 71l151 30l-16 -101h59l-16 -105h-59zM120 686l14 90h129l-14 -90h-129z" />
    <glyph glyph-name="Wgrave" unicode="&#x1e80;" horiz-adv-x="744" 
d="M71 0l10 644l-27 56h227l-36 -56l-35 -469l124 469l-16 56h245l-41 -56l-19 -461l112 461l-16 56h225l-46 -56l-193 -644h-217l18 361l-95 -361h-220zM306 838h159l63 -100h-105z" />
    <glyph glyph-name="wgrave" unicode="&#x1e81;" horiz-adv-x="667" 
d="M56 0l4 504l-28 51h211l-33 -52l-31 -394l108 394l-16 52h215l-33 -52l-16 -390l93 390l-16 52h210l-44 -51l-154 -504h-202l10 272l-76 -272h-202zM247 700h159l63 -100h-105z" />
    <glyph glyph-name="Wacute" unicode="&#x1e82;" horiz-adv-x="744" 
d="M71 0l10 644l-27 56h227l-36 -56l-35 -469l124 469l-16 56h245l-41 -56l-19 -461l112 461l-16 56h225l-46 -56l-193 -644h-217l18 361l-95 -361h-220zM471 738h-115l93 100h169z" />
    <glyph glyph-name="wacute" unicode="&#x1e83;" horiz-adv-x="667" 
d="M56 0l4 504l-28 51h211l-33 -52l-31 -394l108 394l-16 52h215l-33 -52l-16 -390l93 390l-16 52h210l-44 -51l-154 -504h-202l10 272l-76 -272h-202zM412 600h-115l93 100h169z" />
    <glyph glyph-name="Wdieresis" unicode="&#x1e84;" horiz-adv-x="744" 
d="M71 0l10 644l-27 56h227l-36 -56l-35 -469l124 469l-16 56h245l-41 -56l-19 -461l112 461l-16 56h225l-46 -56l-193 -644h-217l18 361l-95 -361h-220zM291 738l14 90h130l-14 -90h-130zM468 738l14 90h130l-14 -90h-130z" />
    <glyph glyph-name="wdieresis" unicode="&#x1e85;" horiz-adv-x="667" 
d="M56 0l4 504l-28 51h211l-33 -52l-31 -394l108 394l-16 52h215l-33 -52l-16 -390l93 390l-16 52h210l-44 -51l-154 -504h-202l10 272l-76 -272h-202zM232 600l14 90h130l-14 -90h-130zM409 600l14 90h130l-14 -90h-130z" />
    <glyph glyph-name="Ygrave" unicode="&#x1ef2;" horiz-adv-x="467" 
d="M118 56l39 245l-71 344l-34 55h224l-30 -56l18 -175l73 175l-10 56h222l-48 -55l-185 -349l-38 -240l24 -56h-223zM168 838h159l63 -100h-105z" />
    <glyph glyph-name="ygrave" unicode="&#x1ef3;" horiz-adv-x="424" 
d="M253 -67q-7 -21 -14.5 -35.5t-19 -24t-29 -14t-44.5 -4.5h-186l21 134l46 -29h8q17 0 24 11.5t7 28.5l-6 504l-28 51h214l-33 -52l-28 -396l99 396l-16 52h213l-44 -51zM125 700h159l63 -100h-105z" />
    <glyph glyph-name="endash" unicode="&#x2013;" horiz-adv-x="309" 
d="M-5 243l18 115h309l-18 -115h-309z" />
    <glyph glyph-name="emdash" unicode="&#x2014;" horiz-adv-x="618" 
d="M-5 243l18 115h618l-18 -115h-618z" />
    <glyph glyph-name="quoteleft" unicode="&#x2018;" horiz-adv-x="218" 
d="M77 555q4 26 18 52t36.5 46.5t53 33.5t67.5 13l-8 -55q-32 -4 -52 -24.5t-28 -65.5h65l-20 -130h-152z" />
    <glyph glyph-name="quoteright" unicode="&#x2019;" horiz-adv-x="218" 
d="M232 570q-4 -26 -18 -52t-36.5 -46.5t-53 -33.5t-67.5 -13l8 55q32 4 52 24.5t28 65.5h-65l20 130h152z" />
    <glyph glyph-name="quotesinglbase" unicode="&#x201a;" horiz-adv-x="218" 
d="M142 0q-4 -26 -18 -52t-36.5 -46.5t-53 -33.5t-67.5 -13l8 55q32 4 52 24.5t28 65.5h-65l20 130h152z" />
    <glyph glyph-name="quotedblleft" unicode="&#x201c;" horiz-adv-x="413" 
d="M272 555q4 26 18 52t36.5 46.5t53 33.5t67.5 13l-8 -55q-32 -4 -52 -24.5t-28 -65.5h65l-20 -130h-152zM77 555q4 26 18 52t36.5 46.5t53 33.5t67.5 13l-8 -55q-32 -4 -52 -24.5t-28 -65.5h65l-20 -130h-152z" />
    <glyph glyph-name="quotedblright" unicode="&#x201d;" horiz-adv-x="413" 
d="M427 570q-4 -26 -18 -52t-36.5 -46.5t-53 -33.5t-67.5 -13l8 55q32 4 52 24.5t28 65.5h-65l20 130h152zM232 570q-4 -26 -18 -52t-36.5 -46.5t-53 -33.5t-67.5 -13l8 55q32 4 52 24.5t28 65.5h-65l20 130h152z" />
    <glyph glyph-name="quotedblbase" unicode="&#x201e;" horiz-adv-x="413" 
d="M337 0q-4 -26 -18 -52t-36.5 -46.5t-53 -33.5t-67.5 -13l8 55q32 4 52 24.5t28 65.5h-65l20 130h152zM142 0q-4 -26 -18 -52t-36.5 -46.5t-53 -33.5t-67.5 -13l8 55q32 4 52 24.5t28 65.5h-65l20 130h152z" />
    <glyph glyph-name="dagger" unicode="&#x2020;" 
d="M228 -72h-129l78 489h-116l17 110h116l27 173h129l-27 -173h116l-17 -110h-116z" />
    <glyph glyph-name="daggerdbl" unicode="&#x2021;" 
d="M260 129l-32 -201h-129l32 201h-116l17 110h116l32 198h-116l17 110h116l24 153h129l-24 -153h116l-17 -110h-116l-32 -198h116l-17 -110h-116z" />
    <glyph glyph-name="bullet" unicode="&#x2022;" horiz-adv-x="309" 
d="M48 350q0 25 9.5 46t25 36.5t37 24t45.5 8.5t46 -8.5t38 -24t25.5 -36.5t9.5 -46t-9.5 -46t-25.5 -36t-38 -23.5t-46 -8.5t-45.5 8.5t-37 23.5t-25 36t-9.5 46z" />
    <glyph glyph-name="ellipsis" unicode="&#x2026;" horiz-adv-x="618" 
d="M399 0l20 130h152l-20 -130h-152zM190 0l20 130h152l-20 -130h-152zM-19 0l20 130h152l-20 -130h-152z" />
    <glyph glyph-name="perthousand" unicode="&#x2030;" horiz-adv-x="852" 
d="M600 0q-45 0 -45 37q0 5 2 15l36 230q4 26 15.5 39t43.5 13h135q43 0 43 -37q0 -10 -1 -15l-36 -230q-4 -26 -15.5 -39t-42.5 -13h-135zM728 245q1 4 1 7q0 13 -17 13h-7q-20 0 -23 -19l-25 -157q-1 -4 -1 -6q0 -14 18 -14h7q19 0 22 19zM323 282q5 26 16 39t43 13h135
q43 0 43 -37q0 -10 -1 -15l-36 -230q-4 -26 -15.5 -39t-42.5 -13h-135q-45 0 -45 37q0 5 2 15zM83 648q5 26 15.5 39t42.5 13h135q44 0 44 -37q0 -10 -1 -15l-36 -230q-4 -26 -16.5 -39t-43.5 -13h-135q-43 0 -43 36q0 4 0.5 7.5t1.5 8.5zM562 700l-436 -700h-82l436 700h82
zM458 245q1 4 1 7q0 13 -17 13h-7q-20 0 -23 -19l-25 -157q-1 -4 -1 -6q0 -14 18 -14h7q19 0 22 19zM217 611q1 4 1 7q0 13 -17 13h-7q-20 0 -23 -19l-25 -157q-1 -4 -1 -6q0 -14 18 -14h7q19 0 22 19z" />
    <glyph glyph-name="guilsinglleft" unicode="&#x2039;" horiz-adv-x="236" 
d="M16 278l229 154l-83 -154l34 -155z" />
    <glyph glyph-name="guilsinglright" unicode="&#x203a;" horiz-adv-x="236" 
d="M-9 123l84 155l-35 154l181 -154z" />
    <glyph glyph-name="fraction" unicode="&#x2044;" horiz-adv-x="144" 
d="M344 700l-436 -700h-83l437 700h82z" />
    <glyph glyph-name="uni2070" unicode="&#x2070;" horiz-adv-x="309" 
d="M69 224q-23 0 -33 9.5t-10 28.5v6.5t1 7.5l59 372q4 26 15 39t43 13h155q43 0 43 -37q0 -10 -1 -15l-59 -372q-5 -26 -15.5 -39t-42.5 -13h-155zM138 324q-1 -4 -1 -9q0 -16 18 -16h7q20 0 25 24l43 276q1 4 1 8q0 18 -18 18h-7q-21 0 -24 -24z" />
    <glyph glyph-name="uni2074" unicode="&#x2074;" horiz-adv-x="315" 
d="M293 404l41 21l-19 -117l-33 21h-11l-11 -68l16 -37h-147l28 37l11 68h-166l187 334l-11 37h173l-27 -37l-42 -259h11zM132 404h47l24 140z" />
    <glyph glyph-name="uni2075" unicode="&#x2075;" horiz-adv-x="301" 
d="M197 437q0 2 0.5 4t0.5 4q0 11 -6 17.5t-20 6.5h-112l59 194l-13 37h235l-17 -111l-67 36h-53l-23 -81h86q23 0 32.5 -9t9.5 -27v-7.5t-1 -8.5l-34 -216q-4 -26 -15 -39t-43 -13h-152q-23 0 -33 9.5t-10 28.5v6.5t1 7.5l26 164l92 -54l-10 -63q-1 -3 -1 -8q0 -16 17 -16
h7q21 0 26 24l18 114v0z" />
    <glyph glyph-name="uni2076" unicode="&#x2076;" horiz-adv-x="308" 
d="M296 700q43 0 43 -37q0 -10 -1 -15l-19 -119l-91 54l2 15q1 5 1 9q0 18 -18 18h-7q-21 0 -24 -24l-15 -90h102q43 0 43 -37q0 -10 -1 -15l-29 -183q-5 -26 -15.5 -39t-42.5 -13h-155q-23 0 -33 9.5t-10 28.5v6.5t1 7.5l59 372q4 26 15 39t43 13h152zM155 436l-17 -112
q-1 -4 -1 -9q0 -16 18 -16h7q22 0 25 24l12 81q1 4 1 8q0 24 -25 24h-20z" />
    <glyph glyph-name="uni2077" unicode="&#x2077;" horiz-adv-x="277" 
d="M327 665l-184 -404l4 -37h-146l31 35l173 366h-68l-78 -36l17 111h275z" />
    <glyph glyph-name="uni2078" unicode="&#x2078;" horiz-adv-x="308" 
d="M295 700q43 0 43 -37q0 -10 -1 -15l-17 -110q-5 -29 -17.5 -43.5t-37.5 -18.5q42 -5 42 -46v-7.5t-1 -8.5l-22 -138q-5 -26 -15.5 -39t-42.5 -13h-161q-23 0 -33 9.5t-10 28.5v6.5t1 7.5l22 138q5 31 19 45.5t43 16.5q-37 8 -37 46v7.5t1 8.5l17 110q4 26 15 39t43 13
h149zM173 439q-11 0 -17 -6.5t-8 -17.5l-14 -91q-1 -4 -1 -8q0 -17 18 -17h13q22 0 25 24l13 90q1 4 1 8q0 18 -17 18h-13zM195 514q11 0 17 6.5t8 17.5l9 61q1 4 1 8q0 18 -18 18h-7q-21 0 -24 -24l-10 -62q-1 -4 -1 -8q0 -17 18 -17h7z" />
    <glyph glyph-name="uni2079" unicode="&#x2079;" horiz-adv-x="308" 
d="M137 323q-1 -4 -1 -8q0 -16 18 -16h7q20 0 25 24l14 90h-102q-23 0 -33 9.5t-10 28.5v6.5t1 7.5l29 183q4 26 15 39t43 13h155q43 0 43 -37q0 -10 -1 -15l-59 -372q-5 -26 -15.5 -39t-42.5 -13h-152q-23 0 -33 9.5t-10 28.5v6.5t1 7.5l19 119l92 -54zM167 512
q0 -24 26 -24h18l18 111q1 4 1 8q0 18 -18 18h-7q-21 0 -24 -24l-13 -81q-1 -4 -1 -8z" />
    <glyph glyph-name="uni2080" unicode="&#x2080;" horiz-adv-x="309" 
d="M34 0q-23 0 -33 9.5t-10 28.5v6.5t1 7.5l59 372q4 26 15 39t43 13h155q43 0 43 -37q0 -10 -1 -15l-59 -372q-5 -26 -15.5 -39t-42.5 -13h-155zM103 100q-1 -4 -1 -9q0 -16 18 -16h7q20 0 25 24l43 276q1 4 1 8q0 18 -18 18h-7q-21 0 -24 -24z" />
    <glyph glyph-name="uni2081" unicode="&#x2081;" horiz-adv-x="167" 
d="M114 1h-147l28 37l63 395l-17 36l149 12l-28 -37l-64 -406z" />
    <glyph glyph-name="uni2082" unicode="&#x2082;" horiz-adv-x="301" 
d="M260 476q43 0 43 -37q0 -10 -1 -15l-22 -134q-4 -20 -12 -35t-27 -24l-109 -54q-14 -7 -19.5 -15t-8.5 -23l-9 -64h52l11 71l108 54l-31 -200h-255l28 182q3 20 11.5 34t28.5 24l107 54q15 8 20.5 15t8.5 23l7 43q1 4 1 8q0 18 -19 18h-3q-20 0 -23 -24l-8 -46l-110 -55
l24 148q4 26 15 39t43 13h149v0z" />
    <glyph glyph-name="uni2083" unicode="&#x2083;" horiz-adv-x="301" 
d="M111 290h43q23 0 26 23l9 62q1 5 1 7q0 19 -19 19h-3q-12 0 -17 -6.5t-7 -17.5l-6 -34l-108 -54l21 135q4 26 15 39t43 13h145q44 0 44 -37q0 -10 -1 -15l-17 -110q-5 -29 -18.5 -43.5t-39.5 -18.5q22 -2 33 -13t11 -34v-7.5t-1 -8.5l-22 -137q-5 -26 -15.5 -39
t-42.5 -13h-152q-23 0 -33 9.5t-10 28.5v6.5t1 7.5l26 165l92 -54l-10 -64q-1 -5 -1 -8q0 -16 17 -16h7q23 0 26 24l13 89q1 5 1 8q0 18 -18 18h-45z" />
    <glyph glyph-name="uni2084" unicode="&#x2084;" horiz-adv-x="315" 
d="M258 180l41 21l-19 -117l-33 21h-11l-11 -68l16 -37h-147l28 37l11 68h-166l187 334l-11 37h173l-27 -37l-42 -259h11zM97 180h47l24 140z" />
    <glyph glyph-name="uni2085" unicode="&#x2085;" horiz-adv-x="301" 
d="M162 213q0 2 0.5 4t0.5 4q0 11 -6 17.5t-20 6.5h-112l59 194l-13 37h235l-17 -111l-67 36h-53l-23 -81h86q23 0 32.5 -9t9.5 -27v-7.5t-1 -8.5l-34 -216q-4 -26 -15 -39t-43 -13h-152q-23 0 -33 9.5t-10 28.5v6.5t1 7.5l26 164l92 -54l-10 -63q-1 -3 -1 -8q0 -16 17 -16
h7q21 0 26 24l18 114v0z" />
    <glyph glyph-name="uni2086" unicode="&#x2086;" horiz-adv-x="308" 
d="M261 476q43 0 43 -37q0 -10 -1 -15l-19 -119l-91 54l2 15q1 5 1 9q0 18 -18 18h-7q-21 0 -24 -24l-15 -90h102q43 0 43 -37q0 -10 -1 -15l-29 -183q-5 -26 -15.5 -39t-42.5 -13h-155q-23 0 -33 9.5t-10 28.5v6.5t1 7.5l59 372q4 26 15 39t43 13h152zM120 212l-17 -112
q-1 -4 -1 -9q0 -16 18 -16h7q22 0 25 24l12 81q1 4 1 8q0 24 -25 24h-20z" />
    <glyph glyph-name="uni2087" unicode="&#x2087;" horiz-adv-x="277" 
d="M292 441l-184 -404l4 -37h-146l31 35l173 366h-68l-78 -36l17 111h275z" />
    <glyph glyph-name="uni2088" unicode="&#x2088;" horiz-adv-x="308" 
d="M260 476q43 0 43 -37q0 -10 -1 -15l-17 -110q-5 -29 -17.5 -43.5t-37.5 -18.5q42 -5 42 -46v-7.5t-1 -8.5l-22 -138q-5 -26 -15.5 -39t-42.5 -13h-161q-23 0 -33 9.5t-10 28.5v6.5t1 7.5l22 138q5 31 19 45.5t43 16.5q-37 8 -37 46v7.5t1 8.5l17 110q4 26 15 39t43 13
h149zM138 215q-11 0 -17 -6.5t-8 -17.5l-14 -91q-1 -4 -1 -8q0 -17 18 -17h13q22 0 25 24l13 90q1 4 1 8q0 18 -17 18h-13zM160 290q11 0 17 6.5t8 17.5l9 61q1 4 1 8q0 18 -18 18h-7q-21 0 -24 -24l-10 -62q-1 -4 -1 -8q0 -17 18 -17h7z" />
    <glyph glyph-name="uni2089" unicode="&#x2089;" horiz-adv-x="308" 
d="M102 99q-1 -4 -1 -8q0 -16 18 -16h7q20 0 25 24l14 90h-102q-23 0 -33 9.5t-10 28.5v6.5t1 7.5l29 183q4 26 15 39t43 13h155q43 0 43 -37q0 -10 -1 -15l-59 -372q-5 -26 -15.5 -39t-42.5 -13h-152q-23 0 -33 9.5t-10 28.5v6.5t1 7.5l19 119l92 -54zM132 288
q0 -24 26 -24h18l18 111q1 4 1 8q0 18 -18 18h-7q-21 0 -24 -24l-13 -81q-1 -4 -1 -8z" />
    <glyph glyph-name="Euro" unicode="&#x20ac;" horiz-adv-x="426" 
d="M303 555q1 4 1 10q0 25 -26 25h-6q-15 0 -24.5 -9.5t-11.5 -25.5l-19 -125h151l-9 -52h-151l-7 -48h151l-9 -53h-151l-21 -132q-1 -3 -1 -9q0 -26 26 -26h6q16 0 25 9.5t11 25.5l9 57l160 80l-32 -205q-6 -38 -22 -57.5t-64 -19.5h-219q-64 0 -64 56q0 5 0.5 10t1.5 11
l31 200h-36l9 53h36l7 48h-36l9 52h36l30 193q6 38 22 57.5t64 19.5h219q64 0 64 -56q0 -5 -0.5 -10t-1.5 -11l-14 -87l-159 -80z" />
    <glyph glyph-name="uni20B9" unicode="&#x20b9;" 
d="M245 250l103 -198l47 -52h-208l8 54l-131 254l-32 52h165q32 0 36 29l5 31h-203l60 110h160l5 31q1 5 1 8q0 21 -28 21h-171l60 110h383l-61 -110h-27l-10 -60h71l-61 -110h-27l-16 -101q-3 -18 -7.5 -31.5t-14 -21.5t-24.5 -12t-39 -4h-44z" />
    <glyph glyph-name="afii61352" unicode="&#x2116;" horiz-adv-x="782" 
d="M75 700h236l-23 -56l29 -295l46 295l-23 56h211l-41 -56l-101 -644h-154l-45 405l-56 -349l23 -56h-212l40 56l93 588zM532 451q4 24 14.5 36.5t39.5 12.5h159q21 0 30 -9t9 -26v-6.5t-1 -7.5l-46 -291q-4 -24 -14.5 -36.5t-39.5 -12.5h-159q-21 0 -30 9t-9 26v6.5t1 7.5
zM472 69h251l-11 -69h-251zM673 402q1 4 1 7q0 17 -16 17h-9q-19 0 -22 -22l-32 -196q-1 -4 -1 -7q0 -16 17 -16h9q19 0 22 22z" />
    <glyph glyph-name="uni2117" unicode="&#x2117;" horiz-adv-x="647" 
d="M242 560h212q39 0 39 -34v-7t-1 -8l-23 -151q-4 -25 -15 -37.5t-39 -12.5h-98l-22 -136l15 -34h-134l23 34l56 352zM388 457q1 5 1 10q0 23 -23 23h-21l-17 -110h21q14 0 22 9t10 23zM276 -13q-69 0 -118 20.5t-80 57t-45 86t-14 107.5q0 89 22 171t67.5 145t116 101
t166.5 38q69 0 118 -20.5t80 -57t45 -86t14 -107.5q0 -89 -22 -171t-67.5 -145t-116 -101t-166.5 -38zM380 644q-73 0 -126 -33.5t-87 -87t-50.5 -121t-16.5 -134.5q0 -44 10 -83t32 -67.5t57.5 -45t87.5 -16.5q73 0 126 33.5t87 87t50.5 120.5t16.5 135q0 44 -10 83
t-32 67.5t-57.5 45t-87.5 16.5z" />
    <glyph glyph-name="trademark" unicode="&#x2122;" horiz-adv-x="672" 
d="M496 280h-71l-3 306l-43 -272l14 -34h-127l24 34l56 352l-14 34h181l-14 -34l-6 -180l53 180l-4 34h187l-24 -34l-56 -352l14 -34h-135l25 34l43 268zM58 597l16 103h242l-16 -103l-64 33h-4l-50 -316l15 -34h-134l23 34l50 316h-4z" />
    <glyph glyph-name="uni2126" unicode="&#x2126;" 
d="M42 163l107 -53h35q-70 27 -106 83t-36 144v286q0 38 17 57.5t57 19.5h229q39 0 56.5 -19.5t17.5 -57.5v-286q0 -88 -36.5 -144t-105.5 -83h35l107 53v-163h-377v163zM230 110q13 39 20.5 77t11 69t4 53t0.5 30v216q0 16 -7 25.5t-23 9.5h-11q-16 0 -23.5 -9.5
t-7.5 -25.5v-216q0 -7 0.5 -29t4 -53.5t10.5 -69.5t21 -77z" />
    <glyph glyph-name="onethird" unicode="&#x2153;" horiz-adv-x="612" 
d="M511 700l-436 -700h-83l437 700h82zM149 225h-147l28 37l63 395l-17 36l149 12l-28 -37l-64 -406zM421 290h43q23 0 26 23l9 62q1 5 1 7q0 19 -19 19h-3q-12 0 -17 -6.5t-7 -17.5l-6 -34l-108 -54l21 135q4 26 15 39t43 13h145q44 0 44 -37q0 -10 -1 -15l-17 -110
q-5 -29 -18.5 -43.5t-39.5 -18.5q22 -2 33 -13t11 -34v-7.5t-1 -8.5l-22 -137q-5 -26 -15.5 -39t-42.5 -13h-152q-23 0 -33 9.5t-10 28.5v6.5t1 7.5l26 165l92 -54l-10 -64q-1 -5 -1 -8q0 -16 17 -16h7q23 0 26 24l13 89q1 5 1 8q0 18 -18 18h-45z" />
    <glyph glyph-name="twothirds" unicode="&#x2154;" horiz-adv-x="746" 
d="M645 700l-436 -700h-83l437 700h82zM295 700q43 0 43 -37q0 -10 -1 -15l-22 -134q-4 -20 -12 -35t-27 -24l-109 -54q-14 -7 -19.5 -15t-8.5 -23l-9 -64h52l11 71l108 54l-31 -200h-255l28 182q3 20 11.5 34t28.5 24l107 54q15 8 20.5 15t8.5 23l7 43q1 4 1 8q0 18 -19 18
h-3q-20 0 -23 -24l-8 -46l-110 -55l24 148q4 26 15 39t43 13h149zM555 290h43q23 0 26 23l9 62q1 5 1 7q0 19 -19 19h-3q-12 0 -17 -6.5t-7 -17.5l-6 -34l-108 -54l21 135q4 26 15 39t43 13h145q44 0 44 -37q0 -10 -1 -15l-17 -110q-5 -29 -18.5 -43.5t-39.5 -18.5
q22 -2 33 -13t11 -34v-7.5t-1 -8.5l-22 -137q-5 -26 -15.5 -39t-42.5 -13h-152q-23 0 -33 9.5t-10 28.5v6.5t1 7.5l26 165l92 -54l-10 -64q-1 -5 -1 -8q0 -16 17 -16h7q23 0 26 24l13 89q1 5 1 8q0 18 -18 18h-45z" />
    <glyph glyph-name="oneeighth" unicode="&#x215b;" horiz-adv-x="619" 
d="M511 700l-436 -700h-83l437 700h82zM149 225h-147l28 37l63 395l-17 36l149 12l-28 -37l-64 -406zM570 476q43 0 43 -37q0 -10 -1 -15l-17 -110q-5 -29 -17.5 -43.5t-37.5 -18.5q42 -5 42 -46v-7.5t-1 -8.5l-22 -138q-5 -26 -15.5 -39t-42.5 -13h-161q-23 0 -33 9.5
t-10 28.5v6.5t1 7.5l22 138q5 31 19 45.5t43 16.5q-37 8 -37 46v7.5t1 8.5l17 110q4 26 15 39t43 13h149zM448 215q-11 0 -17 -6.5t-8 -17.5l-14 -91q-1 -4 -1 -8q0 -17 18 -17h13q22 0 25 24l13 90q1 4 1 8q0 18 -17 18h-13zM470 290q11 0 17 6.5t8 17.5l9 61q1 4 1 8
q0 18 -18 18h-7q-21 0 -24 -24l-10 -62q-1 -4 -1 -8q0 -17 18 -17h7z" />
    <glyph glyph-name="threeeighths" unicode="&#x215c;" horiz-adv-x="753" 
d="M645 700l-436 -700h-83l437 700h82zM704 476q43 0 43 -37q0 -10 -1 -15l-17 -110q-5 -29 -17.5 -43.5t-37.5 -18.5q42 -5 42 -46v-7.5t-1 -8.5l-22 -138q-5 -26 -15.5 -39t-42.5 -13h-161q-23 0 -33 9.5t-10 28.5v6.5t1 7.5l22 138q5 31 19 45.5t43 16.5q-37 8 -37 46
v7.5t1 8.5l17 110q4 26 15 39t43 13h149zM582 215q-11 0 -17 -6.5t-8 -17.5l-14 -91q-1 -4 -1 -8q0 -17 18 -17h13q22 0 25 24l13 90q1 4 1 8q0 18 -17 18h-13zM604 290q11 0 17 6.5t8 17.5l9 61q1 4 1 8q0 18 -18 18h-7q-21 0 -24 -24l-10 -62q-1 -4 -1 -8q0 -17 18 -17h7z
M146 514h43q23 0 26 23l9 62q1 5 1 7q0 19 -19 19h-3q-12 0 -17 -6.5t-7 -17.5l-6 -34l-108 -54l21 135q4 26 15 39t43 13h145q44 0 44 -37q0 -10 -1 -15l-17 -110q-5 -29 -18.5 -43.5t-39.5 -18.5q22 -2 33 -13t11 -34v-7.5t-1 -8.5l-22 -137q-5 -26 -15.5 -39t-42.5 -13
h-152q-23 0 -33 9.5t-10 28.5v6.5t1 7.5l26 165l92 -54l-10 -64q-1 -5 -1 -8q0 -16 17 -16h7q23 0 26 24l13 89q1 5 1 8q0 18 -18 18h-45z" />
    <glyph glyph-name="fiveeighths" unicode="&#x215d;" horiz-adv-x="753" 
d="M645 700l-436 -700h-83l437 700h82zM197 437q0 2 0.5 4t0.5 4q0 11 -6 17.5t-20 6.5h-112l59 194l-13 37h235l-17 -111l-67 36h-53l-23 -81h86q23 0 32.5 -9t9.5 -27v-7.5t-1 -8.5l-34 -216q-4 -26 -15 -39t-43 -13h-152q-23 0 -33 9.5t-10 28.5v6.5t1 7.5l26 164l92 -54
l-10 -63q-1 -3 -1 -8q0 -16 17 -16h7q21 0 26 24zM704 476q43 0 43 -37q0 -10 -1 -15l-17 -110q-5 -29 -17.5 -43.5t-37.5 -18.5q42 -5 42 -46v-7.5t-1 -8.5l-22 -138q-5 -26 -15.5 -39t-42.5 -13h-161q-23 0 -33 9.5t-10 28.5v6.5t1 7.5l22 138q5 31 19 45.5t43 16.5
q-37 8 -37 46v7.5t1 8.5l17 110q4 26 15 39t43 13h149zM582 215q-11 0 -17 -6.5t-8 -17.5l-14 -91q-1 -4 -1 -8q0 -17 18 -17h13q22 0 25 24l13 90q1 4 1 8q0 18 -17 18h-13zM604 290q11 0 17 6.5t8 17.5l9 61q1 4 1 8q0 18 -18 18h-7q-21 0 -24 -24l-10 -62q-1 -4 -1 -8
q0 -17 18 -17h7z" />
    <glyph glyph-name="seveneighths" unicode="&#x215e;" horiz-adv-x="669" 
d="M561 700l-436 -700h-83l437 700h82zM620 476q43 0 43 -37q0 -10 -1 -15l-17 -110q-5 -29 -17.5 -43.5t-37.5 -18.5q42 -5 42 -46v-7.5t-1 -8.5l-22 -138q-5 -26 -15.5 -39t-42.5 -13h-161q-23 0 -33 9.5t-10 28.5v6.5t1 7.5l22 138q5 31 19 45.5t43 16.5q-37 8 -37 46
v7.5t1 8.5l17 110q4 26 15 39t43 13h149zM498 215q-11 0 -17 -6.5t-8 -17.5l-14 -91q-1 -4 -1 -8q0 -17 18 -17h13q22 0 25 24l13 90q1 4 1 8q0 18 -17 18h-13zM520 290q11 0 17 6.5t8 17.5l9 61q1 4 1 8q0 18 -18 18h-7q-21 0 -24 -24l-10 -62q-1 -4 -1 -8q0 -17 18 -17h7z
M327 665l-184 -404l4 -37h-146l31 35l173 366h-68l-78 -36l17 111h275z" />
    <glyph glyph-name="partialdiff" unicode="&#x2202;" horiz-adv-x="436" 
d="M52 623q0 38 17.5 57.5t56.5 19.5h219q39 0 56.5 -19.5t17.5 -57.5v-546q0 -38 -17.5 -57.5t-56.5 -19.5h-229q-40 0 -57 19.5t-17 57.5v268q0 38 17 57.5t57 19.5h150v133q0 16 -7 25.5t-23 9.5h-6q-16 0 -23.5 -9.5t-7.5 -25.5v-114l-147 80v102zM236 110q16 0 23 9.5
t7 25.5v167h-28q-23 0 -33.5 -13t-10.5 -34v-120q0 -16 7.5 -25.5t23.5 -9.5h11z" />
    <glyph glyph-name="uni2206" unicode="&#x2206;" 
d="M-31 0l222 717l222 -717h-444zM191 367l-52 -257h103z" />
    <glyph glyph-name="product" unicode="&#x220f;" horiz-adv-x="459" 
d="M462 -110h-216l32 54v646h-72v-646l32 -54h-217l32 54v702l-32 54h441l-32 -54v-702z" />
    <glyph glyph-name="summation" unicode="&#x2211;" horiz-adv-x="409" 
d="M31 648l-31 52h414v-163l-107 53h-92l108 -295l-109 -295h93l107 53v-163h-414l31 52l139 353z" />
    <glyph glyph-name="minus" unicode="&#x2212;" 
d="M32 303v95h396v-95h-396z" />
    <glyph glyph-name="radical" unicode="&#x221a;" 
d="M27 260h111l36 -210l149 730h110l-202 -890h-112z" />
    <glyph glyph-name="integral" unicode="&#x222b;" horiz-adv-x="288" 
d="M66 -110l-45 85h54q24 0 24 22v705q0 42 19.5 60t64.5 18h55l53 -85h-53q-24 0 -24 -22v-705q0 -42 -20 -60t-65 -18h-63z" />
    <glyph glyph-name="approxequal" unicode="&#x2248;" 
d="M32 466q17 24 42.5 36t51.5 12q34 0 59.5 -8t48 -17t46 -17t53.5 -8q29 0 51.5 12t43.5 44v-105q-17 -24 -43 -36t-52 -12q-34 0 -59 8t-47.5 17t-46 17t-54.5 8q-29 0 -51.5 -12t-42.5 -44v105zM32 286q17 24 42.5 36t51.5 12q34 0 59.5 -8t48 -17t46 -17t53.5 -8
q29 0 51.5 12t43.5 44v-105q-17 -24 -43 -36t-52 -12q-34 0 -59 8t-47.5 17t-46 17t-54.5 8q-29 0 -51.5 -12t-42.5 -44v105z" />
    <glyph glyph-name="notequal" unicode="&#x2260;" 
d="M299 393l-41 -85h170v-95h-215l-42 -88h-99l42 88h-82v95h127l41 85h-168v95h214l42 87h99l-42 -87h83v-95h-129z" />
    <glyph glyph-name="lessequal" unicode="&#x2264;" 
d="M32 361v90l396 144v-104l-257 -85l257 -87v-103zM32 115v95h396v-95h-396z" />
    <glyph glyph-name="greaterequal" unicode="&#x2265;" 
d="M32 216v103l257 87l-257 85v104l396 -144v-90zM32 115v95h396v-95h-396z" />
    <glyph glyph-name="lozenge" unicode="&#x25ca;" 
d="M27 350l156 370h96l154 -370l-154 -370h-96zM138 350l92 -240l93 240l-93 240z" />
    <glyph glyph-name="glyph416" horiz-adv-x="309" 
d="M179 -71q-6 -37 -38 -55.5t-79 -18.5h-53l3 23q29 0 38.5 6.5t12.5 22.5h-34l9 61h147z" />
    <glyph glyph-name="F.aalt" horiz-adv-x="404" 
d="M222 403h74l63 27l-27 -170l-54 27h-74l-70 -442l-185 40l40 56l111 703l-23 56h386l-27 -172l-106 56h-79z" />
    <glyph glyph-name="H.aalt" horiz-adv-x="488" 
d="M435 0h-224l40 56l38 235h-84l-71 -446l-185 40l40 56l111 703l-23 56h224l-41 -56l-37 -237h84l37 237l-23 56h224l-41 -56l-93 -588z" />
    <glyph glyph-name="L.aalt" horiz-adv-x="398" 
d="M7 56l105 663l-23 56l199 40l-111 -699h74l123 56l-27 -172h-380z" />
    <glyph glyph-name="M.aalt" horiz-adv-x="681" 
d="M122 -155l-174 40l40 56l111 703l-23 56h300l-24 -56l-8 -313l91 313l-6 56h309l-41 -56l-93 -588l24 -56h-224l40 56l67 420l-160 -476h-121l-8 478z" />
    <glyph glyph-name="N.aalt" horiz-adv-x="494" 
d="M76 700h236l-23 -56l29 -295l46 295l-23 56h211l-41 -56l-101 -644h-154l-45 405l-89 -560l-174 40l40 56l111 703z" />
    <glyph glyph-name="P.aalt" horiz-adv-x="463" 
d="M77 700h354q67 0 67 -59q0 -5 -0.5 -11t-1.5 -12l-40 -252q-3 -20 -8.5 -35.5t-15.5 -26t-26 -15.5t-41 -5h-162l-69 -439l-185 40l40 56l111 703zM323 531q1 4 1 11q0 18 -9.5 30t-29.5 12h-34l-29 -184h34q23 0 36.5 15t17.5 38z" />
    <glyph glyph-name="U.aalt" horiz-adv-x="477" 
d="M181 155q-1 -3 -1 -9q0 -13 7 -21.5t22 -8.5h15q17 0 27 11t13 28l77 489l-23 56h219l-41 -56l-89 -562q-3 -20 -8.5 -35.5t-15 -26t-26 -15.5t-41.5 -5h-241q-68 0 -68 60q0 5 0.5 10.5t1.5 11.5l101 637l-23 56l199 40l-105 -660v0z" />
    <glyph glyph-name="f.aalt" horiz-adv-x="255" 
d="M125 -145l-169 40l37 51l80 504h-39l16 105h39l11 67q3 21 9 35.5t16.5 24t28 14t44.5 4.5h134l-20 -128l-39 23h-10q-26 0 -30 -24l-3 -16h60l-16 -105h-55z" />
    <glyph glyph-name="h.aalt" horiz-adv-x="424" 
d="M269 406q1 4 1 12q0 14 -7.5 23t-24.5 9h-28l-63 -399l22 -51h-206l38 51l90 568l-22 51l182 40l-25 -155h146q57 0 57 -49q0 -5 -0.5 -10.5t-1.5 -10.5l-87 -549l22 -51l-182 -40z" />
    <glyph glyph-name="i.aalt" horiz-adv-x="216" 
d="M169 0h-206l38 51l71 453l-22 51h176l-79 -504zM87 597l16 103h146l-16 -103h-146z" />
    <glyph glyph-name="j.aalt" horiz-adv-x="214" 
d="M70 504l-22 51h176l-110 -700l-169 40l37 51zM231 597h-146l16 103h146z" />
    <glyph glyph-name="m.aalt" horiz-adv-x="628" 
d="M473 406q1 4 1 12q0 14 -7.5 23t-24.5 9h-26l-62 -399l22 -51h-206l38 51l56 355q1 4 1 12q0 14 -7.5 23t-24.5 9h-25l-63 -399l22 -51h-206l38 51l71 453l-22 51h527q58 0 58 -49q0 -5 -0.5 -10.5t-1.5 -10.5l-87 -549l22 -51l-182 -40l89 561v0z" />
    <glyph glyph-name="n.aalt" horiz-adv-x="422" 
d="M267 406q1 4 1 12q0 14 -7.5 23t-24.5 9h-28l-63 -399l22 -51h-206l38 51l71 453l-22 51h321q58 0 58 -49q0 -5 -0.5 -10.5t-1.5 -10.5l-87 -549l22 -51l-182 -40z" />
    <glyph glyph-name="p.aalt" horiz-adv-x="420" 
d="M269 406q1 4 1 12q0 14 -7.5 23t-24.5 9h-28l-55 -345h28q20 0 31 12t14 32zM72 504l-22 51h322q57 0 57 -49q0 -5 -0.5 -10.5t-1.5 -10.5l-65 -415q-5 -35 -19.5 -52.5t-57.5 -17.5h-146l-9 -54l22 -51l-182 -40z" />
    <glyph glyph-name="q.aalt" horiz-adv-x="416" 
d="M195 0h-145q-58 0 -58 49q0 5 0.5 10t1.5 11l65 415q3 17 7 30t12 22t22 13.5t37 4.5h291l-96 -609l22 -51l-182 -40zM238 450q-20 0 -31 -12t-14 -32l-41 -257q-1 -4 -1 -12q0 -14 7.5 -23t24.5 -9h28l55 345h-28z" />
    <glyph glyph-name="u.aalt" horiz-adv-x="425" 
d="M380 0h-323q-58 0 -58 50q0 5 0.5 10t1.5 10l87 549l-22 51l182 40l-89 -561q-1 -4 -1 -11q0 -15 7.5 -24t24.5 -9h30l63 399l-22 51h176l-79 -504z" />
    </font>
</defs>
</svg>
